<?xml version="1.0" encoding="utf-8"?>
<COLLADA xmlns="http://www.collada.org/2005/11/COLLADASchema" version="1.4.1" xmlns:xsi="http://www.w3.org/2001/XMLSchema-instance">
  <asset>
    <contributor>
      <author>Blender User</author>
      <authoring_tool>Blender 4.3.2 commit date:2024-12-16, commit time:21:10, hash:32f5fdce0a0a</authoring_tool>
    </contributor>
    <created>2025-12-10T20:17:29</created>
    <modified>2025-12-10T20:17:29</modified>
    <unit name="meter" meter="1"/>
    <up_axis>Z_UP</up_axis>
  </asset>
  <library_effects>
    <effect id="brute_grenade-effect">
      <profile_COMMON>
        <newparam sid="brute_grenade_tif-surface">
          <surface type="2D">
            <init_from>brute_grenade_tif</init_from>
          </surface>
        </newparam>
        <newparam sid="brute_grenade_tif-sampler">
          <sampler2D>
            <source>brute_grenade_tif-surface</source>
          </sampler2D>
        </newparam>
        <technique sid="common">
          <lambert>
            <emission>
              <color sid="emission">0 0 0 1</color>
            </emission>
            <diffuse>
              <texture texture="brute_grenade_tif-sampler" texcoord="UVMap_0"/>
            </diffuse>
            <index_of_refraction>
              <float sid="ior">1.45</float>
            </index_of_refraction>
          </lambert>
        </technique>
      </profile_COMMON>
    </effect>
  </library_effects>
  <library_images>
    <image id="brute_grenade_tif" name="brute_grenade_tif">
      <init_from>brute_grenade.tif</init_from>
    </image>
  </library_images>
  <library_materials>
    <material id="brute_grenade-material" name="brute_grenade">
      <instance_effect url="#brute_grenade-effect"/>
    </material>
  </library_materials>
  <library_geometries>
    <geometry id="default_default-mesh" name="default:default">
      <mesh>
        <source id="default_default-mesh-positions">
          <float_array id="default_default-mesh-positions-array" count="282">0.8165932 3.47097 -4.450523 1.246898 0.9116389 -1.89119 0.909503 0.06341862 -2.241837 0.4422569 2.916123 -4.694889 -2.196059 -2.036156 -2.66039 0.9095039 -0.4187389 -2.241839 -0.6005521 6.031142 -7.010696 0.4422569 -3.271442 -4.694888 -0.6005521 -6.386459 -7.010693 0.4422569 3.715336 -3.895676 -1.107476 -3.442758 -4.066991 0.909503 -1.617605 -1.042972 0.909503 1.262286 -1.042971 -1.107477 3.08744 -4.066993 0.4422569 -4.070655 -3.895675 -2.19606 1.680837 -2.66039 1.246898 -1.266959 -1.891192 0.8165946 -3.826289 -4.450522 -24.86962 -0.177659 -0.8018949 -24.86962 -1.133235 -0.801895 -24.86962 -0.8533533 -0.1262008 -24.86962 -0.8533532 -1.477589 0.909503 -1.617604 -0.5608155 -24.67568 -1.001787 0.02223289 -11.60295 -1.62938 -0.8018944 -11.60295 -1.204181 0.2246274 -1.107477 -3.442758 2.463205 -24.67568 -1.343152 -0.801895 -11.60295 -1.204181 -1.828416 0.4422569 -4.070654 2.29189 -24.67568 -1.001787 -1.626023 -0.6005526 -6.38646 5.406908 -9.561215 -2.713127 -0.8018944 -9.561215 -1.970506 0.9909524 -2.19606 -2.036155 1.056603 -9.561215 -1.970505 -2.594741 0.4422569 -3.271441 3.091103 0.909503 -0.418737 0.638051 1.246898 -1.266957 0.2874045 0.8165937 -3.826288 2.846737 -0.9750881 -2.922411 -0.8018938 -0.9750881 -2.118492 1.138939 -2.19606 1.680837 1.056603 0.4422569 2.916124 3.091103 0.909503 0.06341832 0.6380533 -0.9750877 -2.118492 -2.742727 -1.107477 3.08744 2.463205 0.909503 1.262284 -0.5608139 1.309866 -0.177659 -0.8018932 1.309866 -1.468027 0.4884745 1.309866 -2.002514 -0.8018934 -0.600553 6.031143 5.406906 1.309866 -1.468027 -2.092261 1.095288 -2.234772 -0.8018935 0.4422569 3.715336 2.29189 1.095288 -1.632258 0.6527051 1.095288 -1.632257 -2.256492 1.246898 0.9116383 0.2874061 0.8165932 3.470971 2.846736 1.09529 -0.1776593 1.25522 1.309868 -0.1776593 1.022962 -0.9750881 -0.1776593 1.942859 -9.561215 -0.1776593 1.733574 -24.67568 -0.1776592 0.3635979 -11.60295 -0.1776593 0.649827 -24.86962 -0.1776592 0.1536808 1.09529 1.276939 0.6527057 1.09529 1.879454 -0.801893 1.309869 1.112709 0.4884745 1.309869 1.647197 -0.801893 -0.9750881 1.763174 1.13894 -0.9750881 2.567094 -0.8018932 -9.561215 1.615187 0.9909524 -9.561215 2.357809 -0.8018938 -24.67568 0.6464687 0.02223312 -11.60295 0.8488628 0.2246278 -24.67568 0.9878336 -0.8018947 -11.60295 1.274062 -0.801894 -24.86962 0.4980349 -0.1262005 -24.86962 0.7779166 -0.8018948 1.095291 1.27694 -2.256492 1.095291 -0.1776588 -2.859006 1.309869 1.112709 -2.092261 -24.86962 -0.1776589 -1.757471 1.309869 -0.1776588 -2.626749 -0.9750877 1.763174 -2.742726 -24.86962 0.4980351 -1.477589 -0.9750877 -0.1776588 -3.546646 -9.561215 1.615187 -2.594741 -11.60295 -0.1776588 -2.253615 -9.561215 -0.1776588 -3.337362 -24.67568 0.6464689 -1.626023 -24.67568 -0.1776589 -1.967387 -11.60295 0.848863 -1.828416</float_array>
          <technique_common>
            <accessor source="#default_default-mesh-positions-array" count="94" stride="3">
              <param name="X" type="float"/>
              <param name="Y" type="float"/>
              <param name="Z" type="float"/>
            </accessor>
          </technique_common>
        </source>
        <source id="default_default-mesh-normals">
          <float_array id="default_default-mesh-normals-array" count="390">0.9612182 0.1950117 -0.1950129 0.9784898 -0.1458732 0.1458732 0.9316082 -0.3391929 -0.1305922 0.7777352 -0.2759761 -0.56477 0.9316083 0.1305926 0.3391928 -0.2692686 -0.6229052 -0.7344955 -0.3086934 -0.6292995 -0.7132256 -0.3487849 -0.6376039 -0.6868845 -0.2113225 -0.6045112 -0.7680553 -0.350109 -0.6315215 -0.6918123 0.9312098 0.2577288 -0.2577292 0.7777361 0.5647694 0.275975 -0.4205778 -0.6415269 0.6415275 -0.308694 0.7132257 0.629299 -0.269269 0.7344956 0.6229048 -0.3487855 0.6868847 0.6376035 -0.2113229 0.7680557 0.6045107 -0.3501096 0.6918125 0.6315211 -1 1.10776e-6 0 -0.8991137 -0.4377154 1.05451e-6 -0.8991159 -0.3095054 0.3095114 -0.8991157 -0.3095089 -0.3095082 -0.3789059 -0.6543824 0.6543806 -0.2671044 -0.9636676 -2.50912e-6 -0.2671045 -0.6814177 0.6814141 -0.3789027 -0.9254366 -2.92005e-6 -0.2671043 -0.681414 -0.6814178 -0.3789051 -0.6543796 -0.654384 -0.2406362 -0.9706155 5.86773e-7 -0.2406362 -0.6863282 0.6863292 -0.2406361 -0.6863292 -0.6863284 0.1418504 -0.9898881 -5.52565e-6 0.1418502 -0.6999607 0.6999526 0.1418504 -0.6999529 -0.6999604 1 -8.10006e-7 0 0.8991172 -0.3095105 0.309502 0.8991172 -0.4377079 -5.83213e-6 0.8991174 -0.3095027 -0.3095095 0.5158349 -0.856688 9.59803e-6 0.5158348 -0.6057635 0.6057765 0.515835 -0.6057769 -0.6057629 -0.8991159 3.55088e-7 -0.4377107 -0.8991165 0.3095054 -0.3095092 -0.2671044 2.89591e-6 -0.9636677 -0.3789064 3.13603e-6 -0.925435 -0.2671042 0.6814179 -0.681414 -0.3789083 0.6543816 -0.65438 -0.2406361 -7.08556e-7 -0.9706155 -0.240636 0.6863282 -0.6863294 0.1418502 5.55815e-6 -0.9898881 0.1418503 0.6999606 -0.6999527 0.8991177 5.05731e-6 -0.4377071 0.8991176 0.3095097 -0.3095017 0.515835 -9.81679e-6 -0.856688 0.5158349 0.6057633 -0.6057765 -0.899115 0.4377124 -1.36655e-6 -0.8991159 0.3095098 0.3095066 -0.2671043 0.9636677 2.65789e-6 -0.3789055 0.9254355 2.75358e-6 -0.2671044 0.6814141 0.6814177 -0.3789061 0.6543799 0.6543831 -0.2406361 0.9706155 -7.74983e-7 -0.2406361 0.6863293 0.6863282 0.1418503 0.9898881 5.62316e-6 0.1418502 0.6999527 0.6999607 0.8991167 0.437709 6.06138e-6 0.899117 0.3095026 0.3095107 0.5158336 0.8566889 -9.31911e-6 0.515834 0.605777 0.6057637 -0.899116 3.08819e-6 0.4377107 -0.2671045 -2.64797e-6 0.9636676 -0.3789067 -2.61111e-6 0.925435 -0.2406362 7.74983e-7 0.9706154 0.1418502 -5.65566e-6 0.9898882 0.8991172 -6.54244e-6 0.4377081 0.5158344 9.22067e-6 0.8566884 0.9612182 0.1950125 0.195012 0.9784896 -0.1458733 -0.1458733 0.9316082 0.1305923 -0.3391929 0.7777355 0.5647696 -0.275976 0.9316083 -0.3391928 0.1305927 -0.2692683 0.7344955 -0.6229053 -0.3086933 0.7132255 -0.6292997 -0.3487848 0.6868844 -0.6376041 -0.2113225 0.7680553 -0.6045113 -0.350109 0.6918122 -0.6315217 0.9312099 0.2577276 0.2577303 0.7777358 -0.2759751 0.5647698 -0.4205775 -0.6415276 -0.6415271 -0.3086942 -0.6292988 0.7132258 -0.2692692 -0.6229046 0.7344958 -0.3487858 -0.6376033 0.6868847 -0.211323 -0.6045105 0.7680558 -0.3501101 -0.6315208 0.6918125 0.9612183 -0.1950122 0.1950125 0.9784897 0.1458732 -0.1458734 0.9316083 0.3391928 0.1305923 0.7777352 0.2759761 0.5647701 0.9316083 -0.1305927 -0.3391927 -0.2692688 0.622905 0.7344955 -0.3086936 0.6292993 0.7132256 -0.3487853 0.6376039 0.6868844 -0.2113227 0.604511 0.7680556 -0.3501092 0.6315214 0.6918123 0.9312098 -0.2577288 0.257729 0.7777355 -0.56477 -0.2759755 -0.4205775 0.6415271 -0.6415275 -0.3086937 -0.7132257 -0.629299 -0.2692688 -0.7344957 -0.6229048 -0.3487853 -0.6868847 -0.6376036 -0.2113229 -0.7680556 -0.6045108 -0.3501095 -0.6918125 -0.6315211 0.9612182 -0.1950128 -0.195012 0.9784896 0.1458731 0.1458737 0.931608 -0.1305928 0.3391934 0.7777345 -0.5647709 0.2759766 0.9316084 0.3391926 -0.1305921 -0.2692689 -0.7344956 0.622905 -0.3086938 -0.7132257 0.6292991 -0.3487854 -0.6868846 0.6376036 -0.2113228 -0.7680555 0.6045109 -0.3501095 -0.6918125 0.6315211 0.9312098 -0.2577288 -0.2577293 0.777735 0.2759761 -0.5647702 -0.4205776 0.6415277 0.6415269 -0.3086939 0.6292991 -0.7132256 -0.2692688 0.6229048 -0.7344956 -0.3487857 0.6376037 -0.6868844 -0.2113226 0.6045108 -0.7680558 -0.3501099 0.6315212 -0.6918122</float_array>
          <technique_common>
            <accessor source="#default_default-mesh-normals-array" count="130" stride="3">
              <param name="X" type="float"/>
              <param name="Y" type="float"/>
              <param name="Z" type="float"/>
            </accessor>
          </technique_common>
        </source>
        <source id="default_default-mesh-map-0">
          <float_array id="default_default-mesh-map-0-array" count="1008">0.46875 0.2109375 0.9375 0.2109375 0.96875 0.2421875 0.96875 0.2421875 0.46875 0.234375 0.46875 0.2109375 0.9375 0.2109375 0.96875 0.1796875 0.96875 0.2421875 0.96875 0.1171875 0.5 0.0546875 0.46875 0.109375 0.5 0.0546875 0.96875 0.1171875 0.71875 0.0078125 0.03125 0.0859375 0.46875 0.109375 0.5 0.0546875 0.03125 0.2109375 0.46875 0.2109375 0.46875 0.234375 0.9375 0.2109375 0.46875 0.2109375 0.96875 0.1796875 0.46875 0.1875 0.96875 0.1796875 0.46875 0.2109375 1.1875 0.2109375 0.96875 0.2421875 0.96875 0.1796875 0.5 0.0546875 0.96875 0.1171875 0.46875 0.109375 0.96875 0.1171875 0.5 0.0546875 0.71875 0.0078125 0.46875 0.109375 0.03125 0.0859375 0.5 0.0546875 0.46875 0.2109375 0.03125 0.2109375 0.46875 0.1875 0.5 0.2578125 0.5 0.2734375 0.03125 0.2734375 0.5 0.2578125 0.96875 0.2734375 0.5 0.2734375 0.03125 0.2890625 0.5 0.546875 0.03125 0.546875 0.03125 0.2890625 0.5 0.2890625 0.5 0.546875 0.5 0.2890625 0.96875 0.546875 0.5 0.546875 0.5 0.2890625 0.96875 0.2890625 0.96875 0.546875 0.03125 0.546875 0.5 0.609375 0.03125 0.609375 0.03125 0.546875 0.5 0.546875 0.5 0.609375 0.5 0.546875 0.96875 0.609375 0.5 0.609375 0.5 0.546875 0.96875 0.546875 0.96875 0.609375 0.03125 0.609375 0.5 0.890625 0.03125 0.890625 0.03125 0.609375 0.5 0.609375 0.5 0.890625 0.5 0.609375 0.96875 0.890625 0.5 0.890625 0.5 0.609375 0.96875 0.609375 0.96875 0.890625 0.5 0.9921875 0.03125 0.9765625 0.5 0.9765625 0.5 0.9921875 0.5 0.9765625 0.96875 0.9765625 0.03125 0.890625 0.5 0.890625 0.5 0.9609375 0.5 0.9609375 0.03125 0.9609375 0.03125 0.890625 0.5 0.890625 0.96875 0.890625 0.96875 0.9609375 0.96875 0.9609375 0.5 0.9609375 0.5 0.890625 0.03125 0.9609375 0.5 0.9609375 0.5 0.9765625 0.5 0.9765625 0.03125 0.9765625 0.03125 0.9609375 0.5 0.9609375 0.96875 0.9609375 0.96875 0.9765625 0.96875 0.9765625 0.5 0.9765625 0.5 0.9609375 0.5 0.2890625 0.03125 0.2890625 0.03125 0.2734375 0.03125 0.2734375 0.5 0.2734375 0.5 0.2890625 0.96875 0.2890625 0.5 0.2890625 0.5 0.2734375 0.5 0.2734375 0.96875 0.2734375 0.96875 0.2890625 0.5 0.2578125 0.5 0.2734375 0.96875 0.2734375 0.5 0.2578125 0.03125 0.2734375 0.5 0.2734375 0.96875 0.2890625 0.5 0.546875 0.96875 0.546875 0.96875 0.2890625 0.5 0.2890625 0.5 0.546875 0.5 0.2890625 0.03125 0.546875 0.5 0.546875 0.5 0.2890625 0.03125 0.2890625 0.03125 0.546875 0.96875 0.546875 0.5 0.609375 0.96875 0.609375 0.96875 0.546875 0.5 0.546875 0.5 0.609375 0.5 0.546875 0.03125 0.609375 0.5 0.609375 0.5 0.546875 0.03125 0.546875 0.03125 0.609375 0.96875 0.609375 0.5 0.890625 0.96875 0.890625 0.96875 0.609375 0.5 0.609375 0.5 0.890625 0.5 0.609375 0.03125 0.890625 0.5 0.890625 0.5 0.609375 0.03125 0.609375 0.03125 0.890625 0.5 0.9921875 0.96875 0.9765625 0.5 0.9765625 0.5 0.9921875 0.5 0.9765625 0.03125 0.9765625 0.96875 0.890625 0.5 0.890625 0.5 0.9609375 0.5 0.9609375 0.96875 0.9609375 0.96875 0.890625 0.5 0.890625 0.03125 0.890625 0.03125 0.9609375 0.03125 0.9609375 0.5 0.9609375 0.5 0.890625 0.96875 0.9609375 0.5 0.9609375 0.5 0.9765625 0.5 0.9765625 0.96875 0.9765625 0.96875 0.9609375 0.5 0.9609375 0.03125 0.9609375 0.03125 0.9765625 0.03125 0.9765625 0.5 0.9765625 0.5 0.9609375 0.5 0.2890625 0.96875 0.2890625 0.96875 0.2734375 0.96875 0.2734375 0.5 0.2734375 0.5 0.2890625 0.03125 0.2890625 0.5 0.2890625 0.5 0.2734375 0.5 0.2734375 0.03125 0.2734375 0.03125 0.2890625 0.5 0.2578125 0.5 0.2734375 0.03125 0.2734375 0.5 0.2578125 0.96875 0.2734375 0.5 0.2734375 0.03125 0.2890625 0.5 0.546875 0.03125 0.546875 0.03125 0.2890625 0.5 0.2890625 0.5 0.546875 0.5 0.2890625 0.96875 0.546875 0.5 0.546875 0.5 0.2890625 0.96875 0.2890625 0.96875 0.546875 0.03125 0.546875 0.5 0.609375 0.03125 0.609375 0.03125 0.546875 0.5 0.546875 0.5 0.609375 0.5 0.546875 0.96875 0.609375 0.5 0.609375 0.5 0.546875 0.96875 0.546875 0.96875 0.609375 0.03125 0.609375 0.5 0.890625 0.03125 0.890625 0.03125 0.609375 0.5 0.609375 0.5 0.890625 0.5 0.609375 0.96875 0.890625 0.5 0.890625 0.5 0.609375 0.96875 0.609375 0.96875 0.890625 0.5 0.9921875 0.03125 0.9765625 0.5 0.9765625 0.5 0.9921875 0.5 0.9765625 0.96875 0.9765625 0.03125 0.890625 0.5 0.890625 0.5 0.9609375 0.5 0.9609375 0.03125 0.9609375 0.03125 0.890625 0.5 0.890625 0.96875 0.890625 0.96875 0.9609375 0.96875 0.9609375 0.5 0.9609375 0.5 0.890625 0.03125 0.9609375 0.5 0.9609375 0.5 0.9765625 0.5 0.9765625 0.03125 0.9765625 0.03125 0.9609375 0.5 0.9609375 0.96875 0.9609375 0.96875 0.9765625 0.96875 0.9765625 0.5 0.9765625 0.5 0.9609375 0.5 0.2890625 0.03125 0.2890625 0.03125 0.2734375 0.03125 0.2734375 0.5 0.2734375 0.5 0.2890625 0.96875 0.2890625 0.5 0.2890625 0.5 0.2734375 0.5 0.2734375 0.96875 0.2734375 0.96875 0.2890625 0.5 0.2578125 0.5 0.2734375 0.96875 0.2734375 0.5 0.2578125 0.03125 0.2734375 0.5 0.2734375 0.96875 0.2890625 0.5 0.546875 0.96875 0.546875 0.96875 0.2890625 0.5 0.2890625 0.5 0.546875 0.5 0.2890625 0.03125 0.546875 0.5 0.546875 0.5 0.2890625 0.03125 0.2890625 0.03125 0.546875 0.96875 0.546875 0.5 0.609375 0.96875 0.609375 0.96875 0.546875 0.5 0.546875 0.5 0.609375 0.5 0.546875 0.03125 0.609375 0.5 0.609375 0.5 0.546875 0.03125 0.546875 0.03125 0.609375 0.96875 0.609375 0.5 0.890625 0.96875 0.890625 0.96875 0.609375 0.5 0.609375 0.5 0.890625 0.5 0.609375 0.03125 0.890625 0.5 0.890625 0.5 0.609375 0.03125 0.609375 0.03125 0.890625 0.5 0.9921875 0.96875 0.9765625 0.5 0.9765625 0.5 0.9921875 0.5 0.9765625 0.03125 0.9765625 0.96875 0.890625 0.5 0.890625 0.5 0.9609375 0.5 0.9609375 0.96875 0.9609375 0.96875 0.890625 0.5 0.890625 0.03125 0.890625 0.03125 0.9609375 0.03125 0.9609375 0.5 0.9609375 0.5 0.890625 0.96875 0.9609375 0.5 0.9609375 0.5 0.9765625 0.5 0.9765625 0.96875 0.9765625 0.96875 0.9609375 0.5 0.9609375 0.03125 0.9609375 0.03125 0.9765625 0.03125 0.9765625 0.5 0.9765625 0.5 0.9609375 0.5 0.2890625 0.96875 0.2890625 0.96875 0.2734375 0.96875 0.2734375 0.5 0.2734375 0.5 0.2890625 0.03125 0.2890625 0.5 0.2890625 0.5 0.2734375 0.5 0.2734375 0.03125 0.2734375 0.03125 0.2890625 0.46875 0.2109375 0.9375 0.2109375 0.96875 0.2421875 0.96875 0.2421875 0.46875 0.234375 0.46875 0.2109375 0.9375 0.2109375 0.96875 0.1796875 0.96875 0.2421875 0.96875 0.1171875 0.5 0.0546875 0.46875 0.109375 0.5 0.0546875 0.96875 0.1171875 0.71875 0.0078125 0.03125 0.0859375 0.46875 0.109375 0.5 0.0546875 0.03125 0.2109375 0.46875 0.2109375 0.46875 0.234375 0.9375 0.2109375 0.46875 0.2109375 0.96875 0.1796875 0.46875 0.1875 0.96875 0.1796875 0.46875 0.2109375 1.1875 0.2109375 0.96875 0.2421875 0.96875 0.1796875 0.5 0.0546875 0.96875 0.1171875 0.46875 0.109375 0.96875 0.1171875 0.5 0.0546875 0.71875 0.0078125 0.46875 0.109375 0.03125 0.0859375 0.5 0.0546875 0.46875 0.2109375 0.03125 0.2109375 0.46875 0.1875 0.46875 0.2109375 0.9375 0.2109375 0.96875 0.2421875 0.96875 0.2421875 0.46875 0.234375 0.46875 0.2109375 0.9375 0.2109375 0.96875 0.1796875 0.96875 0.2421875 0.96875 0.1171875 0.5 0.0546875 0.46875 0.109375 0.5 0.0546875 0.96875 0.1171875 0.71875 0.0078125 0.03125 0.0859375 0.46875 0.109375 0.5 0.0546875 0.03125 0.2109375 0.46875 0.2109375 0.46875 0.234375 0.9375 0.2109375 0.46875 0.2109375 0.96875 0.1796875 0.46875 0.1875 0.96875 0.1796875 0.46875 0.2109375 1.1875 0.2109375 0.96875 0.2421875 0.96875 0.1796875 0.5 0.0546875 0.96875 0.1171875 0.46875 0.109375 0.96875 0.1171875 0.5 0.0546875 0.71875 0.0078125 0.46875 0.109375 0.03125 0.0859375 0.5 0.0546875 0.46875 0.2109375 0.03125 0.2109375 0.46875 0.1875 0.46875 0.2109375 0.9375 0.2109375 0.96875 0.2421875 0.96875 0.2421875 0.46875 0.234375 0.46875 0.2109375 0.9375 0.2109375 0.96875 0.1796875 0.96875 0.2421875 0.96875 0.1171875 0.5 0.0546875 0.46875 0.109375 0.5 0.0546875 0.96875 0.1171875 0.71875 0.0078125 0.03125 0.0859375 0.46875 0.109375 0.5 0.0546875 0.03125 0.2109375 0.46875 0.2109375 0.46875 0.234375 0.9375 0.2109375 0.46875 0.2109375 0.96875 0.1796875 0.46875 0.1875 0.96875 0.1796875 0.46875 0.2109375 1.1875 0.2109375 0.96875 0.2421875 0.96875 0.1796875 0.5 0.0546875 0.96875 0.1171875 0.46875 0.109375 0.96875 0.1171875 0.5 0.0546875 0.71875 0.0078125 0.46875 0.109375 0.03125 0.0859375 0.5 0.0546875 0.46875 0.2109375 0.03125 0.2109375 0.46875 0.1875</float_array>
          <technique_common>
            <accessor source="#default_default-mesh-map-0-array" count="504" stride="2">
              <param name="S" type="float"/>
              <param name="T" type="float"/>
            </accessor>
          </technique_common>
        </source>
        <vertices id="default_default-mesh-vertices">
          <input semantic="POSITION" source="#default_default-mesh-positions"/>
        </vertices>
        <triangles material="brute_grenade-material" count="168">
          <input semantic="VERTEX" source="#default_default-mesh-vertices" offset="0"/>
          <input semantic="NORMAL" source="#default_default-mesh-normals" offset="1"/>
          <input semantic="TEXCOORD" source="#default_default-mesh-map-0" offset="2" set="0"/>
          <p>0 0 0 1 1 1 2 2 2 2 2 3 3 3 4 0 0 5 1 1 6 12 4 7 2 2 8 2 5 9 13 6 10 3 7 11 13 6 12 2 5 13 15 8 14 6 9 15 3 7 16 13 6 17 6 10 18 0 0 19 3 3 20 1 1 21 0 0 22 12 4 23 9 11 24 12 4 25 0 0 26 15 12 27 2 12 28 12 12 29 13 13 30 12 14 31 9 15 32 12 14 33 13 13 34 15 16 35 9 15 36 6 17 37 13 13 38 0 0 39 6 10 40 9 11 41 18 18 42 19 19 43 20 20 44 18 18 45 21 21 46 19 19 47 23 22 48 24 23 49 25 24 50 23 22 51 27 25 52 24 23 53 27 25 54 28 26 55 24 23 56 27 25 57 30 27 58 28 26 59 25 24 60 32 28 61 33 29 62 25 24 63 24 23 64 32 28 65 24 23 66 35 30 67 32 28 68 24 23 69 28 26 70 35 30 71 33 29 72 40 31 73 41 32 74 33 29 75 32 28 76 40 31 77 32 28 78 45 33 79 40 31 80 32 28 81 35 30 82 45 33 83 48 34 84 49 35 85 50 36 86 48 34 87 50 36 88 52 37 89 41 32 90 40 31 91 53 38 92 53 38 93 55 39 94 41 32 95 40 31 96 45 33 97 56 40 98 56 40 99 53 38 100 40 31 101 55 39 102 53 38 103 50 36 104 50 36 105 49 35 106 55 39 107 53 38 108 56 40 109 52 37 110 52 37 111 50 36 112 53 38 113 27 25 114 23 22 115 20 20 116 20 20 117 19 19 118 27 25 119 30 27 120 27 25 121 19 19 122 19 19 123 21 21 124 30 27 125 18 18 126 83 41 127 21 21 128 18 18 129 86 42 130 83 41 131 30 27 132 89 43 133 28 26 134 30 27 135 92 44 136 89 43 137 92 44 138 93 45 139 89 43 140 92 44 141 91 46 142 93 45 143 28 26 144 90 47 145 35 30 146 28 26 147 89 43 148 90 47 149 89 43 150 88 48 151 90 47 152 89 43 153 93 45 154 88 48 155 35 30 156 87 49 157 45 33 158 35 30 159 90 47 160 87 49 161 90 47 162 85 50 163 87 49 164 90 47 165 88 48 166 85 50 167 48 34 168 52 37 169 84 51 170 48 34 171 84 51 172 82 52 173 45 33 174 87 49 175 81 53 176 81 53 177 56 40 178 45 33 179 87 49 180 85 50 181 80 54 182 80 54 183 81 53 184 87 49 185 56 40 186 81 53 187 84 51 188 84 51 189 52 37 190 56 40 191 81 53 192 80 54 193 82 52 194 82 52 195 84 51 196 81 53 197 92 44 198 30 27 199 21 21 200 21 21 201 83 41 202 92 44 203 91 46 204 92 44 205 83 41 206 83 41 207 86 42 208 91 46 209 18 18 210 79 55 211 86 42 212 18 18 213 78 56 214 79 55 215 91 46 216 77 57 217 93 45 218 91 46 219 76 58 220 77 57 221 76 58 222 75 59 223 77 57 224 76 58 225 74 60 226 75 59 227 93 45 228 73 61 229 88 48 230 93 45 231 77 57 232 73 61 233 77 57 234 72 62 235 73 61 236 77 57 237 75 59 238 72 62 239 88 48 240 71 63 241 85 50 242 88 48 243 73 61 244 71 63 245 73 61 246 70 64 247 71 63 248 73 61 249 72 62 250 70 64 251 48 34 252 82 52 253 69 65 254 48 34 255 69 65 256 68 66 257 85 50 258 71 63 259 67 67 260 67 67 261 80 54 262 85 50 263 71 63 264 70 64 265 66 68 266 66 68 267 67 67 268 71 63 269 80 54 270 67 67 271 69 65 272 69 65 273 82 52 274 80 54 275 67 67 276 66 68 277 68 66 278 68 66 279 69 65 280 67 67 281 76 58 282 91 46 283 86 42 284 86 42 285 79 55 286 76 58 287 74 60 288 76 58 289 79 55 290 79 55 291 78 56 292 74 60 293 18 18 294 65 69 295 78 56 296 18 18 297 20 20 298 65 69 299 74 60 300 64 70 301 75 59 302 74 60 303 63 71 304 64 70 305 63 71 306 25 24 307 64 70 308 63 71 309 23 22 310 25 24 311 75 59 312 62 72 313 72 62 314 75 59 315 64 70 316 62 72 317 64 70 318 33 29 319 62 72 320 64 70 321 25 24 322 33 29 323 72 62 324 61 73 325 70 64 326 72 62 327 62 72 328 61 73 329 62 72 330 41 32 331 61 73 332 62 72 333 33 29 334 41 32 335 48 34 336 68 66 337 60 74 338 48 34 339 60 74 340 49 35 341 70 64 342 61 73 343 59 75 344 59 75 345 66 68 346 70 64 347 61 73 348 41 32 349 55 39 350 55 39 351 59 75 352 61 73 353 66 68 354 59 75 355 60 74 356 60 74 357 68 66 358 66 68 359 59 75 360 55 39 361 49 35 362 49 35 363 60 74 364 59 75 365 63 71 366 74 60 367 78 56 368 78 56 369 65 69 370 63 71 371 23 22 372 63 71 373 65 69 374 65 69 375 20 20 376 23 22 377 58 76 378 57 77 379 47 78 380 47 78 381 54 79 382 58 76 383 57 77 384 44 80 385 47 78 386 47 81 387 46 82 388 54 83 389 46 82 390 47 81 391 42 84 392 51 85 393 54 83 394 46 82 395 51 86 396 58 76 397 54 79 398 57 77 399 58 76 400 44 80 401 43 87 402 44 80 403 58 76 404 42 88 405 47 88 406 44 88 407 46 89 408 44 90 409 43 91 410 44 90 411 46 89 412 42 92 413 43 91 414 51 93 415 46 89 416 58 76 417 51 86 418 43 87 419 39 94 420 38 95 421 37 96 422 37 96 423 36 97 424 39 94 425 38 95 426 22 98 427 37 96 428 37 99 429 26 100 430 36 101 431 26 100 432 37 99 433 34 102 434 31 103 435 36 101 436 26 100 437 31 104 438 39 94 439 36 97 440 38 95 441 39 94 442 22 98 443 29 105 444 22 98 445 39 94 446 34 106 447 37 106 448 22 106 449 26 107 450 22 108 451 29 109 452 22 108 453 26 107 454 34 110 455 29 109 456 31 111 457 26 107 458 39 94 459 31 104 460 29 105 461 17 112 462 16 113 463 11 114 464 11 114 465 14 115 466 17 112 467 16 113 468 5 116 469 11 114 470 11 117 471 10 118 472 14 119 473 10 118 474 11 117 475 4 120 476 8 121 477 14 119 478 10 118 479 8 122 480 17 112 481 14 115 482 16 113 483 17 112 484 5 116 485 7 123 486 5 116 487 17 112 488 4 124 489 11 124 490 5 124 491 10 125 492 5 126 493 7 127 494 5 126 495 10 125 496 4 128 497 7 127 498 8 129 499 10 125 500 17 112 501 8 122 502 7 123 503</p>
        </triangles>
      </mesh>
    </geometry>
  </library_geometries>
  <library_controllers/>
  <library_visual_scenes>
    <visual_scene id="Scene" name="Scene">
      <node id="Armature" name="Armature" type="NODE">
        <matrix sid="transform">1 0 0 0 0 1 0 0 0 0 1 0 0 0 0 1</matrix>
        <node id="Armature_claymore_grenade" name="claymore_grenade" sid="claymore_grenade" type="JOINT">
          <matrix sid="transform">1 0 0 0 0 1 0 0 0 0 1 0 0 0 0 1</matrix>
          <extra>
            <technique profile="blender">
              <tip_x sid="tip_x" type="float">0</tip_x>
              <tip_y sid="tip_y" type="float">100</tip_y>
              <tip_z sid="tip_z" type="float">0</tip_z>
            </technique>
          </extra>
        </node>
        <node id="default_default" name="default:default" type="NODE">
          <matrix sid="transform">1 0 0 0 0 1 0 0 0 0 1 0 0 0 0 1</matrix>
          <instance_geometry url="#default_default-mesh" name="default:default">
            <bind_material>
              <technique_common>
                <instance_material symbol="brute_grenade-material" target="#brute_grenade-material">
                  <bind_vertex_input semantic="UVMap_0" input_semantic="TEXCOORD" input_set="0"/>
                </instance_material>
              </technique_common>
            </bind_material>
          </instance_geometry>
        </node>
      </node>
    </visual_scene>
  </library_visual_scenes>
  <scene>
    <instance_visual_scene url="#Scene"/>
  </scene>
</COLLADA>