<?xml version="1.0" encoding="utf-8"?>
<COLLADA xmlns="http://www.collada.org/2005/11/COLLADASchema" version="1.4.1" xmlns:xsi="http://www.w3.org/2001/XMLSchema-instance">
  <asset>
    <contributor>
      <author>Blender User</author>
      <authoring_tool>Blender 4.3.2 commit date:2024-12-16, commit time:21:10, hash:32f5fdce0a0a</authoring_tool>
    </contributor>
    <created>2025-12-09T17:09:05</created>
    <modified>2025-12-09T17:09:05</modified>
    <unit name="meter" meter="1"/>
    <up_axis>Z_UP</up_axis>
  </asset>
  <library_effects>
    <effect id="h_turret_mp_gun-effect">
      <profile_COMMON>
        <technique sid="common">
          <lambert>
            <emission>
              <color sid="emission">0 0 0 1</color>
            </emission>
            <diffuse>
              <color sid="diffuse">0.8 0.8 0.8 1</color>
            </diffuse>
            <index_of_refraction>
              <float sid="ior">1.5</float>
            </index_of_refraction>
          </lambert>
        </technique>
      </profile_COMMON>
    </effect>
  </library_effects>
  <library_images/>
  <library_materials>
    <material id="h_turret_mp_gun-material" name="h_turret_mp_gun">
      <instance_effect url="#h_turret_mp_gun-effect"/>
    </material>
  </library_materials>
  <library_geometries>
    <geometry id="standard_standard-mesh" name="standard:standard">
      <mesh>
        <source id="standard_standard-mesh-positions">
          <float_array id="standard_standard-mesh-positions-array" count="1470">-7.060944 0.6385146 4.691874 -7.292536 0.04370629 4.105991 -2.464411 0.6385143 4.684912 -2.466394 0.04370623 4.073294 0.6590277 0.6385141 5.088316 1.535096 0.04370534 4.105154 4.657253 0.1966315 5.766457 4.61633 0.04370528 5.09424 9.534383 0.04370445 5.088316 4.615455 0.04370474 3.405973 10.42825 0.04370355 3.397171 4.614387 0.4576004 2.41778 10.42736 0.4575222 2.417597 4.661967 0.6385138 6.059406 9.537987 0.6385135 6.049524 9.534382 0.1966309 5.766457 10.43066 0.04370367 5.09557 1.348706 0.04370516 3.383684 -2.464123 0.04370599 3.40383 -7.812835 0.198356 2.7896 9.534536 0.4685677 5.699388 13.23932 0.4685685 5.706858 9.53916 0.4685672 4.398006 13.24395 0.4685684 4.401735 13.23932 0.4685685 5.706858 13.41274 0.6385135 5.549086 13.24395 0.4685684 4.401735 13.4139 0.6385135 4.401911 13.24435 1.530721 4.404137 13.41324 1.360776 4.397966 13.23932 1.530722 5.706858 13.41319 1.360776 5.550776 13.23932 0.4685685 5.706858 13.41274 0.6385135 5.549086 9.534536 0.4685677 5.699388 9.536971 0.6385124 5.881926 13.07309 0.6385135 5.890665 13.07289 1.360776 5.889988 9.537663 1.360775 5.885073 9.542219 4.121533 4.788136 9.872683 4.121533 4.788973 9.453372 1.743154 4.876801 9.961506 1.743154 4.877825 9.453372 1.743154 4.876801 9.454396 1.743154 4.368656 9.543052 4.121533 4.457672 9.873517 4.121533 4.458504 9.543052 4.121533 4.457672 9.962531 1.743154 4.369675 9.454396 1.743154 4.368656 9.872683 4.121533 4.788973 9.542219 4.121533 4.788136 9.873517 4.121533 4.458504 9.543052 4.121533 4.457672 -9.681778 0.6726627 1.154743 -10.14981 0.6213102 1.587929 -8.382976 0.4575219 1.316036 -8.383227 0.393203 1.901108 -7.673584 0.7119686 1.801409 13.07289 1.360776 5.889988 9.534535 1.53072 5.699388 13.23932 1.530722 5.706858 9.53916 1.53072 4.398001 13.24435 1.530721 4.404137 -10.63374 0.2780965 5.233839 -8.386418 0.04370599 5.068018 -8.386796 0.04370623 6.082298 -7.968848 0.33366 5.222836 -7.969568 0.3336601 5.932083 -9.362542 0.2780964 6.424572 -10.45149 0.2780964 6.222372 -7.673584 1.287179 1.801409 -8.383227 1.605957 1.901108 -8.38296 1.541614 1.316141 -10.14981 1.377826 1.587929 -9.681778 1.326473 1.154743 -10.14981 1.377826 1.587929 -10.14981 0.6213102 1.587929 -10.63374 1.721198 5.233839 -10.63374 0.2780965 5.233839 -10.45123 1.721197 6.221424 -10.45149 0.2780964 6.222372 -7.01418 0.9996462 3.657877 -7.198345 1.437135 3.257715 -8.55513 0.9996462 4.374542 -8.739232 1.437135 3.976074 -8.55513 0.9996462 4.374542 -8.739232 0.5621572 3.976074 -7.01418 0.9996462 3.657877 -7.198345 0.5621572 3.257715 -6.799222 0.9996461 3.702204 -6.708864 0.7872151 3.894463 -8.854819 0.9996462 4.668323 -8.76446 0.7872151 4.860582 -6.708864 1.212077 3.894463 -6.799222 0.9996461 3.702204 -8.76446 1.212077 4.860582 -8.854819 0.9996462 4.668323 5.464647 -1.428654 5.568031 5.464647 -6.304761 5.568031 5.818591 -6.399755 5.797111 5.463483 -6.525011 5.348339 5.816977 -6.75409 5.442776 5.462265 -6.525011 4.206793 5.81575 -6.75409 4.206348 -8.76446 1.212077 4.860582 -6.708864 1.212077 3.894463 -8.67305 0.9996461 5.049953 -6.618089 0.9996461 4.084398 -8.76446 0.7872151 4.860582 -6.708864 0.7872151 3.894463 -7.198345 1.437135 3.257715 -8.739232 1.437135 3.976074 -7.383165 0.9996461 2.864508 -8.924111 0.9996461 3.581171 -7.198345 0.5621572 3.257715 -8.739232 0.5621572 3.976074 -8.88979 0.9996461 2.235483 -6.653386 0.9996462 2.632139 -8.852694 0.7872151 2.02631 -6.616286 0.7872151 2.422972 -8.815846 0.9996461 1.814318 -6.579242 0.9996461 2.211479 -8.815846 0.9996461 1.814318 -6.579242 0.9996461 2.211479 -8.852694 1.212077 2.02631 -6.616286 1.212077 2.422972 -8.88979 0.9996461 2.235483 -6.653386 0.9996462 2.632139 4.614411 0.2204479 -0.5850659 7.022531 0.2204479 -0.5850659 4.614411 0.220448 3.199253 7.022531 0.220448 3.199253 4.437669 0.04370516 3.375996 7.199274 0.04370516 3.375998 4.437669 0.04370516 4.924988 7.199274 0.04370516 4.924988 4.61633 0.04370528 5.09424 7.022531 0.04370528 5.088312 10.32678 0.4167346 2.183228 10.32572 -0.06250667 3.351959 10.66993 0.5560892 1.842382 20.20112 0.2780967 2.524635 19.01509 0.5560891 1.850792 10.32678 1.582945 2.183228 10.32572 2.061804 3.351957 10.66993 1.442985 1.842382 20.20112 1.721198 2.524633 19.01509 1.442985 1.850792 25.14789 2.061801 4.424791 10.3226 2.061804 4.424791 25.04189 1.955585 4.297333 10.42903 1.955588 4.297333 25.14832 2.061801 4.169872 10.32303 2.062152 4.169868 25.15076 2.0618 3.365025 25.15178 1.721194 2.51586 25.57507 1.721195 3.254164 25.57551 1.721194 3.6257 -10.45123 1.721197 6.221424 -10.45149 0.2780964 6.222372 -9.362542 1.721198 6.424572 -9.362542 0.2780964 6.424572 -8.386864 1.955586 6.082691 -8.386796 0.04370623 6.082298 -7.969568 0.3336601 5.932083 -7.969568 1.665632 5.932085 -7.968848 0.33366 5.222836 -7.968848 1.665632 5.222836 -8.386418 0.04370599 5.068018 -8.386418 1.955586 5.06802 -8.383227 0.393203 1.901108 -8.383227 1.605957 1.901108 -7.673584 0.7119686 1.801409 -7.673584 1.287179 1.801409 31.11587 1.481441 4.268028 29.14595 1.594455 4.289816 31.1134 1.340327 3.949137 29.14595 1.42024 3.869225 31.11522 0.9996473 3.786234 29.14595 0.9996476 3.695005 31.1134 0.658968 3.949137 29.14595 0.5790553 3.869225 31.11552 0.5178536 4.271139 29.14595 0.4048404 4.289816 24.82544 0.5790553 3.869225 24.82841 0.4048403 4.273815 31.11587 1.481441 4.268028 29.14595 1.594455 4.289816 31.1134 1.340327 4.630493 29.14595 1.42024 4.710405 31.11651 0.9996473 4.749825 29.14595 0.9996476 4.884619 31.1134 0.6589679 4.630493 29.14595 0.5790553 4.710405 31.11552 0.5178536 4.271139 29.14595 0.4048404 4.289816 24.82544 0.5790553 4.710405 24.82841 0.4048403 4.273815 24.82712 0.9996473 3.681673 24.82544 1.42024 3.869225 24.8273 1.594454 4.279814 -2.718016 0.6623065 -1.812548 -3.798054 0.4553562 -0.1960278 -1.926356 0.6623064 -1.786579 -1.087674 0.4553559 1.07173 1.275943 0.6623065 0.4773483 1.528977 0.6623064 1.270193 0.5544568 0.4553557 2.079977 24.8273 1.594454 4.279814 24.82544 1.42024 4.710405 24.82872 0.9996473 4.871284 10.43066 0.04370367 5.09557 10.43034 1.955584 5.09395 9.538966 1.360776 6.048552 4.66126 1.360777 6.056252 0.6590277 0.6385141 5.088316 0.6590277 1.360777 5.088316 -2.464411 0.6385143 4.684912 -2.464096 1.360777 4.687912 -7.061177 1.360778 4.689606 -7.060944 0.6385146 4.691874 10.32385 -0.06250739 5.103254 10.32385 2.061803 5.10326 12.9282 -0.0625081 5.100632 12.9282 2.061803 5.100632 13.76905 1.721199 5.936878 13.76905 0.2780972 5.936878 25.14831 1.721196 5.948345 25.14831 0.2780947 5.948345 25.5711 1.721196 5.225523 25.5711 0.278095 5.225523 -3.577621 0.4553561 0.5957871 -2.239668 0.6767507 1.634335 -4.224414 0.6767507 1.00489 -2.438117 0.567487 2.218241 -6.967571 0.6317154 1.16865 -2.240426 0.4305235 2.790085 -0.4986451 0.4576768 2.791826 -0.3183554 0.7549177 2.334213 -1.104133 0.807959 1.626484 -7.061177 1.360778 4.689606 -7.060944 0.6385146 4.691874 -7.292408 1.955586 4.108505 -7.292536 0.04370629 4.105991 -7.812835 1.800693 2.789602 -7.812835 0.198356 2.7896 -6.967566 1.367301 1.16865 -6.967571 0.6317154 1.16865 -2.718015 1.336988 -1.812548 -1.926168 1.336987 -1.786112 -3.798054 1.543938 -0.1960278 -1.087674 1.543938 1.07173 -3.577568 1.543938 0.5963345 -2.239664 1.322949 1.634335 -4.22441 1.322949 1.00489 -2.438115 1.432506 2.218245 -6.967566 1.367301 1.16865 -7.812835 1.800693 2.789602 -2.240453 1.541613 2.791107 -2.464123 1.955586 3.40383 -0.4986451 1.541613 2.791822 1.348709 1.955585 3.383684 0.5544602 1.543938 2.079977 4.614389 1.541611 2.417776 1.528977 1.336987 1.270193 1.275943 1.336987 0.4773483 7.022531 -6.930834 -0.5850659 7.022531 -6.930835 4.029608 7.199274 -6.75409 -0.5850659 7.199274 -6.75409 4.206348 7.199274 -2.942564 4.206348 7.199274 0.04370516 -0.5850659 7.199274 0.04370516 3.375998 7.022531 0.2204479 -0.5850659 7.022531 0.220448 3.199253 7.199274 -2.222227 4.924988 7.199274 0.04370516 4.924988 -7.673584 0.7119686 1.801409 -7.673584 1.287179 1.801409 -8.382976 0.4575219 1.316036 -8.38296 1.541614 1.316141 -9.681778 1.326473 1.154743 -9.681778 0.6726627 1.154743 -10.14981 1.377826 1.587929 -10.14981 0.6213102 1.587929 -1.104104 1.192034 1.625584 -0.3183635 1.244717 2.332911 -7.292408 1.955586 4.108505 -2.466397 1.955586 4.073294 1.534945 1.955585 4.102991 4.615384 1.955585 3.404383 4.618595 1.955585 5.104448 9.534382 1.955585 5.088316 4.657256 1.80266 5.766457 9.534382 1.80266 5.766457 4.66126 1.360777 6.056252 9.538966 1.360776 6.048552 10.43034 1.955584 5.09395 10.42834 1.955584 3.398521 0.6590277 1.360777 5.088316 10.42735 1.541611 2.416903 -10.63374 1.721198 5.233839 -8.386418 1.955586 5.06802 -8.386864 1.955586 6.082691 -7.969568 1.665632 5.932085 -7.968848 1.665632 5.222836 -10.45123 1.721197 6.221424 -9.362542 1.721198 6.424572 -2.464096 1.360777 4.687912 -7.061177 1.360778 4.689606 6.171617 -6.304761 5.568031 6.171617 -1.428654 5.568031 5.818591 -1.334958 5.797111 6.170454 -1.209704 5.348339 5.81695 -0.9806237 5.44278 5.81625 -0.9806237 4.925432 6.16974 -1.209704 4.924988 25.57507 0.2780933 3.254164 25.57507 1.721195 3.254164 25.57551 0.2780932 3.625708 25.57551 1.721194 3.6257 25.14832 -0.06251013 4.169872 25.14832 2.061801 4.169872 25.04189 1.955585 4.297333 25.04189 0.04370516 4.297333 25.14789 2.061801 4.424791 25.14789 -0.06251037 4.424791 25.57415 0.2780947 4.971104 25.57415 1.721196 4.971104 25.5711 0.278095 5.225523 25.5711 1.721196 5.225523 25.57507 1.721195 3.254164 25.57507 0.2780933 3.254164 25.15178 1.721194 2.51586 25.15178 0.2780932 2.51586 20.20112 1.721198 2.524633 20.20112 0.2780967 2.524635 19.01509 0.5560891 1.850792 19.01509 1.442985 1.850792 10.66993 0.5560892 1.842382 10.32678 0.4167346 2.183228 10.32678 1.582945 2.183228 10.32572 2.061804 3.351957 10.32572 -0.06250667 3.351959 10.32303 2.062152 4.169868 10.32303 -0.06215846 4.169868 10.42903 0.04370844 4.297327 10.42903 1.955588 4.297333 10.42903 0.04370844 4.297327 10.42903 1.955588 4.297333 10.3226 -0.06250786 4.424791 10.3226 2.061804 4.424791 10.32385 2.061803 5.10326 10.32385 -0.06250739 5.103254 10.43034 1.955584 5.09395 10.43066 0.04370367 5.09557 10.42834 1.955584 3.398521 10.42825 0.04370355 3.397171 10.42736 0.4575222 2.417597 10.42735 1.541611 2.416903 7.199274 0.04370516 4.924988 7.199274 -2.222227 4.924988 7.022531 0.04370528 5.088312 7.022531 -2.289767 5.088312 4.614411 -2.289767 5.088312 4.614411 -3.010103 4.369675 4.437669 -2.222227 4.924988 4.437669 -2.942564 4.206348 4.614411 -6.57735 4.36968 4.437669 -6.75409 4.206348 4.614411 -6.930834 4.029608 7.022531 -6.930835 4.029608 7.022531 -6.57735 4.369675 7.199274 -6.75409 4.206348 7.199274 -2.942564 4.206348 7.022531 -3.010103 4.369675 7.199274 -6.75409 4.206348 7.022531 -6.57735 4.369675 4.61633 0.04370528 5.09424 4.437669 0.04370516 4.924988 4.437669 0.04370516 3.375996 4.437669 -2.942564 4.206348 4.437669 0.04370516 -0.5850659 4.437669 -6.75409 -0.5850659 4.437669 -6.75409 4.206348 4.614411 -6.930835 -0.5850659 4.614411 -6.930834 4.029608 7.022531 -6.930835 4.029608 7.022531 -6.930834 -0.5850659 -0.4986451 1.541613 2.791822 -0.4986451 0.4576768 2.791826 -2.240453 1.541613 2.791107 -2.240426 0.4305235 2.790085 -2.438117 0.567487 2.218241 -2.438115 1.432506 2.218245 -2.239664 1.322949 1.634335 -2.239668 0.6767507 1.634335 -1.104104 1.192034 1.625584 -1.104133 0.807959 1.626484 -0.3183554 0.7549177 2.334213 -0.3183635 1.244717 2.332911 -0.4986451 0.4576768 2.791826 -0.4986451 1.541613 2.791822 6.169235 -6.525011 4.205904 6.170454 -6.525011 5.348339 5.816977 -6.75409 5.442776 5.818591 -6.399755 5.797111 5.818591 -1.334958 5.797111 5.463483 -1.209704 5.348339 5.81695 -0.9806237 5.44278 5.462769 -1.209704 4.92588 5.462769 -1.209704 4.92588 6.16974 -1.209704 4.924988 5.463483 -1.209704 5.348339 6.170454 -1.209704 5.348339 6.171617 -1.428654 5.568031 5.464647 -1.428654 5.568031 5.464647 -6.304761 5.568031 6.171617 -6.304761 5.568031 5.463483 -6.525011 5.348339 6.170454 -6.525011 5.348339 6.169235 -6.525011 4.205904 5.462265 -6.525011 4.206793 4.614411 -6.930835 -0.5850659 7.022531 -6.930834 -0.5850659 4.437669 -6.75409 -0.5850659 7.199274 -6.75409 -0.5850659 7.199274 0.04370516 -0.5850659 4.437669 0.04370516 -0.5850659 4.614411 0.2204479 -0.5850659 7.022531 0.2204479 -0.5850659 9.872683 4.121533 4.788973 9.873517 4.121533 4.458504 9.961506 1.743154 4.877825 9.962531 1.743154 4.369675 10.32385 2.061803 5.10326 12.9282 2.061803 5.100632 25.1489 2.061801 5.112946 25.57415 1.721196 4.971104 25.5711 1.721196 5.225523 25.14831 1.721196 5.948345 13.76905 1.721199 5.936878 4.614411 0.220448 3.199253 10.32385 -0.06250739 5.103254 10.3226 -0.06250786 4.424791 12.9282 -0.0625081 5.100632 25.14789 -0.06251037 4.424791 25.1489 -0.06251013 5.112947 25.57415 0.2780947 4.971104 25.5711 0.278095 5.225523 25.14831 0.2780947 5.948345 13.76905 0.2780972 5.936878 10.42736 0.4575222 2.417597 10.42735 1.541611 2.416903 4.614387 0.4576004 2.41778 4.614389 1.541611 2.417776 1.528977 0.6623064 1.270193 1.528977 1.336987 1.270193 1.275943 0.6623065 0.4773483 1.275943 1.336987 0.4773483 -1.926356 0.6623064 -1.786579 -1.926168 1.336987 -1.786112 -2.718016 0.6623065 -1.812548 -2.718015 1.336988 -1.812548 -3.798054 0.4553562 -0.1960278 -3.798054 1.543938 -0.1960278 -3.577621 0.4553561 0.5957871 -3.577568 1.543938 0.5963345 -4.224414 0.6767507 1.00489 -4.22441 1.322949 1.00489 -6.967566 1.367301 1.16865 -6.967571 0.6317154 1.16865 25.04189 0.04370516 4.297333 10.42903 0.04370844 4.297327 10.32303 -0.06215846 4.169868 25.14832 -0.06251013 4.169872 25.15076 -0.0625112 3.365025 25.57551 0.2780932 3.625708 25.57507 0.2780933 3.254164 25.15178 0.2780932 2.51586 31.11522 0.9996473 3.786234 31.1134 1.340327 3.949137 31.1134 0.658968 3.949137 31.11587 1.481441 4.268028 31.11552 0.5178536 4.271139 31.1134 0.6589679 4.630493 31.1134 1.340327 4.630493 31.11651 0.9996473 4.749825 7.022531 -3.010103 4.369675</float_array>
          <technique_common>
            <accessor source="#standard_standard-mesh-positions-array" count="490" stride="3">
              <param name="X" type="float"/>
              <param name="Y" type="float"/>
              <param name="Z" type="float"/>
            </accessor>
          </technique_common>
        </source>
        <source id="standard_standard-mesh-normals">
          <float_array id="standard_standard-mesh-normals-array" count="1485">3.89665e-6 -0.4102897 0.9119553 -0.009792745 -0.9689751 0.2469643 -0.06319963 -0.3858952 0.9203754 -0.02028995 -0.9284474 0.3709096 -0.1447376 -0.5015416 0.8529402 -0.03779256 -0.9783157 0.2036422 -0.07834911 -0.8024063 0.5916128 -0.02269828 -0.9921372 0.12308 -2.50781e-5 -0.9938588 0.1106556 -0.006901621 -0.9791677 -0.2029359 0.6645461 -0.7318148 -0.1510815 0.1019309 -0.6025918 -0.7915133 0.6010417 -0.4397883 -0.6673343 -0.1108 -0.2696132 0.9565732 0.3455777 -0.2254099 0.9109152 0.1787547 -0.7663707 0.6170274 0.6965032 -0.6429925 0.3185027 -0.00869137 -0.9855113 -0.1693875 0.01117163 -0.9585158 -0.2848206 0.01467192 -0.9803857 -0.1965417 -7.84171e-4 -0.9239299 0.3825612 2.45435e-7 -1 2.822e-7 0.4942334 -0.7138031 0.4962041 0.3825613 -0.9239299 7.76516e-4 0.4941443 -0.7138937 0.4961625 0.3827996 -0.9238312 6.02305e-4 0.8156637 -0.4082472 0.409911 0.7071064 -0.707107 7.13034e-4 0.3828354 0.9238163 7.94932e-4 0.4941611 0.713913 0.496118 0.7071597 0.7070524 0.001468241 0.8156764 0.4082511 0.4098818 0.4941138 -0.7139093 0.4961705 0.8156937 -0.408233 0.4098654 -7.52564e-4 -0.9238218 0.3828223 -0.001862347 -0.3826751 0.9238811 0.2983663 -0.3001897 0.9060154 0.2984199 0.3000783 0.9060346 -0.001788854 0.3825679 0.9239256 -0.5687627 0.5969269 0.5658509 -0.7076283 0.05260926 0.7046237 0.56587 0.5969258 0.5687448 0.704835 0.05269479 0.7074115 -0.7074453 0.05266147 0.7048035 -0.5687386 0.5969861 0.5658128 -0.7045866 0.05274331 -0.7076552 -0.565858 0.5969458 -0.568736 0.568713 0.5969673 -0.5658584 0.7076488 0.0527938 -0.7045893 -0.5658997 0.5969446 -0.5686958 -0.7047762 0.05271053 -0.7074689 0.5659237 0.5969079 0.5687103 0.5686851 0.5969464 -0.5659084 -0.5687104 0.5969079 0.5659236 -0.5659084 0.5969464 -0.5686852 -0.2785906 -0.5030159 -0.8181456 0.2793744 -0.6593782 -0.6979759 -0.7082408 -0.5814512 -0.4003868 0.4199662 -0.8972641 0.136183 0.9083955 -0.3632521 0.2070404 -0.001857161 0.3826887 0.9238756 0.2983368 0.300178 0.9060289 -7.72019e-4 0.9238811 0.3826791 0.4941636 0.7138793 0.4961641 -3.32899e-7 1 -1.27507e-7 0.3825609 0.9239301 6.06207e-4 -0.7633258 -0.6459733 -0.007229745 0.4550638 -0.8603395 -0.2296368 0.3310231 -0.7387693 0.5870637 0.8004009 -0.3628361 -0.4771881 0.7993801 -0.3628756 0.478866 0.01943582 -0.4794954 0.8773292 -0.5950877 -0.5610294 0.5754274 0.9083952 0.3632264 0.207086 0.2807875 0.6593652 -0.697421 0.4199188 0.8972823 0.1362086 -0.7082255 0.5814397 -0.4004305 -0.2785419 0.5029982 -0.8181732 -0.7080637 0.5816655 -0.4003886 -0.7080622 -0.5816596 -0.4004 -0.7631264 0.6462084 -0.007275521 -0.76315 -0.646181 -0.007228791 -0.594952 0.5611982 0.5754031 -0.5949439 -0.5611686 0.5754404 0.4206929 -1.37992e-4 0.9072032 -3.51816e-5 1 -1.28269e-4 0.4207512 -1.21832e-4 0.9071761 -6.187e-5 1 -1.30938e-4 0.4208899 1.41454e-4 0.9071118 -7.58469e-6 -1 -1.24037e-4 0.4208326 1.56313e-4 0.9071384 -8.38046e-5 -1 -1.23685e-4 -0.4262145 1.60134e-4 -0.9046221 2.13236e-5 -1 1.30206e-4 -0.4262458 1.6135e-4 -0.9046074 8.30616e-5 -1 9.9853e-5 2.03092e-5 1 1.27566e-4 -0.4263065 -1.62929e-4 -0.9045788 8.38339e-5 1 1.01656e-4 -0.4244968 -1.592e-4 -0.9054294 -0.9980962 -0.02425205 -0.05670946 -0.998004 0.02619689 -0.05746138 0.00111413 -0.3825485 0.9239348 -0.9980363 0.05872976 -0.02178037 -3.06278e-4 -0.9239614 0.382486 -0.9589779 0.2834785 0.001111268 1.07169e-4 -1 -1.38217e-5 -1.65831e-5 1 -1.38914e-4 0.4244289 2.65602e-6 0.9054613 -1.01134e-4 1 -1.24663e-4 0.424538 -4.58768e-7 0.9054102 -6.16461e-5 -1 -1.36048e-4 -4.91061e-5 -1 -1.1954e-4 3.13492e-5 1 1.12445e-4 -0.4220284 1.74996e-4 -0.9065827 1.12623e-4 1 1.26064e-4 -0.4209784 3.37199e-5 -0.9070706 8.49962e-5 -1 1.10865e-4 5.5794e-5 -1 1.24391e-4 -0.175603 1.52477e-4 0.9844611 -1.68285e-5 -1 5.39827e-5 -0.1756743 1.15961e-4 0.9844483 2.74782e-6 -1 -1.54269e-5 0.175589 1.21713e-4 -0.9844636 0.1756226 1.49276e-4 -0.9844576 0.1756766 -1.39469e-4 -0.984448 -9.64406e-7 1 9.90955e-6 0.1756352 -1.66565e-4 -0.9844554 -5.48759e-6 1 -2.19909e-6 -0.175604 -1.54585e-4 0.984461 -0.1755732 -1.16167e-4 0.9844664 -0.3825616 0.92393 1.835e-5 -0.3000485 0.9054309 0.3002759 0.3825616 0.92393 1.82633e-5 0.3000219 0.9054561 0.3002268 -0.7864196 0.6018065 0.139188 0.7864126 0.6018285 0.1391326 -0.7137543 0.626932 0.3122678 0.7137268 0.626932 0.3123306 -0.281997 0.6334461 0.7205719 0.281937 0.633446 0.7205954 -0.7082229 -0.5448464 -0.4489575 -0.2873109 -0.4741314 -0.8322572 -0.6658482 -0.7317824 -0.1453981 0.1245186 -0.6299704 -0.7665719 0.1826478 -0.4957849 -0.8490213 -0.707559 0.5455442 -0.4491568 -0.6661808 0.7317002 -0.1442843 -0.2888219 0.4739825 -0.8318188 0.1260142 0.6299681 -0.7663294 0.1809817 0.4956509 -0.8494563 0.5169594 0.7127375 -0.4740867 0.7071976 0.7070154 9.29594e-4 -0.6589562 0.6592635 -0.3621442 -0.7076106 0.7066026 -2.53469e-4 0.5155076 0.7129307 0.4753754 -0.6597408 0.6593549 0.3605458 0.3057013 0.9371486 -0.1682242 0.4180081 0.4782121 -0.7723875 0.879253 0.4133272 -0.2368014 0.9015875 0.3570474 0.2442482 -0.595135 0.5611856 0.5752262 -0.5950406 -0.5612514 0.5752596 0.01944971 0.4796118 0.8772653 0.01943159 -0.4795676 0.8772898 0.3310245 0.738882 0.5869211 0.3309049 -0.7389108 0.5869522 0.8003962 -0.3629103 0.4771395 0.799389 0.3629306 0.4788099 0.8003546 -0.362947 -0.4771814 0.8004004 0.3629307 -0.477117 0.4550877 -0.860325 -0.2296434 0.4551147 0.8603139 -0.2296314 0.420014 -0.8972252 0.1362909 0.4200353 0.8972336 0.1361695 0.9083322 -0.363339 0.2071654 0.9083192 0.3633702 0.2071672 0.6517603 0.7584251 1.2716e-4 0.6517947 0.5362845 -0.5362487 0.02850359 0.9995937 -1.35958e-4 0.02843642 0.7068453 -0.7067964 0.6517958 2.43317e-5 -0.7583945 0.02838206 -5.17072e-5 -0.9995972 0.6517936 -0.5362433 -0.5362913 0.02833735 -0.7067458 -0.7069 0.6517463 -0.758437 8.41022e-5 0.02846455 -0.9995949 -1.09643e-4 2.78588e-6 -0.7071229 -0.7070907 -8.2003e-7 -1 -1.43489e-4 0.6517416 0.7584412 -9.01222e-5 0.02849489 0.999594 1.2812e-4 0.6517745 0.5362554 0.5363025 0.0285483 0.7067905 0.7068468 0.6517733 -2.18749e-5 0.7584139 0.0285325 2.25678e-5 0.9995929 0.6517753 -0.5362841 0.5362727 0.02859717 -0.7068743 0.7067609 0.6517547 -0.7584298 -9.47323e-5 0.02848237 -0.9995944 1.06215e-4 -2.67103e-6 -0.7070882 0.7071254 1.73808e-7 -1 1.4016e-4 0.01594156 1.56164e-6 -0.9998729 0 0.7071059 -0.7071078 3.58513e-6 1 -1.13249e-4 -0.356209 -0.5653949 -0.743938 0.2559707 -0.6148731 -0.7459291 -0.7501442 -0.6460461 -0.141097 -0.02502828 -0.986142 0.1640048 0.6306142 -0.6259458 -0.458822 0.4328072 -0.7537932 -0.4944428 -0.06149345 -0.9838427 -0.1681434 -2.34689e-5 1 1.28915e-4 1.37254e-6 0.7071145 0.7070991 -4.89736e-6 -2.86497e-6 1 0.6963126 -0.6432169 0.3184664 0.696291 0.643221 0.3185054 0.3456 0.2252653 0.9109425 -0.1107982 0.2695004 0.9566051 -0.1447517 -0.5015155 0.8529532 -0.1447782 0.5015178 0.8529474 -0.0632537 -0.385684 0.9204602 -0.06320565 0.3856543 0.9204759 2.25265e-5 0.4100728 0.9120529 1.98982e-5 -0.4100437 0.9120659 -0.5779598 -0.5772944 0.5767961 -0.1866479 -0.7988113 0.5718945 -0.5780613 0.5772293 0.5767596 -0.1865946 0.7988172 0.5719034 -0.2898218 0.4752362 0.8307551 -0.288168 -0.4752075 0.8313466 0.4148449 0.4783488 0.7740066 0.4149219 -0.4783577 0.7739599 0.8782796 0.4133277 0.240386 0.8782795 -0.4133276 0.2403861 -0.4963307 -0.8679498 0.01786053 0.3132814 -0.7976601 0.5153574 -0.2311408 -0.7314987 -0.64147 0.6361972 -0.7537249 -0.1647792 -0.005036175 -0.7131015 -0.7010427 0.2502418 -0.6668269 -0.7019408 -0.2426179 -0.6449401 -0.7246992 -0.8030464 -0.5959126 0.002177834 -0.3300143 -0.4816857 0.8118309 -0.9313714 2.35764e-6 0.3640704 -0.9307176 4.43752e-6 0.3657389 -0.929926 1.04307e-5 0.367747 -0.9298337 -4.2165e-4 0.36798 -0.9307002 -1.26848e-5 0.3657829 -0.9307002 -1.25828e-5 0.3657829 -0.9307087 -1.47293e-5 0.3657616 -0.9999987 -2.25213e-5 -0.001638114 -0.9307109 -5.42103e-6 0.3657557 -1 7.83128e-7 -4.65836e-4 -0.8857752 2.90259e-6 -0.4641146 -0.8857761 4.61392e-6 -0.4641131 -0.3561612 0.5654144 -0.7439461 -0.7501287 0.6460479 -0.1411703 0.2560114 0.6148783 -0.7459108 -0.02491664 0.9861984 0.1636826 -0.4962773 0.8679881 0.01747542 0.3134212 0.7977874 0.5150753 -0.2311738 0.7315348 -0.6414169 0.6359905 0.7539343 -0.164618 -0.005193591 0.7130182 -0.7011263 0.01491165 0.9803223 -0.1968398 0.2504304 0.6669006 -0.7018037 0.01105618 0.9585745 -0.2846273 -0.2426568 0.6449615 -0.7246671 -0.008616328 0.9855328 -0.1692659 -0.0614385 0.9838419 -0.1681682 0.1019414 0.6025819 -0.7915195 0.4327018 0.7537803 -0.4945549 0.6392185 0.6133736 -0.4638671 0.3828066 -0.9238286 1.82754e-5 0.9238818 -0.3826779 0 0.2982708 -0.9036533 0.3073197 0.7039612 -0.4940997 0.5102002 0.9552945 -0.1130369 0.2731943 0.9238799 0.3826828 0 0.786354 0.6018953 0.1391748 0.3828058 0.9238288 1.83574e-5 0.3001521 0.9054318 0.3001702 0.8890196 -0.174935 0.4231334 0.7135683 0.6271289 0.3122975 0.9083973 -0.3633406 0.2068765 0.2806946 -0.6595914 -0.6972444 0.9084028 0.3633257 0.2068794 0.2807145 0.6595596 -0.6972666 -0.2785686 0.5031341 -0.8180805 -0.2785369 -0.5031467 -0.8180835 -0.7081879 0.581606 -0.4002553 -0.7081448 -0.5816311 -0.4002953 -0.3298248 0.4822669 0.8115629 -0.8028153 0.5962239 0.002161026 -0.009730875 0.9689741 0.246971 -0.02029371 0.9284436 0.3709186 -0.04976445 0.979561 0.1948941 2.97189e-5 0.9800882 -0.1985628 -0.02276974 0.9921457 0.1229989 -3.29904e-4 0.9938814 0.1104531 -0.07834815 0.8023989 0.5916231 0.1787657 0.7663617 0.6170353 -0.1107661 0.2697654 0.9565342 0.3455212 0.2255352 0.9109057 0.6964536 0.6430178 0.3185601 0.6645559 0.7317975 -0.1511223 -0.1447442 0.5015401 0.8529401 0.6010414 0.4396892 -0.6674 -0.7633087 0.6459938 -0.007205367 0.4550403 0.8603512 -0.2296396 0.3309653 0.7388024 0.5870547 0.8003578 0.3628723 0.477233 0.8013323 0.362861 -0.4756031 -0.595129 0.5610356 0.5753787 0.01943653 0.4794989 0.8773273 -0.06323009 0.385904 0.9203696 2.54575e-5 0.4102789 0.9119601 0.9979576 0.02276736 -0.05968636 0.9980426 -0.02082842 -0.05896806 0.001065552 0.3824746 0.9239655 0.9979971 -0.05783265 -0.02563995 -2.90751e-4 0.9239403 0.3825367 -7.9155e-5 1 -6.47918e-5 0.9589623 -0.2835306 -0.001317739 0.8792476 -0.4133223 -0.2368301 0.879247 0.4133237 -0.2368299 0.9016131 -0.3569443 0.2443045 0.9016013 0.3569799 0.2442962 0.5154222 -0.7130385 0.4753064 0.5154176 0.7130393 0.4753101 0.7070214 0.7071918 7.48098e-4 0.7070099 -0.7072032 9.26107e-4 0.5168873 0.7128232 -0.4740367 0.5168604 -0.7128471 -0.47403 0.9027022 -0.3570354 -0.2401135 0.9027018 0.35705 -0.2400935 0.8782986 -0.4132927 0.2403761 0.8782994 0.413326 0.240316 0.8792375 0.4133514 -0.2368165 0.8792393 -0.4133491 -0.2368139 0.417945 0.4783427 -0.7723407 0.4178716 -0.4783671 -0.7723654 0.1260313 0.6300519 -0.7662577 0.1244506 -0.6300513 -0.7665165 0.1826269 -0.4959069 -0.8489545 0.1808877 0.4957758 -0.8494033 -0.2871773 -0.4742397 -0.8322415 -0.2888377 0.4741249 -0.8317322 -0.7071297 -0.5450298 -0.4504554 -0.7074178 0.5457555 -0.4491226 -0.665961 0.731898 -0.1442958 -0.6659904 -0.7318872 -0.1442151 -0.6594974 0.6595427 0.3606474 -0.6598847 -0.6593548 0.3602824 -0.7066929 -0.7075188 -0.001539349 -0.7075271 0.7066862 -1.62616e-4 -0.7067037 -0.707508 -0.001535058 -0.6587448 -0.6594935 -0.3621098 -0.7075188 0.7066946 -1.27435e-4 -0.6587711 0.6594761 -0.3620938 -0.5780072 0.5772743 0.5767688 -0.5780082 -0.5771924 0.5768497 0.6962578 0.6432281 0.3185636 0.6962744 -0.6432152 0.3185534 0.6643383 0.7319924 -0.151135 0.6646474 -0.7319903 -0.1497801 0.600932 -0.439887 -0.6673681 0.6023012 0.439799 -0.6661908 0.7136447 0.6271282 0.3121241 0.281828 0.6336823 0.7204303 0.8889579 -0.175006 0.4232336 0.3531891 -0.3575031 0.8645513 -0.3532232 -0.3578733 0.8643842 -0.4201834 -0.3467574 0.8385733 -0.8890148 -0.1749675 0.4231301 -0.9552499 -0.1130118 0.2733606 -0.2827324 -0.2922055 0.9136074 -0.7039748 -0.4940847 0.510196 -0.2982765 -0.9036512 0.3073199 0.2982635 -0.9036504 0.3073352 0.282722 -0.2922144 0.9136077 0.7040919 -0.4940041 0.5101124 0.9552475 -0.1130629 0.2733479 0.4202627 -0.3466741 0.838568 0.7039433 -0.4941394 0.5101863 0.2827909 -0.2920886 0.9136266 -0.2818739 0.6336702 0.7204231 -0.7135778 0.6271441 0.3122454 -0.7863348 0.6019221 0.1391673 -0.9552945 -0.1129262 0.2732402 -0.9238786 0.3826861 0 -0.9238837 -0.3826733 0 -0.7039669 -0.494116 0.5101764 -0.382694 -0.9238752 0 -0.2983467 -0.9036627 0.3072183 0.2982408 -0.9036554 0.3073427 0.3825618 -0.9239299 1.83621e-5 -0.2426899 0.644953 -0.7246635 -0.2427273 -0.6448914 -0.7247059 0.2503955 0.6668739 -0.7018414 0.2502395 -0.6667948 -0.7019722 0.6359872 -0.7538871 -0.1648471 0.635802 0.7541232 -0.1644816 0.3133959 0.7978476 0.5149974 0.3132356 -0.7976963 0.5153291 -0.3298535 0.4822513 0.8115605 -0.3300299 -0.481673 0.8118321 -0.8029964 -0.59598 0.00215435 -0.8027559 0.5963039 0.002216398 -0.2426222 -0.6447829 -0.7248376 -0.2426831 0.6448906 -0.7247214 0.9590033 0.283393 -0.001027762 0.9980407 0.05679506 -0.02625113 5.31658e-5 -1 1.18357e-4 -3.44187e-4 -0.9239597 0.3824896 0.001069009 -0.3825251 0.9239445 0.9979575 0.02271699 -0.05970662 0.001106381 0.3824846 0.9239612 -0.9980954 -0.02429378 -0.05670493 -0.9979831 -0.06002229 -0.02066612 -2.61426e-4 0.9239519 0.3825086 -0.9589979 -0.28341 0.001386106 -4.50011e-5 1 3.90887e-5 -0.9589181 -0.2836804 0.001253664 0.9582085 -0.2860701 -7.45521e-4 -0.9979889 -0.05992031 -0.02067786 0.9979939 -0.05783557 -0.02575588 0.9980499 -0.020796 -0.05885618 -0.998098 -0.02426075 -0.05667239 -0.9980087 0.02620446 -0.05737483 0.9979568 0.02274453 -0.05970937 -0.9980376 0.05871212 -0.02177131 0.9980472 0.05669438 -0.02622151 0.9589318 0.2836348 -0.001175642 -0.9589048 0.2837265 9.91745e-4 0 0 -1 0.5658571 0.5969466 0.568736 0.7046209 0.05265808 0.7076275 0.5687002 0.5969638 -0.5658749 0.7074418 0.05274373 -0.7048009 -0.5780369 0.5772334 0.5767799 -0.1865273 0.7987501 0.5720191 0.3052263 0.9370722 0.1695076 0.9026712 0.3571366 -0.2400797 0.8782833 0.4133284 0.2403706 0.4148499 0.4782397 0.7740713 -0.2899231 0.4750987 0.8307984 -0.3001549 0.9054287 0.3001765 -0.382806 0.9238287 1.82645e-5 -0.5780375 -0.577233 0.5767797 -0.6589811 -0.6592913 -0.3620483 -0.1867319 -0.7987555 0.5719448 0.5169454 -0.7127364 -0.4741038 0.3053287 -0.9370459 0.1694678 0.9026634 -0.3571422 -0.2401008 0.8782938 -0.4133272 0.2403347 0.414854 -0.4782391 0.7740694 -0.2882179 -0.4750934 0.8313944 0.6009958 -0.4399737 -0.6672536 0.1019206 -0.6026946 -0.7914364 0.6023709 0.4399112 -0.6660536 0.1019344 0.6026679 -0.7914549 0.4327214 -0.7538695 -0.4944016 0.4326662 0.7538742 -0.4944429 0.630492 -0.6261557 -0.4587034 0.6304754 0.6261706 -0.458706 0.2559419 -0.6151322 -0.7457253 0.2557917 0.6151344 -0.745775 -0.3546227 -0.5655015 -0.7446146 -0.3561661 0.5655208 -0.7438629 -0.7499395 -0.646286 -0.1410858 -0.7499326 0.6462821 -0.1411408 -0.4964246 -0.8678967 0.01783621 -0.4963605 0.8679408 0.01746577 -0.2310768 -0.7316764 -0.6412903 -0.2310677 0.7317399 -0.6412211 -0.005223572 0.7131357 -0.7010066 -0.005010068 -0.7131914 -0.7009515 0.7072029 -0.7070103 7.45118e-4 -0.7067729 -0.7074391 -0.001450717 -0.660103 -0.6591322 0.3602898 0.5154883 -0.7129644 0.4753459 0.3056823 -0.9371464 -0.1682707 0.9015945 -0.3570429 0.244229 0.8792425 -0.4133298 -0.2368355 0.4179403 -0.4782103 -0.7724252 0.6515817 -5.85914e-5 -0.7585785 0.6515696 0.536359 -0.5364478 0.6515695 -0.5364409 -0.5363659 0.6515724 0.7585866 -6.10948e-6 0.6515758 -0.7585836 1.99676e-6 0.6515922 -0.5363762 0.536403 0.6515915 0.5364172 0.5363629 0.6515671 5.93364e-5 0.7585911 0.4202128 -0.3467571 0.8385587</float_array>
          <technique_common>
            <accessor source="#standard_standard-mesh-normals-array" count="495" stride="3">
              <param name="X" type="float"/>
              <param name="Y" type="float"/>
              <param name="Z" type="float"/>
            </accessor>
          </technique_common>
        </source>
        <source id="standard_standard-mesh-map-0">
          <float_array id="standard_standard-mesh-map-0-array" count="2688">0.140625 0.8457031 0.1289062 0.8183593 0.359375 0.8457031 0.1289062 0.8183593 0.359375 0.8183593 0.359375 0.8457031 0.359375 0.8457031 0.359375 0.8183593 0.5058594 0.8652343 0.359375 0.8183593 0.5488281 0.8183593 0.5058594 0.8652343 0.5058594 0.8652343 0.5488281 0.8183593 0.6972656 0.8984375 0.5488281 0.8183593 0.6933593 0.8652343 0.6972656 0.8984375 0.6972656 0.8984375 0.6933593 0.8652343 0.9296875 0.8652343 0.6933593 0.8652343 0.6933593 0.7851563 0.9296875 0.8652343 0.9296875 0.8652343 0.6933593 0.7851563 0.9726563 0.7851563 0.6933593 0.7851563 0.6933593 0.7382813 0.9726563 0.7851563 0.9726563 0.7851563 0.6933593 0.7382813 0.9726563 0.7382813 0.5058594 0.8652343 0.6972656 0.8984375 0.6972656 0.9101563 0.6972656 0.9101563 0.6972656 0.8984375 0.9296875 0.9101563 0.6972656 0.8984375 0.9296875 0.8964843 0.9296875 0.9101563 0.9296875 0.9101563 0.9296875 0.8964843 0.9726563 0.8652343 0.9296875 0.8964843 0.9296875 0.8652343 0.9726563 0.8652343 0.9726563 0.8652343 0.9296875 0.8652343 0.9726563 0.7851563 0.5488281 0.8183593 0.359375 0.8183593 0.5410156 0.7851563 0.5410156 0.7851563 0.359375 0.8183593 0.359375 0.7851563 0.359375 0.8183593 0.1289062 0.8183593 0.359375 0.7851563 0.359375 0.7851563 0.1289062 0.8183593 0.1035156 0.7558594 0.2636719 0.5878906 0.2636719 0.5332031 0.1152343 0.5878906 0.1152343 0.5878906 0.2636719 0.5332031 0.1152343 0.5332031 0.1152343 0.6386719 0.06054687 0.6386719 0.1035156 0.6269531 0.1035156 0.6269531 0.06054687 0.6386719 0.06054687 0.6269531 0.06054687 0.5878906 0.1152343 0.5878906 0.06054687 0.5996093 0.06054687 0.5996093 0.1152343 0.5878906 0.1035156 0.5996093 0.1152343 0.5878906 0.1152343 0.6386719 0.1035156 0.5996093 0.1035156 0.5996093 0.1152343 0.6386719 0.1035156 0.6269531 0.2636719 0.6386719 0.1152343 0.6386719 0.2636719 0.6269531 0.2636719 0.6269531 0.1152343 0.6386719 0.1210937 0.6269531 0.1152343 0.6386719 0.1152343 0.5878906 0.1210937 0.6269531 0.1152343 0.5878906 0.1210937 0.5996093 0.1210937 0.6269531 0.1210937 0.5996093 0.2636719 0.5996093 0.1210937 0.6269531 0.1210937 0.6269531 0.2636719 0.5996093 0.2636719 0.6269531 0.2460938 0.8769531 0.1074218 0.8769531 0.2460938 0.8964843 0.2460938 0.8964843 0.1074218 0.8769531 0.1074218 0.8964843 0.1074218 0.8769531 0.2460938 0.8769531 0.1074218 0.8574219 0.1074218 0.8574219 0.2460938 0.8769531 0.2460938 0.8574219 0.2460938 0.8964843 0.1074218 0.8964843 0.2460938 0.8769531 0.2460938 0.8769531 0.1074218 0.8964843 0.1074218 0.8769531 0.2988281 0.8964843 0.2578125 0.8964843 0.2988281 0.8574219 0.2988281 0.8574219 0.2578125 0.8964843 0.2578125 0.8574219 0.0859375 0.01953125 0.04296875 0.02539062 0.1015625 0.03515625 0.1015625 0.03515625 0.04296875 0.02539062 0.04296875 0.04492187 0.04296875 0.02539062 0.01953125 0.0390625 0.04296875 0.04492187 0.2636719 0.5996093 0.1210937 0.5996093 0.2636719 0.5878906 0.1210937 0.5996093 0.1152343 0.5878906 0.2636719 0.5878906 0.2636719 0.5878906 0.1152343 0.5878906 0.2636719 0.5332031 0.1152343 0.5878906 0.1152343 0.5332031 0.2636719 0.5332031 0.1015625 0.03515625 0.04296875 0.04492187 0.1152343 0.15625 0.04296875 0.04492187 0.04296875 0.1503906 0.1152343 0.15625 0.1152343 0.15625 0.04296875 0.1503906 0.04296875 0.1835938 0.04296875 0.1503906 0.02929687 0.15625 0.04296875 0.1835938 0.04296875 0.1835938 0.02929687 0.15625 0.02929687 0.1777343 0.078125 0.1933593 0.1152343 0.1875 0.04296875 0.1835938 0.04296875 0.1835938 0.1152343 0.1875 0.1152343 0.15625 0.01953125 0.0390625 0.04296875 0.02539062 0.04296875 0.04492187 0.04296875 0.04492187 0.04296875 0.02539062 0.1015625 0.03515625 0.04296875 0.02539062 0.0859375 0.01953125 0.1015625 0.03515625 0.125 0.03515625 0.1582031 0.03515625 0.1152343 0.15625 0.1582031 0.03515625 0.1679688 0.15625 0.1152343 0.15625 0.1152343 0.15625 0.1679688 0.15625 0.1152343 0.1875 0.1679688 0.15625 0.1679688 0.1875 0.1152343 0.1875 0.01367187 0.8574219 0.03320312 0.8574219 0.01367187 0.9980468 0.03320312 0.8574219 0.03320312 0.9980468 0.01367187 0.9980468 0.09375 0.9980468 0.07421875 0.9980468 0.09375 0.8574219 0.07421875 0.9980468 0.07421875 0.8574219 0.09375 0.8574219 0.01367187 0.8574219 0.03320312 0.8574219 0.01367187 0.9980468 0.03320312 0.8574219 0.03320312 0.9980468 0.01367187 0.9980468 0.07421875 0.8574219 0.09375 0.8574219 0.07421875 0.9980468 0.09375 0.8574219 0.09375 0.9980468 0.07421875 0.9980468 0.5625 0.3984375 0.5625 0.5644531 0.5761719 0.5644531 0.5625 0.5644531 0.5625 0.5722656 0.5761719 0.5644531 0.5761719 0.5644531 0.5625 0.5722656 0.5761719 0.5722656 0.5625 0.5722656 0.5625 0.6113281 0.5761719 0.5722656 0.5761719 0.5722656 0.5625 0.6113281 0.5761719 0.6113281 0.07421875 0.9980468 0.0546875 0.9980468 0.07421875 0.8574219 0.07421875 0.8574219 0.0546875 0.9980468 0.0546875 0.8574219 0.0546875 0.9980468 0.03320312 0.9980468 0.0546875 0.8574219 0.0546875 0.8574219 0.03320312 0.9980468 0.03320312 0.8574219 0.03320312 0.8574219 0.0546875 0.8574219 0.03320312 0.9980468 0.03320312 0.9980468 0.0546875 0.8574219 0.0546875 0.9980468 0.0546875 0.8574219 0.07421875 0.8574219 0.0546875 0.9980468 0.0546875 0.9980468 0.07421875 0.8574219 0.07421875 0.9980468 0.09375 0.9980468 0.07421875 0.9980468 0.09375 0.8574219 0.09375 0.8574219 0.07421875 0.9980468 0.07421875 0.8574219 0.07421875 0.9980468 0.0546875 0.9980468 0.07421875 0.8574219 0.07421875 0.8574219 0.0546875 0.9980468 0.0546875 0.8574219 0.0546875 0.9980468 0.03320312 0.9980468 0.0546875 0.8574219 0.0546875 0.8574219 0.03320312 0.9980468 0.03320312 0.8574219 0.03320312 0.9980468 0.01367187 0.9980468 0.03320312 0.8574219 0.03320312 0.8574219 0.01367187 0.9980468 0.01367187 0.8574219 0.7050781 0.4570313 0.7050781 0.5722656 0.6347656 0.4570313 0.6347656 0.4570313 0.7050781 0.5722656 0.6347656 0.5722656 0.7050781 0.5722656 0.7109375 0.578125 0.6347656 0.5722656 0.6347656 0.5722656 0.7109375 0.578125 0.6308594 0.578125 0.7109375 0.578125 0.7109375 0.6230468 0.6308594 0.578125 0.6308594 0.578125 0.7109375 0.6230468 0.6308594 0.6230468 0.7109375 0.6230468 0.7050781 0.6289063 0.6308594 0.6230468 0.6308594 0.6230468 0.7050781 0.6289063 0.6347656 0.6289063 0.2558594 0.08789062 0.2695313 0.07421875 0.2558594 0.1484375 0.2558594 0.1484375 0.2695313 0.07421875 0.7265625 0.1054687 0.2695313 0.07421875 0.6699218 0.07421875 0.7265625 0.1054687 0.2558594 0.08789062 0.2558594 0.1484375 0.2695313 0.07421875 0.2558594 0.1484375 0.7265625 0.1054687 0.2695313 0.07421875 0.2695313 0.07421875 0.7265625 0.1054687 0.6699218 0.07421875 0.9609375 0.1972656 0.9570313 0.1914062 0.2558594 0.1972656 0.2558594 0.1972656 0.9570313 0.1914062 0.2617188 0.1914062 0.9570313 0.1914062 0.9628906 0.1835938 0.2617188 0.1914062 0.2617188 0.1914062 0.9628906 0.1835938 0.2558594 0.1835938 0.9628906 0.1835938 0.9628906 0.1484375 0.2558594 0.1835938 0.2558594 0.1835938 0.9628906 0.1484375 0.2558594 0.1484375 0.2558594 0.1484375 0.9628906 0.1484375 0.7265625 0.1054687 0.7265625 0.1054687 0.9628906 0.1484375 0.9628906 0.1054687 0.9628906 0.1054687 0.9628906 0.1484375 0.9824219 0.140625 0.9824219 0.140625 0.9628906 0.1484375 0.9824219 0.15625 0.9628906 0.1484375 0.9628906 0.1835938 0.9824219 0.15625 0.1152343 0.1875 0.1679688 0.1875 0.1171875 0.2226562 0.1679688 0.1875 0.1679688 0.2226562 0.1171875 0.2226562 0.1171875 0.2226562 0.1679688 0.2226562 0.109375 0.2558594 0.1679688 0.2226562 0.1738281 0.2558594 0.109375 0.2558594 0.1738281 0.2558594 0.1640625 0.2714844 0.109375 0.2558594 0.109375 0.2558594 0.1640625 0.2714844 0.1191406 0.2714844 0.1640625 0.2714844 0.1640625 0.2851563 0.1191406 0.2714844 0.1191406 0.2714844 0.1640625 0.2851563 0.1191406 0.2851563 0.1640625 0.2851563 0.1738281 0.3066406 0.1191406 0.2851563 0.1191406 0.2851563 0.1738281 0.3066406 0.109375 0.3066406 0.1738281 0.3066406 0.1621093 0.3925781 0.109375 0.3066406 0.109375 0.3066406 0.1621093 0.3925781 0.1230468 0.3925781 0.1621093 0.3925781 0.1542968 0.421875 0.1230468 0.3925781 0.1230468 0.3925781 0.1542968 0.421875 0.1308593 0.421875 0.09570312 0.3359375 0.07421875 0.3359375 0.09570312 0.4550781 0.09570312 0.4550781 0.07421875 0.3359375 0.07421875 0.4550781 0.07421875 0.3359375 0.05078125 0.3359375 0.07421875 0.4550781 0.07421875 0.4550781 0.05078125 0.3359375 0.05078125 0.4550781 0.05078125 0.3359375 0.02539062 0.3359375 0.05078125 0.4550781 0.05078125 0.4550781 0.02539062 0.3359375 0.02539062 0.4550781 0.02539062 0.3359375 0.00390625 0.3359375 0.02539062 0.4550781 0.00390625 0.3359375 0.00390625 0.4550781 0.02539062 0.4550781 0.02539062 0.4550781 0.00390625 0.4550781 0.02539062 0.7304687 0.00390625 0.4550781 0.00390625 0.7304687 0.02539062 0.7304687 0.09570312 0.3359375 0.09570312 0.4550781 0.07421875 0.3359375 0.09570312 0.4550781 0.07421875 0.4550781 0.07421875 0.3359375 0.07421875 0.3359375 0.07421875 0.4550781 0.05078125 0.3359375 0.07421875 0.4550781 0.05078125 0.4550781 0.05078125 0.3359375 0.05078125 0.3359375 0.05078125 0.4550781 0.02539062 0.3359375 0.05078125 0.4550781 0.02539062 0.4550781 0.02539062 0.3359375 0.02539062 0.3359375 0.02539062 0.4550781 0.00390625 0.3359375 0.00390625 0.3359375 0.02539062 0.4550781 0.00390625 0.4550781 0.02539062 0.4550781 0.02539062 0.7304687 0.00390625 0.4550781 0.00390625 0.4550781 0.02539062 0.7304687 0.00390625 0.7304687 0.02539062 0.7304687 0.05078125 0.7304687 0.02539062 0.4550781 0.02539062 0.4550781 0.05078125 0.7304687 0.05078125 0.4550781 0.05078125 0.7304687 0.07421875 0.7304687 0.05078125 0.4550781 0.05078125 0.4550781 0.07421875 0.7304687 0.07421875 0.4550781 0.07421875 0.7304687 0.09570312 0.7304687 0.07421875 0.4550781 0.07421875 0.4550781 0.09570312 0.7304687 0.09570312 0.4550781 0.3476563 0.5351563 0.3828125 0.5371094 0.2929688 0.6132813 0.2929688 0.6132813 0.3828125 0.5371094 0.4238281 0.6757813 0.3828125 0.5371094 0.5371094 0.6464843 0.4238281 0.6757813 0.5371094 0.6464843 0.5488281 0.6816406 0.4238281 0.6757813 0.4238281 0.6757813 0.5488281 0.6816406 0.5 0.7226563 0.5488281 0.6816406 0.6933593 0.7382813 0.5 0.7226563 0.5 0.7226563 0.6933593 0.7382813 0.5410156 0.7851563 0.6933593 0.7382813 0.6933593 0.7851563 0.5410156 0.7851563 0.5410156 0.7851563 0.6933593 0.7851563 0.5488281 0.8183593 0.6933593 0.7851563 0.6933593 0.8652343 0.5488281 0.8183593 0.09570312 0.4550781 0.09570312 0.7304687 0.07421875 0.4550781 0.09570312 0.7304687 0.07421875 0.7304687 0.07421875 0.4550781 0.07421875 0.4550781 0.07421875 0.7304687 0.05078125 0.4550781 0.07421875 0.7304687 0.05078125 0.7304687 0.05078125 0.4550781 0.05078125 0.4550781 0.05078125 0.7304687 0.02539062 0.4550781 0.05078125 0.7304687 0.02539062 0.7304687 0.02539062 0.4550781 0.9726563 0.8769531 0.9726563 0.9980468 0.9296875 0.9101563 0.9726563 0.9980468 0.9296875 0.9648438 0.9296875 0.9101563 0.9296875 0.9101563 0.9296875 0.9648438 0.6972656 0.9101563 0.9296875 0.9648438 0.6972656 0.9648438 0.6972656 0.9101563 0.6972656 0.9101563 0.6972656 0.9648438 0.5058594 0.9101563 0.6972656 0.9648438 0.5058594 0.9648438 0.5058594 0.9101563 0.5058594 0.9101563 0.5058594 0.9648438 0.359375 0.9101563 0.5058594 0.9648438 0.359375 0.9648438 0.359375 0.9101563 0.359375 0.9648438 0.140625 0.9648438 0.359375 0.9101563 0.359375 0.9101563 0.140625 0.9648438 0.140625 0.9101563 0.2558594 0.2519531 0.3789063 0.2519531 0.2558594 0.3554688 0.2558594 0.3554688 0.3789063 0.2519531 0.3789063 0.3554688 0.3789063 0.3554688 0.3789063 0.2519531 0.4199219 0.3378906 0.3789063 0.2519531 0.4199219 0.2695313 0.4199219 0.3378906 0.4199219 0.3378906 0.4199219 0.2695313 0.9609375 0.3378906 0.4199219 0.2695313 0.9609375 0.2695313 0.9609375 0.3378906 0.9609375 0.3378906 0.9609375 0.2695313 0.9824219 0.3378906 0.9609375 0.2695313 0.9824219 0.2695313 0.9824219 0.3378906 0.2929688 0.6132813 0.4238281 0.6757813 0.3046875 0.6523438 0.4238281 0.6757813 0.3691406 0.7011719 0.3046875 0.6523438 0.3046875 0.6523438 0.3691406 0.7011719 0.2734375 0.6699218 0.3691406 0.7011719 0.359375 0.7265625 0.2734375 0.6699218 0.2734375 0.6699218 0.359375 0.7265625 0.1445312 0.6777344 0.1445312 0.6777344 0.359375 0.7265625 0.1035156 0.7558594 0.359375 0.7265625 0.3691406 0.7558594 0.1035156 0.7558594 0.1035156 0.7558594 0.3691406 0.7558594 0.359375 0.7851563 0.3691406 0.7558594 0.453125 0.7558594 0.359375 0.7851563 0.359375 0.7851563 0.453125 0.7558594 0.5410156 0.7851563 0.5410156 0.7851563 0.453125 0.7558594 0.5 0.7226563 0.453125 0.7558594 0.4609375 0.7324219 0.5 0.7226563 0.5 0.7226563 0.4609375 0.7324219 0.4238281 0.6757813 0.4609375 0.7324219 0.421875 0.7011719 0.4238281 0.6757813 0.4238281 0.6757813 0.421875 0.7011719 0.3691406 0.7011719 0.1523437 0.296875 0.171875 0.3183593 0.1308593 0.296875 0.1308593 0.296875 0.171875 0.3183593 0.1113281 0.3183593 0.171875 0.3183593 0.1679688 0.3691406 0.1113281 0.3183593 0.1113281 0.3183593 0.1679688 0.3691406 0.1132812 0.3691406 0.1679688 0.3691406 0.1503906 0.4257813 0.1132812 0.3691406 0.1132812 0.3691406 0.1503906 0.4257813 0.1308593 0.4257813 0.3476563 0.5351563 0.2929688 0.6132813 0.3828125 0.5371094 0.3828125 0.5371094 0.2929688 0.6132813 0.4238281 0.6757813 0.2929688 0.6132813 0.3046875 0.6523438 0.4238281 0.6757813 0.4238281 0.6757813 0.3046875 0.6523438 0.3691406 0.7011719 0.3046875 0.6523438 0.2734375 0.6699218 0.3691406 0.7011719 0.3691406 0.7011719 0.2734375 0.6699218 0.359375 0.7265625 0.2734375 0.6699218 0.1445312 0.6777344 0.359375 0.7265625 0.1445312 0.6777344 0.1035156 0.7558594 0.359375 0.7265625 0.359375 0.7265625 0.1035156 0.7558594 0.3691406 0.7558594 0.1035156 0.7558594 0.359375 0.7851563 0.3691406 0.7558594 0.3691406 0.7558594 0.359375 0.7851563 0.453125 0.7558594 0.359375 0.7851563 0.5410156 0.7851563 0.453125 0.7558594 0.453125 0.7558594 0.5410156 0.7851563 0.5 0.7226563 0.5410156 0.7851563 0.6933593 0.7382813 0.5 0.7226563 0.6933593 0.7382813 0.5488281 0.6816406 0.5 0.7226563 0.5 0.7226563 0.5488281 0.6816406 0.4238281 0.6757813 0.5488281 0.6816406 0.5371094 0.6464843 0.4238281 0.6757813 0.4238281 0.6757813 0.5371094 0.6464843 0.3828125 0.5371094 0.921875 0.4570313 0.9160156 0.4570313 0.921875 0.5976563 0.921875 0.5976563 0.9160156 0.4570313 0.9160156 0.6035156 0.9160156 0.6035156 0.9160156 0.4570313 0.8007813 0.6035156 0.9160156 0.4570313 0.7109375 0.4570313 0.8007813 0.6035156 0.8007813 0.6035156 0.7109375 0.4570313 0.7109375 0.578125 0.7109375 0.4570313 0.7050781 0.4570313 0.7109375 0.578125 0.7109375 0.578125 0.7050781 0.4570313 0.7050781 0.5722656 0.8007813 0.6035156 0.7109375 0.578125 0.7792969 0.6230468 0.7792969 0.6230468 0.7109375 0.578125 0.7109375 0.6230468 0.1542968 0.421875 0.1640625 0.4472656 0.1308593 0.421875 0.1308593 0.421875 0.1640625 0.4472656 0.1210937 0.4472656 0.1210937 0.4472656 0.1640625 0.4472656 0.1289062 0.4902343 0.1640625 0.4472656 0.15625 0.4902343 0.1289062 0.4902343 0.1289062 0.4902343 0.15625 0.4902343 0.1269531 0.5117188 0.15625 0.4902343 0.1582031 0.5117188 0.1269531 0.5117188 0.3691406 0.7011719 0.421875 0.7011719 0.4238281 0.6757813 0.421875 0.7011719 0.4609375 0.7324219 0.4238281 0.6757813 0.4238281 0.6757813 0.4609375 0.7324219 0.5 0.7226563 0.4609375 0.7324219 0.453125 0.7558594 0.5 0.7226563 0.1035156 0.7558594 0.1289062 0.8183593 0.359375 0.7851563 0.1289062 0.8183593 0.359375 0.8183593 0.359375 0.7851563 0.359375 0.7851563 0.359375 0.8183593 0.5410156 0.7851563 0.359375 0.8183593 0.5488281 0.8183593 0.5410156 0.7851563 0.5410156 0.7851563 0.5488281 0.8183593 0.6933593 0.7851563 0.5488281 0.8183593 0.6933593 0.8652343 0.6933593 0.7851563 0.6933593 0.7851563 0.6933593 0.8652343 0.9296875 0.8652343 0.6933593 0.8652343 0.6972656 0.8984375 0.9296875 0.8652343 0.9296875 0.8652343 0.6972656 0.8984375 0.9296875 0.8964843 0.6972656 0.8984375 0.6972656 0.9101563 0.9296875 0.8964843 0.6972656 0.9101563 0.9296875 0.9101563 0.9296875 0.8964843 0.9296875 0.9101563 0.9726563 0.8652343 0.9296875 0.8964843 0.9296875 0.8964843 0.9726563 0.8652343 0.9296875 0.8652343 0.9726563 0.8652343 0.9726563 0.7851563 0.9296875 0.8652343 0.9296875 0.8652343 0.9726563 0.7851563 0.6933593 0.7851563 0.9726563 0.7851563 0.6933593 0.7382813 0.6933593 0.7851563 0.6933593 0.7851563 0.6933593 0.7382813 0.5410156 0.7851563 0.6972656 0.9101563 0.6972656 0.8984375 0.5058594 0.8652343 0.5058594 0.8652343 0.6972656 0.8984375 0.5488281 0.8183593 0.6972656 0.8984375 0.6933593 0.8652343 0.5488281 0.8183593 0.9726563 0.7851563 0.9726563 0.7382813 0.6933593 0.7382813 0.1015625 0.03515625 0.1152343 0.15625 0.04296875 0.04492187 0.04296875 0.04492187 0.1152343 0.15625 0.04296875 0.1503906 0.1152343 0.15625 0.04296875 0.1835938 0.04296875 0.1503906 0.04296875 0.1835938 0.02929687 0.1777343 0.04296875 0.1503906 0.04296875 0.1503906 0.02929687 0.1777343 0.02929687 0.15625 0.1152343 0.15625 0.1152343 0.1875 0.04296875 0.1835938 0.04296875 0.1835938 0.1152343 0.1875 0.078125 0.1933593 0.5488281 0.8183593 0.359375 0.8183593 0.5058594 0.8652343 0.5058594 0.8652343 0.359375 0.8183593 0.359375 0.8457031 0.359375 0.8457031 0.359375 0.8183593 0.140625 0.8457031 0.359375 0.8183593 0.1289062 0.8183593 0.140625 0.8457031 0.5878906 0.5644531 0.5878906 0.3984375 0.5761719 0.3984375 0.5878906 0.3984375 0.5878906 0.3886719 0.5761719 0.3984375 0.5761719 0.3984375 0.5878906 0.3886719 0.5761719 0.3886719 0.5761719 0.3886719 0.5878906 0.3886719 0.5761719 0.375 0.5878906 0.3886719 0.5878906 0.375 0.5761719 0.375 0.01757812 0.2148438 0.07421875 0.2148438 0.01757812 0.2304688 0.07421875 0.2148438 0.07421875 0.2304688 0.01757812 0.2304688 0.01757812 0.2304688 0.07421875 0.2304688 0.0078125 0.2578125 0.07421875 0.2304688 0.08398437 0.2578125 0.0078125 0.2578125 0.08398437 0.2578125 0.078125 0.265625 0.0078125 0.2578125 0.0078125 0.2578125 0.078125 0.265625 0.01367187 0.265625 0.078125 0.265625 0.08398437 0.2714844 0.01367187 0.265625 0.01367187 0.265625 0.08398437 0.2714844 0.0078125 0.2714844 0.0078125 0.2714844 0.08398437 0.2714844 0.01757812 0.2949219 0.08398437 0.2714844 0.07421875 0.2949219 0.01757812 0.2949219 0.01757812 0.2949219 0.07421875 0.2949219 0.01757812 0.3085938 0.07421875 0.2949219 0.07421875 0.3085938 0.01757812 0.3085938 0.9824219 0.08789062 0.9824219 0.01757812 0.9628906 0.08789062 0.9824219 0.01757812 0.9628906 0.01757812 0.9628906 0.08789062 0.9628906 0.08789062 0.9628906 0.01757812 0.7265625 0.08789062 0.9628906 0.01757812 0.7265625 0.01757812 0.7265625 0.08789062 0.7265625 0.01757812 0.6699218 0.03125 0.7265625 0.08789062 0.7265625 0.08789062 0.6699218 0.03125 0.6699218 0.07421875 0.6699218 0.03125 0.2695313 0.03125 0.6699218 0.07421875 0.6699218 0.07421875 0.2695313 0.03125 0.2695313 0.07421875 0.2695313 0.03125 0.2558594 0.02539062 0.2695313 0.07421875 0.2695313 0.07421875 0.2558594 0.02539062 0.2558594 0.08007812 0.2558594 0.08007812 0.2558594 0.02539062 0.2246093 0.08398437 0.2558594 0.02539062 0.2246093 0.02148437 0.2246093 0.08398437 0.2246093 0.08398437 0.2246093 0.02148437 0.2070312 0.08398437 0.2246093 0.02148437 0.2070312 0.02148437 0.2070312 0.08398437 0.2070312 0.02148437 0.203125 0.0234375 0.2070312 0.08398437 0.2070312 0.08398437 0.203125 0.0234375 0.203125 0.08203125 0.2382812 0.2578125 0.2441406 0.2519531 0.2382812 0.3496094 0.2382812 0.3496094 0.2441406 0.2519531 0.2441406 0.3554688 0.2441406 0.3554688 0.2441406 0.2519531 0.2558594 0.3554688 0.2441406 0.2519531 0.2558594 0.2519531 0.2558594 0.3554688 0.9433593 0.6953125 0.9902343 0.6953125 0.9433593 0.6542969 0.9902343 0.6953125 0.9902343 0.6542969 0.9433593 0.6542969 0.9902343 0.6542969 0.9804687 0.6308594 0.9433593 0.6542969 0.9433593 0.6542969 0.9804687 0.6308594 0.9550781 0.6308594 0.7109375 0.7089844 0.7109375 0.703125 0.7792969 0.7089844 0.7792969 0.7089844 0.7109375 0.703125 0.7792969 0.703125 0.7109375 0.703125 0.7792969 0.6289063 0.7792969 0.703125 0.7792969 0.703125 0.7792969 0.6289063 0.8007813 0.6289063 0.7792969 0.6289063 0.7792969 0.6230468 0.8007813 0.6289063 0.7792969 0.6230468 0.8007813 0.6230468 0.8007813 0.6289063 0.8007813 0.6289063 0.8007813 0.6230468 0.9101563 0.6289063 0.8007813 0.6230468 0.9160156 0.6230468 0.9101563 0.6289063 0.9160156 0.6230468 0.921875 0.6289063 0.9101563 0.6289063 0.921875 0.6289063 0.921875 0.703125 0.9101563 0.6289063 0.9101563 0.6289063 0.921875 0.703125 0.9101563 0.703125 0.921875 0.703125 0.9160156 0.7089844 0.9101563 0.703125 0.7792969 0.7089844 0.7792969 0.703125 0.8007813 0.7089844 0.7792969 0.703125 0.8007813 0.703125 0.8007813 0.7089844 0.8007813 0.7089844 0.8007813 0.703125 0.9160156 0.7089844 0.9160156 0.7089844 0.8007813 0.703125 0.9101563 0.703125 0.9101563 0.703125 0.8007813 0.703125 0.9101563 0.6289063 0.8007813 0.703125 0.8007813 0.6289063 0.9101563 0.6289063 0.7109375 0.703125 0.7109375 0.6289063 0.7792969 0.6289063 0.7109375 0.6289063 0.7109375 0.6230468 0.7792969 0.6289063 0.7792969 0.6289063 0.7109375 0.6230468 0.7792969 0.6230468 0.7109375 0.6230468 0.7109375 0.578125 0.7792969 0.6230468 0.7792969 0.6230468 0.7109375 0.578125 0.8007813 0.6035156 0.7109375 0.578125 0.7109375 0.4570313 0.8007813 0.6035156 0.7109375 0.4570313 0.9160156 0.4570313 0.8007813 0.6035156 0.8007813 0.6035156 0.9160156 0.4570313 0.9160156 0.6035156 0.9160156 0.4570313 0.921875 0.4570313 0.9160156 0.6035156 0.9160156 0.6035156 0.921875 0.4570313 0.921875 0.5976563 0.921875 0.5976563 0.921875 0.4570313 0.9921875 0.5976563 0.921875 0.4570313 0.9921875 0.4570313 0.9921875 0.5976563 0.3515625 0.7636719 0.3515625 0.7382813 0.3886719 0.7636719 0.3515625 0.7382813 0.3886719 0.7382813 0.3886719 0.7636719 0.3886719 0.7382813 0.4003906 0.7421875 0.3886719 0.7636719 0.3886719 0.7636719 0.4003906 0.7421875 0.4003906 0.7597656 0.4003906 0.7597656 0.4003906 0.7421875 0.4121094 0.7578125 0.4003906 0.7421875 0.4121094 0.7441406 0.4121094 0.7578125 0.4121094 0.7578125 0.4121094 0.7441406 0.4375 0.7558594 0.4121094 0.7441406 0.4375 0.7460938 0.4375 0.7558594 0.4375 0.7460938 0.4550781 0.7460938 0.4375 0.7558594 0.4375 0.7558594 0.4550781 0.7460938 0.4550781 0.7558594 0.4550781 0.7460938 0.4628906 0.7382813 0.4550781 0.7558594 0.4550781 0.7558594 0.4628906 0.7382813 0.4628906 0.7636719 0.5878906 0.6113281 0.5878906 0.5722656 0.5761719 0.6113281 0.5761719 0.6113281 0.5878906 0.5722656 0.5761719 0.5722656 0.5761719 0.5722656 0.5878906 0.5722656 0.5761719 0.5644531 0.5878906 0.5722656 0.5878906 0.5644531 0.5761719 0.5644531 0.5878906 0.5644531 0.5761719 0.3984375 0.5761719 0.5644531 0.5761719 0.5644531 0.5761719 0.3984375 0.5625 0.3984375 0.5625 0.3984375 0.5761719 0.3984375 0.5625 0.3886719 0.5761719 0.3984375 0.5761719 0.3886719 0.5625 0.3886719 0.5625 0.3886719 0.5761719 0.3886719 0.5625 0.375 0.5761719 0.3886719 0.5761719 0.375 0.5625 0.375 0.5625 0.375 0.5390625 0.375 0.5625 0.3886719 0.5390625 0.375 0.5390625 0.3886719 0.5625 0.3886719 0.5390625 0.3886719 0.5390625 0.3984375 0.5625 0.3886719 0.5625 0.3886719 0.5390625 0.3984375 0.5625 0.3984375 0.5625 0.3984375 0.5390625 0.3984375 0.5625 0.5644531 0.5390625 0.3984375 0.5390625 0.5644531 0.5625 0.5644531 0.5625 0.5644531 0.5390625 0.5644531 0.5625 0.5722656 0.5390625 0.5644531 0.5390625 0.5722656 0.5625 0.5722656 0.5390625 0.5722656 0.5390625 0.6113281 0.5625 0.5722656 0.5625 0.5722656 0.5390625 0.6113281 0.5625 0.6113281 0.921875 0.453125 0.9160156 0.4570313 0.921875 0.3789063 0.921875 0.3789063 0.9160156 0.4570313 0.9160156 0.375 0.9160156 0.375 0.9160156 0.4570313 0.7109375 0.375 0.9160156 0.4570313 0.7109375 0.4570313 0.7109375 0.375 0.7109375 0.4570313 0.7050781 0.453125 0.7109375 0.375 0.7109375 0.375 0.7050781 0.453125 0.7050781 0.3789063 0.2460938 0.8574219 0.1074218 0.8574219 0.2460938 0.8769531 0.2460938 0.8769531 0.1074218 0.8574219 0.1074218 0.8769531 0.2558594 0.2285156 0.3789063 0.2285156 0.2558594 0.1972656 0.2558594 0.1972656 0.3789063 0.2285156 0.9609375 0.1972656 0.3789063 0.2285156 0.9609375 0.2285156 0.9609375 0.1972656 0.9609375 0.1972656 0.9609375 0.2285156 0.9824219 0.2207031 0.9824219 0.2207031 0.9609375 0.2285156 0.9824219 0.234375 0.9824219 0.234375 0.9609375 0.2285156 0.9609375 0.2695313 0.9609375 0.2695313 0.9609375 0.2285156 0.4199219 0.2695313 0.9609375 0.2285156 0.3789063 0.2285156 0.4199219 0.2695313 0.7109375 0.578125 0.7050781 0.5722656 0.7109375 0.4570313 0.7050781 0.5722656 0.7050781 0.4570313 0.7109375 0.4570313 0.2558594 0.2285156 0.2558594 0.1972656 0.3789063 0.2285156 0.2558594 0.1972656 0.9609375 0.1972656 0.3789063 0.2285156 0.3789063 0.2285156 0.9609375 0.1972656 0.9609375 0.2285156 0.9609375 0.1972656 0.9824219 0.2207031 0.9609375 0.2285156 0.9824219 0.2207031 0.9824219 0.234375 0.9609375 0.2285156 0.9824219 0.234375 0.9609375 0.2695313 0.9609375 0.2285156 0.9609375 0.2695313 0.4199219 0.2695313 0.9609375 0.2285156 0.9609375 0.2285156 0.4199219 0.2695313 0.3789063 0.2285156 0.9003906 0.9765625 0.6933593 0.9765625 0.9003906 0.9921875 0.9003906 0.9921875 0.6933593 0.9765625 0.6933593 0.9921875 0.6933593 0.9765625 0.5488281 0.9804687 0.6933593 0.9921875 0.6933593 0.9921875 0.5488281 0.9804687 0.5488281 0.9882813 0.5488281 0.9804687 0.5351563 0.9804687 0.5488281 0.9882813 0.5488281 0.9882813 0.5351563 0.9804687 0.5351563 0.9882813 0.5351563 0.9804687 0.3828125 0.9804687 0.5351563 0.9882813 0.5351563 0.9882813 0.3828125 0.9804687 0.3828125 0.9882813 0.3828125 0.9804687 0.34375 0.9804687 0.3828125 0.9882813 0.3828125 0.9882813 0.34375 0.9804687 0.34375 0.9882813 0.34375 0.9804687 0.3027343 0.9765625 0.34375 0.9882813 0.34375 0.9882813 0.3027343 0.9765625 0.3027343 0.9921875 0.3027343 0.9765625 0.2929688 0.9765625 0.3027343 0.9921875 0.3027343 0.9921875 0.2929688 0.9765625 0.2929688 0.9921875 0.2929688 0.9765625 0.2734375 0.9804687 0.2929688 0.9921875 0.2929688 0.9921875 0.2734375 0.9804687 0.2734375 0.9882813 0.2734375 0.9882813 0.2734375 0.9804687 0.1445312 0.9902343 0.2734375 0.9804687 0.1445312 0.9785156 0.1445312 0.9902343 0.9609375 0.1972656 0.2558594 0.1972656 0.9570313 0.1914062 0.2558594 0.1972656 0.2617188 0.1914062 0.9570313 0.1914062 0.2617188 0.1914062 0.2558594 0.1835938 0.9570313 0.1914062 0.9570313 0.1914062 0.2558594 0.1835938 0.9628906 0.1835938 0.2558594 0.1835938 0.9628906 0.1484375 0.9628906 0.1835938 0.9628906 0.1835938 0.9628906 0.1484375 0.9824219 0.15625 0.9824219 0.15625 0.9628906 0.1484375 0.9824219 0.140625 0.9824219 0.140625 0.9628906 0.1484375 0.9628906 0.1054687 0.9628906 0.1054687 0.9628906 0.1484375 0.7265625 0.1054687 0.7265625 0.1054687 0.9628906 0.1484375 0.2558594 0.1484375 0.9628906 0.1484375 0.2558594 0.1835938 0.2558594 0.1484375 0.1015625 0.8027344 0.0859375 0.8378906 0.08789062 0.765625 0.0859375 0.8378906 0.05078125 0.8496093 0.08789062 0.765625 0.08789062 0.765625 0.05078125 0.8496093 0.05273437 0.7519531 0.05273437 0.7519531 0.05078125 0.8496093 0.01757812 0.7636719 0.05078125 0.8496093 0.015625 0.8359375 0.01757812 0.7636719 0.01757812 0.7636719 0.015625 0.8359375 0 0.8007813 0.8007813 0.703125 0.7792969 0.703125 0.8007813 0.6289063 0.9296875 0.8652343 0.9296875 0.8964843 0.6972656 0.8984375</float_array>
          <technique_common>
            <accessor source="#standard_standard-mesh-map-0-array" count="1344" stride="2">
              <param name="S" type="float"/>
              <param name="T" type="float"/>
            </accessor>
          </technique_common>
        </source>
        <vertices id="standard_standard-mesh-vertices">
          <input semantic="POSITION" source="#standard_standard-mesh-positions"/>
        </vertices>
        <triangles material="h_turret_mp_gun-material" count="448">
          <input semantic="VERTEX" source="#standard_standard-mesh-vertices" offset="0"/>
          <input semantic="NORMAL" source="#standard_standard-mesh-normals" offset="1"/>
          <input semantic="TEXCOORD" source="#standard_standard-mesh-map-0" offset="2" set="0"/>
          <p>0 0 0 1 1 1 2 2 2 1 1 3 3 3 4 2 2 5 2 2 6 3 3 7 4 4 8 3 3 9 5 5 10 4 4 11 4 4 12 5 5 13 6 6 14 5 5 15 7 7 16 6 6 17 6 6 18 7 7 19 8 8 20 7 7 21 9 9 22 8 8 23 8 8 24 9 9 25 10 10 26 9 9 27 11 11 28 10 10 29 10 10 30 11 11 31 12 12 32 4 4 33 6 6 34 13 13 35 13 13 36 6 6 37 14 14 38 6 6 39 15 15 40 14 14 41 14 14 42 15 15 43 16 16 44 15 15 45 8 8 46 16 16 47 16 16 48 8 8 49 10 10 50 5 5 51 3 3 52 17 17 53 17 17 54 3 3 55 18 18 56 3 3 57 1 1 58 18 18 59 18 18 60 1 1 61 19 19 62 20 20 63 22 21 64 21 22 65 21 22 66 22 21 67 23 23 68 24 24 69 26 25 70 25 26 71 25 26 72 26 25 73 27 27 74 28 28 75 30 29 76 29 30 77 29 30 78 30 29 79 31 31 80 30 29 81 32 32 82 31 31 83 31 31 84 32 32 85 33 33 86 34 34 87 32 32 88 35 35 89 35 35 90 32 32 91 36 36 92 32 32 93 30 29 94 36 36 95 30 29 96 37 37 97 36 36 98 37 37 99 38 38 100 36 36 101 36 36 102 38 38 103 35 35 104 39 39 105 41 40 106 40 41 107 40 41 108 41 40 109 42 42 110 43 43 111 39 44 112 44 45 113 44 45 114 39 44 115 45 46 116 46 47 117 48 48 118 47 49 119 47 49 120 48 48 121 49 50 122 50 51 123 52 52 124 51 53 125 51 53 126 52 52 127 53 54 128 54 55 129 56 56 130 55 57 131 55 57 132 56 56 133 57 58 134 56 56 135 58 59 136 57 58 137 38 60 138 59 61 139 60 62 140 59 61 141 61 63 142 60 62 143 60 62 144 61 63 145 62 64 146 61 63 147 63 65 148 62 64 149 55 57 150 57 58 151 64 66 152 57 58 153 65 67 154 64 66 155 64 66 156 65 67 157 66 68 158 65 67 159 67 69 160 66 68 161 66 68 162 67 69 163 68 70 164 69 71 165 70 72 166 66 68 167 66 68 168 70 72 169 64 66 170 71 73 171 73 74 172 72 75 173 72 75 174 73 74 175 74 76 176 73 74 177 75 77 178 74 76 179 76 78 180 77 79 181 78 80 182 77 79 183 79 81 184 78 80 185 78 80 186 79 81 187 80 82 188 79 81 189 81 83 190 80 82 191 82 84 192 83 85 193 84 86 194 83 85 195 85 87 196 84 86 197 86 88 198 87 89 199 88 90 200 87 89 201 89 91 202 88 90 203 90 92 204 91 93 205 92 94 206 91 93 207 93 95 208 92 94 209 94 96 210 95 97 211 96 98 212 95 97 213 97 99 214 96 98 215 98 100 216 99 101 217 100 102 218 99 101 219 101 103 220 100 102 221 100 102 222 101 103 223 102 104 224 101 103 225 103 105 226 102 104 227 102 104 228 103 105 229 104 106 230 105 107 231 107 108 232 106 109 233 106 109 234 107 108 235 108 110 236 107 108 237 109 111 238 108 110 239 108 110 240 109 111 241 110 112 242 111 113 243 113 114 244 112 115 245 112 115 246 113 114 247 114 116 248 113 114 249 115 117 250 114 116 251 114 116 252 115 117 253 116 118 254 117 119 255 119 120 256 118 121 257 118 121 258 119 120 259 120 122 260 119 120 261 121 123 262 120 122 263 120 122 264 121 123 265 122 124 266 123 125 267 125 126 268 124 127 269 124 127 270 125 126 271 126 128 272 125 126 273 127 129 274 126 128 275 126 128 276 127 129 277 128 130 278 129 131 279 131 132 280 130 133 281 130 133 282 131 132 283 132 134 284 131 132 285 133 135 286 132 134 287 132 134 288 133 135 289 134 136 290 133 135 291 135 137 292 134 136 293 134 136 294 135 137 295 136 138 296 135 137 297 137 139 298 136 138 299 136 138 300 137 139 301 138 140 302 139 141 303 141 142 304 140 143 305 140 143 306 141 142 307 142 144 308 141 142 309 143 145 310 142 144 311 144 146 312 145 147 313 146 148 314 145 147 315 147 149 316 146 148 317 146 148 318 147 149 319 148 150 320 149 151 321 151 152 322 150 153 323 150 153 324 151 152 325 152 154 326 151 152 327 153 155 328 152 154 329 152 154 330 153 155 331 154 156 332 153 155 333 155 157 334 154 156 335 154 156 336 155 157 337 145 147 338 145 147 339 155 157 340 147 149 341 147 149 342 155 157 343 156 158 344 156 158 345 155 157 346 157 159 347 157 159 348 155 157 349 158 160 350 155 157 351 153 155 352 158 160 353 159 161 354 160 162 355 161 163 356 160 162 357 162 164 358 161 163 359 161 163 360 162 164 361 163 165 362 162 164 363 164 166 364 163 165 365 164 166 366 165 167 367 163 165 368 163 165 369 165 167 370 166 168 371 165 167 372 167 169 373 166 168 374 166 168 375 167 169 376 168 170 377 167 169 378 169 171 379 168 170 380 168 170 381 169 171 382 170 172 383 169 171 384 171 173 385 170 172 386 170 172 387 171 173 388 172 174 389 171 173 390 173 175 391 172 174 392 172 174 393 173 175 394 174 176 395 175 177 396 177 178 397 176 179 398 176 179 399 177 178 400 178 180 401 177 178 402 179 181 403 178 180 404 178 180 405 179 181 406 180 182 407 179 181 408 181 183 409 180 182 410 180 182 411 181 183 412 182 184 413 181 183 414 183 185 415 182 184 416 183 185 417 184 186 418 182 184 419 182 184 420 184 186 421 185 187 422 184 186 423 186 188 424 185 187 425 187 189 426 188 190 427 189 191 428 188 190 429 190 192 430 189 191 431 189 191 432 190 192 433 191 193 434 190 192 435 192 194 436 191 193 437 191 193 438 192 194 439 193 195 440 192 194 441 194 196 442 193 195 443 193 195 444 194 196 445 195 197 446 195 197 447 194 196 448 196 198 449 194 196 450 197 199 451 196 198 452 196 198 453 197 199 454 198 200 455 185 187 456 199 201 457 182 184 458 182 184 459 199 201 460 180 182 461 199 201 462 200 202 463 180 182 464 180 182 465 200 202 466 178 180 467 200 202 468 201 203 469 178 180 470 178 180 471 201 203 472 176 179 473 202 204 474 204 205 475 203 206 476 203 206 477 204 205 478 205 207 479 204 205 480 206 208 481 205 207 482 206 208 483 207 209 484 205 207 485 205 207 486 207 209 487 208 210 488 207 209 489 11 11 490 208 210 491 208 210 492 11 11 493 17 17 494 11 11 495 9 9 496 17 17 497 17 17 498 9 9 499 5 5 500 9 9 501 7 7 502 5 5 503 188 190 504 209 211 505 190 192 506 209 211 507 210 212 508 190 192 509 190 192 510 210 212 511 192 194 512 210 212 513 211 213 514 192 194 515 192 194 516 211 213 517 194 196 518 211 213 519 197 199 520 194 196 521 212 214 522 213 215 523 14 14 524 213 215 525 214 216 526 14 14 527 14 14 528 214 216 529 13 13 530 214 216 531 215 217 532 13 13 533 13 13 534 215 217 535 216 218 536 215 217 537 217 219 538 216 218 539 216 218 540 217 219 541 218 220 542 217 219 543 219 221 544 218 220 545 219 221 546 220 222 547 218 220 548 218 220 549 220 222 550 221 223 551 222 224 552 224 225 553 223 226 554 223 226 555 224 225 556 225 227 557 225 227 558 224 225 559 226 228 560 224 225 561 227 229 562 226 228 563 226 228 564 227 229 565 228 230 566 227 229 567 229 231 568 228 230 569 228 230 570 229 231 571 230 232 572 229 231 573 231 233 574 230 232 575 203 206 576 205 207 577 232 234 578 205 207 579 233 235 580 232 234 581 232 234 582 233 235 583 234 236 584 233 235 585 235 237 586 234 236 587 234 236 588 235 237 589 236 238 590 236 238 591 235 237 592 19 19 593 235 237 594 237 239 595 19 19 596 19 19 597 237 239 598 18 18 599 237 239 600 238 240 601 18 18 602 18 18 603 238 240 604 17 17 605 17 17 606 238 240 607 208 210 608 238 240 609 239 241 610 208 210 611 208 210 612 239 241 613 205 207 614 239 241 615 240 242 616 205 207 617 205 207 618 240 242 619 233 235 620 241 243 621 243 244 622 242 245 623 242 246 624 243 247 625 244 248 626 243 249 627 245 250 628 244 251 629 244 251 630 245 250 631 246 252 632 245 250 633 247 253 634 246 252 635 246 252 636 247 253 637 248 254 638 249 255 639 251 256 640 250 257 641 250 257 642 251 256 643 252 258 644 251 256 645 253 259 646 252 258 647 252 258 648 253 259 649 254 260 650 253 259 651 255 261 652 254 260 653 254 260 654 255 261 655 256 262 656 255 261 657 257 263 658 256 262 659 257 263 660 258 264 661 256 262 662 256 262 663 258 264 664 259 265 665 258 264 666 260 266 667 259 265 668 259 265 669 260 266 670 261 267 671 260 266 672 262 268 673 261 267 674 261 267 675 262 268 676 263 269 677 262 268 678 264 270 679 263 269 680 264 270 681 265 271 682 263 269 683 263 269 684 265 271 685 252 258 686 265 271 687 266 272 688 252 258 689 252 258 690 266 272 691 250 257 692 267 273 693 269 274 694 268 275 695 268 275 696 269 274 697 270 276 698 270 276 699 269 274 700 271 277 701 269 274 702 272 278 703 271 277 704 271 277 705 272 278 706 273 279 707 272 278 708 274 280 709 273 279 710 273 279 711 274 280 712 275 281 713 271 277 714 273 279 715 276 282 716 276 282 717 273 279 718 277 283 719 278 284 720 280 285 721 279 286 722 279 286 723 280 285 724 281 287 725 281 287 726 280 285 727 282 288 728 280 285 729 283 289 730 282 288 731 282 288 732 283 289 733 284 290 734 283 289 735 285 291 736 284 290 737 254 260 738 286 292 739 252 258 740 286 292 741 287 293 742 252 258 743 252 258 744 287 293 745 263 269 746 287 293 747 261 267 748 263 269 749 258 264 750 288 294 751 260 266 752 288 294 753 289 295 754 260 266 755 260 266 756 289 295 757 262 268 758 289 295 759 290 296 760 262 268 761 262 268 762 290 296 763 291 297 764 290 296 765 292 298 766 291 297 767 291 297 768 292 298 769 293 299 770 292 298 771 294 300 772 293 299 773 293 299 774 294 300 775 295 301 776 294 300 777 296 302 778 295 301 779 296 302 780 297 303 781 295 301 782 297 303 783 298 304 784 295 301 785 295 301 786 298 304 787 293 299 788 298 304 789 299 305 790 293 299 791 293 299 792 299 305 793 291 297 794 299 305 795 264 270 796 291 297 797 291 297 798 264 270 799 262 268 800 296 302 801 294 300 802 300 306 803 300 306 804 294 300 805 290 296 806 294 300 807 292 298 808 290 296 809 299 305 810 301 307 811 264 270 812 74 76 813 302 308 814 72 75 815 72 75 816 302 308 817 303 309 818 302 308 819 304 310 820 303 309 821 304 310 822 305 311 823 303 309 824 303 309 825 305 311 826 306 312 827 302 308 828 307 313 829 304 310 830 304 310 831 307 313 832 308 314 833 290 296 834 289 295 835 300 306 836 300 306 837 289 295 838 309 315 839 309 315 840 289 295 841 310 316 842 289 295 843 288 294 844 310 316 845 311 317 846 312 318 847 313 319 848 312 318 849 314 320 850 313 319 851 313 319 852 314 320 853 315 321 854 315 321 855 314 320 856 316 322 857 314 320 858 317 323 859 316 322 860 318 324 861 319 325 862 320 326 863 319 325 864 321 327 865 320 326 866 320 326 867 321 327 868 322 328 869 321 327 870 323 329 871 322 328 872 323 329 873 324 330 874 322 328 875 322 328 876 324 330 877 325 331 878 324 330 879 326 332 880 325 331 881 325 331 882 326 332 883 327 333 884 327 333 885 326 332 886 328 334 887 326 332 888 329 335 889 328 334 890 328 334 891 329 335 892 330 336 893 329 335 894 331 337 895 330 336 896 332 338 897 333 339 898 334 340 899 333 339 900 335 341 901 334 340 902 334 340 903 335 341 904 336 342 905 335 341 906 337 343 907 336 342 908 337 343 909 338 344 910 336 342 911 336 342 912 338 344 913 339 345 914 338 344 915 340 346 916 339 345 917 339 345 918 340 346 919 146 347 920 340 346 921 341 348 922 146 347 923 146 347 924 341 348 925 342 349 926 342 349 927 341 348 928 343 350 929 341 348 930 344 351 931 343 350 932 343 350 933 344 351 934 345 352 935 344 351 936 346 353 937 345 352 938 346 353 939 347 354 940 345 352 941 345 352 942 347 354 943 348 355 944 349 356 945 351 357 946 350 358 947 350 358 948 351 357 949 352 359 950 352 359 951 351 357 952 353 360 953 351 357 954 354 361 955 353 360 956 355 362 957 356 363 958 357 364 959 356 363 960 358 365 961 357 364 962 358 365 963 359 366 964 357 364 965 357 364 966 359 366 967 360 367 968 361 368 969 363 369 970 362 370 971 362 370 972 363 369 973 364 371 974 363 369 975 365 372 976 364 371 977 364 371 978 365 372 979 366 373 980 365 372 981 367 374 982 366 373 983 367 374 984 368 375 985 366 373 986 366 373 987 368 375 988 369 376 989 368 375 990 370 377 991 369 376 992 370 377 993 371 378 994 369 376 995 371 378 996 372 379 997 369 376 998 369 376 999 372 379 1000 373 380 1001 372 379 1002 374 381 1003 373 380 1004 362 370 1005 364 371 1006 375 382 1007 364 371 1008 376 383 1009 375 382 1010 375 382 1011 376 383 1012 377 384 1013 377 384 1014 376 383 1015 378 385 1016 378 385 1017 376 383 1018 369 376 1019 376 383 1020 366 373 1021 369 376 1022 363 369 1023 379 386 1024 365 372 1025 379 386 1026 380 387 1027 365 372 1028 365 372 1029 380 387 1030 367 374 1031 380 387 1032 381 388 1033 367 374 1034 367 374 1035 381 388 1036 382 389 1037 381 388 1038 383 390 1039 382 389 1040 383 390 1041 384 391 1042 382 389 1043 382 389 1044 384 391 1045 385 392 1046 384 391 1047 386 393 1048 385 392 1049 385 392 1050 386 393 1051 387 394 1052 387 394 1053 386 393 1054 388 395 1055 386 393 1056 389 396 1057 388 395 1058 390 397 1059 391 398 1060 392 399 1061 391 398 1062 393 400 1063 392 399 1064 393 400 1065 394 401 1066 392 399 1067 392 399 1068 394 401 1069 395 402 1070 395 402 1071 394 401 1072 396 403 1073 394 401 1074 397 404 1075 396 403 1076 396 403 1077 397 404 1078 398 405 1079 397 404 1080 399 406 1081 398 405 1082 399 406 1083 400 407 1084 398 405 1085 398 405 1086 400 407 1087 401 408 1088 400 407 1089 402 409 1090 401 408 1091 401 408 1092 402 409 1093 403 410 1094 404 411 1095 405 412 1096 104 413 1097 104 413 1098 405 412 1099 406 414 1100 406 414 1101 405 412 1102 407 415 1103 405 412 1104 311 416 1105 407 415 1106 311 416 1107 408 417 1108 407 415 1109 407 415 1110 408 417 1111 98 418 1112 98 418 1113 408 417 1114 409 419 1115 408 417 1116 410 420 1117 409 419 1118 409 419 1119 410 420 1120 411 421 1121 410 420 1122 316 422 1123 411 421 1124 412 423 1125 413 424 1126 414 425 1127 413 424 1128 415 426 1129 414 425 1130 415 426 1131 416 427 1132 414 425 1133 414 425 1134 416 427 1135 417 428 1136 417 428 1137 416 427 1138 418 429 1139 416 427 1140 419 430 1141 418 429 1142 418 429 1143 419 430 1144 420 431 1145 419 430 1146 421 432 1147 420 431 1148 421 432 1149 422 433 1150 420 431 1151 420 431 1152 422 433 1153 423 434 1154 424 435 1155 426 435 1156 425 435 1157 425 435 1158 426 435 1159 427 435 1160 427 435 1161 426 435 1162 428 435 1163 426 435 1164 429 435 1165 428 435 1166 429 435 1167 430 435 1168 428 435 1169 428 435 1170 430 435 1171 431 435 1172 432 436 1173 434 437 1174 433 438 1175 433 438 1176 434 437 1177 435 439 1178 436 440 1179 437 441 1180 150 153 1181 150 153 1182 437 441 1183 149 151 1184 437 441 1185 438 442 1186 149 151 1187 149 151 1188 438 442 1189 439 443 1190 439 443 1191 438 442 1192 440 444 1193 440 444 1194 438 442 1195 441 445 1196 441 445 1197 438 442 1198 442 446 1199 438 442 1200 437 441 1201 442 446 1202 381 388 1203 443 447 1204 383 390 1205 443 447 1206 129 448 1207 383 390 1208 444 449 1209 445 450 1210 446 451 1211 445 450 1212 447 452 1213 446 451 1214 446 451 1215 447 452 1216 448 453 1217 447 452 1218 449 454 1219 448 453 1220 449 454 1221 450 455 1222 448 453 1223 450 455 1224 451 456 1225 448 453 1226 451 456 1227 452 457 1228 448 453 1229 448 453 1230 452 457 1231 446 451 1232 453 458 1233 455 459 1234 454 460 1235 454 460 1236 455 459 1237 456 461 1238 455 459 1239 457 462 1240 456 461 1241 456 461 1242 457 462 1243 458 463 1244 457 462 1245 459 464 1246 458 463 1247 458 463 1248 459 464 1249 460 465 1250 459 464 1251 461 466 1252 460 465 1253 460 465 1254 461 466 1255 462 467 1256 461 466 1257 463 468 1258 462 467 1259 462 467 1260 463 468 1261 464 469 1262 463 468 1263 465 470 1264 464 469 1265 464 469 1266 465 470 1267 466 471 1268 465 470 1269 467 472 1270 466 471 1271 466 471 1272 467 472 1273 468 473 1274 467 472 1275 469 474 1276 468 473 1277 468 473 1278 469 474 1279 470 475 1280 470 475 1281 469 474 1282 471 476 1283 469 474 1284 472 477 1285 471 476 1286 447 452 1287 445 450 1288 473 478 1289 445 450 1290 474 479 1291 473 478 1292 474 479 1293 475 480 1294 473 478 1295 473 478 1296 475 480 1297 476 481 1298 475 480 1299 477 482 1300 476 481 1301 476 481 1302 477 482 1303 478 483 1304 478 483 1305 477 482 1306 479 484 1307 479 484 1308 477 482 1309 480 485 1310 480 485 1311 477 482 1312 142 144 1313 142 144 1314 477 482 1315 140 143 1316 477 482 1317 475 480 1318 140 143 1319 481 486 1320 482 487 1321 483 488 1322 482 487 1323 484 489 1324 483 488 1325 483 488 1326 484 489 1327 485 490 1328 485 490 1329 484 489 1330 486 491 1331 484 489 1332 487 492 1333 486 491 1334 486 491 1335 487 492 1336 488 493 1337 489 494 1338 364 371 1339 366 373 1340 8 8 1341 15 15 1342 6 6 1343</p>
        </triangles>
      </mesh>
    </geometry>
  </library_geometries>
  <library_controllers>
    <controller id="Armature_standard_standard-skin" name="Armature">
      <skin source="#standard_standard-mesh">
        <bind_shape_matrix>1 0 0 0 0 1 0 0 0 0 1 0 0 0 0 1</bind_shape_matrix>
        <source id="Armature_standard_standard-skin-joints">
          <Name_array id="Armature_standard_standard-skin-joints-array" count="5">gun magazine ophandle safety switch</Name_array>
          <technique_common>
            <accessor source="#Armature_standard_standard-skin-joints-array" count="5" stride="1">
              <param name="JOINT" type="name"/>
            </accessor>
          </technique_common>
        </source>
        <source id="Armature_standard_standard-skin-bind_poses">
          <float_array id="Armature_standard_standard-skin-bind_poses-array" count="80">1 0 0 0 0 1 0 -1 0 0 1 8.036e-7 0 0 0 1 1 0 0 4.800985 0 1 0 -1 0 0 1 -1.435098 0 0 0 1 1 0 0 -1.752854 0 1 0 -1.831316 0 0 1 -5.724611 0 0 0 1 1 0 0 -0.8322424 0 1 0 -2.364808 0 0 1 -3.521657 0 0 0 1 1 0 0 -6.930277 0 1 0 -2.245559 0 0 1 -3.117894 0 0 0 1</float_array>
          <technique_common>
            <accessor source="#Armature_standard_standard-skin-bind_poses-array" count="5" stride="16">
              <param name="TRANSFORM" type="float4x4"/>
            </accessor>
          </technique_common>
        </source>
        <source id="Armature_standard_standard-skin-weights">
          <float_array id="Armature_standard_standard-skin-weights-array" count="490">1 1 1 1 1 1 1 1 1 1 1 1 1 1 1 1 1 1 1 1 1 1 1 1 1 1 1 1 1 1 1 1 1 1 1 1 1 1 1 1 1 1 1 1 1 1 1 1 1 1 1 1 1 1 1 1 1 1 1 1 1 1 1 1 1 1 1 1 1 1 1 1 1 1 1 1 1 1 1 1 1 1 1 1 1 1 1 1 1 1 1 1 1 1 1 1 1 1 1 1 1 1 1 1 1 1 1 1 1 1 1 1 1 1 1 1 1 1 1 1 1 1 1 1 1 1 1 1 1 1 1 1 1 1 1 1 1 1 1 1 1 1 1 1 1 1 1 1 1 1 1 1 1 1 1 1 1 1 1 1 1 1 1 1 1 1 1 1 1 1 1 1 1 1 1 1 1 1 1 1 1 1 1 1 1 1 1 1 1 1 1 1 1 1 1 1 1 1 1 1 1 1 1 1 1 1 1 1 1 1 1 1 1 1 1 1 1 1 1 1 1 1 1 1 1 1 1 1 1 1 1 1 1 1 1 1 1 1 1 1 1 1 1 1 1 1 1 1 1 1 1 1 1 1 1 1 1 1 1 1 1 1 1 1 1 1 1 1 1 1 1 1 1 1 1 1 1 1 1 1 1 1 1 1 1 1 1 1 1 1 1 1 1 1 1 1 1 1 1 1 1 1 1 1 1 1 1 1 1 1 1 1 1 1 1 1 1 1 1 1 1 1 1 1 1 1 1 1 1 1 1 1 1 1 1 1 1 1 1 1 1 1 1 1 1 1 1 1 1 1 1 1 1 1 1 1 1 1 1 1 1 1 1 1 1 1 1 1 1 1 1 1 1 1 1 1 1 1 1 1 1 1 1 1 1 1 1 1 1 1 1 1 1 1 1 1 1 1 1 1 1 1 1 1 1 1 1 1 1 1 1 1 1 1 1 1 1 1 1 1 1 1 1 1 1 1 1 1 1 1 1 1 1 1 1 1 1 1 1 1 1 1 1 1 1 1 1 1 1 1 1 1 1 1 1 1 1 1 1 1 1 1 1 1 1 1 1 1 1 1 1 1 1 1 1 1 1 1 1 1 1 1 1 1 1 1 1 1 1 1</float_array>
          <technique_common>
            <accessor source="#Armature_standard_standard-skin-weights-array" count="490" stride="1">
              <param name="WEIGHT" type="float"/>
            </accessor>
          </technique_common>
        </source>
        <joints>
          <input semantic="JOINT" source="#Armature_standard_standard-skin-joints"/>
          <input semantic="INV_BIND_MATRIX" source="#Armature_standard_standard-skin-bind_poses"/>
        </joints>
        <vertex_weights count="490">
          <input semantic="JOINT" source="#Armature_standard_standard-skin-joints" offset="0"/>
          <input semantic="WEIGHT" source="#Armature_standard_standard-skin-weights" offset="1"/>
          <vcount>1 1 1 1 1 1 1 1 1 1 1 1 1 1 1 1 1 1 1 1 1 1 1 1 1 1 1 1 1 1 1 1 1 1 1 1 1 1 1 1 1 1 1 1 1 1 1 1 1 1 1 1 1 1 1 1 1 1 1 1 1 1 1 1 1 1 1 1 1 1 1 1 1 1 1 1 1 1 1 1 1 1 1 1 1 1 1 1 1 1 1 1 1 1 1 1 1 1 1 1 1 1 1 1 1 1 1 1 1 1 1 1 1 1 1 1 1 1 1 1 1 1 1 1 1 1 1 1 1 1 1 1 1 1 1 1 1 1 1 1 1 1 1 1 1 1 1 1 1 1 1 1 1 1 1 1 1 1 1 1 1 1 1 1 1 1 1 1 1 1 1 1 1 1 1 1 1 1 1 1 1 1 1 1 1 1 1 1 1 1 1 1 1 1 1 1 1 1 1 1 1 1 1 1 1 1 1 1 1 1 1 1 1 1 1 1 1 1 1 1 1 1 1 1 1 1 1 1 1 1 1 1 1 1 1 1 1 1 1 1 1 1 1 1 1 1 1 1 1 1 1 1 1 1 1 1 1 1 1 1 1 1 1 1 1 1 1 1 1 1 1 1 1 1 1 1 1 1 1 1 1 1 1 1 1 1 1 1 1 1 1 1 1 1 1 1 1 1 1 1 1 1 1 1 1 1 1 1 1 1 1 1 1 1 1 1 1 1 1 1 1 1 1 1 1 1 1 1 1 1 1 1 1 1 1 1 1 1 1 1 1 1 1 1 1 1 1 1 1 1 1 1 1 1 1 1 1 1 1 1 1 1 1 1 1 1 1 1 1 1 1 1 1 1 1 1 1 1 1 1 1 1 1 1 1 1 1 1 1 1 1 1 1 1 1 1 1 1 1 1 1 1 1 1 1 1 1 1 1 1 1 1 1 1 1 1 1 1 1 1 1 1 1 1 1 1 1 1 1 1 1 1 1 1 1 1 1 1 1 1 1 1 1 1 1 1 1 1 1 1 1 1 1 1 1 1 1 1 1 1 1 1 1 1 1 1 1 1 1 1 1 1 1 1 1 1 1 1 1 1 1 1 1 1 1 1 1 1 1 1 </vcount>
          <v>0 0 0 1 0 2 0 3 0 4 0 5 0 6 0 7 0 8 0 9 0 10 0 11 0 12 0 13 0 14 0 15 0 16 0 17 0 18 0 19 0 20 0 21 0 22 0 23 0 24 0 25 0 26 0 27 0 28 0 29 0 30 0 31 0 32 0 33 0 34 0 35 0 36 0 37 0 38 0 39 0 40 0 41 0 42 0 43 0 44 0 45 0 46 0 47 0 48 0 49 0 50 0 51 0 52 0 53 0 54 0 55 0 56 0 57 0 58 0 59 0 60 0 61 0 62 0 63 0 64 0 65 0 66 0 67 0 68 0 69 0 70 0 71 0 72 0 73 0 74 0 75 0 76 0 77 0 78 0 79 0 80 0 81 0 82 0 83 0 84 0 85 0 86 0 87 0 88 0 89 0 90 0 91 0 92 0 93 0 94 0 95 0 96 0 97 0 98 0 99 0 100 0 101 0 102 0 103 0 104 0 105 0 106 0 107 0 108 0 109 0 110 0 111 0 112 0 113 0 114 0 115 0 116 0 117 0 118 0 119 0 120 0 121 0 122 0 123 0 124 0 125 0 126 0 127 0 128 0 129 0 130 0 131 0 132 0 133 0 134 0 135 0 136 0 137 0 138 0 139 0 140 0 141 0 142 0 143 0 144 0 145 0 146 0 147 0 148 0 149 0 150 0 151 0 152 0 153 0 154 0 155 0 156 0 157 0 158 0 159 0 160 0 161 0 162 0 163 0 164 0 165 0 166 0 167 0 168 0 169 0 170 0 171 0 172 0 173 0 174 0 175 0 176 0 177 0 178 0 179 0 180 0 181 0 182 0 183 0 184 0 185 0 186 0 187 0 188 0 189 0 190 0 191 0 192 0 193 0 194 0 195 0 196 0 197 0 198 0 199 0 200 0 201 0 202 0 203 0 204 0 205 0 206 0 207 0 208 0 209 0 210 0 211 0 212 0 213 0 214 0 215 0 216 0 217 0 218 0 219 0 220 0 221 0 222 0 223 0 224 0 225 0 226 0 227 0 228 0 229 0 230 0 231 0 232 0 233 0 234 0 235 0 236 0 237 0 238 0 239 0 240 0 241 0 242 0 243 0 244 0 245 0 246 0 247 0 248 0 249 0 250 0 251 0 252 0 253 0 254 0 255 0 256 0 257 0 258 0 259 0 260 0 261 0 262 0 263 0 264 0 265 0 266 0 267 0 268 0 269 0 270 0 271 0 272 0 273 0 274 0 275 0 276 0 277 0 278 0 279 0 280 0 281 0 282 0 283 0 284 0 285 0 286 0 287 0 288 0 289 0 290 0 291 0 292 0 293 0 294 0 295 0 296 0 297 0 298 0 299 0 300 0 301 0 302 0 303 0 304 0 305 0 306 0 307 0 308 0 309 0 310 0 311 0 312 0 313 0 314 0 315 0 316 0 317 0 318 0 319 0 320 0 321 0 322 0 323 0 324 0 325 0 326 0 327 0 328 0 329 0 330 0 331 0 332 0 333 0 334 0 335 0 336 0 337 0 338 0 339 0 340 0 341 0 342 0 343 0 344 0 345 0 346 0 347 0 348 0 349 0 350 0 351 0 352 0 353 0 354 0 355 0 356 0 357 0 358 0 359 0 360 0 361 0 362 0 363 0 364 0 365 0 366 0 367 0 368 0 369 0 370 0 371 0 372 0 373 0 374 0 375 0 376 0 377 0 378 0 379 0 380 0 381 0 382 0 383 0 384 0 385 0 386 0 387 0 388 0 389 0 390 0 391 0 392 0 393 0 394 0 395 0 396 0 397 0 398 0 399 0 400 0 401 0 402 0 403 0 404 0 405 0 406 0 407 0 408 0 409 0 410 0 411 0 412 0 413 0 414 0 415 0 416 0 417 0 418 0 419 0 420 0 421 0 422 0 423 0 424 0 425 0 426 0 427 0 428 0 429 0 430 0 431 0 432 0 433 0 434 0 435 0 436 0 437 0 438 0 439 0 440 0 441 0 442 0 443 0 444 0 445 0 446 0 447 0 448 0 449 0 450 0 451 0 452 0 453 0 454 0 455 0 456 0 457 0 458 0 459 0 460 0 461 0 462 0 463 0 464 0 465 0 466 0 467 0 468 0 469 0 470 0 471 0 472 0 473 0 474 0 475 0 476 0 477 0 478 0 479 0 480 0 481 0 482 0 483 0 484 0 485 0 486 0 487 0 488 0 489</v>
        </vertex_weights>
      </skin>
    </controller>
  </library_controllers>
  <library_visual_scenes>
    <visual_scene id="Scene" name="Scene">
      <node id="Armature" name="Armature" type="NODE">
        <matrix sid="transform">1 0 0 0 0 1 0 0 0 0 1 0 0 0 0 1</matrix>
        <node id="Armature_gun" name="gun" sid="gun" type="JOINT">
          <matrix sid="transform">1 0 0 -4.22e-8 0 1 0 1 0 0 1 -8.036e-7 0 0 0 1</matrix>
          <node id="Armature_magazine" name="magazine" sid="magazine" type="JOINT">
            <matrix sid="transform">1 0 0 -4.800985 0 1 0 0 0 0 1 1.435099 0 0 0 1</matrix>
            <extra>
              <technique profile="blender">
                <tip_x sid="tip_x" type="float">0</tip_x>
                <tip_y sid="tip_y" type="float">3.86748</tip_y>
                <tip_z sid="tip_z" type="float">0</tip_z>
              </technique>
            </extra>
          </node>
          <node id="Armature_ophandle" name="ophandle" sid="ophandle" type="JOINT">
            <matrix sid="transform">1 0 0 1.752854 0 1 0 0.8313158 0 0 1 5.724612 0 0 0 1</matrix>
            <extra>
              <technique profile="blender">
                <tip_x sid="tip_x" type="float">0</tip_x>
                <tip_y sid="tip_y" type="float">3.86748</tip_y>
                <tip_z sid="tip_z" type="float">0</tip_z>
              </technique>
            </extra>
          </node>
          <node id="Armature_safety" name="safety" sid="safety" type="JOINT">
            <matrix sid="transform">1 0 0 0.8322425 0 1 0 1.364808 0 0 1 3.521658 0 0 0 1</matrix>
            <extra>
              <technique profile="blender">
                <tip_x sid="tip_x" type="float">0</tip_x>
                <tip_y sid="tip_y" type="float">3.867481</tip_y>
                <tip_z sid="tip_z" type="float">0</tip_z>
              </technique>
            </extra>
          </node>
          <node id="Armature_switch" name="switch" sid="switch" type="JOINT">
            <matrix sid="transform">1 0 0 6.930277 0 1 0 1.245559 0 0 1 3.117895 0 0 0 1</matrix>
            <extra>
              <technique profile="blender">
                <tip_x sid="tip_x" type="float">0</tip_x>
                <tip_y sid="tip_y" type="float">3.86748</tip_y>
                <tip_z sid="tip_z" type="float">0</tip_z>
              </technique>
            </extra>
          </node>
          <extra>
            <technique profile="blender">
              <tip_x sid="tip_x" type="float">0</tip_x>
              <tip_y sid="tip_y" type="float">3.86748</tip_y>
              <tip_z sid="tip_z" type="float">0</tip_z>
            </technique>
          </extra>
        </node>
        <node id="standard_standard" name="standard:standard" type="NODE">
          <matrix sid="transform">1 0 0 0 0 1 0 0 0 0 1 0 0 0 0 1</matrix>
          <instance_controller url="#Armature_standard_standard-skin">
            <skeleton>#Armature_gun</skeleton>
            <bind_material>
              <technique_common>
                <instance_material symbol="h_turret_mp_gun-material" target="#h_turret_mp_gun-material">
                  <bind_vertex_input semantic="meshId1-tex0" input_semantic="TEXCOORD" input_set="0"/>
                </instance_material>
              </technique_common>
            </bind_material>
          </instance_controller>
        </node>
      </node>
    </visual_scene>
  </library_visual_scenes>
  <scene>
    <instance_visual_scene url="#Scene"/>
  </scene>
</COLLADA>