<?xml version="1.0" encoding="utf-8"?>
<COLLADA xmlns="http://www.collada.org/2005/11/COLLADASchema" version="1.4.1" xmlns:xsi="http://www.w3.org/2001/XMLSchema-instance">
  <asset>
    <contributor>
      <author>Blender User</author>
      <authoring_tool>Blender 4.3.2 commit date:2024-12-16, commit time:21:10, hash:32f5fdce0a0a</authoring_tool>
    </contributor>
    <created>2025-12-11T18:29:15</created>
    <modified>2025-12-11T18:29:15</modified>
    <unit name="meter" meter="1"/>
    <up_axis>Z_UP</up_axis>
  </asset>
  <library_effects>
    <effect id="green_plasma_receiver-effect">
      <profile_COMMON>
        <technique sid="common">
          <lambert>
            <emission>
              <color sid="emission">0 0 0 1</color>
            </emission>
            <diffuse>
              <color sid="diffuse">0.8 0.8 0.8 1</color>
            </diffuse>
            <index_of_refraction>
              <float sid="ior">1.5</float>
            </index_of_refraction>
          </lambert>
        </technique>
      </profile_COMMON>
    </effect>
    <effect id="_way_teleporter_luminous-effect">
      <profile_COMMON>
        <technique sid="common">
          <lambert>
            <emission>
              <color sid="emission">0 0 0 1</color>
            </emission>
            <diffuse>
              <color sid="diffuse">0.8 0.8 0.8 1</color>
            </diffuse>
            <index_of_refraction>
              <float sid="ior">1.5</float>
            </index_of_refraction>
          </lambert>
        </technique>
      </profile_COMMON>
    </effect>
    <effect id="_way_teleporter_001-effect">
      <profile_COMMON>
        <technique sid="common">
          <lambert>
            <emission>
              <color sid="emission">0 0 0 1</color>
            </emission>
            <diffuse>
              <color sid="diffuse">0.8 0.8 0.8 1</color>
            </diffuse>
            <index_of_refraction>
              <float sid="ior">1.5</float>
            </index_of_refraction>
          </lambert>
        </technique>
      </profile_COMMON>
    </effect>
  </library_effects>
  <library_images/>
  <library_materials>
    <material id="green_plasma_receiver-material" name="green_plasma_receiver">
      <instance_effect url="#green_plasma_receiver-effect"/>
    </material>
    <material id="_way_teleporter_luminous-material" name="2way_teleporter_luminous">
      <instance_effect url="#_way_teleporter_luminous-effect"/>
    </material>
    <material id="_way_teleporter_001-material" name="2way_teleporter.001">
      <instance_effect url="#_way_teleporter_001-effect"/>
    </material>
  </library_materials>
  <library_geometries>
    <geometry id="default_default-mesh" name="default:default">
      <mesh>
        <source id="default_default-mesh-positions">
          <float_array id="default_default-mesh-positions-array" count="1032">8.647263 31.35025 108.3241 8.647224 31.35025 7.712809 0.2686113 0.08069574 108.3241 -8.11009 -31.18889 7.71281 -8.110049 -31.18889 108.3241 8.647263 31.35025 108.3241 8.647224 31.35025 7.712809 0.2686113 0.08069574 108.3241 -8.11009 -31.18889 7.71281 -8.110049 -31.18889 108.3241 -31.00094 8.459351 108.3241 -31.00094 8.459339 7.71281 0.2686113 0.08069574 108.3241 31.53819 -8.29798 7.71281 31.5382 -8.297966 108.3241 -31.00094 8.459351 108.3241 -31.00094 8.459339 7.71281 0.2686113 0.08069574 108.3241 31.53819 -8.29798 7.71281 31.5382 -8.297966 108.3241 -15.91772 28.11624 108.3241 -15.91773 28.11624 7.71281 0.2686113 0.08069574 108.3241 16.45492 -27.95482 7.71281 16.45492 -27.95482 108.3241 -15.91772 28.11624 108.3241 -15.91773 28.11624 7.71281 0.2686113 0.08069574 108.3241 16.45492 -27.95482 7.71281 16.45492 -27.95482 108.3241 28.30414 16.26702 108.3241 28.30413 16.26703 7.71281 0.2686113 0.08069574 108.3241 -27.76693 -16.10561 7.71281 -27.76692 -16.10562 108.3241 28.30414 16.26702 108.3241 28.30413 16.26703 7.71281 0.2686113 0.08069574 108.3241 -27.76693 -16.10561 7.71281 -27.76692 -16.10562 108.3241 -23.907 37.38595 1.986482 -20.48801 39.3599 1.986482 -24.45095 38.32809 1.870344 -21.03196 40.30205 1.870344 45.41858 -1.936846 1.870344 45.41858 2.011065 1.870344 44.33069 -1.936846 1.986482 44.33069 2.011068 1.986482 -24.3866 -38.36526 1.870344 -20.96761 -40.33922 1.870344 -23.84265 -37.42312 1.986482 -20.42366 -39.39708 1.986482 6.385674 -4.578319 4.666483 26.52976 -2.319921 2.735581 6.385669 4.578292 4.666483 26.52976 2.319889 2.735581 26.52976 2.319889 0.3753578 26.52976 -2.319921 0.3753578 6.385669 4.578292 0.3753578 6.385674 -4.578319 0.3753578 6.385674 -4.578319 0.3753578 6.385674 -4.578319 4.666483 6.385669 4.578292 0.3753578 6.385669 4.578292 4.666483 26.52976 -2.319921 0.3753578 26.52976 -2.319921 2.735581 6.385674 -4.578319 0.3753578 6.385674 -4.578319 4.666483 26.52976 2.319889 0.3753578 26.52976 2.319889 2.735581 26.52976 -2.319921 0.3753578 26.52976 -2.319921 2.735581 6.385669 4.578292 0.3753578 6.385669 4.578292 4.666483 26.52976 2.319889 0.3753578 26.52976 2.319889 2.735581 -11.25576 -24.13541 0.3753578 -15.27395 -21.8155 0.3753578 0.7721121 -7.819318 0.3753578 -7.157748 -3.24101 0.3753578 -7.157748 -3.24101 4.666483 -15.27395 -21.8155 2.735581 0.7721121 -7.819318 4.666483 -11.25576 -24.13541 2.735581 -7.157748 -3.24101 0.3753578 -7.157748 -3.24101 4.666483 0.7721121 -7.819318 0.3753578 0.7721121 -7.819318 4.666483 -15.27395 -21.8155 0.3753578 -15.27395 -21.8155 2.735581 -7.157748 -3.24101 0.3753578 -7.157748 -3.24101 4.666483 -11.25576 -24.13541 0.3753578 -11.25576 -24.13541 2.735581 -15.27395 -21.8155 0.3753578 -15.27395 -21.8155 2.735581 0.7721121 -7.819318 0.3753578 0.7721121 -7.819318 4.666483 -11.25576 -24.13541 0.3753578 -11.25576 -24.13541 2.735581 5.72205e-6 8.837971 3.118607 7.653927 4.418976 3.118607 3.8147e-6 16.53032 1.88508e-6 14.3157 8.265151 1.88508e-6 3.8147e-6 16.53032 1.88508e-6 -14.31568 8.265158 1.88508e-6 5.72205e-6 8.837971 3.118607 -7.653912 4.418979 3.118607 -7.65391 -4.419011 3.118607 -7.653912 4.418979 3.118607 -14.31567 -8.265183 1.88508e-6 -14.31568 8.265158 1.88508e-6 -14.31567 -8.265183 1.88508e-6 1.71661e-5 -16.53035 1.88508e-6 -7.65391 -4.419011 3.118607 1.07288e-5 -8.838 3.118607 1.71661e-5 -16.53035 1.88508e-6 14.31569 -8.265183 1.88508e-6 1.07288e-5 -8.838 3.118607 7.653926 -4.419009 3.118607 7.653927 4.418976 3.118607 7.653926 -4.419009 3.118607 14.3157 8.265151 1.88508e-6 14.31569 -8.265183 1.88508e-6 -15.27396 21.81548 0.3753578 -11.25577 24.13538 0.3753578 -7.15775 3.240979 0.3753578 0.7721071 7.819284 0.3753578 0.7721071 7.819284 4.666483 -11.25577 24.13538 2.735581 -7.157752 3.240978 4.666483 -15.27397 21.81547 2.735581 0.7721071 7.819284 0.3753578 0.7721071 7.819284 4.666483 -7.15775 3.240979 0.3753578 -7.157752 3.240978 4.666483 -11.25577 24.13538 0.3753578 -11.25577 24.13538 2.735581 0.7721071 7.819284 0.3753578 0.7721071 7.819284 4.666483 -15.27396 21.81548 0.3753578 -15.27397 21.81547 2.735581 -11.25577 24.13538 0.3753578 -11.25577 24.13538 2.735581 -7.15775 3.240979 0.3753578 -7.157752 3.240978 4.666483 -15.27396 21.81548 0.3753578 -15.27397 21.81547 2.735581 21.34609 -4.205867 3.425821 21.34609 -3.060883 3.425821 18.2856 -5.384413 1.88508e-6 18.28559 -2.677842 1.88508e-6 21.34609 -3.060883 3.425821 42.11977 -1.332333 2.051064 18.28559 -2.677842 1.88508e-6 40.97782 -1.040617 -2.1458e-6 46.99818 -2.793917 1.787581 21.34609 -4.205867 3.425821 51.28212 -2.973591 -2.1458e-6 18.2856 -5.384413 1.88508e-6 46.99818 2.793865 1.787581 46.99818 -2.793917 1.787581 51.28212 2.973555 -2.1458e-6 51.28212 -2.973591 -2.1458e-6 42.11976 1.332285 2.051064 21.34608 3.06084 3.425821 40.97783 1.04056 -2.1458e-6 18.2856 2.677795 1.88508e-6 21.34608 3.06084 3.425821 21.34608 4.20582 3.425821 18.2856 2.677795 1.88508e-6 18.2856 5.384366 1.88508e-6 21.34608 4.20582 3.425821 46.99818 2.793865 1.787581 18.2856 5.384366 1.88508e-6 51.28212 2.973555 -2.1458e-6 42.11977 -1.332333 2.051064 42.11976 1.332285 2.051064 40.97782 -1.040617 -2.1458e-6 40.97783 1.04056 -2.1458e-6 -14.31539 -16.38334 3.425821 -13.32381 -16.95583 3.425821 -13.80579 -13.14361 1.88508e-6 -11.46184 -14.49689 1.88508e-6 -13.32381 -16.95583 3.425821 -22.21367 -35.81064 2.051064 -11.46184 -14.49689 1.88508e-6 -21.39006 -34.96756 -2.1458e-6 -25.91865 -39.30469 1.787581 -14.31539 -16.38334 3.425821 -28.21623 -42.92485 -2.1458e-6 -13.80579 -13.14361 1.88508e-6 -21.07949 -42.09858 1.787581 -25.91865 -39.30469 1.787581 -23.06584 -45.89841 -2.1458e-6 -28.21623 -42.92485 -2.1458e-6 -19.90604 -37.14296 2.051064 -8.022233 -20.01669 3.425821 -19.58771 -36.00814 -2.1458e-6 -6.823718 -17.17471 1.88508e-6 -8.022233 -20.01669 3.425821 -7.030651 -20.58918 3.425821 -6.823718 -17.17471 1.88508e-6 -4.479762 -18.528 1.88508e-6 -7.030651 -20.58918 3.425821 -21.07949 -42.09858 1.787581 -4.479762 -18.528 1.88508e-6 -23.06584 -45.89841 -2.1458e-6 -22.21367 -35.81064 2.051064 -19.90604 -37.14296 2.051064 -21.39006 -34.96756 -2.1458e-6 -19.58771 -36.00814 -2.1458e-6 -7.030663 20.58915 3.425821 -8.022243 20.01666 3.425821 -4.479771 18.52797 -2.1458e-6 -6.823729 17.17468 -2.1458e-6 -8.022243 20.01666 3.425821 -19.90606 37.14293 2.051068 -6.823729 17.17468 -2.1458e-6 -19.58773 36.00811 1.88508e-6 -21.07951 42.09857 1.787581 -7.030663 20.58915 3.425821 -23.06587 45.89838 1.88508e-6 -4.479771 18.52797 -2.1458e-6 -25.91867 39.30467 1.787581 -21.07951 42.09857 1.787581 -28.21623 42.92481 1.88508e-6 -23.06587 45.89838 1.88508e-6 -22.21369 35.81061 2.051068 -13.32381 16.9558 3.425821 -21.39007 34.96752 1.88508e-6 -11.46185 14.49686 -2.1458e-6 -13.32381 16.9558 3.425821 -14.3154 16.38331 3.425821 -11.46185 14.49686 -2.1458e-6 -13.8058 13.14358 -2.1458e-6 -14.3154 16.38331 3.425821 -25.91867 39.30467 1.787581 -13.8058 13.14358 -2.1458e-6 -28.21623 42.92481 1.88508e-6 -19.90606 37.14293 2.051068 -22.21369 35.81061 2.051068 -19.58773 36.00811 1.88508e-6 -21.39007 34.96752 1.88508e-6 -6.823729 17.17468 -2.1458e-6 -19.58773 36.00811 1.88508e-6 -4.479771 18.52797 -2.1458e-6 -23.06587 45.89838 1.88508e-6 -21.39007 34.96752 1.88508e-6 -28.21623 42.92481 1.88508e-6 -11.46185 14.49686 -2.1458e-6 -13.8058 13.14358 -2.1458e-6 18.2856 5.384366 1.88508e-6 18.2856 2.677795 1.88508e-6 51.28212 2.973555 -2.1458e-6 40.97783 1.04056 -2.1458e-6 51.28212 -2.973591 -2.1458e-6 40.97782 -1.040617 -2.1458e-6 18.2856 -5.384413 1.88508e-6 18.28559 -2.677842 1.88508e-6 -4.479762 -18.528 1.88508e-6 -6.823718 -17.17471 1.88508e-6 -23.06584 -45.89841 -2.1458e-6 -19.58771 -36.00814 -2.1458e-6 -28.21623 -42.92485 -2.1458e-6 -21.39006 -34.96756 -2.1458e-6 -13.80579 -13.14361 1.88508e-6 -11.46184 -14.49689 1.88508e-6 -13.32381 16.9558 3.425821 -14.3154 16.38331 3.425821 -22.21369 35.81061 2.051068 -25.91867 39.30467 1.787581 -19.90606 37.14293 2.051068 -21.07951 42.09857 1.787581 -7.030663 20.58915 3.425821 -8.022243 20.01666 3.425821 -13.32381 -16.95583 3.425821 -14.31539 -16.38334 3.425821 -22.21367 -35.81064 2.051064 -25.91865 -39.30469 1.787581 -21.07949 -42.09858 1.787581 -19.90604 -37.14296 2.051064 -7.030651 -20.58918 3.425821 -8.022233 -20.01669 3.425821 21.34608 3.06084 3.425821 21.34608 4.20582 3.425821 42.11976 1.332285 2.051064 46.99818 2.793865 1.787581 42.11977 -1.332333 2.051064 46.99818 -2.793917 1.787581 21.34609 -4.205867 3.425821 21.34609 -3.060883 3.425821 -6.734642 -3.888272 7.705462 -7.65391 -4.419011 3.118607 -3.888239 -6.734667 7.705462 1.07288e-5 -8.838 3.118607 1.50204e-5 -7.776525 7.705462 3.888263 -6.734669 7.705462 7.653926 -4.419009 3.118607 6.734657 -3.888269 7.705462 7.776517 -1.35899e-5 7.705462 7.653927 4.418976 3.118607 6.734662 3.888238 7.705462 -6.734642 -3.888272 7.705462 -7.65391 -4.419011 3.118607 -7.776495 -1.14441e-5 7.705462 -7.653912 4.418979 3.118607 -6.734643 3.88824 7.705462 -3.888245 6.734637 7.705462 5.72205e-6 8.837971 3.118607 4.52995e-6 7.776491 7.705462 3.888257 6.734636 7.705462 7.653927 4.418976 3.118607 6.734662 3.888238 7.705462 3.888263 -6.734669 7.705462 6.734657 -3.888269 7.705462 1.50204e-5 -7.776525 7.705462 7.776517 -1.35899e-5 7.705462 -3.888239 -6.734667 7.705462 -6.734642 -3.888272 7.705462 6.734662 3.888238 7.705462 3.888257 6.734636 7.705462 -7.776495 -1.14441e-5 7.705462 -6.734643 3.88824 7.705462 4.52995e-6 7.776491 7.705462 -3.888245 6.734637 7.705462 8.9407e-6 -1.54857e-5 1.88508e-6 -14.31568 8.265158 1.88508e-6 -14.31567 -8.265183 1.88508e-6 8.9407e-6 -1.54857e-5 1.88508e-6 -14.31568 8.265158 1.88508e-6 3.8147e-6 16.53032 1.88508e-6 8.9407e-6 -1.54857e-5 1.88508e-6 14.3157 8.265151 1.88508e-6 3.8147e-6 16.53032 1.88508e-6 14.3157 8.265151 1.88508e-6 14.31569 -8.265183 1.88508e-6 8.9407e-6 -1.54857e-5 1.88508e-6 1.71661e-5 -16.53035 1.88508e-6 14.31569 -8.265183 1.88508e-6 8.9407e-6 -1.54857e-5 1.88508e-6 8.9407e-6 -1.54857e-5 1.88508e-6 1.71661e-5 -16.53035 1.88508e-6 -14.31567 -8.265183 1.88508e-6</float_array>
          <technique_common>
            <accessor source="#default_default-mesh-positions-array" count="344" stride="3">
              <param name="X" type="float"/>
              <param name="Y" type="float"/>
              <param name="Z" type="float"/>
            </accessor>
          </technique_common>
        </source>
        <source id="default_default-mesh-normals">
          <float_array id="default_default-mesh-normals-array" count="684">-0.9659259 0.2588191 3.93527e-7 -0.9659258 0.2588191 3.8617e-7 -0.9659258 0.2588191 4.10581e-7 0.9659259 -0.2588191 -3.93527e-7 0.9659258 -0.2588191 -3.84157e-7 0.9659258 -0.2588191 -4.12266e-7 -0.2588192 -0.9659259 1.31176e-7 -0.2588192 -0.9659258 1.32201e-7 -0.2588191 -0.9659259 1.50962e-7 0.2588192 0.9659259 -1.31176e-7 0.2588192 0.9659258 -1.31176e-7 0.2588191 0.9659259 -1.49915e-7 -0.8660255 -0.5000001 0 -0.8660253 -0.5000001 0 -0.8660255 -0.5 0 0.8660255 0.5000001 0 0.8660253 0.5000001 0 0.8660255 0.5 0 -0.5000001 0.8660253 0 -0.5 0.8660254 1.49183e-7 -0.4999998 0.8660256 0 0.5000001 -0.8660253 0 0.5 -0.8660254 -1.49915e-7 0.4999998 -0.8660256 0 -0.05307567 0.09192955 0.9943501 -0.0530759 0.09193032 0.9943499 0.106152 2.20795e-7 0.9943499 0.1061528 0 0.9943498 -0.05307555 -0.09192985 0.99435 -0.05307614 -0.09192991 0.99435 0.0954172 0 0.9954375 0.09541714 0 0.9954374 0 0 -1 0 0 -1 -1 -6.79598e-7 0 -1 -5.82513e-7 0 0.1114141 -0.9937741 0 0.1114142 -0.9937741 0 1 0 0 1 6.96686e-7 0 0.1114144 0.9937741 0 0.1114144 0.9937741 0 -0.04770857 -0.08263367 0.9954374 -0.04770869 -0.08263373 0.9954375 0.5000001 0.8660254 0 0.5000001 0.8660255 0 -0.9163409 0.4003992 0 -0.9163409 0.4003991 0 -0.5000004 -0.8660253 0 -0.5000005 -0.8660252 0 0.8049265 -0.5933746 0 0.8049266 -0.5933746 0 4.37871e-5 0.3757154 0.9267352 0.3253622 0.1878985 0.9267328 4.38392e-5 0.3757088 0.9267378 0.3253465 0.1878894 0.9267402 -4.37759e-5 0.375703 0.9267402 -0.3253515 0.1878923 0.9267379 -4.37498e-5 0.3757212 0.9267328 -0.3253571 0.1878954 0.9267352 -0.3254012 -0.1878198 0.9267351 -0.3254061 0.1878224 0.9267327 -0.3253955 -0.1878166 0.9267377 -0.3253903 0.1878133 0.9267401 -0.3253465 -0.1878898 0.92674 -4.38243e-5 -0.3757091 0.9267377 -0.3253623 -0.1878989 0.9267327 -4.37759e-5 -0.3757156 0.9267351 4.38802e-5 -0.3757032 0.9267401 0.3253515 -0.1878924 0.9267377 4.39137e-5 -0.3757213 0.9267327 0.3253571 -0.1878955 0.9267352 0.3254008 0.1878197 0.9267352 0.325406 -0.1878227 0.9267328 0.3253954 0.1878164 0.9267377 0.3253903 -0.1878137 0.9267401 0 0 -1 -0.04770863 0.08263367 0.9954375 -0.04770845 0.08263373 0.9954375 0.5000001 -0.8660254 0 0.5 -0.8660254 0 0.8049264 0.5933747 0 0.8049263 0.5933747 0 -0.5 0.8660255 -1.39337e-6 -0.4999998 0.8660255 0 -0.9163408 -0.4003994 -3.50848e-7 -0.9163408 -0.4003994 -1.91363e-6 -0.7457515 0 0.6662243 -0.7457509 -1.22724e-6 0.6662249 -0.07032257 0.9824658 0.1726731 -0.0703234 0.9824634 0.1726857 -0.07080155 0.9812977 0.1790034 -0.0708 0.981301 0.1789852 0.06980991 -0.9619954 0.2639917 0.07020568 -0.9609003 0.2678465 0.06981027 -0.9619949 0.2639932 0.07020616 -0.9608999 0.267848 0.3850936 0 0.9228776 0.3850945 0 0.9228772 -0.06985437 -0.9814598 0.1784854 -0.0708881 -0.9823522 0.1730873 -0.06987839 -0.981481 0.1783599 -0.07087546 -0.9823412 0.1731539 -0.7457522 0 0.6662235 -0.7457522 0 0.6662234 0.07000505 0.9608675 0.2680166 0.07026118 0.9616671 0.2650657 0.07026213 0.9616708 0.2650518 0.07000607 0.9608713 0.2680028 -0.8737115 -2.43935e-6 0.4864444 -0.8737137 6.24641e-6 0.4864405 0.3728758 0.6458399 0.6662242 0.3728758 0.6458401 0.666224 0.8860015 -0.4303312 0.1726743 0.8860051 -0.4303365 0.1726427 0.8852294 -0.4293324 0.179005 0.8852311 -0.4293352 0.1789897 -0.8680148 0.420538 0.2640039 -0.8672644 0.4196478 0.2678587 -0.8680171 0.4205401 0.263993 -0.8672668 0.4196498 0.2678478 -0.1925471 -0.3335017 0.9228771 -0.1925463 -0.3335019 0.9228773 -0.8150421 0.5512248 0.178487 -0.8152953 0.5525533 0.1731426 -0.8152953 0.5525535 0.1731426 -0.8152952 0.5525503 0.1731532 0.3728783 0.645839 0.6662235 0.3728771 0.6458398 0.6662234 0.7971332 -0.5410599 0.2680166 0.7976979 -0.5416812 0.2650656 0.7971364 -0.5410629 0.268001 0.7977007 -0.5416846 0.2650501 0.4368554 0.7566577 0.4864426 0.4368526 0.756657 0.4864466 0.3728761 -0.6458413 0.6662225 0.3728763 -0.6458405 0.6662232 -0.8156787 -0.5521339 0.1726741 -0.8156754 -0.5521333 0.1726916 -0.8156751 -0.552134 0.1726915 -0.8144303 -0.5519651 0.1789913 0.7982082 0.541455 0.2639887 0.798207 0.541455 0.2639926 0.7982072 0.5414548 0.2639927 0.7970607 0.5412504 0.2678474 -0.1925479 0.333502 0.9228768 -0.1925477 0.3335026 0.9228767 0.884896 0.4302343 0.1784871 0.886219 0.4297735 0.1729471 0.8848926 0.4302355 0.1785008 0.8861704 0.4297907 0.1731531 0.3728767 -0.6458398 0.6662238 0.372876 -0.6458411 0.6662228 -0.8671383 -0.4198077 0.2680162 -0.8679588 -0.4199857 0.2650653 -0.8679643 -0.4199873 0.2650446 -0.867144 -0.4198094 0.2679956 0.4368566 -0.7566562 0.486444 0.4368539 -0.7566546 0.4864488 0 1.53835e-7 -1 -4.49841e-7 -1.58197e-7 -1 0 0 -1 0 0 -1 5.28119e-7 4.53047e-7 -1 0 0 -1 -1.22161e-7 0 -1 -1.28291e-7 6.83884e-7 -1 0 0 -1 0 -4.68675e-7 -1 -1.77633e-7 0 -1 0 0 -1 6.5641e-7 -2.30841e-7 -1 -3.61922e-7 3.10475e-7 -1 0 1.53834e-7 -1 -0.03160977 0.0577591 0.9978301 -0.03301656 0.0571863 0.9978175 -0.01538771 0.05915105 0.9981305 -0.02274161 0.05117714 0.9984307 -0.04353243 0.04290175 0.9981305 -0.0329501 0.04528331 0.9984307 -0.0342161 0.0562545 0.99783 -0.03301668 0.05718642 0.9978175 -0.03301662 -0.05718654 0.9978175 -0.03160971 -0.0577594 0.99783 -0.01538652 -0.05915147 0.9981305 -0.02274078 -0.05117708 0.9984307 -0.03295004 -0.04528278 0.9984307 -0.04353344 -0.04290103 0.9981305 -0.03421622 -0.05625438 0.9978301 -0.03301668 -0.05718636 0.9978175 0.06582593 -0.001504778 0.99783 0.0660333 0 0.9978175 0.05892008 -0.01625031 0.9981305 0.05569106 -0.005894064 0.9984307 0.05892002 0.01625037 0.9981305 0.05569112 0.005894362 0.9984307 0.06582605 0.001504778 0.99783 0.06603336 0 0.9978175 -0.8437129 -0.487156 0.2254501 -0.8621215 -0.4977722 0.09470647 -0.497334 -0.8614087 0.1031215 0 -0.9955071 0.09468734 2.17423e-7 -0.9742528 0.2254583 0.4973348 -0.8614082 0.103121 0.8621343 -0.4977536 0.09468752 0.8437274 -0.4871265 0.2254594 0.9946689 -2.77563e-7 0.1031209 0.8621424 0.4977332 0.09472233 0.8437472 0.4871014 0.2254391 -0.8621424 -0.4977329 0.0947234 -0.8437476 -0.4871006 0.2254396 -0.9946689 0 0.1031216 -0.8621345 0.4977534 0.09468805 -0.8437276 0.4871263 0.2254594 -0.4973344 0.8614085 0.1031216 0 0.9955071 0.09468799 0 0.9742527 0.2254594 0.4973343 0.8614087 0.1031213 0.8621218 0.4977719 0.09470587 0.843713 0.487156 0.2254494 0 0 1 1.72338e-7 0 1 -1.98998e-7 0 1 0 0 1 0 0 1 1.45677e-7 0 1 -4.70836e-7 0 1 0 0 -1</float_array>
          <technique_common>
            <accessor source="#default_default-mesh-normals-array" count="228" stride="3">
              <param name="X" type="float"/>
              <param name="Y" type="float"/>
              <param name="Z" type="float"/>
            </accessor>
          </technique_common>
        </source>
        <source id="default_default-mesh-map-0">
          <float_array id="default_default-mesh-map-0-array" count="1176">0.9995005 0.9828891 0.9994999 4.99487e-4 0.5000004 0.9828892 0.5000004 0.9828892 0.9994999 4.99487e-4 4.99517e-4 4.99547e-4 0.5000004 0.9828892 4.99517e-4 4.99547e-4 5.00083e-4 0.9828893 0.9994999 4.99487e-4 0.9995005 0.9828891 0.5000004 0.9828892 0.9994999 4.99487e-4 0.5000004 0.9828892 4.99517e-4 4.99547e-4 4.99517e-4 4.99547e-4 0.5000004 0.9828892 5.00083e-4 0.9828893 0.9995005 0.9828891 0.9994999 4.99487e-4 0.5000004 0.9828892 0.5000004 0.9828892 0.9994999 4.99487e-4 4.99517e-4 4.99547e-4 0.5000004 0.9828892 4.99517e-4 4.99547e-4 5.00083e-4 0.9828893 0.9994999 4.99487e-4 0.9995005 0.9828891 0.5000004 0.9828892 0.9994999 4.99487e-4 0.5000004 0.9828892 4.99517e-4 4.99547e-4 4.99517e-4 4.99547e-4 0.5000004 0.9828892 5.00083e-4 0.9828893 0.9995005 0.9828891 0.9994999 4.99487e-4 0.5000004 0.9828892 0.5000004 0.9828892 0.9994999 4.99487e-4 4.99517e-4 4.99547e-4 0.5000004 0.9828892 4.99517e-4 4.99547e-4 5.00083e-4 0.9828893 0.9994999 4.99487e-4 0.9995005 0.9828891 0.5000004 0.9828892 0.9994999 4.99487e-4 0.5000004 0.9828892 4.99517e-4 4.99547e-4 4.99517e-4 4.99547e-4 0.5000004 0.9828892 5.00083e-4 0.9828893 0.9995005 0.9828891 0.9994999 4.99487e-4 0.5000004 0.9828892 0.5000004 0.9828892 0.9994999 4.99487e-4 4.99517e-4 4.99547e-4 0.5000004 0.9828892 4.99517e-4 4.99547e-4 5.00083e-4 0.9828893 0.9994999 4.99487e-4 0.9995005 0.9828891 0.5000004 0.9828892 0.9994999 4.99487e-4 0.5000004 0.9828892 4.99517e-4 4.99547e-4 4.99517e-4 4.99547e-4 0.5000004 0.9828892 5.00083e-4 0.9828893 0.3102011 0.1139674 0.4500443 0.1139674 0.3102011 0.05491447 0.3102011 0.05491447 0.4500443 0.1139674 0.4500443 0.05491447 0.4500443 0.05491447 0.3102011 0.05491447 0.4500443 0.1139674 0.4500443 0.1139674 0.3102011 0.05491447 0.3102011 0.1139674 0.4500443 0.05491447 0.3102011 0.05491447 0.4500443 0.1139674 0.4500443 0.1139674 0.3102011 0.05491447 0.3102011 0.1139674 0.998019 -0.003600001 0.9666789 1.003603 0.6721554 -0.003599882 0.6721554 -0.003599882 0.9666789 1.003603 0.7346882 1.003603 0.5463983 0.7014421 0.453602 0.7014421 0.5915665 0.298561 0.5915665 0.298561 0.453602 0.7014421 0.408434 0.2985609 0.5915665 0.4570904 0.5915665 0.5429129 0.408434 0.4570904 0.408434 0.4570904 0.5915665 0.5429129 0.408434 0.5429129 -0.0188694 1.003603 0.09914213 1.003603 -0.0188694 -0.003600001 -0.0188694 -0.003600001 0.09914213 1.003603 0.1956874 -0.003600001 0.5463983 0.4570904 0.5463983 0.5042949 0.453602 0.4570904 0.453602 0.4570904 0.5463983 0.5042949 0.453602 0.5042949 -0.0188694 -0.003599882 0.1956874 -0.003599882 -0.0188694 1.003603 -0.0188694 1.003603 0.1956874 -0.003599882 0.09914225 1.003603 0.5463983 0.7014421 0.453602 0.7014421 0.5915665 0.298561 0.5915665 0.298561 0.453602 0.7014421 0.408434 0.2985609 0.998019 -0.003600001 0.9666789 1.003603 0.6721554 -0.003599882 0.6721554 -0.003599882 0.9666789 1.003603 0.7346882 1.003603 0.5915665 0.4570904 0.5915665 0.5429129 0.408434 0.4570904 0.408434 0.4570904 0.5915665 0.5429129 0.408434 0.5429129 -0.0188694 1.003603 0.09914213 1.003603 -0.0188694 -0.003600001 -0.0188694 -0.003600001 0.09914213 1.003603 0.1956874 -0.003600001 0.5463983 0.4570904 0.5463983 0.5042949 0.453602 0.4570904 0.453602 0.4570904 0.5463983 0.5042949 0.453602 0.5042949 -0.0188694 -0.003599882 0.1956874 -0.003599882 -0.0188694 1.003603 -0.0188694 1.003603 0.1956874 -0.003599882 0.09914225 1.003603 0 1.000001 0 2.5034e-6 0.2585825 1.000001 0.2585825 1.000001 0 2.5034e-6 0.2585825 2.5034e-6 0.2585825 2.5034e-6 0.2585825 1.000001 0 2.5034e-6 0 2.5034e-6 0.2585825 1.000001 0 1.000001 0 1.000001 0 2.5034e-6 0.2585825 1.000001 0.2585825 1.000001 0 2.5034e-6 0.2585825 2.5034e-6 0.2585825 2.5034e-6 0.2585825 1.000001 0 2.5034e-6 0 2.5034e-6 0.2585825 1.000001 0 1.000001 0.2585825 2.5034e-6 0.2585825 1.000001 0 2.5034e-6 0 2.5034e-6 0.2585825 1.000001 0 1.000001 0 2.5034e-6 0 1.000001 0.2585825 2.5034e-6 0.2585825 2.5034e-6 0 1.000001 0.2585825 1.000001 0.5463983 0.7014421 0.453602 0.7014421 0.5915665 0.298561 0.5915665 0.298561 0.453602 0.7014421 0.408434 0.2985609 0.998019 -0.003600001 0.9666789 1.003603 0.6721554 -0.003599882 0.6721554 -0.003599882 0.9666789 1.003603 0.7346882 1.003603 0.5915665 0.4570904 0.5915665 0.5429129 0.408434 0.4570904 0.408434 0.4570904 0.5915665 0.5429129 0.408434 0.5429129 -0.0188694 1.003603 0.09914213 1.003603 -0.0188694 -0.003600001 -0.0188694 -0.003600001 0.09914213 1.003603 0.1956874 -0.003600001 0.5463983 0.4570904 0.5463983 0.5042949 0.453602 0.4570904 0.453602 0.4570904 0.5463983 0.5042949 0.453602 0.5042949 -0.0188694 -0.003599882 0.1956874 -0.003599882 -0.0188694 1.003603 -0.0188694 1.003603 0.1956874 -0.003599882 0.09914225 1.003603 0.2035396 0.2537973 0.25045 0.2537971 0.05157184 0.1252738 0.05157184 0.1252738 0.25045 0.2537971 0.3225969 0.1252737 0.25045 0.2537971 0.3212696 0.9630194 0.3225969 0.1252737 0.3225969 0.1252737 0.3212696 0.9630194 0.3551591 0.9150641 0.2613881 1.167886 0.2035396 0.2537973 0.1967675 1.347788 0.1967675 1.347788 0.2035396 0.2537973 0.05157184 0.1252738 0.4903219 1.167886 0.2613881 1.167886 0.5549427 1.347788 0.5549427 1.347788 0.2613881 1.167886 0.1967675 1.347788 0.4304403 0.9630194 0.5012593 0.2537971 0.3965505 0.9150641 0.3965505 0.9150641 0.5012593 0.2537971 0.4291127 0.1252737 0.5012593 0.2537971 0.5481697 0.2537971 0.4291127 0.1252737 0.4291127 0.1252737 0.5481697 0.2537971 0.7001372 0.1252737 0.5481697 0.2537971 0.4903219 1.167886 0.7001372 0.1252737 0.7001372 0.1252737 0.4903219 1.167886 0.5549427 1.347788 0.3212696 0.9630194 0.4304403 0.9630194 0.3551591 0.9150641 0.3551591 0.9150641 0.4304403 0.9630194 0.3965505 0.9150641 0.2035396 0.2537973 0.25045 0.2537971 0.05157184 0.1252738 0.05157184 0.1252738 0.25045 0.2537971 0.3225969 0.1252737 0.25045 0.2537971 0.3212696 0.9630194 0.3225969 0.1252737 0.3225969 0.1252737 0.3212696 0.9630194 0.3551591 0.9150641 0.2613881 1.167886 0.2035396 0.2537973 0.1967675 1.347788 0.1967675 1.347788 0.2035396 0.2537973 0.05157184 0.1252738 0.4903219 1.167886 0.2613881 1.167886 0.5549427 1.347788 0.5549427 1.347788 0.2613881 1.167886 0.1967675 1.347788 0.4304403 0.9630194 0.5012593 0.2537971 0.3965505 0.9150641 0.3965505 0.9150641 0.5012593 0.2537971 0.4291127 0.1252737 0.5012593 0.2537971 0.5481697 0.2537971 0.4291127 0.1252737 0.4291127 0.1252737 0.5481697 0.2537971 0.7001372 0.1252737 0.5481697 0.2537971 0.4903219 1.167886 0.7001372 0.1252737 0.7001372 0.1252737 0.4903219 1.167886 0.5549427 1.347788 0.3212696 0.9630194 0.4304403 0.9630194 0.3551591 0.9150641 0.3551591 0.9150641 0.4304403 0.9630194 0.3965505 0.9150641 0.2035396 0.2537973 0.25045 0.2537971 0.05157184 0.1252738 0.05157184 0.1252738 0.25045 0.2537971 0.3225969 0.1252737 0.25045 0.2537971 0.3212696 0.9630194 0.3225969 0.1252737 0.3225969 0.1252737 0.3212696 0.9630194 0.3551591 0.9150641 0.2613881 1.167886 0.2035396 0.2537973 0.1967675 1.347788 0.1967675 1.347788 0.2035396 0.2537973 0.05157184 0.1252738 0.4903219 1.167886 0.2613881 1.167886 0.5549427 1.347788 0.5549427 1.347788 0.2613881 1.167886 0.1967675 1.347788 0.4304403 0.9630194 0.5012593 0.2537971 0.3965505 0.9150641 0.3965505 0.9150641 0.5012593 0.2537971 0.4291127 0.1252737 0.5012593 0.2537971 0.5481697 0.2537971 0.4291127 0.1252737 0.4291127 0.1252737 0.5481697 0.2537971 0.7001372 0.1252737 0.5481697 0.2537971 0.4903219 1.167886 0.7001372 0.1252737 0.7001372 0.1252737 0.4903219 1.167886 0.5549427 1.347788 0.3212696 0.9630194 0.4304403 0.9630194 0.3551591 0.9150641 0.3551591 0.9150641 0.4304403 0.9630194 0.3965505 0.9150641 0.5535567 0.1700367 0.5208119 0.6238808 0.6076881 0.1700369 0.6076881 0.1700369 0.5208119 0.6238808 0.5594716 0.8299663 0.5594716 0.8299663 0.5208119 0.6238808 0.4791885 0.6238808 0.5594716 0.8299663 0.4791885 0.6238808 0.4405286 0.8299663 0.4405286 0.8299663 0.4791885 0.6238808 0.4464438 0.1700367 0.4405286 0.8299663 0.4464438 0.1700367 0.3923124 0.1700367 0.4464438 0.1700367 0.3923124 0.1700367 0.4405286 0.8299663 0.4464438 0.1700367 0.4405286 0.8299663 0.4791885 0.6238808 0.4791885 0.6238808 0.4405286 0.8299663 0.5594716 0.8299663 0.4791885 0.6238808 0.5594716 0.8299663 0.5208119 0.6238808 0.5208119 0.6238808 0.5594716 0.8299663 0.6076881 0.1700369 0.5208119 0.6238808 0.6076881 0.1700369 0.5535567 0.1700367 0.4464438 0.1700367 0.3923124 0.1700367 0.4405286 0.8299663 0.4464438 0.1700367 0.4405286 0.8299663 0.4791885 0.6238808 0.4791885 0.6238808 0.4405286 0.8299663 0.5594716 0.8299663 0.4791885 0.6238808 0.5594716 0.8299663 0.5208119 0.6238808 0.5208119 0.6238808 0.5594716 0.8299663 0.6076881 0.1700369 0.5208119 0.6238808 0.6076881 0.1700369 0.5535567 0.1700367 0.5481697 0.2537971 0.5012593 0.2537971 0.4304403 0.9630194 0.5481697 0.2537971 0.4304403 0.9630194 0.4903219 1.167886 0.4903219 1.167886 0.4304403 0.9630194 0.3212696 0.9630194 0.4903219 1.167886 0.3212696 0.9630194 0.2613881 1.167886 0.2613881 1.167886 0.3212696 0.9630194 0.2035396 0.2537973 0.2035396 0.2537973 0.3212696 0.9630194 0.25045 0.2537971 0.25045 0.2537971 0.2035396 0.2537973 0.3212696 0.9630194 0.3212696 0.9630194 0.2035396 0.2537973 0.2613881 1.167886 0.3212696 0.9630194 0.2613881 1.167886 0.4903219 1.167886 0.3212696 0.9630194 0.4903219 1.167886 0.4304403 0.9630194 0.4304403 0.9630194 0.4903219 1.167886 0.5481697 0.2537971 0.4304403 0.9630194 0.5481697 0.2537971 0.5012593 0.2537971 0.5481697 0.2537971 0.5012593 0.2537971 0.4304403 0.9630194 0.5481697 0.2537971 0.4304403 0.9630194 0.4903219 1.167886 0.4903219 1.167886 0.4304403 0.9630194 0.3212696 0.9630194 0.4903219 1.167886 0.3212696 0.9630194 0.2613881 1.167886 0.2613881 1.167886 0.3212696 0.9630194 0.2035396 0.2537973 0.2035396 0.2537973 0.3212696 0.9630194 0.25045 0.2537971 0.002005338 0.06049418 0.246795 5.0199e-4 0.002005338 0.1193768 0.002005338 0.1193768 0.246795 5.0199e-4 0.246795 0.2502517 0.002005338 0.1193768 0.246795 0.2502517 0.002005398 0.2802478 0.002005398 0.2802478 0.246795 0.2502517 0.002005398 0.5000016 0.002005398 0.5000016 0.246795 0.2502517 0.2467951 0.7497512 0.002005398 0.5000016 0.2467951 0.7497512 0.002005398 0.7197552 0.002005398 0.7197552 0.2467951 0.7497512 0.002005398 0.8806262 0.002005398 0.8806262 0.2467951 0.7497512 0.2467951 0.9995009 0.002005398 0.8806262 0.2467951 0.9995009 0.002005398 0.939509 0.246795 5.0199e-4 0.002005338 0.06049418 0.002005398 0.119377 0.246795 5.0199e-4 0.002005398 0.119377 0.2467951 0.2502519 0.2467951 0.2502519 0.002005398 0.119377 0.002005398 0.2802479 0.2467951 0.2502519 0.002005398 0.2802479 0.002005398 0.5000017 0.2467951 0.2502519 0.002005398 0.5000017 0.2467951 0.7497513 0.2467951 0.7497513 0.002005398 0.5000017 0.002005457 0.7197553 0.2467951 0.7497513 0.002005457 0.7197553 0.002005457 0.8806262 0.2467951 0.7497513 0.002005457 0.8806262 0.2467951 0.9995009 0.2467951 0.9995009 0.002005457 0.8806262 0.002005398 0.939509 0.5000002 0.3444716 0.5777654 0.3653088 0.4222351 0.3653088 0.4222351 0.3653088 0.5777654 0.3653088 0.6346934 0.4222366 0.4222351 0.3653088 0.6346934 0.4222366 0.3653071 0.4222366 0.3653071 0.4222366 0.6346934 0.4222366 0.34447 0.5000016 0.34447 0.5000016 0.6346934 0.4222366 0.6555305 0.5000014 0.34447 0.5000016 0.6555305 0.5000014 0.6346934 0.5777664 0.34447 0.5000016 0.6346934 0.5777664 0.3653071 0.5777665 0.3653071 0.5777665 0.6346934 0.5777664 0.4222351 0.6346943 0.4222351 0.6346943 0.6346934 0.5777664 0.5777654 0.6346943 0.4222351 0.6346943 0.5777654 0.6346943 0.5000003 0.6555314 0.1069552 0.01710224 0.382461 0.4942911 0.6579667 0.01710212 0.3818755 0.489427 0.6573812 0.01223814 0.1063696 0.01223814 0.1076298 0.0134108 0.3831357 0.4905995 0.6586414 0.01341068 0.648738 0.007873654 0.09772658 0.007873773 0.3732324 0.4850626 0.6555355 0.01458346 0.1045239 0.01458346 0.3800297 0.4917722 0.3812899 0.4905996 0.6567956 0.01341068 0.1057841 0.0134108</float_array>
          <technique_common>
            <accessor source="#default_default-mesh-map-0-array" count="588" stride="2">
              <param name="S" type="float"/>
              <param name="T" type="float"/>
            </accessor>
          </technique_common>
        </source>
        <vertices id="default_default-mesh-vertices">
          <input semantic="POSITION" source="#default_default-mesh-positions"/>
        </vertices>
        <triangles material="green_plasma_receiver-material" count="24">
          <input semantic="VERTEX" source="#default_default-mesh-vertices" offset="0"/>
          <input semantic="NORMAL" source="#default_default-mesh-normals" offset="1"/>
          <input semantic="TEXCOORD" source="#default_default-mesh-map-0" offset="2" set="0"/>
          <p>0 0 0 1 0 1 2 0 2 2 1 3 1 1 4 3 1 5 2 2 6 3 2 7 4 2 8 6 3 9 5 3 10 7 3 11 6 4 12 7 4 13 8 4 14 8 5 15 7 5 16 9 5 17 10 6 18 11 6 19 12 6 20 12 7 21 11 7 22 13 7 23 12 8 24 13 8 25 14 8 26 16 9 27 15 9 28 17 9 29 16 10 30 17 10 31 18 10 32 18 11 33 17 11 34 19 11 35 20 12 36 21 12 37 22 12 38 22 13 39 21 13 40 23 13 41 22 14 42 23 14 43 24 14 44 26 15 45 25 15 46 27 15 47 26 16 48 27 16 49 28 16 50 28 17 51 27 17 52 29 17 53 30 18 54 31 18 55 32 18 56 32 19 57 31 19 58 33 19 59 32 20 60 33 20 61 34 20 62 36 21 63 35 21 64 37 21 65 36 22 66 37 22 67 38 22 68 38 23 69 37 23 70 39 23 71</p>
        </triangles>
        <triangles material="_way_teleporter_luminous-material" count="6">
          <input semantic="VERTEX" source="#default_default-mesh-vertices" offset="0"/>
          <input semantic="NORMAL" source="#default_default-mesh-normals" offset="1"/>
          <input semantic="TEXCOORD" source="#default_default-mesh-map-0" offset="2" set="0"/>
          <p>40 24 72 41 24 73 42 24 74 42 25 75 41 25 76 43 25 77 44 26 78 45 26 79 46 26 80 46 27 81 45 27 82 47 27 83 48 28 84 49 28 85 50 28 86 50 29 87 49 29 88 51 29 89</p>
        </triangles>
        <triangles material="_way_teleporter_001-material" count="166">
          <input semantic="VERTEX" source="#default_default-mesh-vertices" offset="0"/>
          <input semantic="NORMAL" source="#default_default-mesh-normals" offset="1"/>
          <input semantic="TEXCOORD" source="#default_default-mesh-map-0" offset="2" set="0"/>
          <p>52 30 90 53 30 91 54 30 92 54 31 93 53 31 94 55 31 95 56 32 96 57 32 97 58 32 98 58 33 99 57 33 100 59 33 101 60 34 102 61 34 103 62 34 104 62 35 105 61 35 106 63 35 107 64 36 108 65 36 109 66 36 110 66 37 111 65 37 112 67 37 113 68 38 114 69 38 115 70 38 116 70 39 117 69 39 118 71 39 119 72 40 120 73 40 121 74 40 122 74 41 123 73 41 124 75 41 125 76 32 126 77 32 127 78 32 128 78 32 129 77 32 130 79 32 131 80 42 132 81 42 133 82 42 134 82 43 135 81 43 136 83 43 137 84 44 138 85 44 139 86 44 140 86 45 141 85 45 142 87 45 143 88 46 144 89 46 145 90 46 146 90 47 147 89 47 148 91 47 149 92 48 150 93 48 151 94 48 152 94 49 153 93 49 154 95 49 155 96 50 156 97 50 157 98 50 158 98 51 159 97 51 160 99 51 161 100 52 162 101 53 163 102 54 164 102 54 165 101 53 166 103 55 167 104 56 168 105 57 169 106 58 170 106 58 171 105 57 172 107 59 173 108 60 174 109 61 175 110 62 176 110 62 177 109 61 178 111 63 179 112 64 180 113 65 181 114 66 182 114 66 183 113 65 184 115 67 185 116 68 186 117 69 187 118 70 188 118 70 189 117 69 190 119 71 191 120 72 192 121 73 193 122 74 194 122 74 195 121 73 196 123 75 197 124 32 198 125 32 199 126 32 200 126 76 201 125 76 202 127 76 203 128 77 204 129 77 205 130 77 206 130 78 207 129 78 208 131 78 209 132 79 210 133 79 211 134 79 212 134 80 213 133 80 214 135 80 215 136 81 216 137 81 217 138 81 218 138 82 219 137 82 220 139 82 221 140 83 222 141 83 223 142 83 224 142 84 225 141 84 226 143 84 227 144 85 228 145 85 229 146 85 230 146 86 231 145 86 232 147 86 233 148 87 234 149 87 235 150 87 236 150 88 237 149 88 238 151 88 239 152 89 240 153 90 241 154 91 242 154 91 243 153 90 244 155 92 245 156 93 246 157 94 247 158 93 248 158 95 249 157 96 250 159 96 251 160 97 252 161 97 253 162 97 254 162 98 255 161 98 256 163 98 257 164 99 258 165 100 259 166 101 260 166 101 261 165 100 262 167 102 263 168 103 264 169 103 265 170 103 266 170 104 267 169 104 268 171 104 269 172 105 270 173 105 271 174 106 272 174 107 273 173 108 274 175 107 275 176 109 276 177 109 277 178 109 278 178 110 279 177 110 280 179 110 281 180 111 282 181 111 283 182 111 284 182 112 285 181 112 286 183 112 287 184 113 288 185 114 289 186 115 290 186 115 291 185 114 292 187 116 293 188 117 294 189 118 295 190 117 296 190 119 297 189 120 298 191 120 299 192 121 300 193 121 301 194 121 302 194 122 303 193 122 304 195 122 305 196 123 306 197 124 307 198 125 308 198 126 309 197 126 310 199 126 311 200 127 312 201 127 313 202 127 314 202 128 315 201 128 316 203 128 317 204 129 318 205 130 319 206 129 320 206 131 321 205 132 322 207 132 323 208 133 324 209 133 325 210 133 326 210 134 327 209 134 328 211 134 329 212 135 330 213 135 331 214 135 332 214 136 333 213 136 334 215 136 335 216 137 336 217 137 337 218 137 338 218 138 339 217 139 340 219 140 341 220 141 342 221 141 343 222 141 344 222 142 345 221 143 346 223 144 347 224 145 348 225 145 349 226 145 350 226 146 351 225 146 352 227 146 353 228 147 354 229 148 355 230 149 356 230 149 357 229 148 358 231 150 359 232 151 360 233 151 361 234 151 362 234 152 363 233 152 364 235 152 365 236 153 366 237 153 367 238 154 368 238 155 369 237 156 370 239 155 371 240 157 372 241 157 373 242 157 374 242 158 375 241 158 376 243 158 377 244 159 378 245 159 379 246 159 380 246 160 381 245 160 382 247 160 383 247 161 384 245 161 385 248 161 386 247 162 387 248 162 388 249 162 389 249 163 390 248 163 391 250 163 392 249 164 393 250 164 394 251 164 395 253 165 396 252 165 397 254 165 398 253 166 399 254 166 400 255 166 401 255 167 402 254 167 403 256 167 404 255 32 405 256 32 406 257 32 407 257 168 408 256 168 409 258 168 410 257 169 411 258 169 412 259 169 413 261 170 414 260 170 415 262 170 416 261 171 417 262 171 418 263 171 419 263 32 420 262 32 421 264 32 422 263 32 423 264 32 424 265 32 425 265 172 426 264 172 427 266 172 428 265 173 429 266 173 430 267 173 431 269 174 432 268 175 433 270 176 434 269 174 435 270 176 436 271 177 437 271 177 438 270 176 439 272 178 440 271 177 441 272 178 442 273 179 443 273 179 444 272 178 445 274 180 446 274 180 447 272 178 448 275 181 449 276 182 450 277 183 451 278 184 452 278 184 453 277 183 454 279 185 455 278 184 456 279 185 457 280 186 458 278 184 459 280 186 460 281 187 461 281 187 462 280 186 463 282 188 464 281 187 465 282 188 466 283 189 467 285 190 468 284 191 469 286 192 470 285 190 471 286 192 472 287 193 473 287 193 474 286 192 475 288 194 476 287 193 477 288 194 478 289 195 479 289 195 480 288 194 481 290 196 482 290 196 483 288 194 484 291 197 485 292 198 486 293 199 487 294 200 488 294 200 489 293 199 490 295 201 491 294 200 492 295 201 493 296 202 494 296 202 495 295 201 496 297 203 497 297 203 498 295 201 499 298 204 500 297 203 501 298 204 502 299 205 503 299 205 504 298 204 505 300 206 506 300 206 507 298 204 508 301 207 509 300 206 510 301 207 511 302 208 512 304 209 513 303 210 514 305 211 515 304 209 516 305 211 517 306 212 518 306 212 519 305 211 520 307 213 521 306 212 522 307 213 523 308 214 524 306 212 525 308 214 526 309 215 527 309 215 528 308 214 529 310 216 530 309 215 531 310 216 532 311 217 533 309 215 534 311 217 535 312 218 536 312 218 537 311 217 538 313 219 539 314 220 540 315 220 541 316 220 542 316 221 543 315 221 544 317 221 545 316 222 546 317 222 547 318 222 548 318 223 549 317 223 550 319 223 551 319 220 552 317 220 553 320 220 554 319 224 555 320 224 556 321 224 557 319 225 558 321 225 559 322 225 560 322 220 561 321 220 562 323 220 563 323 220 564 321 220 565 324 220 566 323 226 567 324 226 568 325 226 569 327 32 570 326 32 571 328 32 572 329 32 573 330 32 574 331 32 575 333 32 576 332 32 577 334 32 578 335 227 579 336 227 580 337 227 581 339 32 582 338 32 583 340 32 584 341 32 585 342 32 586 343 32 587</p>
        </triangles>
      </mesh>
    </geometry>
  </library_geometries>
  <library_controllers>
    <controller id="Armature_default_default-skin" name="Armature">
      <skin source="#default_default-mesh">
        <bind_shape_matrix>1 0 0 0 0 1 0 0 0 0 1 0 0 0 0 1</bind_shape_matrix>
        <source id="Armature_default_default-skin-joints">
          <Name_array id="Armature_default_default-skin-joints-array" count="3">root bot top</Name_array>
          <technique_common>
            <accessor source="#Armature_default_default-skin-joints-array" count="3" stride="1">
              <param name="JOINT" type="name"/>
            </accessor>
          </technique_common>
        </source>
        <source id="Armature_default_default-skin-bind_poses">
          <float_array id="Armature_default_default-skin-bind_poses-array" count="48">1 0 0 0 0 1 0 0 0 0 1 -50.035 0 0 0 1 1 0 0 1.83105e-4 0 1 0 0 0 0 1 -4.34875e-4 0 0 0 1 1 0 0 0 0 1 0 0 0 0 1 -97.39827 0 0 0 1</float_array>
          <technique_common>
            <accessor source="#Armature_default_default-skin-bind_poses-array" count="3" stride="16">
              <param name="TRANSFORM" type="float4x4"/>
            </accessor>
          </technique_common>
        </source>
        <source id="Armature_default_default-skin-weights">
          <float_array id="Armature_default_default-skin-weights-array" count="344">1 1 1 1 1 1 1 1 1 1 1 1 1 1 1 1 1 1 1 1 1 1 1 1 1 1 1 1 1 1 1 1 1 1 1 1 1 1 1 1 1 1 1 1 1 1 1 1 1 1 1 1 1 1 1 1 1 1 1 1 1 1 1 1 1 1 1 1 1 1 1 1 1 1 1 1 1 1 1 1 1 1 1 1 1 1 1 1 1 1 1 1 1 1 1 1 1 1 1 1 1 1 1 1 1 1 1 1 1 1 1 1 1 1 1 1 1 1 1 1 1 1 1 1 1 1 1 1 1 1 1 1 1 1 1 1 1 1 1 1 1 1 1 1 1 1 1 1 1 1 1 1 1 1 1 1 1 1 1 1 1 1 1 1 1 1 1 1 1 1 1 1 1 1 1 1 1 1 1 1 1 1 1 1 1 1 1 1 1 1 1 1 1 1 1 1 1 1 1 1 1 1 1 1 1 1 1 1 1 1 1 1 1 1 1 1 1 1 1 1 1 1 1 1 1 1 1 1 1 1 1 1 1 1 1 1 1 1 1 1 1 1 1 1 1 1 1 1 1 1 1 1 1 1 1 1 1 1 1 1 1 1 1 1 1 1 1 1 1 1 1 1 1 1 1 1 1 1 1 1 1 1 1 1 1 1 1 1 1 1 1 1 1 1 1 1 1 1 1 1 1 1 1 1 1 1 1 1 1 1 1 1 1 1 1 1 1 1 1 1 1 1 1 1 1 1 1 1 1 1 1 1 1 1 1 1 1 1 1 1 1 1 1 1</float_array>
          <technique_common>
            <accessor source="#Armature_default_default-skin-weights-array" count="344" stride="1">
              <param name="WEIGHT" type="float"/>
            </accessor>
          </technique_common>
        </source>
        <joints>
          <input semantic="JOINT" source="#Armature_default_default-skin-joints"/>
          <input semantic="INV_BIND_MATRIX" source="#Armature_default_default-skin-bind_poses"/>
        </joints>
        <vertex_weights count="344">
          <input semantic="JOINT" source="#Armature_default_default-skin-joints" offset="0"/>
          <input semantic="WEIGHT" source="#Armature_default_default-skin-weights" offset="1"/>
          <vcount>1 1 1 1 1 1 1 1 1 1 1 1 1 1 1 1 1 1 1 1 1 1 1 1 1 1 1 1 1 1 1 1 1 1 1 1 1 1 1 1 1 1 1 1 1 1 1 1 1 1 1 1 1 1 1 1 1 1 1 1 1 1 1 1 1 1 1 1 1 1 1 1 1 1 1 1 1 1 1 1 1 1 1 1 1 1 1 1 1 1 1 1 1 1 1 1 1 1 1 1 1 1 1 1 1 1 1 1 1 1 1 1 1 1 1 1 1 1 1 1 1 1 1 1 1 1 1 1 1 1 1 1 1 1 1 1 1 1 1 1 1 1 1 1 1 1 1 1 1 1 1 1 1 1 1 1 1 1 1 1 1 1 1 1 1 1 1 1 1 1 1 1 1 1 1 1 1 1 1 1 1 1 1 1 1 1 1 1 1 1 1 1 1 1 1 1 1 1 1 1 1 1 1 1 1 1 1 1 1 1 1 1 1 1 1 1 1 1 1 1 1 1 1 1 1 1 1 1 1 1 1 1 1 1 1 1 1 1 1 1 1 1 1 1 1 1 1 1 1 1 1 1 1 1 1 1 1 1 1 1 1 1 1 1 1 1 1 1 1 1 1 1 1 1 1 1 1 1 1 1 1 1 1 1 1 1 1 1 1 1 1 1 1 1 1 1 1 1 1 1 1 1 1 1 1 1 1 1 1 1 1 1 1 1 1 1 1 1 1 1 1 1 1 1 1 1 1 1 1 1 1 1 1 1 1 1 1 1 1 1 1 1 1 1 </vcount>
          <v>2 0 2 1 2 2 2 3 2 4 2 5 2 6 2 7 2 8 2 9 2 10 2 11 2 12 2 13 2 14 2 15 2 16 2 17 2 18 2 19 2 20 2 21 2 22 2 23 2 24 2 25 2 26 2 27 2 28 2 29 2 30 2 31 2 32 2 33 2 34 2 35 2 36 2 37 2 38 2 39 1 40 1 41 1 42 1 43 1 44 1 45 1 46 1 47 1 48 1 49 1 50 1 51 1 52 1 53 1 54 1 55 1 56 1 57 1 58 1 59 1 60 1 61 1 62 1 63 1 64 1 65 1 66 1 67 1 68 1 69 1 70 1 71 1 72 1 73 1 74 1 75 1 76 1 77 1 78 1 79 1 80 1 81 1 82 1 83 1 84 1 85 1 86 1 87 1 88 1 89 1 90 1 91 1 92 1 93 1 94 1 95 1 96 1 97 1 98 1 99 1 100 1 101 1 102 1 103 1 104 1 105 1 106 1 107 1 108 1 109 1 110 1 111 1 112 1 113 1 114 1 115 1 116 1 117 1 118 1 119 1 120 1 121 1 122 1 123 1 124 1 125 1 126 1 127 1 128 1 129 1 130 1 131 1 132 1 133 1 134 1 135 1 136 1 137 1 138 1 139 1 140 1 141 1 142 1 143 1 144 1 145 1 146 1 147 1 148 1 149 1 150 1 151 1 152 1 153 1 154 1 155 1 156 1 157 1 158 1 159 1 160 1 161 1 162 1 163 1 164 1 165 1 166 1 167 1 168 1 169 1 170 1 171 1 172 1 173 1 174 1 175 1 176 1 177 1 178 1 179 1 180 1 181 1 182 1 183 1 184 1 185 1 186 1 187 1 188 1 189 1 190 1 191 1 192 1 193 1 194 1 195 1 196 1 197 1 198 1 199 1 200 1 201 1 202 1 203 1 204 1 205 1 206 1 207 1 208 1 209 1 210 1 211 1 212 1 213 1 214 1 215 1 216 1 217 1 218 1 219 1 220 1 221 1 222 1 223 1 224 1 225 1 226 1 227 1 228 1 229 1 230 1 231 1 232 1 233 1 234 1 235 1 236 1 237 1 238 1 239 1 240 1 241 1 242 1 243 1 244 1 245 1 246 1 247 1 248 1 249 1 250 1 251 1 252 1 253 1 254 1 255 1 256 1 257 1 258 1 259 1 260 1 261 1 262 1 263 1 264 1 265 1 266 1 267 1 268 1 269 1 270 1 271 1 272 1 273 1 274 1 275 1 276 1 277 1 278 1 279 1 280 1 281 1 282 1 283 1 284 1 285 1 286 1 287 1 288 1 289 1 290 1 291 1 292 1 293 1 294 1 295 1 296 1 297 1 298 1 299 1 300 1 301 1 302 1 303 1 304 1 305 1 306 1 307 1 308 1 309 1 310 1 311 1 312 1 313 1 314 1 315 1 316 1 317 1 318 1 319 1 320 1 321 1 322 1 323 1 324 1 325 1 326 1 327 1 328 1 329 1 330 1 331 1 332 1 333 1 334 1 335 1 336 1 337 1 338 1 339 1 340 1 341 1 342 1 343</v>
        </vertex_weights>
      </skin>
    </controller>
  </library_controllers>
  <library_visual_scenes>
    <visual_scene id="Scene" name="Scene">
      <node id="Armature" name="Armature" type="NODE">
        <matrix sid="transform">1 0 0 0 0 1 0 0 0 0 1 0 0 0 0 1</matrix>
        <node id="Armature_root" name="root" sid="root" type="JOINT">
          <matrix sid="transform">1 0 0 0 0 1 0 0 0 0 1 50.035 0 0 0 1</matrix>
          <node id="Armature_bot" name="bot" sid="bot" type="JOINT">
            <matrix sid="transform">1 0 0 -1.83105e-4 0 1 0 0 0 0 1 -50.03456 0 0 0 1</matrix>
            <extra>
              <technique profile="blender">
                <tip_x sid="tip_x" type="float">0</tip_x>
                <tip_y sid="tip_y" type="float">47.36327</tip_y>
                <tip_z sid="tip_z" type="float">0</tip_z>
              </technique>
            </extra>
          </node>
          <node id="Armature_top" name="top" sid="top" type="JOINT">
            <matrix sid="transform">1 0 0 0 0 1 0 0 0 0 1 47.36327 0 0 0 1</matrix>
            <extra>
              <technique profile="blender">
                <tip_x sid="tip_x" type="float">0</tip_x>
                <tip_y sid="tip_y" type="float">47.36327</tip_y>
                <tip_z sid="tip_z" type="float">0</tip_z>
              </technique>
            </extra>
          </node>
          <extra>
            <technique profile="blender">
              <tip_x sid="tip_x" type="float">0</tip_x>
              <tip_y sid="tip_y" type="float">47.36327</tip_y>
              <tip_z sid="tip_z" type="float">0</tip_z>
            </technique>
          </extra>
        </node>
        <node id="default_default" name="default:default" type="NODE">
          <matrix sid="transform">1 0 0 0 0 1 0 0 0 0 1 0 0 0 0 1</matrix>
          <instance_controller url="#Armature_default_default-skin">
            <skeleton>#Armature_root</skeleton>
            <bind_material>
              <technique_common>
                <instance_material symbol="green_plasma_receiver-material" target="#green_plasma_receiver-material">
                  <bind_vertex_input semantic="meshId0-tex0" input_semantic="TEXCOORD" input_set="0"/>
                </instance_material>
                <instance_material symbol="_way_teleporter_luminous-material" target="#_way_teleporter_luminous-material">
                  <bind_vertex_input semantic="meshId0-tex0" input_semantic="TEXCOORD" input_set="0"/>
                </instance_material>
                <instance_material symbol="_way_teleporter_001-material" target="#_way_teleporter_001-material">
                  <bind_vertex_input semantic="meshId0-tex0" input_semantic="TEXCOORD" input_set="0"/>
                </instance_material>
              </technique_common>
            </bind_material>
          </instance_controller>
        </node>
      </node>
    </visual_scene>
  </library_visual_scenes>
  <scene>
    <instance_visual_scene url="#Scene"/>
  </scene>
</COLLADA>