<?xml version="1.0" encoding="utf-8"?>
<COLLADA xmlns="http://www.collada.org/2005/11/COLLADASchema" version="1.4.1" xmlns:xsi="http://www.w3.org/2001/XMLSchema-instance">
  <asset>
    <contributor>
      <author>Blender User</author>
      <authoring_tool>Blender 4.3.2 commit date:2024-12-16, commit time:21:10, hash:32f5fdce0a0a</authoring_tool>
    </contributor>
    <created>2025-12-11T18:37:07</created>
    <modified>2025-12-11T18:37:07</modified>
    <unit name="meter" meter="1"/>
    <up_axis>Z_UP</up_axis>
  </asset>
  <library_effects>
    <effect id="green_plasma_sender-effect">
      <profile_COMMON>
        <technique sid="common">
          <lambert>
            <emission>
              <color sid="emission">0 0 0 1</color>
            </emission>
            <diffuse>
              <color sid="diffuse">0.8 0.8 0.8 1</color>
            </diffuse>
            <index_of_refraction>
              <float sid="ior">1.5</float>
            </index_of_refraction>
          </lambert>
        </technique>
      </profile_COMMON>
    </effect>
    <effect id="_way_teleporter_luminous-effect">
      <profile_COMMON>
        <technique sid="common">
          <lambert>
            <emission>
              <color sid="emission">0 0 0 1</color>
            </emission>
            <diffuse>
              <color sid="diffuse">0.8 0.8 0.8 1</color>
            </diffuse>
            <index_of_refraction>
              <float sid="ior">1.5</float>
            </index_of_refraction>
          </lambert>
        </technique>
      </profile_COMMON>
    </effect>
    <effect id="_way_teleporter_001-effect">
      <profile_COMMON>
        <technique sid="common">
          <lambert>
            <emission>
              <color sid="emission">0 0 0 1</color>
            </emission>
            <diffuse>
              <color sid="diffuse">0.8 0.8 0.8 1</color>
            </diffuse>
            <index_of_refraction>
              <float sid="ior">1.5</float>
            </index_of_refraction>
          </lambert>
        </technique>
      </profile_COMMON>
    </effect>
  </library_effects>
  <library_images/>
  <library_materials>
    <material id="green_plasma_sender-material" name="green_plasma_sender">
      <instance_effect url="#green_plasma_sender-effect"/>
    </material>
    <material id="_way_teleporter_luminous-material" name="2way_teleporter_luminous">
      <instance_effect url="#_way_teleporter_luminous-effect"/>
    </material>
    <material id="_way_teleporter_001-material" name="2way_teleporter.001">
      <instance_effect url="#_way_teleporter_001-effect"/>
    </material>
  </library_materials>
  <library_geometries>
    <geometry id="default_default-mesh" name="default:default">
      <mesh>
        <source id="default_default-mesh-positions">
          <float_array id="default_default-mesh-positions-array" count="1920">-29.49304 -13.55464 109.8656 -29.49305 -13.55462 7.933032 30.14881 13.75158 109.8656 30.1488 13.75159 7.933032 -29.49304 -13.55464 109.8656 30.14881 13.75158 109.8656 -29.49305 -13.55462 7.933032 30.1488 13.75159 7.933032 -8.160808 -31.5818 109.8656 -8.160825 -31.5818 7.933032 8.816568 31.77866 109.8656 8.816549 31.77867 7.933032 -8.160808 -31.5818 109.8656 8.816568 31.77866 109.8656 -8.160825 -31.5818 7.933032 8.816549 31.77867 7.933032 -28.07582 -16.30045 109.8656 -28.07582 -16.30044 7.933032 28.73162 16.49736 109.8656 28.73162 16.49736 7.933032 -28.07582 -16.30045 109.8656 28.73162 16.49736 109.8656 -28.07582 -16.30044 7.933032 28.73162 16.49736 7.933032 31.06871 -11.33389 7.933032 31.06871 -11.3339 109.8656 -30.41287 11.53084 7.933032 -30.41287 11.53084 109.8656 31.06871 -11.33389 7.933032 -30.41287 11.53084 7.933032 31.06871 -11.3339 109.8656 -30.41287 11.53084 109.8656 44.33068 2.011102 1.986482 44.33068 -1.936805 1.986482 45.41858 2.011102 1.870344 45.41858 -1.936805 1.870344 -23.90705 37.38594 1.986482 -20.48805 39.3599 1.986482 -24.45099 38.32809 1.870344 -21.032 40.30204 1.870344 -24.38664 -38.36523 1.870344 -20.96765 -40.33917 1.870344 -23.8427 -37.42309 1.986482 -20.4237 -39.39704 1.986482 -13.84819 20.16817 129.4671 -10.42919 22.14213 129.4671 -13.85684 20.18316 128.3732 -10.43785 22.15712 128.3732 24.40753 -2.039134 128.3732 24.40753 1.908772 128.3732 24.39023 -2.039134 129.4671 24.39023 1.908772 129.4671 -13.96973 -20.11798 128.3732 -10.55074 -22.09194 128.3732 -13.96108 -20.10299 129.4671 -10.54209 -22.07695 129.4671 -15.27399 -21.81549 117.0223 -11.2558 -24.13538 117.0223 -7.157783 -3.240991 117.0223 0.7720785 -7.819298 117.0223 -7.157777 -3.240999 4.666482 -15.27399 -21.81549 2.735581 0.7720844 -7.819298 4.666482 -11.25579 -24.13539 2.735581 -7.157777 -3.240999 0.3753578 -7.157777 -3.240999 4.666482 0.7720844 -7.819298 0.3753578 0.7720844 -7.819298 4.666482 -15.27399 -21.81549 0.3753578 -15.27399 -21.81549 2.735581 -7.157777 -3.240999 0.3753578 -7.157777 -3.240999 4.666482 -11.25579 -24.13539 0.3753578 -15.27399 -21.81549 0.3753578 0.7720844 -7.819298 0.3753578 -7.157777 -3.240999 0.3753578 -11.25579 -24.13539 0.3753578 -11.25579 -24.13539 2.735581 -15.27399 -21.81549 0.3753578 -15.27399 -21.81549 2.735581 0.7720844 -7.819298 0.3753578 0.7720844 -7.819298 4.666482 -11.25579 -24.13539 0.3753578 -11.25579 -24.13539 2.735581 -15.274 21.81548 0.3753578 -11.25581 24.13538 0.3753578 -7.157784 3.240988 0.3753578 0.7720754 7.819298 0.3753578 0.7720754 7.819298 4.666482 -11.25581 24.13538 2.735581 -7.157784 3.240988 4.666482 -15.274 21.81548 2.735581 0.7720754 7.819298 0.3753578 0.7720754 7.819298 4.666482 -7.157784 3.240988 0.3753578 -7.157784 3.240988 4.666482 -11.25581 24.13538 0.3753578 -11.25581 24.13538 2.735581 0.7720754 7.819298 0.3753578 0.7720754 7.819298 4.666482 -15.274 21.81548 0.3753578 -15.274 21.81548 2.735581 -11.25581 24.13538 0.3753578 -11.25581 24.13538 2.735581 -7.157784 3.240988 0.3753578 -7.157784 3.240988 4.666482 -15.274 21.81548 0.3753578 -15.274 21.81548 2.735581 7.653905 -4.41899 3.118607 -1.61606e-5 -8.837983 3.118607 14.31568 -8.265164 1.88508e-6 -1.46628e-5 -16.53033 1.88508e-6 14.31568 -8.265164 1.88508e-6 14.31567 8.265171 1.88508e-6 7.653905 -4.41899 3.118607 7.653903 4.418992 3.118607 -2.25824e-5 8.837983 3.118607 7.653903 4.418992 3.118607 -2.40802e-5 16.53033 1.88508e-6 14.31567 8.265171 1.88508e-6 -2.40802e-5 16.53033 1.88508e-6 -14.31571 8.265157 1.88508e-6 -2.25824e-5 8.837983 3.118607 -7.653937 4.41899 3.118607 -14.31571 8.265157 1.88508e-6 -14.31571 -8.265171 1.88508e-6 -7.653937 4.41899 3.118607 -7.653936 -4.418992 3.118607 -1.61606e-5 -8.837983 3.118607 -7.653936 -4.418992 3.118607 -1.46628e-5 -16.53033 1.88508e-6 -14.31571 -8.265171 1.88508e-6 26.52974 2.319906 0.3753578 26.52974 -2.319903 0.3753578 6.385644 4.578309 0.3753578 6.385646 -4.578307 0.3753578 6.385646 -4.578307 4.666482 26.52974 -2.319903 2.735581 6.385644 4.578309 4.666482 26.52974 2.319913 2.735581 6.385646 -4.578307 0.3753578 6.385646 -4.578307 4.666482 6.385644 4.578309 0.3753578 6.385644 4.578309 4.666482 26.52974 -2.319903 0.3753578 26.52974 -2.319903 2.735581 6.385646 -4.578307 0.3753578 6.385646 -4.578307 4.666482 26.52974 2.319906 0.3753578 26.52974 2.319913 2.735581 26.52974 -2.319903 0.3753578 26.52974 -2.319903 2.735581 6.385644 4.578309 0.3753578 6.385644 4.578309 4.666482 26.52974 2.319906 0.3753578 26.52974 2.319913 2.735581 -14.31543 -16.38332 3.425821 -13.32384 -16.95582 3.425821 -13.80583 -13.14359 1.88508e-6 -11.46187 -14.49687 1.88508e-6 -13.32384 -16.95582 3.425821 -22.21371 -35.81063 2.051064 -11.46187 -14.49687 1.88508e-6 -21.39011 -34.96752 -2.1458e-6 -25.91869 -39.30467 1.787581 -14.31543 -16.38332 3.425821 -28.21626 -42.92483 -2.1458e-6 -13.80583 -13.14359 1.88508e-6 -21.07952 -42.09855 1.787581 -25.91869 -39.30467 1.787581 -23.06588 -45.8984 -2.1458e-6 -28.21626 -42.92483 -2.1458e-6 -19.90608 -37.14292 2.051064 -8.022271 -20.01667 3.425821 -19.58776 -36.00812 -2.1458e-6 -6.823757 -17.17469 1.88508e-6 -8.022271 -20.01667 3.425821 -7.030689 -20.58916 3.425821 -6.823757 -17.17469 1.88508e-6 -4.479798 -18.52798 1.88508e-6 -7.030689 -20.58916 3.425821 -21.07952 -42.09855 1.787581 -4.479798 -18.52798 1.88508e-6 -23.06588 -45.8984 -2.1458e-6 -22.21371 -35.81063 2.051064 -19.90608 -37.14292 2.051064 -21.39011 -34.96752 -2.1458e-6 -19.58776 -36.00812 -2.1458e-6 -7.030696 20.58916 3.425821 -8.022278 20.01667 3.425821 -4.479805 18.52797 1.88508e-6 -6.82376 17.17469 1.88508e-6 -8.022278 20.01667 3.425821 -19.9061 37.14292 2.051064 -6.82376 17.17469 1.88508e-6 -19.58777 36.00811 -2.1458e-6 -21.07955 42.09855 1.787581 -7.030696 20.58916 3.425821 -23.06591 45.89839 -2.1458e-6 -4.479805 18.52797 1.88508e-6 -25.9187 39.30466 1.787581 -21.07955 42.09855 1.787581 -28.21628 42.9248 -2.1458e-6 -23.06591 45.89839 -2.1458e-6 -22.21374 35.81061 2.051064 -13.32385 16.9558 3.425821 -21.39012 34.96752 -2.1458e-6 -11.46188 14.49687 1.88508e-6 -13.32385 16.9558 3.425821 -14.31543 16.38331 3.425821 -11.46188 14.49687 1.88508e-6 -13.80584 13.14358 1.88508e-6 -14.31543 16.38331 3.425821 -25.9187 39.30466 1.787581 -13.80584 13.14358 1.88508e-6 -28.21628 42.9248 -2.1458e-6 -19.9061 37.14292 2.051064 -22.21374 35.81061 2.051064 -19.58777 36.00811 -2.1458e-6 -21.39012 34.96752 -2.1458e-6 21.34606 -4.205837 3.425821 21.34606 -3.060863 3.425821 18.28558 -5.384388 -2.1458e-6 18.28558 -2.677815 -2.1458e-6 21.34606 -3.060863 3.425821 42.11975 -1.332305 2.051068 18.28558 -2.677815 -2.1458e-6 40.9778 -1.040573 1.88508e-6 46.99818 -2.793883 1.787581 21.34606 -4.205837 3.425821 51.2821 -2.973554 1.88508e-6 18.28558 -5.384388 -2.1458e-6 46.99818 2.793901 1.787581 46.99818 -2.793883 1.787581 51.2821 2.973574 1.88508e-6 51.2821 -2.973554 1.88508e-6 42.11975 1.332314 2.051068 21.34606 3.060864 3.425821 40.9778 1.040589 1.88508e-6 18.28558 2.677822 -2.1458e-6 21.34606 3.060864 3.425821 21.34606 4.205845 3.425821 18.28558 2.677822 -2.1458e-6 18.28557 5.384395 -2.1458e-6 21.34606 4.205845 3.425821 46.99818 2.793901 1.787581 18.28557 5.384395 -2.1458e-6 51.2821 2.973574 1.88508e-6 42.11975 -1.332305 2.051068 42.11975 1.332314 2.051068 40.9778 -1.040573 1.88508e-6 40.9778 1.040589 1.88508e-6 22.4786 2.973576 135.254 22.4786 -2.97356 135.254 24.26618 2.793897 130.9701 24.26618 -2.793887 130.97 25.90443 3.060865 105.318 24.52967 1.332311 126.0917 22.4786 2.677823 102.2575 22.4786 1.040585 124.9497 -15.27399 21.81548 114.6621 -15.274 21.81548 117.0223 -11.2558 24.13539 114.6621 -11.2558 24.13539 117.0223 -7.157779 3.240996 112.7312 -7.157779 3.240996 117.0223 -15.27399 21.81548 114.6621 -15.274 21.81548 117.0223 -11.2558 24.13539 114.6621 -11.2558 24.13539 117.0223 0.7720842 7.819298 112.7312 0.7720813 7.819298 117.0223 0.7720785 -7.819298 112.7312 -11.2558 -24.13538 114.6621 -7.157783 -3.240999 112.7312 -15.27399 -21.81549 114.6621 0.7720785 -7.819298 117.0223 0.7720785 -7.819298 112.7312 -7.157783 -3.240991 117.0223 -7.157783 -3.240999 112.7312 -11.2558 -24.13538 117.0223 -11.2558 -24.13538 114.6621 0.7720785 -7.819298 117.0223 0.7720785 -7.819298 112.7312 -15.27399 -21.81549 117.0223 -15.27399 -21.81549 114.6621 -11.2558 -24.13538 117.0223 -11.2558 -24.13538 114.6621 -7.157783 -3.240991 117.0223 -7.157783 -3.240999 112.7312 -15.27399 -21.81549 117.0223 -15.27399 -21.81549 114.6621 7.653903 4.418992 114.2791 -1.96022e-5 8.837983 114.2791 14.31567 8.265163 117.3977 -2.11e-5 16.53032 117.3977 14.31567 8.265163 117.3977 14.31567 -8.265164 117.3977 7.653903 4.418992 114.2791 7.653905 -4.41899 114.2791 -1.91408e-5 -8.837983 114.2791 7.653905 -4.41899 114.2791 -1.76431e-5 -16.53033 117.3977 14.31567 -8.265164 117.3977 -1.76431e-5 -16.53033 117.3977 -14.3157 -8.265171 117.3977 -1.91408e-5 -8.837983 114.2791 -7.653939 -4.418992 114.2791 -14.3157 -8.265171 117.3977 -14.31571 8.265157 117.3977 -7.653939 -4.418992 114.2791 -7.653937 4.41899 114.2791 -1.96022e-5 8.837983 114.2791 -7.653937 4.41899 114.2791 -2.11e-5 16.53032 117.3977 -14.31571 8.265157 117.3977 26.52974 -2.319903 117.0223 26.52974 2.319906 117.0223 6.385646 -4.578307 117.0223 6.385644 4.578309 117.0223 6.385644 4.578309 112.7312 26.52974 2.319906 114.6621 6.385646 -4.578307 112.7312 26.52974 -2.319903 114.6621 6.385644 4.578309 117.0223 6.385644 4.578309 112.7312 6.385646 -4.578307 117.0223 6.385646 -4.578307 112.7312 26.52974 2.319906 117.0223 26.52974 2.319906 114.6621 6.385644 4.578309 117.0223 6.385644 4.578309 112.7312 26.52974 -2.319903 117.0223 26.52974 -2.319903 114.6621 26.52974 2.319906 117.0223 26.52974 2.319906 114.6621 6.385646 -4.578307 117.0223 6.385646 -4.578307 112.7312 26.52974 -2.319903 117.0223 26.52974 -2.319903 114.6621 25.90443 4.205846 105.318 25.90443 3.060865 105.318 22.4786 5.384388 102.2575 22.4786 2.677823 102.2575 -12.1405 -18.94677 124.9497 -10.33816 -19.98735 124.9497 -13.41868 -20.57718 126.0916 -11.11105 -21.90949 126.0917 24.26618 2.793897 130.9701 25.90443 4.205846 105.318 22.4786 2.973576 135.254 22.4786 5.384388 102.2575 24.52967 -1.332309 126.0916 25.90443 -3.060862 105.318 22.4786 -1.040576 124.9497 22.4786 -2.677814 102.2575 25.90443 -3.060862 105.318 25.90443 -4.205836 105.318 22.4786 -2.677814 102.2575 22.4786 -5.384387 102.2575 25.90443 -4.205836 105.318 24.26618 -2.793887 130.97 22.4786 -5.384387 102.2575 22.4786 -2.97356 135.254 24.52967 1.332311 126.0917 24.52967 -1.332309 126.0916 22.4786 1.040585 124.9497 22.4786 -1.040576 124.9497 -9.309875 -24.53684 105.318 -10.30146 -23.96434 105.318 -6.576313 -22.15926 102.2575 -8.920274 -20.80597 102.2575 -10.30146 -23.96434 105.318 -11.11105 -21.90949 126.0917 -8.920274 -20.80597 102.2575 -10.33816 -19.98735 124.9497 -9.713541 -22.41209 130.9701 -9.309875 -24.53684 105.318 -8.664143 -20.95384 135.254 -6.576313 -22.15926 102.2575 -14.5527 -19.6182 130.9701 -9.713541 -22.41209 130.9701 -13.81452 -17.98028 135.254 -8.664143 -20.95384 135.254 -13.41868 -20.57718 126.0916 -15.60303 -20.90348 105.318 -12.1405 -18.94677 124.9497 -13.5584 -18.12815 102.2575 -15.60303 -20.90348 105.318 -16.59462 -20.33099 105.318 -13.5584 -18.12815 102.2575 -15.90235 -16.77487 102.2575 -16.59462 -20.33099 105.318 -14.5527 -19.6182 130.9701 -15.90235 -16.77487 102.2575 -13.81452 -17.98028 135.254 -13.81452 17.98027 135.254 -8.664151 20.95383 135.254 -14.55271 19.61819 130.9701 -9.71355 22.41209 130.9701 -11.11106 21.90948 126.0916 -10.30146 23.96432 105.318 -10.33816 19.98734 124.9497 -8.920271 20.80595 102.2575 -16.59462 20.33096 105.318 -15.60303 20.90345 105.318 -15.90235 16.77484 102.2575 -13.55839 18.12813 102.2575 -15.60303 20.90345 105.318 -13.41869 20.57716 126.0917 -13.55839 18.12813 102.2575 -12.14051 18.94675 124.9497 -14.55271 19.61819 130.9701 -16.59462 20.33096 105.318 -13.81452 17.98027 135.254 -15.90235 16.77484 102.2575 -10.30146 23.96432 105.318 -9.309874 24.53681 105.318 -8.920271 20.80595 102.2575 -6.576313 22.15923 102.2575 -9.309874 24.53681 105.318 -9.71355 22.41209 130.9701 -6.576313 22.15923 102.2575 -8.664151 20.95383 135.254 -13.41869 20.57716 126.0917 -11.11106 21.90948 126.0916 -12.14051 18.94675 124.9497 -10.33816 19.98734 124.9497 -11.2558 24.13539 117.0223 -15.274 21.81548 117.0223 0.7720813 7.819298 117.0223 -7.157779 3.240996 117.0223 -7.157779 3.240996 117.0223 -7.157779 3.240996 112.7312 0.7720813 7.819298 117.0223 0.7720842 7.819298 112.7312 -7.157779 3.240996 112.7312 -15.27399 21.81548 114.6621 0.7720842 7.819298 112.7312 -11.2558 24.13539 114.6621 -13.55839 18.12813 102.2575 -12.14051 18.94675 124.9497 -15.90235 16.77484 102.2575 -13.81452 17.98027 135.254 -10.33816 19.98734 124.9497 -8.664151 20.95383 135.254 -8.920271 20.80595 102.2575 -6.576313 22.15923 102.2575 -4.479798 -18.52798 1.88508e-6 -6.823757 -17.17469 1.88508e-6 -23.06588 -45.8984 -2.1458e-6 -19.58776 -36.00812 -2.1458e-6 -28.21626 -42.92483 -2.1458e-6 -21.39011 -34.96752 -2.1458e-6 -13.80583 -13.14359 1.88508e-6 -11.46187 -14.49687 1.88508e-6 -13.80584 13.14358 1.88508e-6 -11.46188 14.49687 1.88508e-6 -28.21628 42.9248 -2.1458e-6 -21.39012 34.96752 -2.1458e-6 -23.06591 45.89839 -2.1458e-6 -19.58777 36.00811 -2.1458e-6 -4.479805 18.52797 1.88508e-6 -6.82376 17.17469 1.88508e-6 18.28557 5.384395 -2.1458e-6 18.28558 2.677822 -2.1458e-6 51.2821 2.973574 1.88508e-6 40.9778 1.040589 1.88508e-6 51.2821 -2.973554 1.88508e-6 40.9778 -1.040573 1.88508e-6 18.28558 -5.384388 -2.1458e-6 18.28558 -2.677815 -2.1458e-6 22.4786 -5.384387 102.2575 22.4786 -2.677814 102.2575 22.4786 -2.97356 135.254 22.4786 -1.040576 124.9497 22.4786 2.973576 135.254 22.4786 1.040585 124.9497 22.4786 5.384388 102.2575 22.4786 2.677823 102.2575 -15.90235 -16.77487 102.2575 -13.5584 -18.12815 102.2575 -13.81452 -17.98028 135.254 -12.1405 -18.94677 124.9497 -8.664143 -20.95384 135.254 -10.33816 -19.98735 124.9497 -6.576313 -22.15926 102.2575 -8.920274 -20.80597 102.2575 -10.30146 23.96432 105.318 -9.309874 24.53681 105.318 -11.11106 21.90948 126.0916 -9.71355 22.41209 130.9701 -13.41869 20.57716 126.0917 -14.55271 19.61819 130.9701 -16.59462 20.33096 105.318 -15.60303 20.90345 105.318 -10.30146 -23.96434 105.318 -9.309875 -24.53684 105.318 -11.11105 -21.90949 126.0917 -9.713541 -22.41209 130.9701 -14.5527 -19.6182 130.9701 -13.41868 -20.57718 126.0916 -16.59462 -20.33099 105.318 -15.60303 -20.90348 105.318 25.90443 -3.060862 105.318 25.90443 -4.205836 105.318 24.52967 -1.332309 126.0916 24.26618 -2.793887 130.97 24.52967 1.332311 126.0917 24.26618 2.793897 130.9701 25.90443 4.205846 105.318 25.90443 3.060865 105.318 21.34606 -3.060863 3.425821 21.34606 -4.205837 3.425821 42.11975 -1.332305 2.051068 46.99818 -2.793883 1.787581 46.99818 2.793901 1.787581 42.11975 1.332314 2.051068 21.34606 4.205845 3.425821 21.34606 3.060864 3.425821 -13.32385 16.9558 3.425821 -14.31543 16.38331 3.425821 -22.21374 35.81061 2.051064 -25.9187 39.30466 1.787581 -19.9061 37.14292 2.051064 -21.07955 42.09855 1.787581 -7.030696 20.58916 3.425821 -8.022278 20.01667 3.425821 -13.32384 -16.95582 3.425821 -14.31543 -16.38332 3.425821 -22.21371 -35.81063 2.051064 -25.91869 -39.30467 1.787581 -21.07952 -42.09855 1.787581 -19.90608 -37.14292 2.051064 -7.030689 -20.58916 3.425821 -8.022271 -20.01667 3.425821 -1.93955e-5 7.776504 109.6922 -1.96022e-5 8.837983 114.2791 -3.888272 6.734649 109.6922 -7.653937 4.41899 114.2791 -6.734669 3.888251 109.6922 -7.776525 -1.51415e-6 109.6922 -7.653939 -4.418992 114.2791 -6.734671 -3.888253 109.6922 -3.888272 -6.734651 109.6922 -1.91408e-5 -8.837983 114.2791 -1.93475e-5 -7.776504 109.6922 -1.93955e-5 7.776504 109.6922 -1.96022e-5 8.837983 114.2791 3.888236 6.734651 109.6922 7.653903 4.418992 114.2791 6.734636 3.888253 109.6922 7.776489 1.51414e-6 109.6922 7.653905 -4.41899 114.2791 6.734637 -3.888251 109.6922 3.888239 -6.734649 109.6922 -1.91408e-5 -8.837983 114.2791 -1.93475e-5 -7.776504 109.6922 -1.63673e-5 -7.776504 7.705462 -1.61606e-5 -8.837983 3.118607 -3.888269 -6.734658 7.705462 -7.653936 -4.418992 3.118607 -6.734668 -3.888253 7.705462 -7.776525 -1.51415e-6 7.705462 -7.653937 4.41899 3.118607 -6.734676 3.888251 7.705462 -3.888275 6.734649 7.705462 -2.25824e-5 8.837983 3.118607 -2.23758e-5 7.776504 7.705462 -1.63673e-5 -7.776504 7.705462 -1.61606e-5 -8.837983 3.118607 3.888239 -6.734649 7.705462 7.653905 -4.41899 3.118607 6.734637 -3.888251 7.705462 7.776489 1.51414e-6 7.705462 7.653903 4.418992 3.118607 6.734636 3.888253 7.705462 3.888236 6.734651 7.705462 -2.25824e-5 8.837983 3.118607 -2.23758e-5 7.776504 7.705462 7.776489 1.51414e-6 109.6922 6.734636 3.888253 109.6922 6.734637 -3.888251 109.6922 3.888236 6.734651 109.6922 3.888239 -6.734649 109.6922 -1.93475e-5 -7.776504 109.6922 -1.93955e-5 7.776504 109.6922 -3.888272 6.734649 109.6922 -3.888272 -6.734651 109.6922 -6.734671 -3.888253 109.6922 -6.734669 3.888251 109.6922 -7.776525 -1.51415e-6 109.6922 -7.776525 -1.51415e-6 7.705462 -6.734668 -3.888253 7.705462 -6.734676 3.888251 7.705462 -3.888269 -6.734658 7.705462 -3.888275 6.734649 7.705462 -2.23758e-5 7.776504 7.705462 -1.63673e-5 -7.776504 7.705462 3.888239 -6.734649 7.705462 3.888236 6.734651 7.705462 6.734636 3.888253 7.705462 6.734637 -3.888251 7.705462 7.776489 1.51414e-6 7.705462 -1.78814e-5 0 1.88508e-6 14.31567 8.265171 1.88508e-6 -2.40802e-5 16.53033 1.88508e-6 -1.78814e-5 0 1.88508e-6 14.31567 8.265171 1.88508e-6 14.31568 -8.265164 1.88508e-6 -1.78814e-5 0 1.88508e-6 -1.46628e-5 -16.53033 1.88508e-6 14.31568 -8.265164 1.88508e-6 -1.46628e-5 -16.53033 1.88508e-6 -14.31571 -8.265171 1.88508e-6 -1.78814e-5 0 1.88508e-6 -14.31571 8.265157 1.88508e-6 -14.31571 -8.265171 1.88508e-6 -1.78814e-5 0 1.88508e-6 -1.78814e-5 0 1.88508e-6 -14.31571 8.265157 1.88508e-6 -2.40802e-5 16.53033 1.88508e-6 -1.78814e-5 0 117.3977 14.31567 -8.265164 117.3977 -1.76431e-5 -16.53033 117.3977 -1.78814e-5 0 117.3977 14.31567 -8.265164 117.3977 14.31567 8.265163 117.3977 -1.78814e-5 0 117.3977 -2.11e-5 16.53032 117.3977 14.31567 8.265163 117.3977 -2.11e-5 16.53032 117.3977 -14.31571 8.265157 117.3977 -1.78814e-5 0 117.3977 -14.3157 -8.265171 117.3977 -14.31571 8.265157 117.3977 -1.78814e-5 0 117.3977 -1.78814e-5 0 117.3977 -14.3157 -8.265171 117.3977 -1.76431e-5 -16.53033 117.3977</float_array>
          <technique_common>
            <accessor source="#default_default-mesh-positions-array" count="640" stride="3">
              <param name="X" type="float"/>
              <param name="Y" type="float"/>
              <param name="Z" type="float"/>
            </accessor>
          </technique_common>
        </source>
        <source id="default_default-mesh-normals">
          <float_array id="default_default-mesh-normals-array" count="1281">0.4162814 -0.9092359 -1.59461e-7 0.4162814 -0.9092358 -2.08526e-7 -0.4162814 0.9092359 1.59461e-7 -0.4162814 0.9092358 2.08531e-7 0.9659259 -0.2588189 -1.72369e-7 0.9659259 -0.2588189 -1.95297e-7 -0.9659259 0.2588189 1.72369e-7 -0.9659259 0.2588189 1.95282e-7 0.5000002 -0.8660253 0 0.5000001 -0.8660253 0 -0.5000002 0.8660253 0 -0.5000001 0.8660253 0 -0.3485713 -0.9372824 0 -0.3485713 -0.9372823 0 0.3485713 0.9372824 0 0.3485713 0.9372823 0 0.1061518 0 0.99435 0.1061513 0 0.99435 -0.05307537 0.09192901 0.9943501 -0.05307614 0.09193068 0.99435 -0.0530759 -0.09193074 0.9943499 -0.05307602 -0.0919308 0.99435 -0.499935 0.8659185 0.01581943 -0.4999405 0.8659153 0.01581931 0.999875 0 0.015814 0.999875 0 0.01581376 -0.4999405 -0.8659152 0.01582294 -0.4999362 -0.8659176 0.01582568 0 6.56e-7 1 -1.3236e-6 6.55999e-7 1 -0.04770851 -0.08263373 0.9954375 -0.04770857 -0.08263367 0.9954375 0.4999993 0.8660259 0 -0.9163408 0.4003993 0 -0.9163408 0.4003993 0 0 0 -1 0 0 -1 -0.4999997 -0.8660256 0 -0.4999998 -0.8660255 0 0.8049265 -0.5933746 0 0.8049266 -0.5933745 0 -0.04770863 0.08263367 0.9954374 -0.04770839 0.08263367 0.9954374 0.5000002 -0.8660253 0 0.5000004 -0.8660253 0 0.8049262 0.5933751 0 0.8049262 0.593375 0 -0.4999992 0.8660258 0 -0.4999992 0.8660259 0 -0.9163407 -0.4003996 0 -0.9163407 -0.4003996 0 0.325357 -0.1878955 0.9267352 4.37945e-5 -0.3757212 0.9267328 0.3253514 -0.1878923 0.9267378 4.37982e-5 -0.3757031 0.9267401 0.3253902 -0.1878136 0.9267402 0.3253952 0.1878166 0.9267378 0.3254059 -0.1878226 0.9267328 0.3254008 0.1878198 0.9267352 4.36455e-5 0.3757156 0.9267351 0.3253619 0.1878988 0.9267328 4.35859e-5 0.3757091 0.9267377 0.3253462 0.1878896 0.9267402 -4.40069e-5 0.3757031 0.9267401 -0.3253517 0.1878925 0.9267377 -4.40031e-5 0.3757213 0.9267327 -0.3253573 0.1878958 0.9267351 -0.3253903 0.1878134 0.9267402 -0.3253952 -0.1878165 0.9267378 -0.325406 0.1878226 0.9267328 -0.3254009 -0.1878196 0.9267352 -4.37722e-5 -0.3757154 0.9267352 -0.3253621 -0.1878986 0.9267328 -4.372e-5 -0.3757089 0.9267379 -0.3253464 -0.1878895 0.9267401 0 0 -1 0.09541708 0 0.9954374 0.09541714 0 0.9954375 -1 -1.94171e-7 0 -1 0 0 0.1114144 -0.9937741 0 0.1114145 -0.9937741 0 1 0 0 0.1114144 0.9937741 0 0.1114138 0.9937742 -3.18939e-6 0.3728788 0.6458382 0.6662241 0.3728733 0.6458404 0.6662249 0.8860017 -0.4303315 0.1726728 0.886 -0.4303297 0.1726851 0.8852297 -0.4293327 0.1790031 0.8852317 -0.4293359 0.1789846 -0.8680171 0.4205396 0.263994 -0.8672667 0.4196494 0.2678489 -0.8680173 0.42054 0.2639929 -0.8672668 0.4196496 0.2678477 -0.1925464 -0.3335013 0.9228774 -0.1925477 -0.3335019 0.922877 -0.815042 0.5512253 0.1784859 -0.8152979 0.5525668 0.1730881 -0.8150482 0.5512567 0.1783604 -0.8152948 0.5525505 0.1731548 0.3728766 0.6458406 0.666223 0.3728771 0.6458405 0.6662228 0.7971329 -0.5410596 0.2680184 0.7976973 -0.5416811 0.2650674 0.7977005 -0.5416843 0.265051 0.7971363 -0.5410628 0.2680019 0.4368526 0.7566578 0.4864451 0.4368602 0.7566577 0.4864386 0.3728742 -0.6458401 0.6662248 0.372875 -0.6458404 0.666224 -0.8156785 -0.5521342 0.1726743 -0.8156844 -0.5521351 0.1726434 -0.8144273 -0.551965 0.179005 -0.8144302 -0.5519654 0.1789906 0.798205 0.5414544 0.2639997 0.7970589 0.5412497 0.2678545 0.7982068 0.5414549 0.2639939 0.7970605 0.5412502 0.2678487 -0.1925481 0.333502 0.9228769 -0.1925482 0.3335013 0.9228771 0.8848956 0.4302351 0.1784871 0.8861727 0.4297901 0.1731426 0.8861729 0.42979 0.1731426 0.88617 0.4297913 0.1731538 0.3728737 -0.6458428 0.6662225 0.3728766 -0.6458398 0.6662238 -0.8671381 -0.4198079 0.2680165 -0.8679584 -0.4199862 0.2650656 -0.8671422 -0.4198092 0.2680013 -0.8679628 -0.419987 0.2650503 0.4368572 -0.7566571 0.4864422 0.4368561 -0.7566561 0.4864446 -0.745752 0 0.6662237 -0.7457523 0 0.6662234 -0.07032275 0.9824655 0.1726748 -0.07032382 0.9824619 0.1726942 -0.07032471 0.9824618 0.1726941 -0.07080066 0.9812995 0.1789938 0.06980991 -0.9619958 0.2639901 0.06981056 -0.9619945 0.2639945 0.06981027 -0.9619945 0.2639945 0.0702064 -0.9608995 0.2678493 0.385095 0 0.922877 0.3850952 0 0.9228769 -0.06985408 -0.9814597 0.1784862 -0.07091468 -0.982375 0.1729468 -0.06985133 -0.9814574 0.1784999 -0.07087546 -0.9823415 0.1731529 -0.7457523 -2.90103e-6 0.6662233 -0.7457524 -1.22724e-6 0.6662233 0.07000464 0.9608672 0.2680178 0.07026076 0.9616668 0.2650669 0.07026255 0.9616732 0.2650432 0.07000648 0.9608737 0.2679942 -0.87371 0 0.4864472 -0.87371 0 0.4864471 0.9228769 0 0.3850952 0.9228771 -1.17655e-6 0.3850947 0.1726728 -0.9824657 -0.07032263 0.1726905 -0.9824626 -0.07032382 0.1790037 -0.9812976 -0.07080173 0.1789909 -0.9812999 -0.07080042 -0.5000044 0.8660229 -1.39336e-6 -0.4999996 0.8660257 0 -0.9163403 -0.4004006 0 -0.9163411 -0.4003986 -9.56808e-7 0.8049238 0.5933782 0 0.804927 0.5933739 3.50846e-7 -0.04770898 -0.08263319 -0.9954375 -0.04770904 -0.08263337 -0.9954375 0.5000008 0.8660251 0 0.5000015 0.8660247 -1.55337e-6 0.8049278 -0.593373 -1.27574e-6 0.8049256 -0.5933758 0 -0.4999997 -0.8660256 0 -0.4999999 -0.8660255 1.39336e-6 -0.9163405 0.4004002 -7.01699e-7 -0.9163396 0.4004021 0 0.3253573 0.1878961 -0.926735 4.38243e-5 0.3757217 -0.9267325 0.3253516 0.1878929 -0.9267377 4.37647e-5 0.3757036 -0.9267399 0.3253918 0.1878137 -0.9267396 0.3253971 -0.1878164 -0.9267372 0.3254077 0.1878226 -0.9267322 0.325403 -0.1878194 -0.9267346 4.62458e-5 -0.3757157 -0.9267351 0.325363 -0.1878988 -0.9267325 4.51952e-5 -0.3757092 -0.9267376 0.3253467 -0.1878896 -0.9267399 -4.3802e-5 -0.3757033 -0.92674 -0.3253519 -0.1878926 -0.9267376 -4.39286e-5 -0.3757215 -0.9267327 -0.3253577 -0.1878957 -0.9267349 -0.3253917 -0.1878136 -0.9267396 -0.3253947 0.1878165 -0.926738 -0.3254063 -0.1878226 -0.9267327 -0.325398 0.18782 -0.9267362 -4.26881e-5 0.3757159 -0.9267349 -0.3253615 0.1878991 -0.9267329 -4.29451e-5 0.3757094 -0.9267376 -0.3253459 0.1878901 -0.9267402 0 0 1 9.92701e-7 0 1 0.09541523 0 -0.9954376 0.09541684 0 -0.9954375 -1 0 0 -1 -1.94172e-7 0 0.1114135 0.9937742 0 0.1114151 0.9937741 0 0.1114144 -0.9937741 0 0.1114147 -0.993774 0 0.6662279 0 -0.7457482 0.6662231 0 -0.7457526 -0.2432203 -0.4212716 -0.8737128 -0.2432208 -0.4212765 -0.8737105 0.2639949 0.9619944 0.06981033 0.2678498 0.9608994 0.07020598 0.2678464 0.9609004 0.0702058 0.2639915 0.9619954 0.06980967 0.1784873 0.9814595 -0.0698539 0.173089 0.9823519 -0.07088834 0.1783617 0.9814807 -0.06987774 0.1731556 0.9823411 -0.07087564 0.666226 0 -0.74575 0.6662232 1.22724e-6 -0.7457524 0.2680166 -0.9608675 0.07000517 0.2650196 -0.9616795 0.07026487 0.2650196 -0.9616795 0.07026529 0.2650439 -0.961673 0.07026273 0.4864588 4.26881e-6 -0.8737035 0.4864442 0 -0.8737118 -0.3331159 -0.5769616 -0.7457541 -0.3331127 -0.5769656 -0.7457525 -0.9371767 0.341694 -0.07032233 -0.9371829 0.3416765 -0.07032358 -0.9393305 0.3356271 -0.07080143 -0.9393263 0.3356389 -0.07080024 0.7011145 -0.7096232 0.0698105 0.7011158 -0.7096219 0.06981045 0.7011158 -0.7096219 0.06981045 0.6982401 -0.7124128 0.07020634 -0.461441 -0.7992342 0.3850931 -0.4614355 -0.7992355 0.3850973 0.7607263 -0.6453031 -0.06985419 0.7641639 -0.6411163 -0.07087707 0.7641638 -0.6411163 -0.07087755 0.7641555 -0.6411264 -0.07087582 -0.3331079 -0.5769671 -0.7457534 -0.3331089 -0.5769662 -0.7457537 -0.9661437 0.2483257 0.07000523 -0.9653607 0.2512812 0.07026094 -0.9661512 0.2482975 0.07000237 -0.965356 0.251299 0.07026267 -0.4614375 0.7992352 0.3850956 -0.4614397 0.7992334 0.3850966 -0.9392119 -0.3361569 -0.06985431 -0.9372352 -0.3414107 -0.07091504 -0.9390521 -0.3365852 -0.0699408 -0.9373093 -0.3412155 -0.07087564 -0.3331167 0.5769637 -0.745752 -0.3331086 0.5769658 -0.7457543 0.764504 0.6407718 -0.07032257 0.7645215 0.6407511 -0.07032006 0.7645215 0.6407511 -0.07031989 0.7603341 0.645662 -0.07080048 -0.9651082 -0.2523747 0.06981003 -0.9651083 -0.2523742 0.06980949 -0.9651083 -0.2523742 0.06980997 -0.9660874 -0.2484883 0.0702061 -0.3331072 0.5769658 -0.7457547 -0.3331108 0.5769658 -0.7457532 0.6981282 0.7125423 0.07000488 0.7002961 0.7103865 0.07026058 0.7002961 0.7103865 0.070261 0.7003115 0.710371 0.07026231 -0.2432311 0.4212718 -0.8737098 -0.2432169 0.4212704 -0.8737144 0 6.55998e-7 1 0 6.55999e-7 1 0.4999988 -0.8660261 0 0.500001 -0.8660249 3.88339e-7 -0.04771023 0.08263331 -0.9954373 -0.04770576 0.08263325 -0.9954376 0.5000019 -0.8660243 2.48442e-7 0.4999988 -0.8660261 7.31746e-7 0.5 -0.8660255 1.0673e-6 0.4999973 -0.866027 5.02478e-7 0.5000007 -0.866025 4.27143e-7 0 0 -1 6.56406e-7 -2.30839e-7 -1 -3.61925e-7 3.10477e-7 -1 0 1.53835e-7 -1 0 0 -1 -5.28119e-7 -4.53047e-7 -1 0 0 -1 0 0 -1 4.4984e-7 1.58196e-7 -1 0 -1.53835e-7 -1 1.22161e-7 0 -1 1.28291e-7 -6.83888e-7 -1 0 0 -1 0 4.68672e-7 -1 1.77633e-7 0 -1 -1 -1.36686e-6 0 -1 1.00495e-6 0 -1 0 0 -1 0 1.85102e-7 -1 1.3774e-6 0 -1 0 0 0.4999984 0.8660264 1.70857e-7 0.4999977 0.8660268 1.88429e-7 0.4999994 0.8660258 0 0.4999989 0.8660261 -3.55767e-7 0.4999997 0.8660256 -3.44351e-7 0.5000009 0.8660249 2.48441e-7 -0.5002157 0.8633953 0.0658257 -0.4989061 0.8641368 0.066033 -0.5131384 0.8562812 0.05891978 -0.5043208 0.8617188 0.0556904 -0.4849919 0.8725316 0.05891948 -0.4941117 0.867613 0.0556901 -0.4976121 0.8648984 0.06582576 -0.4989091 0.864135 0.06603312 -0.4989119 -0.8641335 0.06603306 -0.5002211 -0.8633921 0.06582581 -0.5131383 -0.8562813 0.05892068 -0.5043202 -0.861719 0.05569183 -0.4941111 -0.8676132 0.05569189 -0.484992 -0.8725315 0.0589208 -0.4976085 -0.8649005 0.06582617 -0.4989051 -0.8641373 0.06603348 0.99783 0.00150454 0.06582665 0.9978174 0 0.06603395 0.9981305 0.01624721 0.05892074 0.9984306 0.00589317 0.05569189 0.9981305 -0.01624923 0.05892068 0.9984306 -0.005893468 0.05569195 0.99783 -0.001499831 0.06582695 0.9978173 5.12094e-6 0.06603431 0.06603312 0 0.9978175 0.06582581 0.001504659 0.9978301 0.05892032 0.01624929 0.9981305 0.05569165 0.005893945 0.9984307 0.05569159 -0.005893766 0.9984307 0.05892038 -0.01624929 0.9981305 0.06582581 -0.001504361 0.9978301 0.06603312 3.20058e-7 0.9978175 -0.03160971 0.05775946 0.99783 -0.03301656 0.0571866 0.9978175 -0.01538664 0.05915158 0.9981305 -0.02274101 0.0511769 0.9984307 -0.04353338 0.04290091 0.9981305 -0.03295028 0.0452826 0.9984307 -0.03421628 0.0562548 0.99783 -0.03301674 0.05718672 0.9978175 -0.0330168 -0.05718648 0.9978175 -0.03160995 -0.05775934 0.99783 -0.01538664 -0.05915147 0.9981305 -0.02274078 -0.05117708 0.9984307 -0.03294992 -0.04528272 0.9984307 -0.0435332 -0.04290097 0.9981305 -0.03421652 -0.05625462 0.99783 -0.03301703 -0.0571866 0.9978174 -2.18451e-5 0.9955037 -0.09472292 -3.13522e-5 0.9742572 -0.2254397 -0.4973342 0.8614087 -0.1031214 -0.8621342 0.4977538 -0.09468764 -0.843727 0.4871273 -0.2254595 -0.9946688 0 -0.1031215 -0.8621341 -0.497754 -0.09468775 -0.843727 -0.4871271 -0.2254595 -0.4973339 -0.8614088 -0.1031217 -2.17169e-5 -0.9955053 -0.09470611 -3.14265e-5 -0.9742548 -0.2254499 3.1963e-5 0.9742547 -0.2254502 2.10899e-5 0.9955053 -0.09470623 0.4973338 0.8614088 -0.1031213 0.8621341 0.497754 -0.09468775 0.8437273 0.4871267 -0.2254591 0.9946689 2.10565e-7 -0.1031216 0.8621346 -0.4977534 -0.09468752 0.8437281 -0.4871254 -0.2254591 0.4973341 -0.8614087 -0.1031212 2.03252e-5 -0.9955038 -0.09472274 3.01606e-5 -0.9742572 -0.2254395 -2.07126e-5 -0.9955038 0.09472244 -2.98129e-5 -0.9742572 0.2254397 -0.497334 -0.8614087 0.1031209 -0.8621344 -0.4977536 0.0946874 -0.8437275 -0.4871264 0.2254593 -0.9946689 -5.98195e-7 0.1031209 -0.8621346 0.4977535 0.09468704 -0.8437278 0.4871263 0.2254582 -0.4973345 0.8614085 0.103121 -2.20451e-5 0.9955053 0.09470599 -3.18438e-5 0.9742548 0.2254501 3.16799e-5 -0.9742547 0.2254502 2.17762e-5 -0.9955053 0.09470611 0.4973344 -0.8614085 0.1031212 0.8621345 -0.4977534 0.09468775 0.8437277 -0.4871261 0.2254591 0.9946689 2.00994e-7 0.1031216 0.8621343 0.4977538 0.0946877 0.8437275 0.4871265 0.225459 0.497334 0.8614088 0.1031211 2.10106e-5 0.9955037 0.09472292 3.11906e-5 0.9742572 0.2254398 -1.50667e-5 0 -1 6.36794e-6 1.13286e-6 -1 -2.62218e-6 1.13286e-6 -1 -4.03711e-6 0 -1 4.07895e-6 1.13286e-6 -1 -4.77596e-6 1.13286e-6 -1 1.50667e-5 0 -1 1.72338e-7 0 1 -2.91354e-7 0 1 0 0 1 -1.2616e-7 0 1 2.91353e-7 0 1 -7.95993e-7 0 1 6.8935e-7 0 1 0 0 -1 -1.03168e-6 0 1 5.15842e-7 0 1 -5.15842e-7 0 1</float_array>
          <technique_common>
            <accessor source="#default_default-mesh-normals-array" count="427" stride="3">
              <param name="X" type="float"/>
              <param name="Y" type="float"/>
              <param name="Z" type="float"/>
            </accessor>
          </technique_common>
        </source>
        <source id="default_default-mesh-map-0">
          <float_array id="default_default-mesh-map-0-array" count="2160">5.00083e-4 0.9995005 4.99517e-4 4.99547e-4 0.9995005 0.9995004 0.9995005 0.9995004 4.99517e-4 4.99547e-4 0.9994999 4.99487e-4 5.00083e-4 0.9995005 0.9995005 0.9995004 4.99517e-4 4.99547e-4 4.99517e-4 4.99547e-4 0.9995005 0.9995004 0.9994999 4.99487e-4 5.00083e-4 0.9995005 4.99517e-4 4.99547e-4 0.9995005 0.9995004 0.9995005 0.9995004 4.99517e-4 4.99547e-4 0.9994999 4.99487e-4 5.00083e-4 0.9995005 0.9995005 0.9995004 4.99517e-4 4.99547e-4 4.99517e-4 4.99547e-4 0.9995005 0.9995004 0.9994999 4.99487e-4 5.00083e-4 0.9995005 4.99517e-4 4.99547e-4 0.9995005 0.9995004 0.9995005 0.9995004 4.99517e-4 4.99547e-4 0.9994999 4.99487e-4 5.00083e-4 0.9995005 0.9995005 0.9995004 4.99517e-4 4.99547e-4 4.99517e-4 4.99547e-4 0.9995005 0.9995004 0.9994999 4.99487e-4 0.9994999 4.99487e-4 0.9995005 0.9995004 4.99517e-4 4.99547e-4 4.99517e-4 4.99547e-4 0.9995005 0.9995004 5.00083e-4 0.9995005 0.9994999 4.99487e-4 4.99517e-4 4.99547e-4 0.9995005 0.9995004 0.9995005 0.9995004 4.99517e-4 4.99547e-4 5.00083e-4 0.9995005 0.3102011 0.1139674 0.4500443 0.1139674 0.3102011 0.05491447 0.3102011 0.05491447 0.4500443 0.1139674 0.4500443 0.05491447 0.3102011 0.1139674 0.4500443 0.1139674 0.3102011 0.05491447 0.3102011 0.05491447 0.4500443 0.1139674 0.4500443 0.05491447 0.4500443 0.05491447 0.3102011 0.05491447 0.4500443 0.1139674 0.4500443 0.1139674 0.3102011 0.05491447 0.3102011 0.1139674 0.3102011 0.1139674 0.4500443 0.1139674 0.3102011 0.05491447 0.3102011 0.05491447 0.4500443 0.1139674 0.4500443 0.05491447 0.4500443 0.05491447 0.3102011 0.05491447 0.4500443 0.1139674 0.4500443 0.1139674 0.3102011 0.05491447 0.3102011 0.1139674 0.4500443 0.05491447 0.3102011 0.05491447 0.4500443 0.1139674 0.4500443 0.1139674 0.3102011 0.05491447 0.3102011 0.1139674 0.5463983 0.7014421 0.453602 0.7014421 0.5915665 0.298561 0.5915665 0.298561 0.453602 0.7014421 0.408434 0.2985609 0.998019 -0.003600001 0.9666789 1.003603 0.6721554 -0.003599882 0.6721554 -0.003599882 0.9666789 1.003603 0.7346882 1.003603 0.5915665 0.4570904 0.5915665 0.5429129 0.408434 0.4570904 0.408434 0.4570904 0.5915665 0.5429129 0.408434 0.5429129 -0.0188694 1.003603 0.09914213 1.003603 -0.0188694 -0.003600001 -0.0188694 -0.003600001 0.09914213 1.003603 0.1956874 -0.003600001 0.5463983 0.7014421 0.453602 0.7014421 0.5915665 0.298561 0.5915665 0.298561 0.453602 0.7014421 0.408434 0.2985609 0.5463983 0.4570904 0.5463983 0.5042949 0.453602 0.4570904 0.453602 0.4570904 0.5463983 0.5042949 0.453602 0.5042949 -0.0188694 -0.003599882 0.1956874 -0.003599882 -0.0188694 1.003603 -0.0188694 1.003603 0.1956874 -0.003599882 0.09914225 1.003603 0.5463983 0.7014421 0.453602 0.7014421 0.5915665 0.298561 0.5915665 0.298561 0.453602 0.7014421 0.408434 0.2985609 0.998019 -0.003600001 0.9666789 1.003603 0.6721554 -0.003599882 0.6721554 -0.003599882 0.9666789 1.003603 0.7346882 1.003603 0.5915665 0.4570904 0.5915665 0.5429129 0.408434 0.4570904 0.408434 0.4570904 0.5915665 0.5429129 0.408434 0.5429129 -0.0188694 1.003603 0.09914213 1.003603 -0.0188694 -0.003600001 -0.0188694 -0.003600001 0.09914213 1.003603 0.1956874 -0.003600001 0.5463983 0.4570904 0.5463983 0.5042949 0.453602 0.4570904 0.453602 0.4570904 0.5463983 0.5042949 0.453602 0.5042949 -0.0188694 -0.003599882 0.1956874 -0.003599882 -0.0188694 1.003603 -0.0188694 1.003603 0.1956874 -0.003599882 0.09914225 1.003603 0 1.000001 0 2.5034e-6 0.2585825 1.000001 0.2585825 1.000001 0 2.5034e-6 0.2585825 2.5034e-6 0.2585825 2.5034e-6 0.2585825 1.000001 0 2.5034e-6 0 2.5034e-6 0.2585825 1.000001 0 1.000001 0 1.000001 0 2.5034e-6 0.2585825 1.000001 0.2585825 1.000001 0 2.5034e-6 0.2585825 2.5034e-6 0.2585825 2.5034e-6 0.2585825 1.000001 0 2.5034e-6 0 2.5034e-6 0.2585825 1.000001 0 1.000001 0.2585825 2.5034e-6 0.2585825 1.000001 0 2.5034e-6 0 2.5034e-6 0.2585825 1.000001 0 1.000001 0 2.5034e-6 0 1.000001 0.2585825 2.5034e-6 0.2585825 2.5034e-6 0 1.000001 0.2585825 1.000001 0.5463983 0.7014421 0.453602 0.7014421 0.5915665 0.298561 0.5915665 0.298561 0.453602 0.7014421 0.408434 0.2985609 0.998019 -0.003600001 0.9666789 1.003603 0.6721554 -0.003599882 0.6721554 -0.003599882 0.9666789 1.003603 0.7346882 1.003603 0.5915665 0.4570904 0.5915665 0.5429129 0.408434 0.4570904 0.408434 0.4570904 0.5915665 0.5429129 0.408434 0.5429129 -0.0188694 1.003603 0.09914213 1.003603 -0.0188694 -0.003600001 -0.0188694 -0.003600001 0.09914213 1.003603 0.1956874 -0.003600001 0.5463983 0.4570904 0.5463983 0.5042949 0.453602 0.4570904 0.453602 0.4570904 0.5463983 0.5042949 0.453602 0.5042949 -0.0188694 -0.003599882 0.1956874 -0.003599882 -0.0188694 1.003603 -0.0188694 1.003603 0.1956874 -0.003599882 0.09914225 1.003603 0.2035396 0.2537973 0.25045 0.2537971 0.05157184 0.1252738 0.05157184 0.1252738 0.25045 0.2537971 0.3225969 0.1252737 0.25045 0.2537971 0.3212696 0.9630194 0.3225969 0.1252737 0.3225969 0.1252737 0.3212696 0.9630194 0.3551591 0.9150641 0.2613881 1.167886 0.2035396 0.2537973 0.1967675 1.347788 0.1967675 1.347788 0.2035396 0.2537973 0.05157184 0.1252738 0.4903219 1.167886 0.2613881 1.167886 0.5549427 1.347788 0.5549427 1.347788 0.2613881 1.167886 0.1967675 1.347788 0.4304403 0.9630194 0.5012593 0.2537971 0.3965505 0.9150641 0.3965505 0.9150641 0.5012593 0.2537971 0.4291127 0.1252737 0.5012593 0.2537971 0.5481697 0.2537971 0.4291127 0.1252737 0.4291127 0.1252737 0.5481697 0.2537971 0.7001372 0.1252737 0.5481697 0.2537971 0.4903219 1.167886 0.7001372 0.1252737 0.7001372 0.1252737 0.4903219 1.167886 0.5549427 1.347788 0.3212696 0.9630194 0.4304403 0.9630194 0.3551591 0.9150641 0.3551591 0.9150641 0.4304403 0.9630194 0.3965505 0.9150641 0.2035396 0.2537973 0.25045 0.2537971 0.05157184 0.1252738 0.05157184 0.1252738 0.25045 0.2537971 0.3225969 0.1252737 0.25045 0.2537971 0.3212696 0.9630194 0.3225969 0.1252737 0.3225969 0.1252737 0.3212696 0.9630194 0.3551591 0.9150641 0.2613881 1.167886 0.2035396 0.2537973 0.1967675 1.347788 0.1967675 1.347788 0.2035396 0.2537973 0.05157184 0.1252738 0.4903219 1.167886 0.2613881 1.167886 0.5549427 1.347788 0.5549427 1.347788 0.2613881 1.167886 0.1967675 1.347788 0.4304403 0.9630194 0.5012593 0.2537971 0.3965505 0.9150641 0.3965505 0.9150641 0.5012593 0.2537971 0.4291127 0.1252737 0.5012593 0.2537971 0.5481697 0.2537971 0.4291127 0.1252737 0.4291127 0.1252737 0.5481697 0.2537971 0.7001372 0.1252737 0.5481697 0.2537971 0.4903219 1.167886 0.7001372 0.1252737 0.7001372 0.1252737 0.4903219 1.167886 0.5549427 1.347788 0.3212696 0.9630194 0.4304403 0.9630194 0.3551591 0.9150641 0.3551591 0.9150641 0.4304403 0.9630194 0.3965505 0.9150641 0.2035396 0.2537973 0.25045 0.2537971 0.05157184 0.1252738 0.05157184 0.1252738 0.25045 0.2537971 0.3225969 0.1252737 0.25045 0.2537971 0.3212696 0.9630194 0.3225969 0.1252737 0.3225969 0.1252737 0.3212696 0.9630194 0.3551591 0.9150641 0.2613881 1.167886 0.2035396 0.2537973 0.1967675 1.347788 0.1967675 1.347788 0.2035396 0.2537973 0.05157184 0.1252738 0.4903219 1.167886 0.2613881 1.167886 0.5549427 1.347788 0.5549427 1.347788 0.2613881 1.167886 0.1967675 1.347788 0.4304403 0.9630194 0.5012593 0.2537971 0.3965505 0.9150641 0.3965505 0.9150641 0.5012593 0.2537971 0.4291127 0.1252737 0.5012593 0.2537971 0.5481697 0.2537971 0.4291127 0.1252737 0.4291127 0.1252737 0.5481697 0.2537971 0.7001372 0.1252737 0.5481697 0.2537971 0.4903219 1.167886 0.7001372 0.1252737 0.7001372 0.1252737 0.4903219 1.167886 0.5549427 1.347788 0.3212696 0.9630194 0.4304403 0.9630194 0.3551591 0.9150641 0.3551591 0.9150641 0.4304403 0.9630194 0.3965505 0.9150641 0.1967675 1.347788 0.5549427 1.347788 0.2613881 1.167886 0.2613881 1.167886 0.5549427 1.347788 0.4903219 1.167886 0.25045 0.2537971 0.3212696 0.9630194 0.3225969 0.1252737 0.3225969 0.1252737 0.3212696 0.9630194 0.3551591 0.9150641 0.453602 0.5042949 0.453602 0.4570904 0.5463983 0.5042949 0.5463983 0.5042949 0.453602 0.4570904 0.5463983 0.4570904 0.1956874 -0.003600001 -0.0188694 -0.003600001 0.09914213 1.003603 0.09914213 1.003603 -0.0188694 -0.003600001 -0.0188694 1.003603 0.09914225 1.003603 -0.0188694 1.003603 0.1956874 -0.003599882 0.1956874 -0.003599882 -0.0188694 1.003603 -0.0188694 -0.003599882 0.998019 -0.003600001 0.9666789 1.003603 0.6721554 -0.003599882 0.6721554 -0.003599882 0.9666789 1.003603 0.7346882 1.003603 0.5915665 0.4570904 0.5915665 0.5429129 0.408434 0.4570904 0.408434 0.4570904 0.5915665 0.5429129 0.408434 0.5429129 -0.0188694 1.003603 0.09914213 1.003603 -0.0188694 -0.003600001 -0.0188694 -0.003600001 0.09914213 1.003603 0.1956874 -0.003600001 0.5463983 0.4570904 0.5463983 0.5042949 0.453602 0.4570904 0.453602 0.4570904 0.5463983 0.5042949 0.453602 0.5042949 -0.0188694 -0.003599882 0.1956874 -0.003599882 -0.0188694 1.003603 -0.0188694 1.003603 0.1956874 -0.003599882 0.09914225 1.003603 0 1.000001 0 2.5034e-6 0.2585825 1.000001 0.2585825 1.000001 0 2.5034e-6 0.2585825 2.5034e-6 0.2585825 2.5034e-6 0.2585825 1.000001 0 2.5034e-6 0 2.5034e-6 0.2585825 1.000001 0 1.000001 0 1.000001 0 2.5034e-6 0.2585825 1.000001 0.2585825 1.000001 0 2.5034e-6 0.2585825 2.5034e-6 0.2585825 2.5034e-6 0.2585825 1.000001 0 2.5034e-6 0 2.5034e-6 0.2585825 1.000001 0 1.000001 0.2585825 2.5034e-6 0.2585825 1.000001 0 2.5034e-6 0 2.5034e-6 0.2585825 1.000001 0 1.000001 0 2.5034e-6 0 1.000001 0.2585825 2.5034e-6 0.2585825 2.5034e-6 0 1.000001 0.2585825 1.000001 0.5463983 0.7014421 0.453602 0.7014421 0.5915665 0.298561 0.5915665 0.298561 0.453602 0.7014421 0.408434 0.2985609 0.998019 -0.003600001 0.9666789 1.003603 0.6721554 -0.003599882 0.6721554 -0.003599882 0.9666789 1.003603 0.7346882 1.003603 0.5915665 0.4570904 0.5915665 0.5429129 0.408434 0.4570904 0.408434 0.4570904 0.5915665 0.5429129 0.408434 0.5429129 -0.0188694 1.003603 0.09914213 1.003603 -0.0188694 -0.003600001 -0.0188694 -0.003600001 0.09914213 1.003603 0.1956874 -0.003600001 0.5463983 0.4570904 0.5463983 0.5042949 0.453602 0.4570904 0.453602 0.4570904 0.5463983 0.5042949 0.453602 0.5042949 -0.0188694 -0.003599882 0.1956874 -0.003599882 -0.0188694 1.003603 -0.0188694 1.003603 0.1956874 -0.003599882 0.09914225 1.003603 0.2035396 0.2537973 0.25045 0.2537971 0.05157184 0.1252738 0.05157184 0.1252738 0.25045 0.2537971 0.3225969 0.1252737 0.3965505 0.9150641 0.3551591 0.9150641 0.4304403 0.9630194 0.4304403 0.9630194 0.3551591 0.9150641 0.3212696 0.9630194 0.2613881 1.167886 0.2035396 0.2537973 0.1967675 1.347788 0.1967675 1.347788 0.2035396 0.2537973 0.05157184 0.1252738 0.4304403 0.9630194 0.5012593 0.2537971 0.3965505 0.9150641 0.3965505 0.9150641 0.5012593 0.2537971 0.4291127 0.1252737 0.5012593 0.2537971 0.5481697 0.2537971 0.4291127 0.1252737 0.4291127 0.1252737 0.5481697 0.2537971 0.7001372 0.1252737 0.5481697 0.2537971 0.4903219 1.167886 0.7001372 0.1252737 0.7001372 0.1252737 0.4903219 1.167886 0.5549427 1.347788 0.3212696 0.9630194 0.4304403 0.9630194 0.3551591 0.9150641 0.3551591 0.9150641 0.4304403 0.9630194 0.3965505 0.9150641 0.2035396 0.2537973 0.25045 0.2537971 0.05157184 0.1252738 0.05157184 0.1252738 0.25045 0.2537971 0.3225969 0.1252737 0.25045 0.2537971 0.3212696 0.9630194 0.3225969 0.1252737 0.3225969 0.1252737 0.3212696 0.9630194 0.3551591 0.9150641 0.2613881 1.167886 0.2035396 0.2537973 0.1967675 1.347788 0.1967675 1.347788 0.2035396 0.2537973 0.05157184 0.1252738 0.4903219 1.167886 0.2613881 1.167886 0.5549427 1.347788 0.5549427 1.347788 0.2613881 1.167886 0.1967675 1.347788 0.4304403 0.9630194 0.5012593 0.2537971 0.3965505 0.9150641 0.3965505 0.9150641 0.5012593 0.2537971 0.4291127 0.1252737 0.5012593 0.2537971 0.5481697 0.2537971 0.4291127 0.1252737 0.4291127 0.1252737 0.5481697 0.2537971 0.7001372 0.1252737 0.5481697 0.2537971 0.4903219 1.167886 0.7001372 0.1252737 0.7001372 0.1252737 0.4903219 1.167886 0.5549427 1.347788 0.1967675 1.347788 0.5549427 1.347788 0.2613881 1.167886 0.2613881 1.167886 0.5549427 1.347788 0.4903219 1.167886 0.4304403 0.9630194 0.5012593 0.2537971 0.3965505 0.9150641 0.3965505 0.9150641 0.5012593 0.2537971 0.4291127 0.1252737 0.2035396 0.2537973 0.25045 0.2537971 0.05157184 0.1252738 0.05157184 0.1252738 0.25045 0.2537971 0.3225969 0.1252737 0.25045 0.2537971 0.3212696 0.9630194 0.3225969 0.1252737 0.3225969 0.1252737 0.3212696 0.9630194 0.3551591 0.9150641 0.2613881 1.167886 0.2035396 0.2537973 0.1967675 1.347788 0.1967675 1.347788 0.2035396 0.2537973 0.05157184 0.1252738 0.5012593 0.2537971 0.5481697 0.2537971 0.4291127 0.1252737 0.4291127 0.1252737 0.5481697 0.2537971 0.7001372 0.1252737 0.5481697 0.2537971 0.4903219 1.167886 0.7001372 0.1252737 0.7001372 0.1252737 0.4903219 1.167886 0.5549427 1.347788 0.3212696 0.9630194 0.4304403 0.9630194 0.3551591 0.9150641 0.3551591 0.9150641 0.4304403 0.9630194 0.3965505 0.9150641 0.5463983 0.7014421 0.453602 0.7014421 0.5915665 0.298561 0.5915665 0.298561 0.453602 0.7014421 0.408434 0.2985609 0.5915665 0.4570904 0.5915665 0.5429129 0.408434 0.4570904 0.408434 0.4570904 0.5915665 0.5429129 0.408434 0.5429129 0.998019 -0.003600001 0.9666789 1.003603 0.6721554 -0.003599882 0.6721554 -0.003599882 0.9666789 1.003603 0.7346882 1.003603 0 2.5034e-6 0 2.5034e-6 0 2.5034e-6 0 2.5034e-6 0 2.5034e-6 0 2.5034e-6 0 2.5034e-6 0 2.5034e-6 0 2.5034e-6 0 2.5034e-6 0 2.5034e-6 0 2.5034e-6 0 2.5034e-6 0 2.5034e-6 0 2.5034e-6 0 2.5034e-6 0 2.5034e-6 0 2.5034e-6 0 2.5034e-6 0 2.5034e-6 0 2.5034e-6 0 2.5034e-6 0 2.5034e-6 0 2.5034e-6 0 2.5034e-6 0 2.5034e-6 0 2.5034e-6 0 2.5034e-6 0 2.5034e-6 0 2.5034e-6 0 2.5034e-6 0 2.5034e-6 0 2.5034e-6 0 2.5034e-6 0 2.5034e-6 0 2.5034e-6 0 2.5034e-6 0 2.5034e-6 0 2.5034e-6 0 2.5034e-6 0 2.5034e-6 0 2.5034e-6 0 2.5034e-6 0 2.5034e-6 0 2.5034e-6 0 2.5034e-6 0 2.5034e-6 0 2.5034e-6 0 2.5034e-6 0 2.5034e-6 0 2.5034e-6 0 2.5034e-6 0 2.5034e-6 0 2.5034e-6 0 2.5034e-6 0 2.5034e-6 0 2.5034e-6 0 2.5034e-6 0 2.5034e-6 0 2.5034e-6 0 2.5034e-6 0 2.5034e-6 0 2.5034e-6 0 2.5034e-6 0 2.5034e-6 0 2.5034e-6 0 2.5034e-6 0 2.5034e-6 0 2.5034e-6 0 2.5034e-6 0 2.5034e-6 0 2.5034e-6 0 2.5034e-6 0 2.5034e-6 0 2.5034e-6 0 2.5034e-6 0 2.5034e-6 0 2.5034e-6 0 2.5034e-6 0 2.5034e-6 0 2.5034e-6 0 2.5034e-6 0 2.5034e-6 0 2.5034e-6 0 2.5034e-6 0 2.5034e-6 0 2.5034e-6 0 2.5034e-6 0 2.5034e-6 0 2.5034e-6 0 2.5034e-6 0 2.5034e-6 0 2.5034e-6 0 2.5034e-6 0 2.5034e-6 0 2.5034e-6 0 2.5034e-6 0 2.5034e-6 0 2.5034e-6 0 2.5034e-6 0 2.5034e-6 0 2.5034e-6 0 2.5034e-6 0 2.5034e-6 0 2.5034e-6 0 2.5034e-6 0 2.5034e-6 0 2.5034e-6 0.5481697 0.2537971 0.5012593 0.2537971 0.4304403 0.9630194 0.5481697 0.2537971 0.4304403 0.9630194 0.4903219 1.167886 0.4903219 1.167886 0.4304403 0.9630194 0.3212696 0.9630194 0.4903219 1.167886 0.3212696 0.9630194 0.2613881 1.167886 0.2613881 1.167886 0.3212696 0.9630194 0.2035396 0.2537973 0.2035396 0.2537973 0.3212696 0.9630194 0.25045 0.2537971 0.25045 0.2537971 0.2035396 0.2537973 0.3212696 0.9630194 0.3212696 0.9630194 0.2035396 0.2537973 0.2613881 1.167886 0.3212696 0.9630194 0.2613881 1.167886 0.4903219 1.167886 0.3212696 0.9630194 0.4903219 1.167886 0.4304403 0.9630194 0.4304403 0.9630194 0.4903219 1.167886 0.5481697 0.2537971 0.4304403 0.9630194 0.5481697 0.2537971 0.5012593 0.2537971 0.5481697 0.2537971 0.5012593 0.2537971 0.4304403 0.9630194 0.5481697 0.2537971 0.4304403 0.9630194 0.4903219 1.167886 0.4903219 1.167886 0.4304403 0.9630194 0.3212696 0.9630194 0.4903219 1.167886 0.3212696 0.9630194 0.2613881 1.167886 0.2613881 1.167886 0.3212696 0.9630194 0.2035396 0.2537973 0.2035396 0.2537973 0.3212696 0.9630194 0.25045 0.2537971 0.25045 0.2537971 0.2035396 0.2537973 0.3212696 0.9630194 0.3212696 0.9630194 0.2035396 0.2537973 0.2613881 1.167886 0.3212696 0.9630194 0.2613881 1.167886 0.4903219 1.167886 0.3212696 0.9630194 0.4903219 1.167886 0.4304403 0.9630194 0.4304403 0.9630194 0.4903219 1.167886 0.5481697 0.2537971 0.4304403 0.9630194 0.5481697 0.2537971 0.5012593 0.2537971 0.5481697 0.2537971 0.5012593 0.2537971 0.4304403 0.9630194 0.5481697 0.2537971 0.4304403 0.9630194 0.4903219 1.167886 0.4903219 1.167886 0.4304403 0.9630194 0.3212696 0.9630194 0.4903219 1.167886 0.3212696 0.9630194 0.2613881 1.167886 0.2613881 1.167886 0.3212696 0.9630194 0.2035396 0.2537973 0.2035396 0.2537973 0.3212696 0.9630194 0.25045 0.2537971 0.25045 0.2537971 0.2035396 0.2537973 0.3212696 0.9630194 0.3212696 0.9630194 0.2035396 0.2537973 0.2613881 1.167886 0.3212696 0.9630194 0.2613881 1.167886 0.4903219 1.167886 0.3212696 0.9630194 0.4903219 1.167886 0.4304403 0.9630194 0.4304403 0.9630194 0.4903219 1.167886 0.5481697 0.2537971 0.4304403 0.9630194 0.5481697 0.2537971 0.5012593 0.2537971 0.2467951 0.9995009 0.002005398 0.939509 0.002005398 0.8806262 0.2467951 0.9995009 0.002005398 0.8806262 0.2467951 0.7497512 0.2467951 0.7497512 0.002005398 0.8806262 0.002005398 0.7197552 0.2467951 0.7497512 0.002005398 0.7197552 0.002005398 0.5000016 0.2467951 0.7497512 0.002005398 0.5000016 0.246795 0.2502517 0.246795 0.2502517 0.002005398 0.5000016 0.002005398 0.2802478 0.246795 0.2502517 0.002005398 0.2802478 0.002005338 0.1193768 0.246795 0.2502517 0.002005338 0.1193768 0.246795 5.0199e-4 0.246795 5.0199e-4 0.002005338 0.1193768 0.002005338 0.06049418 0.002005398 0.939509 0.2467951 0.9995009 0.002005457 0.8806262 0.002005457 0.8806262 0.2467951 0.9995009 0.2467951 0.7497513 0.002005457 0.8806262 0.2467951 0.7497513 0.002005457 0.7197553 0.002005457 0.7197553 0.2467951 0.7497513 0.002005398 0.5000017 0.002005398 0.5000017 0.2467951 0.7497513 0.2467951 0.2502519 0.002005398 0.5000017 0.2467951 0.2502519 0.002005398 0.2802479 0.002005398 0.2802479 0.2467951 0.2502519 0.002005398 0.119377 0.002005398 0.119377 0.2467951 0.2502519 0.246795 5.0199e-4 0.002005398 0.119377 0.246795 5.0199e-4 0.002005338 0.06049418 0.2467951 0.9995009 0.002005398 0.939509 0.002005398 0.8806262 0.2467951 0.9995009 0.002005398 0.8806262 0.2467951 0.7497512 0.2467951 0.7497512 0.002005398 0.8806262 0.002005398 0.7197552 0.2467951 0.7497512 0.002005398 0.7197552 0.002005398 0.5000016 0.2467951 0.7497512 0.002005398 0.5000016 0.246795 0.2502517 0.246795 0.2502517 0.002005398 0.5000016 0.002005398 0.2802478 0.246795 0.2502517 0.002005398 0.2802478 0.002005338 0.1193768 0.246795 0.2502517 0.002005338 0.1193768 0.246795 5.0199e-4 0.246795 5.0199e-4 0.002005338 0.1193768 0.002005338 0.06049418 0.002005398 0.939509 0.2467951 0.9995009 0.002005457 0.8806262 0.002005457 0.8806262 0.2467951 0.9995009 0.2467951 0.7497513 0.002005457 0.8806262 0.2467951 0.7497513 0.002005457 0.7197553 0.002005457 0.7197553 0.2467951 0.7497513 0.002005398 0.5000017 0.002005398 0.5000017 0.2467951 0.7497513 0.2467951 0.2502519 0.002005398 0.5000017 0.2467951 0.2502519 0.002005398 0.2802479 0.002005398 0.2802479 0.2467951 0.2502519 0.002005398 0.119377 0.002005398 0.119377 0.2467951 0.2502519 0.246795 5.0199e-4 0.002005398 0.119377 0.246795 5.0199e-4 0.002005338 0.06049418 0.5777654 0.6346943 0.5000003 0.6555314 0.4222351 0.6346943 0.5777654 0.6346943 0.4222351 0.6346943 0.6346934 0.5777664 0.6346934 0.5777664 0.4222351 0.6346943 0.3653071 0.5777665 0.6346934 0.5777664 0.3653071 0.5777665 0.34447 0.5000016 0.6346934 0.5777664 0.34447 0.5000016 0.6555305 0.5000014 0.6555305 0.5000014 0.34447 0.5000016 0.6346934 0.4222366 0.6346934 0.4222366 0.34447 0.5000016 0.3653071 0.4222366 0.6346934 0.4222366 0.3653071 0.4222366 0.4222351 0.3653088 0.6346934 0.4222366 0.4222351 0.3653088 0.5777654 0.3653088 0.5777654 0.3653088 0.4222351 0.3653088 0.5000002 0.3444716 0.5000002 0.3444716 0.5777654 0.3653088 0.4222351 0.3653088 0.4222351 0.3653088 0.5777654 0.3653088 0.6346934 0.4222366 0.4222351 0.3653088 0.6346934 0.4222366 0.3653071 0.4222366 0.3653071 0.4222366 0.6346934 0.4222366 0.34447 0.5000016 0.34447 0.5000016 0.6346934 0.4222366 0.6555305 0.5000014 0.34447 0.5000016 0.6555305 0.5000014 0.6346934 0.5777664 0.34447 0.5000016 0.6346934 0.5777664 0.3653071 0.5777665 0.3653071 0.5777665 0.6346934 0.5777664 0.4222351 0.6346943 0.4222351 0.6346943 0.6346934 0.5777664 0.5777654 0.6346943 0.4222351 0.6346943 0.5777654 0.6346943 0.5000003 0.6555314 0.1069552 0.01710224 0.382461 0.4942911 0.6579667 0.01710212 0.3818755 0.489427 0.6573812 0.01223814 0.1063696 0.01223814 0.1076298 0.0134108 0.3831357 0.4905995 0.6586414 0.01341068 0.648738 0.007873654 0.09772658 0.007873773 0.3732324 0.4850626 0.6555355 0.01458346 0.1045239 0.01458346 0.3800297 0.4917722 0.3812899 0.4905996 0.6567956 0.01341068 0.1057841 0.0134108 0.1069552 0.01710224 0.382461 0.4942911 0.6579667 0.01710212 0.3818755 0.489427 0.6573812 0.01223814 0.1063696 0.01223814 0.1076298 0.0134108 0.3831357 0.4905995 0.6586414 0.01341068 0.648738 0.007873654 0.09772658 0.007873773 0.3732324 0.4850626 0.6555355 0.01458346 0.1045239 0.01458346 0.3800297 0.4917722 0.3812899 0.4905996 0.6567956 0.01341068 0.1057841 0.0134108</float_array>
          <technique_common>
            <accessor source="#default_default-mesh-map-0-array" count="1080" stride="2">
              <param name="S" type="float"/>
              <param name="T" type="float"/>
            </accessor>
          </technique_common>
        </source>
        <vertices id="default_default-mesh-vertices">
          <input semantic="POSITION" source="#default_default-mesh-positions"/>
        </vertices>
        <triangles material="green_plasma_sender-material" count="16">
          <input semantic="VERTEX" source="#default_default-mesh-vertices" offset="0"/>
          <input semantic="NORMAL" source="#default_default-mesh-normals" offset="1"/>
          <input semantic="TEXCOORD" source="#default_default-mesh-map-0" offset="2" set="0"/>
          <p>0 0 0 1 0 1 2 0 2 2 1 3 1 1 4 3 1 5 4 2 6 5 2 7 6 2 8 6 3 9 5 3 10 7 3 11 8 4 12 9 4 13 10 4 14 10 5 15 9 5 16 11 5 17 12 6 18 13 6 19 14 6 20 14 7 21 13 7 22 15 7 23 16 8 24 17 8 25 18 8 26 18 9 27 17 9 28 19 9 29 20 10 30 21 10 31 22 10 32 22 11 33 21 11 34 23 11 35 24 12 36 25 12 37 26 12 38 26 13 39 25 13 40 27 13 41 28 14 42 29 14 43 30 14 44 30 15 45 29 15 46 31 15 47</p>
        </triangles>
        <triangles material="_way_teleporter_luminous-material" count="12">
          <input semantic="VERTEX" source="#default_default-mesh-vertices" offset="0"/>
          <input semantic="NORMAL" source="#default_default-mesh-normals" offset="1"/>
          <input semantic="TEXCOORD" source="#default_default-mesh-map-0" offset="2" set="0"/>
          <p>32 16 48 33 16 49 34 16 50 34 17 51 33 17 52 35 17 53 36 18 54 37 18 55 38 18 56 38 19 57 37 19 58 39 19 59 40 20 60 41 20 61 42 20 62 42 21 63 41 21 64 43 21 65 44 22 66 45 22 67 46 22 68 46 23 69 45 23 70 47 23 71 48 24 72 49 24 73 50 24 74 50 25 75 49 25 76 51 25 77 52 26 78 53 26 79 54 26 80 54 27 81 53 27 82 55 27 83</p>
        </triangles>
        <triangles material="_way_teleporter_001-material" count="332">
          <input semantic="VERTEX" source="#default_default-mesh-vertices" offset="0"/>
          <input semantic="NORMAL" source="#default_default-mesh-normals" offset="1"/>
          <input semantic="TEXCOORD" source="#default_default-mesh-map-0" offset="2" set="0"/>
          <p>56 28 84 57 28 85 58 28 86 58 29 87 57 29 88 59 29 89 60 30 90 61 30 91 62 30 92 62 31 93 61 31 94 63 31 95 64 32 96 65 32 97 66 32 98 66 32 99 65 32 100 67 32 101 68 33 102 69 33 103 70 33 104 70 34 105 69 34 106 71 34 107 72 35 108 73 35 109 74 35 110 74 36 111 73 36 112 75 36 113 76 37 114 77 37 115 78 37 116 78 38 117 77 38 118 79 38 119 80 39 120 81 39 121 82 39 122 82 40 123 81 40 124 83 40 125 84 36 126 85 36 127 86 36 128 86 36 129 85 36 130 87 36 131 88 41 132 89 41 133 90 41 134 90 42 135 89 42 136 91 42 137 92 43 138 93 43 139 94 43 140 94 44 141 93 44 142 95 44 143 96 45 144 97 45 145 98 45 146 98 46 147 97 46 148 99 46 149 100 47 150 101 47 151 102 47 152 102 48 153 101 48 154 103 48 155 104 49 156 105 49 157 106 49 158 106 50 159 105 50 160 107 50 161 108 51 162 109 52 163 110 53 164 110 53 165 109 52 166 111 54 167 112 55 168 113 56 169 114 57 170 114 57 171 113 56 172 115 58 173 116 59 174 117 60 175 118 61 176 118 61 177 117 60 178 119 62 179 120 63 180 121 64 181 122 65 182 122 65 183 121 64 184 123 66 185 124 67 186 125 68 187 126 69 188 126 69 189 125 68 190 127 70 191 128 71 192 129 72 193 130 73 194 130 73 195 129 72 196 131 74 197 132 36 198 133 36 199 134 36 200 134 75 201 133 75 202 135 75 203 136 76 204 137 76 205 138 76 206 138 77 207 137 77 208 139 77 209 140 78 210 141 78 211 142 78 212 142 79 213 141 79 214 143 79 215 144 80 216 145 80 217 146 80 218 146 81 219 145 81 220 147 81 221 148 82 222 149 82 223 150 82 224 150 82 225 149 82 226 151 82 227 152 83 228 153 83 229 154 83 230 154 84 231 153 84 232 155 84 233 156 85 234 157 85 235 158 85 236 158 86 237 157 86 238 159 86 239 160 87 240 161 88 241 162 89 242 162 89 243 161 88 244 163 90 245 164 91 246 165 92 247 166 91 248 166 93 249 165 94 250 167 94 251 168 95 252 169 95 253 170 95 254 170 96 255 169 96 256 171 96 257 172 97 258 173 98 259 174 99 260 174 99 261 173 98 262 175 100 263 176 101 264 177 101 265 178 101 266 178 102 267 177 102 268 179 102 269 180 103 270 181 103 271 182 104 272 182 105 273 181 106 274 183 105 275 184 107 276 185 107 277 186 107 278 186 108 279 185 108 280 187 108 281 188 109 282 189 109 283 190 109 284 190 110 285 189 110 286 191 110 287 192 111 288 193 112 289 194 113 290 194 113 291 193 112 292 195 114 293 196 115 294 197 116 295 198 115 296 198 117 297 197 118 298 199 118 299 200 119 300 201 119 301 202 119 302 202 120 303 201 120 304 203 120 305 204 121 306 205 122 307 206 123 308 206 124 309 205 124 310 207 124 311 208 125 312 209 125 313 210 125 314 210 126 315 209 126 316 211 126 317 212 127 318 213 128 319 214 127 320 214 129 321 213 130 322 215 130 323 216 131 324 217 131 325 218 131 326 218 132 327 217 132 328 219 132 329 220 133 330 221 133 331 222 133 332 222 134 333 221 134 334 223 134 335 224 135 336 225 135 337 226 135 338 226 136 339 225 137 340 227 138 341 228 139 342 229 139 343 230 139 344 230 140 345 229 141 346 231 142 347 232 143 348 233 143 349 234 143 350 234 144 351 233 144 352 235 144 353 236 145 354 237 146 355 238 147 356 238 147 357 237 146 358 239 148 359 240 149 360 241 149 361 242 149 362 242 150 363 241 150 364 243 150 365 244 151 366 245 151 367 246 152 368 246 153 369 245 154 370 247 153 371 248 155 372 249 155 373 250 155 374 250 156 375 249 156 376 251 156 377 252 157 378 253 157 379 254 157 380 254 158 381 253 158 382 255 158 383 256 159 384 257 160 385 258 161 386 258 161 387 257 160 388 259 162 389 260 163 390 261 163 391 262 163 392 262 164 393 261 164 394 263 164 395 264 165 396 265 165 397 266 165 398 266 166 399 265 166 400 267 166 401 268 167 402 269 167 403 270 167 404 270 168 405 269 168 406 271 168 407 272 169 408 273 169 409 274 169 410 274 170 411 273 170 412 275 170 413 276 171 414 277 171 415 278 171 416 278 172 417 277 172 418 279 172 419 280 173 420 281 173 421 282 173 422 282 174 423 281 174 424 283 174 425 284 175 426 285 175 427 286 175 428 286 176 429 285 176 430 287 176 431 288 177 432 289 177 433 290 177 434 290 178 435 289 178 436 291 178 437 292 179 438 293 180 439 294 181 440 294 181 441 293 180 442 295 182 443 296 183 444 297 184 445 298 185 446 298 185 447 297 184 448 299 186 449 300 187 450 301 188 451 302 189 452 302 189 453 301 188 454 303 190 455 304 191 456 305 192 457 306 193 458 306 193 459 305 192 460 307 194 461 308 195 462 309 196 463 310 197 464 310 197 465 309 196 466 311 198 467 312 199 468 313 200 469 314 201 470 314 201 471 313 200 472 315 202 473 316 203 474 317 203 475 318 203 476 318 204 477 317 204 478 319 204 479 320 205 480 321 205 481 322 205 482 322 206 483 321 206 484 323 206 485 324 207 486 325 207 487 326 207 488 326 208 489 325 208 490 327 208 491 328 209 492 329 209 493 330 209 494 330 210 495 329 210 496 331 210 497 332 82 498 333 82 499 334 82 500 334 82 501 333 82 502 335 82 503 336 211 504 337 211 505 338 211 506 338 212 507 337 212 508 339 212 509 340 213 510 341 213 511 342 213 512 342 214 513 341 214 514 343 214 515 344 215 516 345 215 517 346 215 518 346 216 519 345 216 520 347 216 521 348 217 522 349 217 523 350 218 524 350 219 525 349 220 526 351 219 527 352 221 528 353 222 529 354 223 530 354 223 531 353 222 532 355 224 533 356 225 534 357 225 535 358 225 536 358 226 537 357 226 538 359 226 539 360 227 540 361 228 541 362 229 542 362 230 543 361 230 544 363 230 545 364 231 546 365 231 547 366 231 548 366 232 549 365 232 550 367 232 551 368 233 552 369 233 553 370 233 554 370 234 555 369 234 556 371 234 557 372 235 558 373 236 559 374 237 560 374 237 561 373 236 562 375 238 563 376 239 564 377 239 565 378 239 566 378 240 567 377 241 568 379 242 569 380 243 570 381 243 571 382 243 572 382 244 573 381 244 574 383 244 575 384 245 576 385 246 577 386 247 578 386 248 579 385 248 580 387 248 581 388 249 582 389 249 583 390 249 584 390 250 585 389 250 586 391 250 587 392 251 588 393 252 589 394 251 590 394 253 591 393 254 592 395 254 593 396 255 594 397 255 595 398 255 596 398 256 597 397 256 598 399 256 599 400 257 600 401 258 601 402 259 602 402 259 603 401 258 604 403 260 605 404 261 606 405 261 607 406 261 608 406 262 609 405 262 610 407 262 611 408 263 612 409 263 613 410 263 614 410 264 615 409 265 616 411 266 617 412 267 618 413 267 619 414 267 620 414 268 621 413 269 622 415 270 623 416 271 624 417 271 625 418 271 626 418 272 627 417 272 628 419 272 629 420 273 630 421 274 631 422 275 632 422 276 633 421 276 634 423 276 635 424 277 636 425 277 637 426 277 638 426 278 639 425 278 640 427 278 641 428 279 642 429 279 643 430 279 644 430 280 645 429 280 646 431 280 647 432 281 648 433 281 649 434 281 650 434 282 651 433 282 652 435 282 653 436 283 654 437 283 655 438 283 656 438 284 657 437 284 658 439 284 659 440 285 660 441 285 661 442 285 662 442 286 663 441 286 664 443 286 665 443 287 666 441 287 667 444 287 668 443 43 669 444 43 670 445 43 671 445 288 672 444 288 673 446 288 674 445 289 675 446 289 676 447 289 677 449 290 678 448 290 679 450 290 680 449 291 681 450 291 682 451 291 683 451 36 684 450 36 685 452 36 686 451 36 687 452 36 688 453 36 689 453 292 690 452 292 691 454 292 692 453 293 693 454 293 694 455 293 695 457 294 696 456 294 697 458 294 698 457 295 699 458 295 700 459 295 701 459 296 702 458 296 703 460 296 704 459 297 705 460 297 706 461 297 707 461 298 708 460 298 709 462 298 710 461 299 711 462 299 712 463 299 713 465 300 714 464 300 715 466 300 716 465 301 717 466 301 718 467 301 719 467 302 720 466 302 721 468 302 722 467 36 723 468 36 724 469 36 725 469 303 726 468 303 727 470 303 728 469 304 729 470 304 730 471 304 731 473 305 732 472 305 733 474 305 734 473 306 735 474 306 736 475 306 737 475 307 738 474 307 739 476 307 740 475 308 741 476 308 742 477 308 743 477 309 744 476 309 745 478 309 746 477 310 747 478 310 748 479 310 749 481 311 750 480 311 751 482 311 752 481 312 753 482 312 754 483 312 755 483 313 756 482 313 757 484 313 758 483 314 759 484 314 760 485 314 761 485 315 762 484 315 763 486 315 764 485 316 765 486 316 766 487 316 767 489 317 768 488 318 769 490 319 770 489 317 771 490 319 772 491 320 773 491 320 774 490 319 775 492 321 776 491 320 777 492 321 778 493 322 779 493 322 780 492 321 781 494 323 782 494 323 783 492 321 784 495 324 785 496 325 786 497 326 787 498 327 788 498 327 789 497 326 790 499 328 791 498 327 792 499 328 793 500 329 794 498 327 795 500 329 796 501 330 797 501 330 798 500 329 799 502 331 800 501 330 801 502 331 802 503 332 803 505 333 804 504 334 805 506 335 806 505 333 807 506 335 808 507 336 809 507 336 810 506 335 811 508 337 812 507 336 813 508 337 814 509 338 815 509 338 816 508 337 817 510 339 818 510 339 819 508 337 820 511 340 821 512 341 822 513 342 823 514 343 824 514 343 825 513 342 826 515 344 827 514 343 828 515 344 829 516 345 830 514 343 831 516 345 832 517 346 833 517 346 834 516 345 835 518 347 836 517 346 837 518 347 838 519 348 839 521 349 840 520 350 841 522 351 842 521 349 843 522 351 844 523 352 845 523 352 846 522 351 847 524 353 848 523 352 849 524 353 850 525 354 851 525 354 852 524 353 853 526 355 854 526 355 855 524 353 856 527 356 857 528 357 858 529 358 859 530 359 860 530 359 861 529 358 862 531 360 863 530 359 864 531 360 865 532 361 866 530 359 867 532 361 868 533 362 869 533 362 870 532 361 871 534 363 872 533 362 873 534 363 874 535 364 875 537 365 876 536 366 877 538 367 878 537 365 879 538 367 880 539 368 881 539 368 882 538 367 883 540 369 884 539 368 885 540 369 886 541 370 887 539 368 888 541 370 889 542 371 890 542 371 891 541 370 892 543 372 893 542 371 894 543 372 895 544 373 896 542 371 897 544 373 898 545 374 899 545 374 900 544 373 901 546 375 902 547 376 903 548 377 904 549 378 905 549 378 906 548 377 907 550 379 908 549 378 909 550 379 910 551 380 911 551 380 912 550 379 913 552 381 914 552 381 915 550 379 916 553 382 917 552 381 918 553 382 919 554 383 920 554 383 921 553 382 922 555 384 923 555 384 924 553 382 925 556 385 926 555 384 927 556 385 928 557 386 929 559 387 930 558 388 931 560 389 932 559 387 933 560 389 934 561 390 935 561 390 936 560 389 937 562 391 938 561 390 939 562 391 940 563 392 941 561 390 942 563 392 943 564 393 944 564 393 945 563 392 946 565 394 947 564 393 948 565 394 949 566 395 950 564 393 951 566 395 952 567 396 953 567 396 954 566 395 955 568 397 956 569 398 957 570 399 958 571 400 959 571 400 960 570 399 961 572 401 962 571 400 963 572 401 964 573 402 965 573 402 966 572 401 967 574 403 968 574 403 969 572 401 970 575 404 971 574 403 972 575 404 973 576 405 974 576 405 975 575 404 976 577 406 977 577 406 978 575 404 979 578 407 980 577 406 981 578 407 982 579 408 983 581 409 984 580 409 985 582 409 986 581 36 987 582 36 988 583 36 989 583 410 990 582 410 991 584 410 992 583 411 993 584 411 994 585 411 995 583 412 996 585 412 997 586 412 998 586 36 999 585 36 1000 587 36 1001 587 413 1002 585 413 1003 588 413 1004 587 414 1005 588 414 1006 589 414 1007 587 36 1008 589 36 1009 590 36 1010 590 415 1011 589 415 1012 591 415 1013 592 203 1014 593 203 1015 594 203 1016 594 416 1017 593 416 1018 595 416 1019 594 203 1020 595 203 1021 596 203 1022 596 417 1023 595 417 1024 597 417 1025 597 418 1026 595 418 1027 598 418 1028 597 419 1029 598 419 1030 599 419 1031 597 420 1032 599 420 1033 600 420 1034 600 421 1035 599 421 1036 601 421 1037 601 422 1038 599 422 1039 602 422 1040 601 203 1041 602 203 1042 603 203 1043 605 36 1044 604 36 1045 606 36 1046 607 423 1047 608 423 1048 609 423 1049 611 36 1050 610 36 1051 612 36 1052 613 36 1053 614 36 1054 615 36 1055 617 36 1056 616 36 1057 618 36 1058 619 36 1059 620 36 1060 621 36 1061 623 203 1062 622 203 1063 624 203 1064 625 424 1065 626 424 1066 627 424 1067 629 425 1068 628 425 1069 630 425 1070 631 426 1071 632 426 1072 633 426 1073 635 203 1074 634 203 1075 636 203 1076 637 203 1077 638 203 1078 639 203 1079</p>
        </triangles>
      </mesh>
    </geometry>
  </library_geometries>
  <library_controllers>
    <controller id="Armature_default_default-skin" name="Armature">
      <skin source="#default_default-mesh">
        <bind_shape_matrix>1 0 0 0 0 1 0 0 0 0 1 0 0 0 0 1</bind_shape_matrix>
        <source id="Armature_default_default-skin-joints">
          <Name_array id="Armature_default_default-skin-joints-array" count="3">root bot top</Name_array>
          <technique_common>
            <accessor source="#Armature_default_default-skin-joints-array" count="3" stride="1">
              <param name="JOINT" type="name"/>
            </accessor>
          </technique_common>
        </source>
        <source id="Armature_default_default-skin-bind_poses">
          <float_array id="Armature_default_default-skin-bind_poses-array" count="48">1 0 0 0 0 1 0 0 0 0 1 -50.035 0 0 0 1 1 0 0 0 0 1 0 0 0 0 1 -4.34875e-4 0 0 0 1 1 0 0 0 0 1 0 0 0 0 1 -97.39827 0 0 0 1</float_array>
          <technique_common>
            <accessor source="#Armature_default_default-skin-bind_poses-array" count="3" stride="16">
              <param name="TRANSFORM" type="float4x4"/>
            </accessor>
          </technique_common>
        </source>
        <source id="Armature_default_default-skin-weights">
          <float_array id="Armature_default_default-skin-weights-array" count="640">1 1 1 1 1 1 1 1 1 1 1 1 1 1 1 1 1 1 1 1 1 1 1 1 1 1 1 1 1 1 1 1 1 1 1 1 1 1 1 1 1 1 1 1 1 1 1 1 1 1 1 1 1 1 1 1 1 1 1 1 1 1 1 1 1 1 1 1 1 1 1 1 1 1 1 1 1 1 1 1 1 1 1 1 1 1 1 1 1 1 1 1 1 1 1 1 1 1 1 1 1 1 1 1 1 1 1 1 1 1 1 1 1 1 1 1 1 1 1 1 1 1 1 1 1 1 1 1 1 1 1 1 1 1 1 1 1 1 1 1 1 1 1 1 1 1 1 1 1 1 1 1 1 1 1 1 1 1 1 1 1 1 1 1 1 1 1 1 1 1 1 1 1 1 1 1 1 1 1 1 1 1 1 1 1 1 1 1 1 1 1 1 1 1 1 1 1 1 1 1 1 1 1 1 1 1 1 1 1 1 1 1 1 1 1 1 1 1 1 1 1 1 1 1 1 1 1 1 1 1 1 1 1 1 1 1 1 1 1 1 1 1 1 1 1 1 1 1 1 1 1 1 1 1 1 1 1 1 1 1 1 1 1 1 1 1 1 1 1 1 1 1 1 1 1 1 1 1 1 1 1 1 1 1 1 1 1 1 1 1 1 1 1 1 1 1 1 1 1 1 1 1 1 1 1 1 1 1 1 1 1 1 1 1 1 1 1 1 1 1 1 1 1 1 1 1 1 1 1 1 1 1 1 1 1 1 1 1 1 1 1 1 1 1 1 1 1 1 1 1 1 1 1 1 1 1 1 1 1 1 1 1 1 1 1 1 1 1 1 1 1 1 1 1 1 1 1 1 1 1 1 1 1 1 1 1 1 1 1 1 1 1 1 1 1 1 1 1 1 1 1 1 1 1 1 1 1 1 1 1 1 1 1 1 1 1 1 1 1 1 1 1 1 1 1 1 1 1 1 1 1 1 1 1 1 1 1 1 1 1 1 1 1 1 1 1 1 1 1 1 1 1 1 1 1 1 1 1 1 1 1 1 1 1 1 1 1 1 1 1 1 1 1 1 1 1 1 1 1 1 1 1 1 1 1 1 1 1 1 1 1 1 1 1 1 1 1 1 1 1 1 1 1 1 1 1 1 1 1 1 1 1 1 1 1 1 1 1 1 1 1 1 1 1 1 1 1 1 1 1 1 1 1 1 1 1 1 1 1 1 1 1 1 1 1 1 1 1 1 1 1 1 1 1 1 1 1 1 1 1 1 1 1 1 1 1 1 1 1 1 1 1 1 1 1 1 1 1 1 1 1 1 1 1 1 1 1 1 1 1 1 1 1 1 1 1 1 1 1 1 1 1 1 1 1 1 1 1 1 1 1 1 1 1 1 1 1 1 1 1 1 1 1 1 1 1 1 1 1 1 1 1 1 1 1 1 1 1 1 1</float_array>
          <technique_common>
            <accessor source="#Armature_default_default-skin-weights-array" count="640" stride="1">
              <param name="WEIGHT" type="float"/>
            </accessor>
          </technique_common>
        </source>
        <joints>
          <input semantic="JOINT" source="#Armature_default_default-skin-joints"/>
          <input semantic="INV_BIND_MATRIX" source="#Armature_default_default-skin-bind_poses"/>
        </joints>
        <vertex_weights count="640">
          <input semantic="JOINT" source="#Armature_default_default-skin-joints" offset="0"/>
          <input semantic="WEIGHT" source="#Armature_default_default-skin-weights" offset="1"/>
          <vcount>1 1 1 1 1 1 1 1 1 1 1 1 1 1 1 1 1 1 1 1 1 1 1 1 1 1 1 1 1 1 1 1 1 1 1 1 1 1 1 1 1 1 1 1 1 1 1 1 1 1 1 1 1 1 1 1 1 1 1 1 1 1 1 1 1 1 1 1 1 1 1 1 1 1 1 1 1 1 1 1 1 1 1 1 1 1 1 1 1 1 1 1 1 1 1 1 1 1 1 1 1 1 1 1 1 1 1 1 1 1 1 1 1 1 1 1 1 1 1 1 1 1 1 1 1 1 1 1 1 1 1 1 1 1 1 1 1 1 1 1 1 1 1 1 1 1 1 1 1 1 1 1 1 1 1 1 1 1 1 1 1 1 1 1 1 1 1 1 1 1 1 1 1 1 1 1 1 1 1 1 1 1 1 1 1 1 1 1 1 1 1 1 1 1 1 1 1 1 1 1 1 1 1 1 1 1 1 1 1 1 1 1 1 1 1 1 1 1 1 1 1 1 1 1 1 1 1 1 1 1 1 1 1 1 1 1 1 1 1 1 1 1 1 1 1 1 1 1 1 1 1 1 1 1 1 1 1 1 1 1 1 1 1 1 1 1 1 1 1 1 1 1 1 1 1 1 1 1 1 1 1 1 1 1 1 1 1 1 1 1 1 1 1 1 1 1 1 1 1 1 1 1 1 1 1 1 1 1 1 1 1 1 1 1 1 1 1 1 1 1 1 1 1 1 1 1 1 1 1 1 1 1 1 1 1 1 1 1 1 1 1 1 1 1 1 1 1 1 1 1 1 1 1 1 1 1 1 1 1 1 1 1 1 1 1 1 1 1 1 1 1 1 1 1 1 1 1 1 1 1 1 1 1 1 1 1 1 1 1 1 1 1 1 1 1 1 1 1 1 1 1 1 1 1 1 1 1 1 1 1 1 1 1 1 1 1 1 1 1 1 1 1 1 1 1 1 1 1 1 1 1 1 1 1 1 1 1 1 1 1 1 1 1 1 1 1 1 1 1 1 1 1 1 1 1 1 1 1 1 1 1 1 1 1 1 1 1 1 1 1 1 1 1 1 1 1 1 1 1 1 1 1 1 1 1 1 1 1 1 1 1 1 1 1 1 1 1 1 1 1 1 1 1 1 1 1 1 1 1 1 1 1 1 1 1 1 1 1 1 1 1 1 1 1 1 1 1 1 1 1 1 1 1 1 1 1 1 1 1 1 1 1 1 1 1 1 1 1 1 1 1 1 1 1 1 1 1 1 1 1 1 1 1 1 1 1 1 1 1 1 1 1 1 1 1 1 1 1 1 1 1 1 1 1 1 1 1 1 1 1 1 1 1 1 1 1 1 1 1 1 1 1 1 1 1 1 1 1 1 1 1 1 1 1 1 1 1 1 1 1 1 1 1 1 1 1 1 1 1 1 1 1 1 1 1 1 1 1 1 1 </vcount>
          <v>2 0 2 1 2 2 2 3 2 4 2 5 2 6 2 7 2 8 2 9 2 10 2 11 2 12 2 13 2 14 2 15 2 16 2 17 2 18 2 19 2 20 2 21 2 22 2 23 2 24 2 25 2 26 2 27 2 28 2 29 2 30 2 31 1 32 1 33 1 34 1 35 1 36 1 37 1 38 1 39 1 40 1 41 1 42 1 43 2 44 2 45 2 46 2 47 2 48 2 49 2 50 2 51 2 52 2 53 2 54 2 55 2 56 2 57 2 58 2 59 1 60 1 61 1 62 1 63 1 64 1 65 1 66 1 67 1 68 1 69 1 70 1 71 1 72 1 73 1 74 1 75 1 76 1 77 1 78 1 79 1 80 1 81 1 82 1 83 1 84 1 85 1 86 1 87 1 88 1 89 1 90 1 91 1 92 1 93 1 94 1 95 1 96 1 97 1 98 1 99 1 100 1 101 1 102 1 103 1 104 1 105 1 106 1 107 1 108 1 109 1 110 1 111 1 112 1 113 1 114 1 115 1 116 1 117 1 118 1 119 1 120 1 121 1 122 1 123 1 124 1 125 1 126 1 127 1 128 1 129 1 130 1 131 1 132 1 133 1 134 1 135 1 136 1 137 1 138 1 139 1 140 1 141 1 142 1 143 1 144 1 145 1 146 1 147 1 148 1 149 1 150 1 151 1 152 1 153 1 154 1 155 1 156 1 157 1 158 1 159 1 160 1 161 1 162 1 163 1 164 1 165 1 166 1 167 1 168 1 169 1 170 1 171 1 172 1 173 1 174 1 175 1 176 1 177 1 178 1 179 1 180 1 181 1 182 1 183 1 184 1 185 1 186 1 187 1 188 1 189 1 190 1 191 1 192 1 193 1 194 1 195 1 196 1 197 1 198 1 199 1 200 1 201 1 202 1 203 1 204 1 205 1 206 1 207 1 208 1 209 1 210 1 211 1 212 1 213 1 214 1 215 1 216 1 217 1 218 1 219 1 220 1 221 1 222 1 223 1 224 1 225 1 226 1 227 1 228 1 229 1 230 1 231 1 232 1 233 1 234 1 235 1 236 1 237 1 238 1 239 1 240 1 241 1 242 1 243 1 244 1 245 1 246 1 247 1 248 1 249 1 250 1 251 2 252 2 253 2 254 2 255 2 256 2 257 2 258 2 259 2 260 2 261 2 262 2 263 2 264 2 265 2 266 2 267 2 268 2 269 2 270 2 271 2 272 2 273 2 274 2 275 2 276 2 277 2 278 2 279 2 280 2 281 2 282 2 283 2 284 2 285 2 286 2 287 2 288 2 289 2 290 2 291 2 292 2 293 2 294 2 295 2 296 2 297 2 298 2 299 2 300 2 301 2 302 2 303 2 304 2 305 2 306 2 307 2 308 2 309 2 310 2 311 2 312 2 313 2 314 2 315 2 316 2 317 2 318 2 319 2 320 2 321 2 322 2 323 2 324 2 325 2 326 2 327 2 328 2 329 2 330 2 331 2 332 2 333 2 334 2 335 2 336 2 337 2 338 2 339 2 340 2 341 2 342 2 343 2 344 2 345 2 346 2 347 2 348 2 349 2 350 2 351 2 352 2 353 2 354 2 355 2 356 2 357 2 358 2 359 2 360 2 361 2 362 2 363 2 364 2 365 2 366 2 367 2 368 2 369 2 370 2 371 2 372 2 373 2 374 2 375 2 376 2 377 2 378 2 379 2 380 2 381 2 382 2 383 2 384 2 385 2 386 2 387 2 388 2 389 2 390 2 391 2 392 2 393 2 394 2 395 2 396 2 397 2 398 2 399 2 400 2 401 2 402 2 403 2 404 2 405 2 406 2 407 2 408 2 409 2 410 2 411 2 412 2 413 2 414 2 415 2 416 2 417 2 418 2 419 2 420 2 421 2 422 2 423 2 424 2 425 2 426 2 427 2 428 2 429 2 430 2 431 2 432 2 433 2 434 2 435 2 436 2 437 2 438 2 439 2 440 2 441 2 442 2 443 2 444 2 445 2 446 2 447 1 448 1 449 1 450 1 451 1 452 1 453 1 454 1 455 1 456 1 457 1 458 1 459 1 460 1 461 1 462 1 463 1 464 1 465 1 466 1 467 1 468 1 469 1 470 1 471 2 472 2 473 2 474 2 475 2 476 2 477 2 478 2 479 2 480 2 481 2 482 2 483 2 484 2 485 2 486 2 487 2 488 2 489 2 490 2 491 2 492 2 493 2 494 2 495 2 496 2 497 2 498 2 499 2 500 2 501 2 502 2 503 2 504 2 505 2 506 2 507 2 508 2 509 2 510 2 511 1 512 1 513 1 514 1 515 1 516 1 517 1 518 1 519 1 520 1 521 1 522 1 523 1 524 1 525 1 526 1 527 1 528 1 529 1 530 1 531 1 532 1 533 1 534 1 535 2 536 2 537 2 538 2 539 2 540 2 541 2 542 2 543 2 544 2 545 2 546 2 547 2 548 2 549 2 550 2 551 2 552 2 553 2 554 2 555 2 556 2 557 1 558 1 559 1 560 1 561 1 562 1 563 1 564 1 565 1 566 1 567 1 568 1 569 1 570 1 571 1 572 1 573 1 574 1 575 1 576 1 577 1 578 1 579 2 580 2 581 2 582 2 583 2 584 2 585 2 586 2 587 2 588 2 589 2 590 2 591 1 592 1 593 1 594 1 595 1 596 1 597 1 598 1 599 1 600 1 601 1 602 1 603 1 604 1 605 1 606 1 607 1 608 1 609 1 610 1 611 1 612 1 613 1 614 1 615 1 616 1 617 1 618 1 619 1 620 1 621 2 622 2 623 2 624 2 625 2 626 2 627 2 628 2 629 2 630 2 631 2 632 2 633 2 634 2 635 2 636 2 637 2 638 2 639</v>
        </vertex_weights>
      </skin>
    </controller>
  </library_controllers>
  <library_visual_scenes>
    <visual_scene id="Scene" name="Scene">
      <node id="Armature" name="Armature" type="NODE">
        <matrix sid="transform">1 0 0 0 0 1 0 0 0 0 1 0 0 0 0 1</matrix>
        <node id="Armature_root" name="root" sid="root" type="JOINT">
          <matrix sid="transform">1 0 0 0 0 1 0 0 0 0 1 50.035 0 0 0 1</matrix>
          <node id="Armature_bot" name="bot" sid="bot" type="JOINT">
            <matrix sid="transform">1 0 0 0 0 1 0 0 0 0 1 -50.03456 0 0 0 1</matrix>
            <extra>
              <technique profile="blender">
                <tip_x sid="tip_x" type="float">0</tip_x>
                <tip_y sid="tip_y" type="float">47.36327</tip_y>
                <tip_z sid="tip_z" type="float">0</tip_z>
              </technique>
            </extra>
          </node>
          <node id="Armature_top" name="top" sid="top" type="JOINT">
            <matrix sid="transform">1 0 0 0 0 1 0 0 0 0 1 47.36327 0 0 0 1</matrix>
            <extra>
              <technique profile="blender">
                <tip_x sid="tip_x" type="float">0</tip_x>
                <tip_y sid="tip_y" type="float">47.36327</tip_y>
                <tip_z sid="tip_z" type="float">0</tip_z>
              </technique>
            </extra>
          </node>
          <extra>
            <technique profile="blender">
              <tip_x sid="tip_x" type="float">0</tip_x>
              <tip_y sid="tip_y" type="float">47.36327</tip_y>
              <tip_z sid="tip_z" type="float">0</tip_z>
            </technique>
          </extra>
        </node>
        <node id="default_default" name="default:default" type="NODE">
          <matrix sid="transform">1 0 0 0 0 1 0 0 0 0 1 0 0 0 0 1</matrix>
          <instance_controller url="#Armature_default_default-skin">
            <skeleton>#Armature_root</skeleton>
            <bind_material>
              <technique_common>
                <instance_material symbol="green_plasma_sender-material" target="#green_plasma_sender-material">
                  <bind_vertex_input semantic="meshId2-tex0" input_semantic="TEXCOORD" input_set="0"/>
                </instance_material>
                <instance_material symbol="_way_teleporter_luminous-material" target="#_way_teleporter_luminous-material">
                  <bind_vertex_input semantic="meshId2-tex0" input_semantic="TEXCOORD" input_set="0"/>
                </instance_material>
                <instance_material symbol="_way_teleporter_001-material" target="#_way_teleporter_001-material">
                  <bind_vertex_input semantic="meshId2-tex0" input_semantic="TEXCOORD" input_set="0"/>
                </instance_material>
              </technique_common>
            </bind_material>
          </instance_controller>
        </node>
      </node>
    </visual_scene>
  </library_visual_scenes>
  <scene>
    <instance_visual_scene url="#Scene"/>
  </scene>
</COLLADA>