<?xml version="1.0" encoding="utf-8"?>
<COLLADA xmlns="http://www.collada.org/2005/11/COLLADASchema" version="1.4.1" xmlns:xsi="http://www.w3.org/2001/XMLSchema-instance">
  <asset>
    <contributor>
      <author>Blender User</author>
      <authoring_tool>Blender 4.3.2 commit date:2024-12-16, commit time:21:10, hash:32f5fdce0a0a</authoring_tool>
    </contributor>
    <created>2025-12-09T18:05:54</created>
    <modified>2025-12-09T18:05:54</modified>
    <unit name="meter" meter="1"/>
    <up_axis>Z_UP</up_axis>
  </asset>
  <library_effects>
    <effect id="h_turret_mp_tripod-effect">
      <profile_COMMON>
        <technique sid="common">
          <lambert>
            <emission>
              <color sid="emission">0 0 0 1</color>
            </emission>
            <diffuse>
              <color sid="diffuse">0.8 0.8 0.8 1</color>
            </diffuse>
            <index_of_refraction>
              <float sid="ior">1.5</float>
            </index_of_refraction>
          </lambert>
        </technique>
      </profile_COMMON>
    </effect>
  </library_effects>
  <library_images/>
  <library_materials>
    <material id="h_turret_mp_tripod-material" name="h_turret_mp_tripod">
      <instance_effect url="#h_turret_mp_tripod-effect"/>
    </material>
  </library_materials>
  <library_geometries>
    <geometry id="gun_base-mesh" name="gun:base">
      <mesh>
        <source id="gun_base-mesh-positions">
          <float_array id="gun_base-mesh-positions-array" count="1071">-29.62769 4.783071 -27.18709 -28.58569 5.739667 -26.31532 -20.09984 4.783072 -28.04002 -20.9652 5.739667 -26.99751 -20.01413 4.783071 -27.08265 -29.62769 -4.782884 -27.18709 -20.09984 4.783072 -28.04002 -20.09984 -4.782885 -28.04002 -19.06134 3.825773 -27.16794 -19.06134 -3.821926 -27.16794 -29.62769 4.783071 -27.18709 -29.54197 4.783071 -26.22971 -30.49477 3.825773 -26.14442 -30.49477 -3.821926 -26.14442 -29.54197 -4.782885 -26.22971 -20.9652 -5.73948 -26.99751 -20.01413 -4.782885 -27.08265 -20.09984 -4.782885 -28.04002 -28.58569 -5.73948 -26.31532 -29.62769 -4.782884 -27.18709 -3.533689 14.38151 -21.68975 -3.532139 14.3815 -20.92078 5.007519 5.842579 -21.70696 5.009068 5.842579 -20.938 5.007516 -5.83949 -21.70696 5.009066 -5.83949 -20.938 -3.533695 -14.3815 -21.68975 -3.532145 -14.38151 -20.92078 -25.60021 1.147264 -27.25275 -25.6002 -1.152063 -27.25275 -25.48171 1.147264 -25.92886 -25.4817 -1.152065 -25.92886 2.598641 -6.238843 -20.52195 -5.597599 -6.915146 -20.52195 4.424638 -0.7552584 -20.52195 -9.009102 2.02871e-6 -20.52195 4.424638 0.7808269 -20.52195 -5.597588 6.915152 -20.52195 2.598644 6.238836 -20.52195 2.598641 -6.238843 -20.52195 -5.597599 -6.915146 -20.52195 2.598634 -6.238839 -18.98585 -5.597603 -6.915148 -18.98586 -5.597588 6.915152 -20.52195 2.598644 6.238836 -20.52195 -5.597588 6.915152 -18.98586 2.598636 6.238836 -18.98586 16.34328 0.6126149 17.83554 16.00236 7.47711 15.89693 15.80561 1.046984 19.20911 15.60525 5.08121 18.06981 15.68092 5.200953 18.4989 15.46805 7.843947 17.28958 16.11246 8.907991 20.94396 16.4632 10.12914 20.02625 16.55689 9.015102 21.25565 16.83005 10.03049 20.502 15.93812 8.508028 17.04952 2.598634 -6.238839 -18.98585 2.598641 -6.238843 -20.52195 4.424638 -0.7552584 -18.98586 4.424638 -0.7552584 -20.52195 4.424638 0.7808269 -18.98586 4.424638 0.7808269 -20.52195 2.598636 6.238836 -18.98586 2.598644 6.238836 -20.52195 -5.597588 6.915152 -18.98586 -5.597588 6.915152 -20.52195 -9.009102 2.01093e-6 -18.98586 -9.009102 2.02871e-6 -20.52195 -5.597603 -6.915148 -18.98586 -5.597599 -6.915146 -20.52195 16.24918 6.155013 21.72143 16.69207 6.293242 22.02433 18.91832 1.580337 19.16996 18.73909 5.1889 18.15073 18.82168 1.236622 18.62205 18.49354 7.844049 16.75604 17.85765 0.579849 17.57804 17.51509 7.477528 15.63005 16.34328 0.6126149 17.83554 16.00236 7.47711 15.89693 17.51509 7.477528 15.63005 15.93812 8.508028 17.04952 17.96881 8.508224 16.69124 18.49389 10.12933 19.66798 16.4632 10.12914 20.02625 16.83005 10.03049 20.502 18.31201 10.03064 20.24054 4.707231 -6.503496 -20.52196 30.02281 -21.5526 -26.78875 4.318862 -7.176168 -22.05805 29.76321 -21.40272 -28.09132 4.37379 -6.295172 -23.19919 31.59166 -22.45838 -27.96427 31.49134 -22.40044 -26.64014 32.641 -20.40917 -26.64014 31.49134 -22.40044 -26.64014 32.74134 -20.4671 -27.96426 31.59166 -22.45838 -27.96427 32.641 -20.40917 -26.64014 32.74134 -20.4671 -27.96426 31.17248 -19.56132 -26.78875 30.91288 -19.41144 -28.09131 5.854947 -4.51559 -22.05804 5.137033 -4.973196 -23.19919 31.49014 22.40528 -26.64014 31.59017 22.46459 -27.96427 30.02109 21.56151 -26.78876 29.76109 21.41622 -28.09132 4.328032 7.164365 -22.05805 4.369304 6.312773 -23.1992 31.49014 22.40528 -26.64014 32.63943 20.41567 -26.64014 31.59017 22.46459 -27.96427 32.74005 20.47211 -27.96427 5.485411 -5.155641 -20.52196 32.74005 20.47211 -27.96427 31.59017 22.46459 -27.96427 30.91076 19.42494 -28.09133 29.76109 21.41622 -28.09132 5.132548 4.990797 -23.1992 31.49134 -22.40044 -26.64014 31.17248 -19.56132 -26.78875 30.02281 -21.5526 -26.78875 4.707231 -6.503496 -20.52196 4.231106 -5.782634 -21.12386 4.318862 -7.176168 -22.05805 4.036923 -6.11897 -21.89191 4.37379 -6.295172 -23.19919 4.064385 -5.678472 -22.46248 5.137033 -4.973196 -23.19919 4.446008 -5.017484 -22.46248 5.854947 -4.51559 -22.05804 4.804965 -4.788681 -21.8919 5.485411 -5.155641 -20.52196 4.620202 -5.108707 -21.12386 4.119022 -5.271951 -21.72576 -25.60021 1.147264 -27.25275 -25.6002 -1.152063 -27.25275 -23.48917 1.147266 -27.38405 -23.48917 -1.152063 -27.38405 -9.218266 0.7584471 -23.20392 -9.218266 -0.7680408 -23.20392 -5.901373 0.7680461 -22.06945 -5.901373 -0.7680397 -22.06945 4.340801 5.562747 -22.0901 4.340796 -5.565913 -22.0901 5.007519 5.842579 -21.70696 5.007516 -5.83949 -21.70696 -4.005366 -13.91062 -22.07328 -3.533695 -14.3815 -21.68975 -9.608897 1.548871 -22.06198 -23.48917 1.147266 -27.38405 -23.78631 1.147266 -26.08089 -25.60021 1.147264 -27.25275 -25.48171 1.147264 -25.92886 -3.533689 14.38151 -21.68975 -4.005362 13.91062 -22.07328 -11.57035 7.302051 -22.05803 -9.608897 1.548871 -22.06198 -9.605803 0.7721336 -20.5259 2.138868 0.7808278 -10.28229 1.06254 0.780828 -11.81778 2.598631 0.7808281 -11.81779 1.06254 6.238836 -18.98584 2.598636 6.238836 -18.98586 1.062539 0.7808275 -20.52193 -5.041828 0.780829 -20.53573 -0.02716445 1.548871 -11.05476 0.9303999 1.548868 -9.687239 3.543472 4.130203 -5.997591 4.698126 3.312842 -6.6308 15.40683 5.409204 8.095055 16.66785 4.579896 7.588131 17.03305 7.024304 17.32491 18.366 6.304242 17.21881 15.74306 6.304244 17.68131 14.19068 4.725474 8.863255 3.543472 4.130203 -5.997591 2.648288 3.462456 -4.92709 0.9303999 1.548868 -9.687239 -0.04970836 0.7808264 -8.767682 -7.221247 0.7808297 -19.00968 0.1924839 -0.755259 -8.421792 -7.221251 -0.7552558 -19.00968 -0.02716541 -1.5233 -11.05476 -6.131536 -1.523299 -19.7727 1.062543 -0.7552572 -11.81778 -5.041828 -0.7552565 -20.53573 1.062539 -0.7552581 -20.52193 -6.131538 1.548872 -19.7727 18.41232 4.791493 17.48149 18.366 6.304242 17.21881 16.71417 3.067149 7.850815 16.66785 4.579896 7.588131 5.003893 1.876855 -6.163992 4.698126 3.312842 -6.6308 2.374303 -0.7552598 -9.944407 2.138868 0.7808278 -10.28229 2.13887 -0.7552577 -10.2823 2.598631 -0.7552577 -11.81779 2.598631 0.7808281 -11.81779 2.598634 -6.238839 -18.98585 2.598636 6.238836 -18.98586 30.91076 19.42494 -28.09133 31.17091 19.56928 -26.78876 32.74005 20.47211 -27.96427 32.63943 20.41567 -26.64014 -30.49477 -3.821926 -26.14442 -30.49477 3.825773 -26.14442 -29.54197 -4.782885 -26.22971 -29.54197 4.783071 -26.22971 -24.77805 9.48583e-5 -26.65618 -20.01413 4.783071 -27.08265 -20.01413 -4.782885 -27.08265 -19.06134 -3.821926 -27.16794 -19.06134 3.825773 -27.16794 -20.9652 -5.73948 -26.99751 -28.58569 -5.73948 -26.31532 -20.9652 5.739667 -26.99751 -28.58569 5.739667 -26.31532 -3.532139 14.3815 -20.92078 -4.002258 13.91062 -20.53719 5.009068 5.842579 -20.938 4.343895 5.562746 -20.55402 5.009066 -5.83949 -20.938 4.343894 -5.565913 -20.55402 -3.532145 -14.38151 -20.92078 -4.002274 -13.91062 -20.53719 4.119022 -5.271951 -21.72576 -11.56727 -7.302049 -20.52195 -9.605795 -1.523299 -20.5259 -9.605803 -0.7842322 -20.5259 -9.605803 0.7721336 -20.5259 -23.78631 1.147266 -26.08089 -23.78631 -1.152063 -26.08089 -25.48171 1.147264 -25.92886 -25.4817 -1.152065 -25.92886 -9.605803 1.548871 -20.5259 -11.56727 7.302051 -20.52195 18.73909 5.1889 18.15073 15.68092 5.200953 18.4989 19.27573 6.133674 21.19395 16.24918 6.155013 21.72143 16.69207 6.293242 22.02433 18.96313 6.272489 21.62993 -11.57035 -7.302049 -22.05803 -9.608897 -1.523299 -22.06198 -23.48917 -1.152063 -27.38405 15.74306 6.304244 17.68131 15.78937 4.791496 17.94399 17.03305 7.024304 17.32491 17.12326 4.078037 17.83653 18.41232 4.791493 17.48149 -9.605803 -0.7842322 -20.5259 -9.608897 -1.523299 -22.06198 -23.78631 -1.152063 -26.08089 -25.6002 -1.152063 -27.25275 -25.4817 -1.152065 -25.92886 -11.56727 -7.302049 -20.52195 -11.57035 -7.302049 -22.05803 -4.002274 -13.91062 -20.53719 -4.005366 -13.91062 -22.07328 -3.533695 -14.3815 -21.68975 -3.532145 -14.38151 -20.92078 15.78937 4.791496 17.94399 14.237 3.212725 9.125943 2.89503 1.943437 -4.546995 4.073463 1.150707 -5.163847 1.400085 -1.523302 -9.016438 19.27573 6.133674 21.19395 19.13795 8.908092 20.41042 18.82691 9.015242 20.85534 18.31201 10.03064 20.24054 18.49389 10.12933 19.66798 17.96881 8.508224 16.69124 -9.605803 0.7721336 -20.5259 -9.605803 1.548871 -20.5259 -9.608897 1.548871 -22.06198 -11.56727 7.302051 -20.52195 -11.57035 7.302051 -22.05803 -4.005362 13.91062 -22.07328 -4.002258 13.91062 -20.53719 -3.532139 14.3815 -20.92078 -3.533689 14.38151 -21.68975 18.96313 6.272489 21.62993 16.69207 6.293242 22.02433 16.55689 9.015102 21.25565 18.31201 10.03064 20.24054 16.83005 10.03049 20.502 17.12326 4.078037 17.83653 14.237 3.212725 9.125943 15.49946 2.383708 8.620434 4.119028 5.272143 -21.72577 4.043478 6.117451 -21.89191 4.062146 5.692183 -22.46248 4.328032 7.164365 -22.05805 4.369304 6.312773 -23.1992 4.443769 5.031194 -22.46249 5.132548 4.990797 -23.1992 4.81152 4.787162 -21.89192 5.864119 4.503789 -22.05805 4.617337 5.123499 -21.12387 5.479682 5.175403 -20.52197 4.228243 5.797423 -21.12387 4.701495 6.523254 -20.52197 30.02109 21.56151 -26.78876 31.17091 19.56928 -26.78876 4.701495 6.523254 -20.52197 4.119028 5.272143 -21.72577 31.59166 -22.45838 -27.96427 32.74134 -20.4671 -27.96426 29.76321 -21.40272 -28.09132 30.91288 -19.41144 -28.09131 4.37379 -6.295172 -23.19919 18.41232 4.791493 17.48149 16.71417 3.067149 7.850815 5.003893 1.876855 -6.163992 4.073463 1.150707 -5.163847 1.400085 -1.523302 -9.016438 2.374303 -0.7552598 -9.944407 2.13887 -0.7552577 -10.2823 2.598631 -0.7552577 -11.81779 2.598634 -6.238839 -18.98585 1.06254 -6.238841 -18.98584 4.424638 0.7808269 -18.98586 2.598636 6.238836 -18.98586 1.317556 -1.0455e-6 -18.98586 -5.597588 6.915152 -18.98586 -9.009102 2.01093e-6 -18.98586 -5.597603 -6.915148 -18.98586 2.598634 -6.238839 -18.98585 4.424638 -0.7552584 -18.98586 -9.605803 -0.7842322 -20.5259 -9.605795 -1.523299 -20.5259 -9.608897 -1.523299 -22.06198 -11.56727 -7.302049 -20.52195 -11.57035 -7.302049 -22.05803 16.34328 0.6126149 17.83554 17.85765 0.579849 17.57804 15.80561 1.046984 19.20911 18.82168 1.236622 18.62205 18.91832 1.580337 19.16996 15.8707 1.384648 19.57811 18.73909 5.1889 18.15073 1.06254 0.780828 -11.81778 1.062539 0.7808275 -20.52193 1.06254 6.238836 -18.98584 1.062539 -0.7552581 -20.52193 1.06254 -6.238841 -18.98584 1.062543 -0.7552572 -11.81778 15.8707 1.384648 19.57811 5.132548 4.990797 -23.1992 5.864119 4.503789 -22.05805 5.479682 5.175403 -20.52197 4.119028 5.272143 -21.72577</float_array>
          <technique_common>
            <accessor source="#gun_base-mesh-positions-array" count="357" stride="3">
              <param name="X" type="float"/>
              <param name="Y" type="float"/>
              <param name="Z" type="float"/>
            </accessor>
          </technique_common>
        </source>
        <source id="gun_base-mesh-normals">
          <float_array id="gun_base-mesh-normals-array" count="1107">-0.5568464 0.4954391 -0.66668 -0.2236955 0.7783148 -0.586674 0.42969 0.495046 -0.7551796 0.1169925 0.778233 -0.6169815 0.7049281 0.7064661 -0.06310385 -0.5568487 0.4954607 -0.666662 0.4296498 0.4950505 -0.7551995 -0.5571207 -0.4953698 -0.6665023 0.4299629 -0.4950066 -0.7550501 0.721309 0.1710813 -0.6711517 0.7213532 -0.1703712 -0.6712849 0.7047789 0.7066161 -0.0630905 -0.2236945 0.7783545 -0.5866219 -0.5568113 0.4954352 -0.6667123 -0.7037711 0.7076268 0.06301295 -0.8290653 0.1709973 -0.5323634 -0.8290446 0.1710399 -0.5323819 -0.8291281 -0.1703948 -0.5324587 -0.70447 -0.7069265 0.06306356 0.1169146 -0.7782391 -0.6169885 0.4298797 -0.4949983 -0.7551027 0.7054068 -0.7059844 -0.06314647 0.7213394 -0.1703583 -0.671303 -0.7044197 -0.706977 0.06305968 -0.5571413 -0.4954215 -0.6664467 -0.2237498 -0.7783341 -0.5866279 0.1169482 -0.7782171 -0.6170101 0.4299406 -0.4950089 -0.7550613 0.6112709 0.6124114 -0.5012986 0.6129468 0.6120686 0.4996683 0.8163476 0.3388168 -0.4677392 0.8179223 0.3385871 0.4651473 0.8167648 -0.3384619 -0.4672675 0.8182615 -0.3384071 0.4646816 0.6114141 -0.6123317 -0.5012212 0.6128727 -0.612181 0.4996214 -0.9960181 0 0.08915227 -0.9960178 -3.14328e-6 0.08915537 3.49093e-7 0 -1 -1.9006e-7 -2.11647e-7 -1 -1.84862e-7 0 -1 0 2.11851e-7 -1 -2.63082e-7 0 -1 0.08223444 -0.996613 3.01964e-6 0.08223509 -0.996613 0 0.08223605 0.996613 0 0.08223599 0.996613 6.0393e-7 -0.6272712 -0.2403479 -0.7407859 -0.9886831 -0.08417183 -0.1241814 -0.5637438 0.2048686 -0.8001386 -0.9944607 -0.07121908 -0.0773037 -0.9848119 1.25222e-4 0.1736252 -0.9675388 0.1921457 -0.1641606 -0.8345537 0.3028905 0.460193 -0.5263562 0.8493538 0.03933632 -0.2537001 0.4396724 0.8615825 -0.1610208 0.8013124 0.5761691 -0.5194441 0.7232447 -0.4550771 0.9487796 -0.3159391 5.47841e-6 0.9487796 -0.3159387 4.57253e-6 0.9871126 -0.1600278 4.58844e-7 0.9871128 -0.1600264 0 0.9870001 0.1607198 0 0.9869999 0.1607208 4.38181e-7 0.9483358 0.3172686 4.34516e-6 0.9483359 0.3172683 5.21015e-6 -0.896804 0.4424281 0 -0.8968039 0.4424282 0 -1 -4.37933e-6 0 -1 6.98155e-6 -1.75974e-7 -0.8968042 -0.4424279 -2.20622e-6 -0.8968041 -0.442428 -2.52185e-6 -0.8549946 0.1011919 0.5086695 -0.2378175 0.2530329 0.9377725 0.9848126 -1.23477e-4 -0.1736211 0.8902469 -0.08230221 -0.4479809 0.9848118 -1.25403e-4 -0.173626 0.8529976 0.1922758 -0.4852063 0.3158503 -0.2433084 -0.9170821 0.2560558 0.2049589 -0.9446837 -0.6272458 -0.2403862 -0.740795 -0.5637542 0.204907 -0.8001216 -0.5637961 0.2048329 -0.8001109 -0.5193998 0.7232661 -0.4550935 0.256031 0.2049325 -0.9446962 0.331952 0.7235081 -0.6052635 0.5068911 0.8497521 -0.1448548 -0.5263996 0.8493271 0.03933167 -0.160991 0.8013347 0.5761463 0.3432786 0.8031761 0.4868962 -0.4593241 -0.3005904 0.8358629 -0.7496404 -0.6618392 0.002882301 -0.3308714 -0.6644264 0.6701207 -0.3694493 -0.5727267 -0.7317727 -0.6639946 -0.1436643 -0.7338064 -0.3133077 -0.6284373 -0.7119725 -0.4069888 -0.5814547 0.7044648 0.8627293 -0.4980967 0.08716583 0.8627271 -0.4981019 0.08715909 0.3001461 0.6431514 0.7044633 0.3875671 0.5855601 -0.711977 0.4096664 0.6190298 0.6700564 0.3110374 0.6066557 -0.7315905 0.2005346 0.9796828 0.002731442 -0.2029104 0.65358 -0.7291506 -0.4070421 0.5814288 0.7044554 -0.3133481 0.6284121 -0.7119771 -0.3312481 0.6642998 0.6700601 -0.3698912 0.5726438 -0.7316144 -0.7481524 0.6635212 0.002725541 -0.6674678 0.1510972 -0.7291478 0.8627936 0.4980125 0.08701103 0.8627109 0.4981212 0.08720803 0.8627935 0.4980128 0.08701086 0.8628448 0.4979625 0.08678847 0.8627498 0.4980744 0.08709025 0.8627497 0.4980747 0.08709013 0.03362876 0.5548569 0.8312659 0.3875649 -0.5856095 -0.7119375 0.311248 -0.606406 -0.7317079 -0.3134405 0.6284362 -0.7119151 -0.3698958 0.5727131 -0.7315578 -0.2075943 -0.6469033 -0.7337717 -0.667488 0.151132 -0.7291221 0.300049 0.6432428 0.7044212 0.409709 0.6190777 0.6699861 -0.4067761 -0.5816268 0.7044454 -0.3309438 -0.6644548 0.6700568 0.03366428 0.554924 0.8312196 -0.4593464 -0.3005864 0.8358522 -0.8341238 0.09963297 0.5425044 -0.749697 -0.6617751 0.002866685 -0.9844034 -0.1522038 0.08822619 -0.6640269 -0.1436614 -0.7337777 -0.9277325 0.1852053 -0.3240545 -0.2028617 0.6536283 -0.7291209 -0.6209455 0.715443 -0.3202624 0.2005097 0.9796878 0.002775192 -0.3546001 0.9308632 0.08804947 0.03367692 0.5548935 0.8312396 -0.5014346 0.67739 0.5382435 -0.8543627 0.4949398 0.1584268 -0.04424047 0.7009263 -0.7118604 0.07910275 0.6657667 -0.7419553 -0.04424077 -0.7009282 -0.7118585 0.07588279 -0.666846 -0.7413219 0.2722071 0.4692898 -0.8400419 0.2713399 -0.4786121 -0.8350481 0.09103435 0.05248481 -0.9944638 0.09082746 -0.05252367 -0.9944806 0.272874 0.113331 -0.9553512 0.27331 -0.1143234 -0.9551084 0.8163552 0.338837 -0.4677112 0.8167524 -0.338531 -0.4672393 0.1772259 -0.1791614 -0.9677253 0.6114151 -0.6123411 -0.5012086 0.04037982 0.8239975 -0.5651527 0.07911819 0.6656931 -0.7420195 -0.1019792 0.7599806 0.6418955 -0.04431539 0.7008932 -0.7118883 0.06315416 0.707056 0.7043319 0.6113065 0.6123811 -0.5012924 0.1772399 0.1791545 -0.967724 -0.002015769 0 -0.999998 0.04038512 0.8239943 -0.565157 -0.1425698 0.2024182 0.9688658 0.7249173 0.5787082 -0.3736199 0.7899955 0.5362713 0.2971873 0.1140372 0.9934358 0.009000957 -0.6052939 0.6332908 0.4822469 0.5053783 0.6865186 0.5227668 -0.6360368 0.7716575 -0.001438021 0.2628669 0.9471127 -0.1840613 -4.3968e-5 1 -1.91032e-5 -0.1476545 0.9659333 -0.2125351 -0.161274 0.9559286 -0.2453392 0.5829785 0.4980452 -0.6419402 0.0645892 0.9842913 -0.1643133 0.7953615 0.4205279 -0.4365277 0.0805633 0.8862444 0.4561584 0.7681822 0.4961542 0.4046324 -0.5833981 0.4963437 0.6428761 -0.7709054 0.572107 0.2799976 -0.1612743 0.9559164 -0.2453867 -0.7498559 0.5439498 0.3766095 -0.1476628 0.9659349 -0.2125221 -0.8034377 0.4132496 0.4286171 -0.709407 0.4999979 0.496733 -0.6017782 -0.5318979 0.595775 -0.709407 -0.4999983 0.4967328 -4.18157e-5 -1 -2.1765e-5 -7.44866e-7 -1 6.24373e-7 0.1136861 -0.9934713 0.009503126 0.2628669 -0.9471127 -0.1840613 -0.6363717 -0.7713827 -9.55491e-7 -5.47696e-7 1 6.02465e-7 0.7920202 -0.2844041 0.5402022 0.7998381 -0.5198707 -0.2999892 0.768118 0.496244 0.4046441 0.7953487 0.4205383 -0.4365409 0.7832031 -0.4546747 -0.4241037 0.582971 0.4980415 -0.6419498 0.7651886 -0.5320033 -0.3625728 0.7248256 0.5789518 -0.3734204 0.7260969 -0.6444721 -0.2396643 0.7901862 -0.5356821 0.2977426 0.7899525 0.5362778 0.2972899 0.5045042 -0.6857698 0.5245907 0.5054147 0.6865126 0.5227394 0.3112729 -0.6063038 -0.731782 0.3875158 -0.585578 -0.7119902 0.4099636 -0.618776 0.670109 0.3000077 -0.6432079 0.7044708 0.08916407 0 0.996017 0.08915925 0 0.9960174 0.08916383 0 0.996017 0.08916348 4.16873e-7 0.996017 0.08916413 0 0.996017 0.0891633 0 0.996017 0.08916479 0 0.9960169 0.08916342 3.12728e-6 0.996017 0.08916378 -8.33747e-7 0.996017 0.08916378 -4.16873e-7 0.996017 0.0891636 -2.50124e-6 0.9960171 0.08916401 1.04243e-6 0.996017 0.6129463 0.612042 0.4997014 0.1803925 0.1784879 0.9672645 0.8179099 0.3386368 0.465133 0.2756609 0.1128461 0.9546083 0.8182596 -0.338454 0.4646505 0.2761024 -0.1138536 0.954361 0.6130178 -0.6120044 0.4996597 0.1804004 -0.1784818 0.9672642 -0.5014742 0.677336 0.5382747 -0.8544168 0.4948288 0.1584815 0.002015292 -1.80879e-7 0.999998 0.002016603 2.79005e-6 0.999998 -0.1415073 -0.2049177 0.968496 -0.1425452 0.2024067 0.9688717 -0.1029859 0.7601378 0.6415485 -0.1011376 -0.7602394 0.6417222 0.06318771 0.70709 0.7042948 0.06319206 -0.70709 0.7042944 0.002017021 -2.6015e-6 0.999998 0.002015709 3.6748e-7 0.999998 0.09703779 -0.486728 0.8681473 0.04081279 -0.9523966 0.3021177 0.1026237 -0.4692378 0.8770886 0.04578727 -0.9524478 0.3012419 0.05378115 -0.9362332 0.3472394 0.04960238 -0.9408652 0.3351303 -0.002015411 0 -0.999998 0.04022526 -0.8297461 -0.5566896 0.07585525 -0.6668335 -0.7413361 -0.5834686 0.4962847 0.6428577 -0.5595852 -0.2845147 0.7784059 0.08061796 0.8862764 0.4560864 0.1283072 -0.6744177 0.7271164 0.7920234 -0.2843792 0.5402107 0.7681803 0.4961622 0.4046261 -0.1414925 -0.2049763 0.9684858 -0.1011605 -0.7601819 0.6417868 0.04024922 -0.8297702 -0.556652 0.07587379 -0.6667834 -0.7413793 -0.04429626 -0.7008931 -0.7118896 0.06325721 -0.7070568 0.7043219 -0.965677 -0.2597389 0.001909911 -0.965677 -0.2597388 0.001963734 -0.6779679 -0.7350903 0.001364767 -0.6779446 -0.7351118 0.001365184 -0.7070978 -0.7071144 0.001424372 -0.7070965 -0.7071157 0.001424014 -0.5595307 -0.2844873 0.7784551 -0.747542 -0.5174105 0.4164942 -0.6559979 -0.3843972 0.6495425 0.1231721 -0.956623 0.26401 0.1461276 -0.967325 0.2071934 0.977794 0.1004962 0.1839011 0.9426394 0.3000442 0.1463032 0.5322598 0.4373548 0.7248589 0.3433253 0.8031561 0.4868963 0.5068841 0.8497574 -0.1448478 0.3320101 0.7234927 -0.60525 -0.999998 -1.5986e-6 0.002013981 -0.9865328 -0.1635519 0.00198692 -0.967988 -0.250989 0.001948416 -0.9658434 0.2591196 0.001937031 -0.9658457 0.2591108 0.001935362 -0.6779444 0.7351121 0.001370131 -0.6736091 0.7390866 0.001357436 -0.7071001 0.707112 0.001429498 -0.7070989 0.7071133 0.00142771 0.5464038 0.2526454 0.7985069 -0.2377641 0.2530251 0.9377882 -0.2536368 0.4396619 0.8616066 0.343317 0.8031688 0.4868812 -0.1610118 0.8013222 0.576158 -0.5595591 -0.2844935 0.7784326 -0.7475872 -0.5173826 0.4164476 0.1283195 -0.6743556 0.7271717 0.08401274 -0.9909469 0.1047192 -0.8549452 -0.4907237 0.1681039 -0.983412 0.1585878 0.08803904 -0.9299672 -0.179053 -0.3210939 -0.7481828 0.663487 0.002767682 -0.6675092 0.1510725 -0.7291149 -0.6228298 -0.7109203 -0.3266119 -0.2075654 -0.6469007 -0.7337821 -0.3574991 -0.9297773 0.08779901 0.198284 -0.9801404 0.00288248 -0.5013247 -0.6724223 0.5445382 0.03064155 -0.5481055 0.8358478 -0.837125 -0.09463369 0.5387637 -0.4637475 0.3065872 0.8312296 -0.331335 0.6643365 0.6699807 0.409955 -0.618851 0.6700451 0.3002152 -0.6431824 0.7044056 -0.4070227 0.5815045 0.7044041 -0.4637423 0.3065972 0.8312288 -0.854965 -0.4906865 0.1681118 -0.8549358 -0.4907649 0.1680315 -0.313393 -0.6284231 -0.7119475 -0.3695166 -0.5727501 -0.7317205 0.3875362 0.5856193 -0.7119451 0.3110463 0.6066866 -0.7315611 -0.6640315 -0.143669 -0.7337721 -0.2028589 0.6536278 -0.7291222 0.7920146 -0.2843077 0.5402612 0.7998488 -0.5198563 -0.2999858 0.7832205 -0.454675 -0.4240713 0.1232119 -0.9566133 0.2640263 0.1460809 -0.9673423 0.2071458 0.7651684 -0.5320155 -0.3625975 0.7261216 -0.6444495 -0.2396501 0.7902251 -0.5356028 0.2977818 0.5044676 -0.6857607 0.5246377 -0.6041865 -0.6328699 0.4841843 0 -3.22356e-7 1 0 -3.00628e-7 1 0 0 1 4.27355e-7 0 1 -5.86861e-7 1.06155e-6 1 -8.28515e-7 1.28713e-6 1 0 0 1 -0.999998 -8.40042e-6 0.002018988 -0.9676319 0.2523584 0.001951813 -0.9866438 0.1628805 0.001991987 -0.9656637 -0.2597865 0.002150952 -0.9656642 -0.2597866 0.001962423 0.032678 -0.9492039 0.3129605 0.1133831 -0.9082529 0.4027669 0.1188032 -0.8353785 0.5366832 0.1472858 -0.866613 0.4767482 0.1615556 -0.3253671 0.9316846 0.1454036 -0.298968 0.9431204 0.09701842 -0.4868127 0.868102 0.1122081 -0.4692139 0.8759269 0.1139413 0.9934468 0.008997619 -0.6052597 0.6333619 0.4821965 -0.6359645 0.7717184 -2.09438e-5 -0.6363344 -0.7714134 9.68576e-6 -0.6041141 -0.6329026 0.484232 0.1136555 -0.9934746 0.009535431 -0.9848124 1.22922e-4 0.1736223 -0.2075744 -0.646885 -0.7337934 0.1983438 -0.9801283 0.002888441 0.0306378 -0.5481172 0.8358402 -0.854949 -0.490727 0.1680757 -0.4637587 0.3065624 0.8312325</float_array>
          <technique_common>
            <accessor source="#gun_base-mesh-normals-array" count="369" stride="3">
              <param name="X" type="float"/>
              <param name="Y" type="float"/>
              <param name="Z" type="float"/>
            </accessor>
          </technique_common>
        </source>
        <source id="gun_base-mesh-map-0">
          <float_array id="gun_base-mesh-map-0-array" count="1956">0.8554687 0.3359375 0.84375 0.3242188 0.8554687 0.2148438 0.84375 0.3242188 0.84375 0.2265625 0.8554687 0.2148438 0.8554687 0.2148438 0.84375 0.2265625 0.84375 0.203125 0.8554687 0.3359375 0.8554687 0.2148438 0.9804687 0.3359375 0.9804687 0.3359375 0.8554687 0.2148438 0.9804687 0.2148438 0.8554687 0.2148438 0.8671875 0.203125 0.9804687 0.2148438 0.9804687 0.2148438 0.8671875 0.203125 0.96875 0.203125 0.84375 0.203125 0.8671875 0.203125 0.8554687 0.2148438 0.84375 0.3242188 0.8554687 0.3359375 0.84375 0.3476563 0.8554687 0.3359375 0.8671875 0.3476563 0.84375 0.3476563 0.8671875 0.3476563 0.8554687 0.3359375 0.96875 0.3476563 0.8554687 0.3359375 0.9804687 0.3359375 0.96875 0.3476563 0.96875 0.3476563 0.9804687 0.3359375 0.9921875 0.3476563 0.9921875 0.2265625 0.9804687 0.2148438 0.9921875 0.203125 0.9921875 0.203125 0.9804687 0.2148438 0.96875 0.203125 0.9921875 0.3476563 0.9804687 0.3359375 0.9921875 0.3242188 0.9921875 0.3242188 0.9804687 0.3359375 0.9921875 0.2265625 0.9804687 0.3359375 0.9804687 0.2148438 0.9921875 0.2265625 0.3984375 0.6484375 0.390625 0.6484375 0.3984375 0.5390625 0.390625 0.6484375 0.390625 0.5390625 0.3984375 0.5390625 0.3984375 0.5390625 0.390625 0.5390625 0.3984375 0.3867188 0.390625 0.5390625 0.390625 0.3867188 0.3984375 0.3867188 0.3984375 0.3867188 0.390625 0.3867188 0.3984375 0.2773438 0.390625 0.3867188 0.390625 0.2773438 0.3984375 0.2773438 0.7851563 0.4765625 0.7851563 0.4492188 0.8007813 0.4765625 0.7851563 0.4492188 0.8007813 0.4492188 0.8007813 0.4765625 0.84375 0.5234375 0.9492187 0.5195313 0.8242187 0.59375 0.9492187 0.5195313 0.9921875 0.6015625 0.8242187 0.59375 0.8242187 0.59375 0.9921875 0.6015625 0.8242187 0.609375 0.9921875 0.6015625 0.9492187 0.6835938 0.8242187 0.609375 0.8242187 0.609375 0.9492187 0.6835938 0.84375 0.6796875 0.8242187 0.5234375 0.8125 0.5234375 0.8242187 0.453125 0.8242187 0.453125 0.8125 0.5234375 0.8125 0.453125 0.8242187 0.390625 0.8125 0.390625 0.8242187 0.3203125 0.8242187 0.3203125 0.8125 0.390625 0.8125 0.3203125 0.6425489 0.1757812 0.6437213 0.1992188 0.7617187 0.1757812 0.7617187 0.1757812 0.6437213 0.1992188 0.7137567 0.1992188 0.6437213 0.1992188 0.7136735 0.2069913 0.7137567 0.1992188 0.7137567 0.1992188 0.7136735 0.2069913 0.7617187 0.1992188 0.7136735 0.2069913 0.7617187 0.265625 0.7617187 0.1992188 0.7617187 0.1992188 0.7617187 0.265625 0.7890625 0.2539063 0.7617187 0.265625 0.7617187 0.2695313 0.7890625 0.2539063 0.7890625 0.2539063 0.7617187 0.2695313 0.78125 0.265625 0.7137567 0.1992188 0.7617187 0.1992188 0.7617187 0.1757812 0.7617187 0.1757812 0.7617187 0.1992188 0.7773438 0.1992188 0.7617187 0.1992188 0.7890625 0.2539063 0.7773438 0.1992188 0.8125 0.5234375 0.8242187 0.5234375 0.8125 0.59375 0.8242187 0.5234375 0.8242187 0.59375 0.8125 0.59375 0.8125 0.59375 0.8242187 0.59375 0.8125 0.609375 0.8242187 0.59375 0.8242187 0.609375 0.8125 0.609375 0.8125 0.609375 0.8242187 0.609375 0.8125 0.6796875 0.8242187 0.609375 0.8242187 0.6796875 0.8125 0.6796875 0.8125 0.390625 0.8242187 0.390625 0.8125 0.421875 0.8242187 0.390625 0.8242187 0.421875 0.8125 0.421875 0.8125 0.421875 0.8242187 0.421875 0.8125 0.453125 0.8242187 0.421875 0.8242187 0.453125 0.8125 0.453125 0.7136735 0.2069913 0.7139263 0.265625 0.7617187 0.265625 0.7139263 0.265625 0.7144386 0.2695313 0.7617187 0.265625 0.7617187 0.265625 0.7144386 0.2695313 0.7617187 0.2695313 0.6499663 0.2100484 0.6470118 0.1992188 0.7126126 0.2100466 0.7126126 0.2100466 0.6470118 0.1992188 0.7617187 0.1992188 0.6470118 0.1992188 0.6419729 0.1757812 0.7617187 0.1992188 0.7617187 0.1992188 0.6419729 0.1757812 0.7617187 0.1757812 0.6419729 0.1757812 0.6425489 0.1484375 0.7617187 0.1757812 0.7617187 0.1757812 0.6425489 0.1484375 0.7617187 0.1484375 0.7617187 0.1484375 0.7773438 0.140625 0.7617187 0.1757812 0.7617187 0.1757812 0.7773438 0.140625 0.7773438 0.1835938 0.7773438 0.1835938 0.7773438 0.140625 0.8320313 0.1835938 0.7773438 0.140625 0.8320313 0.140625 0.8320313 0.1835938 0.8320313 0.140625 0.8398438 0.1484375 0.8320313 0.1835938 0.8320313 0.1835938 0.8398438 0.1484375 0.8398438 0.1757812 0.5703125 0.9257813 0.5703125 0.9179687 0.9453125 0.9257813 0.9453125 0.9257813 0.5703125 0.9179687 0.9453125 0.9101563 0.5703125 0.9179687 0.5703125 0.9101563 0.9453125 0.9101563 0.9453125 0.9101563 0.9648438 0.9101563 0.9453125 0.9257813 0.9648438 0.9101563 0.9648438 0.9257813 0.9453125 0.9257813 0.9648438 0.9492187 0.9882813 0.9492187 0.9648438 0.9648438 0.9882813 0.9492187 0.9882813 0.9648438 0.9648438 0.9648438 0.9648438 0.9492187 0.9648438 0.9648438 0.9453125 0.9492187 0.9648438 0.9648438 0.9453125 0.9648438 0.9453125 0.9492187 0.9453125 0.9492187 0.9453125 0.9648438 0.5703125 0.9570313 0.9453125 0.9648438 0.5703125 0.9648438 0.5703125 0.9570313 0.9648438 0.9492187 0.9648438 0.9648438 0.9453125 0.9492187 0.9648438 0.9648438 0.9453125 0.9648438 0.9453125 0.9492187 0.9453125 0.9492187 0.9453125 0.9648438 0.5703125 0.9570313 0.9453125 0.9648438 0.5703125 0.9648438 0.5703125 0.9570313 0.9648438 0.9492187 0.9882813 0.9492187 0.9648438 0.9648438 0.9882813 0.9492187 0.9882813 0.9648438 0.9648438 0.9648438 0.5703125 0.9570313 0.5703125 0.9492187 0.9453125 0.9492187 0.9648438 0.9882813 0.9453125 0.9882813 0.9648438 0.9648438 0.9648438 0.9648438 0.9453125 0.9882813 0.9453125 0.9648438 0.9453125 0.9882813 0.5703125 0.9882813 0.9453125 0.9648438 0.9453125 0.9648438 0.5703125 0.9882813 0.5703125 0.9648438 0.9648438 0.9492187 0.9453125 0.9492187 0.9648438 0.9257813 0.9648438 0.9257813 0.9453125 0.9492187 0.9453125 0.9257813 0.9453125 0.9492187 0.5703125 0.9492187 0.9453125 0.9257813 0.9453125 0.9257813 0.5703125 0.9492187 0.5703125 0.9257813 0.5703125 0.9492187 0.5585938 0.9296875 0.5703125 0.9257813 0.5703125 0.9257813 0.5585938 0.9296875 0.546875 0.9101563 0.5585938 0.9296875 0.546875 0.921875 0.546875 0.9101563 0.546875 0.9101563 0.546875 0.921875 0.5234375 0.9257813 0.546875 0.921875 0.5351563 0.9296875 0.5234375 0.9257813 0.5234375 0.9257813 0.5351563 0.9296875 0.5234375 0.9492187 0.5351563 0.9296875 0.5351563 0.9453125 0.5234375 0.9492187 0.5234375 0.9492187 0.5351563 0.9453125 0.546875 0.9648438 0.5351563 0.9453125 0.546875 0.953125 0.546875 0.9648438 0.546875 0.9648438 0.546875 0.953125 0.5703125 0.9492187 0.5703125 0.9492187 0.546875 0.953125 0.5585938 0.9453125 0.5585938 0.9453125 0.546875 0.953125 0.546875 0.9375 0.546875 0.953125 0.5351563 0.9453125 0.546875 0.9375 0.546875 0.9375 0.5351563 0.9453125 0.5351563 0.9296875 0.7851563 0.4765625 0.7578125 0.4765625 0.7851563 0.4492188 0.7851563 0.4492188 0.7578125 0.4765625 0.7578125 0.4492188 0.7578125 0.4765625 0.5820313 0.4765625 0.7578125 0.4492188 0.7578125 0.4492188 0.5820313 0.4765625 0.5820313 0.4492188 0.5820313 0.4765625 0.5390625 0.4765625 0.5820313 0.4492188 0.5820313 0.4492188 0.5390625 0.4765625 0.5390625 0.4492188 0.5390625 0.4765625 0.4101563 0.5351563 0.5390625 0.4492188 0.5390625 0.4492188 0.4101563 0.5351563 0.4101563 0.390625 0.4101563 0.5351563 0.3984375 0.5390625 0.4101563 0.390625 0.3984375 0.5390625 0.3984375 0.3867188 0.4101563 0.390625 0.4101563 0.390625 0.3984375 0.3867188 0.515625 0.2851563 0.3984375 0.3867188 0.5078125 0.2773438 0.515625 0.2851563 0.5390625 0.4765625 0.5820313 0.4765625 0.5859375 0.4882813 0.5820313 0.4765625 0.7578125 0.4765625 0.5859375 0.4882813 0.5859375 0.4882813 0.7578125 0.4765625 0.7578125 0.4960938 0.7578125 0.4765625 0.7851563 0.4765625 0.7578125 0.4960938 0.7578125 0.4960938 0.7851563 0.4765625 0.7851563 0.4960938 0.3984375 0.5390625 0.4101563 0.5351563 0.5078125 0.6484375 0.5078125 0.6484375 0.4101563 0.5351563 0.515625 0.640625 0.4101563 0.5351563 0.5390625 0.4765625 0.515625 0.640625 0.515625 0.640625 0.5390625 0.4765625 0.609375 0.5585938 0.5390625 0.4765625 0.5859375 0.4882813 0.609375 0.5585938 0.59375 0.5117188 0.5859375 0.4882813 0.7578125 0.4960938 0.296875 0.8750001 0.265625 0.8945313 0.2460938 0.8750001 0.2460938 0.8750001 0.265625 0.8945313 0.1132812 0.96875 0.265625 0.8945313 0.1328125 0.9960938 0.1132812 0.96875 0.08984375 0.984375 0.0078125 0.8750001 0.2460938 0.8750001 0.0078125 0.8750001 0.2421875 0.84375 0.2460938 0.8750001 0.2460938 0.8750001 0.2421875 0.84375 0.296875 0.8750001 0.2421875 0.84375 0.296875 0.84375 0.296875 0.8750001 0.296875 0.84375 0.4023438 0.84375 0.296875 0.8750001 0.296875 0.8750001 0.4023438 0.84375 0.4023438 0.8750001 0.4023438 0.84375 0.8007813 0.84375 0.4023438 0.8750001 0.4023438 0.8750001 0.8007813 0.84375 0.8007813 0.8750001 0.8007813 0.84375 0.9882813 0.84375 0.8007813 0.8750001 0.8007813 0.8750001 0.9882813 0.84375 0.9882813 0.8750001 0.9882813 0.84375 0.8007813 0.84375 0.9882813 0.8085938 0.9882813 0.8085938 0.8007813 0.84375 0.8007813 0.8085938 0.8007813 0.84375 0.4023438 0.84375 0.8007813 0.8085938 0.8007813 0.8085938 0.4023438 0.84375 0.4023438 0.8085938 0.4023438 0.84375 0.296875 0.84375 0.4023438 0.8085938 0.4023438 0.8085938 0.296875 0.84375 0.296875 0.8085938 0.296875 0.84375 0.2421875 0.84375 0.296875 0.8085938 0.2421875 0.84375 0.0078125 0.8085938 0.296875 0.8085938 0.296875 0.8085938 0.0078125 0.8085938 0.296875 0.7734375 0.0078125 0.8085938 0.0078125 0.7734375 0.296875 0.7734375 0.296875 0.7734375 0.0078125 0.7734375 0.2460938 0.7421875 0.0078125 0.7734375 0.0078125 0.7421875 0.2460938 0.7421875 0.2460938 0.7421875 0.0078125 0.7421875 0.2460938 0.7148438 0.0078125 0.7421875 0.0078125 0.7148438 0.2460938 0.7148438 0.2460938 0.7148438 0.0078125 0.7148438 0.08984375 0.6054688 0.0078125 0.8085938 0.2421875 0.84375 0.0078125 0.84375 0.0078125 0.84375 0.2421875 0.84375 0.0078125 0.8750001 0.921875 0.1132812 0.6796875 0.1132812 0.921875 0.07421875 0.921875 0.07421875 0.6796875 0.1132812 0.6796875 0.07421875 0.6796875 0.1132812 0.3203125 0.1132812 0.6796875 0.07421875 0.6796875 0.07421875 0.3203125 0.1132812 0.3125 0.07421875 0.3203125 0.1132812 0.2226562 0.1796875 0.3125 0.07421875 0.3125 0.07421875 0.2226562 0.1796875 0.21875 0.140625 0.2226562 0.1796875 0.21875 0.1796875 0.21875 0.140625 0.21875 0.1796875 0.1835938 0.1796875 0.21875 0.140625 0.21875 0.140625 0.1835938 0.1796875 0.1835938 0.140625 0.1835938 0.1796875 0.01171875 0.3125 0.1835938 0.140625 0.1835938 0.140625 0.01171875 0.3125 0.01171875 0.01171875 0.9453125 0.9101563 0.9648438 0.9101563 0.9453125 0.9257813 0.9453125 0.9257813 0.9648438 0.9101563 0.9648438 0.9257813 0.96875 0.3476563 0.9804687 0.359375 0.8671875 0.3476563 0.8671875 0.3476563 0.9804687 0.359375 0.8554687 0.359375 0.9804687 0.359375 0.9179687 0.421875 0.8554687 0.359375 0.8554687 0.359375 0.9179687 0.421875 0.8554687 0.4804688 0.9179687 0.421875 0.9804687 0.4804688 0.8554687 0.4804688 0.9804687 0.4804688 0.96875 0.4921875 0.8554687 0.4804688 0.8554687 0.4804688 0.96875 0.4921875 0.8671875 0.4921875 0.9921875 0.46875 0.9804687 0.4804688 0.9921875 0.3710938 0.9921875 0.3710938 0.9804687 0.4804688 0.9804687 0.359375 0.9804687 0.4804688 0.9179687 0.421875 0.9804687 0.359375 0.8554687 0.4804688 0.84375 0.46875 0.8554687 0.359375 0.84375 0.46875 0.84375 0.3710938 0.8554687 0.359375 0.28125 0.6484375 0.2734375 0.640625 0.390625 0.5390625 0.2734375 0.640625 0.3789063 0.5351563 0.390625 0.5390625 0.390625 0.5390625 0.3789063 0.5351563 0.390625 0.3867188 0.3789063 0.5351563 0.3789063 0.390625 0.390625 0.3867188 0.390625 0.3867188 0.3789063 0.390625 0.28125 0.2773438 0.3789063 0.390625 0.2734375 0.2851563 0.28125 0.2773438 0.5703125 0.9492187 0.5585938 0.9453125 0.5585938 0.9296875 0.5585938 0.9453125 0.546875 0.9375 0.5585938 0.9296875 0.5585938 0.9296875 0.546875 0.9375 0.546875 0.921875 0.546875 0.9375 0.5351563 0.9296875 0.546875 0.921875 0.1757812 0.3710938 0.2734375 0.2851563 0.203125 0.4375 0.2734375 0.2851563 0.3789063 0.390625 0.203125 0.4375 0.203125 0.4375 0.3789063 0.390625 0.203125 0.4492188 0.3789063 0.390625 0.203125 0.4765625 0.203125 0.4492188 0.203125 0.4765625 0.02734375 0.4765625 0.203125 0.4492188 0.203125 0.4492188 0.02734375 0.4765625 0.02734375 0.4492188 0.02734375 0.4765625 0.01171875 0.4765625 0.02734375 0.4492188 0.02734375 0.4492188 0.01171875 0.4765625 0.01171875 0.4492188 0.3789063 0.390625 0.3789063 0.5351563 0.203125 0.4765625 0.203125 0.4765625 0.3789063 0.5351563 0.203125 0.4882813 0.3789063 0.5351563 0.2734375 0.640625 0.203125 0.4882813 0.203125 0.4882813 0.2734375 0.640625 0.1757812 0.5546875 0.9511719 0.06640625 0.9902343 0.06640625 0.9511719 0.1210937 0.9511719 0.1210937 0.9902343 0.06640625 0.9902343 0.1210937 0.9902343 0.1210937 0.9902343 0.06640625 0.9960938 0.1132812 0.9902343 0.06640625 0.9960938 0.07421875 0.9960938 0.1132812 0.4101563 0.390625 0.515625 0.2851563 0.5390625 0.4492188 0.515625 0.2851563 0.6132813 0.3710938 0.5390625 0.4492188 0.6132813 0.3710938 0.5859375 0.4375 0.5390625 0.4492188 0.5390625 0.4492188 0.5859375 0.4375 0.5820313 0.4492188 0.5859375 0.4375 0.7578125 0.4492188 0.5820313 0.4492188 0.984375 0.07421875 0.984375 0.1132812 0.953125 0.05859375 0.984375 0.1132812 0.953125 0.1289062 0.953125 0.05859375 0.953125 0.1289062 0.921875 0.1132812 0.953125 0.05859375 0.953125 0.05859375 0.921875 0.1132812 0.921875 0.07421875 0.59375 0.4179688 0.7578125 0.4296875 0.5859375 0.4375 0.5859375 0.4375 0.7578125 0.4296875 0.7578125 0.4492188 0.7578125 0.4492188 0.7578125 0.4296875 0.7851563 0.4492188 0.7578125 0.4296875 0.7851563 0.4296875 0.7851563 0.4492188 0.1757812 0.3710938 0.1640625 0.3515625 0.2734375 0.2851563 0.1640625 0.3515625 0.2578125 0.2695313 0.2734375 0.2851563 0.2578125 0.2695313 0.265625 0.2695313 0.2734375 0.2851563 0.2734375 0.2851563 0.265625 0.2695313 0.2734375 0.2773438 0.9882813 0.8085938 0.8007813 0.8085938 0.9882813 0.7734375 0.9882813 0.7734375 0.8007813 0.8085938 0.8007813 0.7734375 0.8007813 0.8085938 0.4023438 0.8085938 0.8007813 0.7734375 0.8007813 0.7734375 0.4023438 0.8085938 0.4023438 0.7734375 0.4023438 0.8085938 0.296875 0.8085938 0.4023438 0.7734375 0.296875 0.8085938 0.296875 0.7734375 0.4023438 0.7734375 0.4023438 0.7734375 0.296875 0.7734375 0.4023438 0.7421875 0.4023438 0.7421875 0.296875 0.7734375 0.296875 0.7421875 0.296875 0.7734375 0.2460938 0.7421875 0.296875 0.7421875 0.7126126 0.2100466 0.7617187 0.1992188 0.713554 0.265625 0.7617187 0.1992188 0.7617187 0.265625 0.713554 0.265625 0.713554 0.265625 0.7617187 0.265625 0.7617187 0.2695313 0.7617187 0.2695313 0.7617187 0.265625 0.78125 0.265625 0.78125 0.265625 0.7617187 0.265625 0.7890625 0.2539063 0.7617187 0.265625 0.7617187 0.1992188 0.7890625 0.2539063 0.7890625 0.2539063 0.7617187 0.1992188 0.7773438 0.1992188 0.7617187 0.1992188 0.7617187 0.1757812 0.7773438 0.1992188 0.1132812 0.4960938 0.1171875 0.5 0.109375 0.5234375 0.1171875 0.5 0.1757812 0.5546875 0.109375 0.5234375 0.109375 0.5234375 0.1757812 0.5546875 0.1640625 0.5742188 0.1640625 0.5742188 0.1757812 0.5546875 0.2578125 0.65625 0.1757812 0.5546875 0.2734375 0.640625 0.2578125 0.65625 0.2734375 0.640625 0.2734375 0.6484375 0.2578125 0.65625 0.2578125 0.65625 0.2734375 0.6484375 0.265625 0.65625 0.713554 0.265625 0.7617187 0.2695313 0.7140741 0.2695313 0.7140741 0.2695313 0.7617187 0.2695313 0.7144386 0.3164063 0.7144386 0.3164063 0.7617187 0.2695313 0.7617187 0.3164063 0.7617187 0.2695313 0.78125 0.28125 0.7617187 0.3164063 0.7617187 0.3164063 0.78125 0.28125 0.78125 0.3046875 0.9882813 0.7734375 0.8007813 0.7734375 0.9882813 0.7421875 0.9882813 0.7421875 0.8007813 0.7734375 0.8007813 0.7421875 0.8007813 0.7421875 0.8007813 0.7734375 0.4023438 0.7421875 0.8007813 0.7734375 0.4023438 0.7734375 0.4023438 0.7421875 0.546875 0.9375 0.546875 0.953125 0.5351563 0.9453125 0.546875 0.953125 0.546875 0.9648438 0.5351563 0.9453125 0.546875 0.9648438 0.5234375 0.9492187 0.5351563 0.9453125 0.5351563 0.9453125 0.5234375 0.9492187 0.5351563 0.9296875 0.5234375 0.9492187 0.5234375 0.9257813 0.5351563 0.9296875 0.5351563 0.9296875 0.5234375 0.9257813 0.546875 0.921875 0.5234375 0.9257813 0.546875 0.9101563 0.546875 0.921875 0.546875 0.921875 0.546875 0.9101563 0.5585938 0.9296875 0.546875 0.9101563 0.5703125 0.9257813 0.5585938 0.9296875 0.5585938 0.9296875 0.5703125 0.9257813 0.5585938 0.9453125 0.5585938 0.9453125 0.5703125 0.9257813 0.5703125 0.9492187 0.5703125 0.9492187 0.5703125 0.9257813 0.9453125 0.9492187 0.5703125 0.9257813 0.9453125 0.9257813 0.9453125 0.9492187 0.9453125 0.9257813 0.9648438 0.9257813 0.9453125 0.9492187 0.9453125 0.9492187 0.9648438 0.9257813 0.9648438 0.9492187 0.546875 0.9648438 0.546875 0.953125 0.5703125 0.9492187 0.5703125 0.9492187 0.546875 0.953125 0.5585938 0.9453125 0.546875 0.953125 0.546875 0.9375 0.5585938 0.9453125 0.5585938 0.9453125 0.546875 0.9375 0.5585938 0.9296875 0.5351563 0.9453125 0.5351563 0.9296875 0.546875 0.9375 0.546875 0.9375 0.5351563 0.9296875 0.546875 0.921875 0.9648438 0.9882813 0.9453125 0.9882813 0.9648438 0.9648438 0.9648438 0.9648438 0.9453125 0.9882813 0.9453125 0.9648438 0.9453125 0.9882813 0.5703125 0.9882813 0.9453125 0.9648438 0.9453125 0.9648438 0.5703125 0.9882813 0.5703125 0.9648438 0.9882813 0.7421875 0.8007813 0.7421875 0.9882813 0.7148438 0.9882813 0.7148438 0.8007813 0.7421875 0.8007813 0.7148438 0.8007813 0.7148438 0.8007813 0.7421875 0.4023438 0.7148438 0.8007813 0.7421875 0.4023438 0.7421875 0.4023438 0.7148438 0.4023438 0.7421875 0.296875 0.7421875 0.4023438 0.7148438 0.4023438 0.7148438 0.296875 0.7421875 0.296875 0.7148438 0.296875 0.7148438 0.296875 0.7421875 0.2851563 0.7148438 0.296875 0.7421875 0.2460938 0.7421875 0.2851563 0.7148438 0.2460938 0.7421875 0.2460938 0.7148438 0.2851563 0.7148438 0.2851563 0.7148438 0.2460938 0.7148438 0.265625 0.6875 0.265625 0.6875 0.2460938 0.7148438 0.1328125 0.59375 0.2460938 0.7148438 0.1132812 0.6210938 0.1328125 0.59375 0.8125 0.609375 0.7929687 0.6796875 0.7734375 0.6015625 0.7929687 0.6796875 0.6875 0.6835938 0.7734375 0.6015625 0.6875 0.6835938 0.6445313 0.6015625 0.7734375 0.6015625 0.6445313 0.6015625 0.6875 0.5195313 0.7734375 0.6015625 0.6875 0.5195313 0.7929687 0.5234375 0.7734375 0.6015625 0.7929687 0.5234375 0.8125 0.59375 0.7734375 0.6015625 0.7734375 0.6015625 0.8125 0.59375 0.8125 0.609375 0.1132812 0.4296875 0.109375 0.4023438 0.1171875 0.4257813 0.1171875 0.4257813 0.109375 0.4023438 0.1757812 0.3710938 0.109375 0.4023438 0.1640625 0.3515625 0.1757812 0.3710938 0.8945313 0.1054687 0.8945313 0.08203125 0.9023438 0.1210937 0.8945313 0.08203125 0.9023438 0.06640625 0.9023438 0.1210937 0.9023438 0.06640625 0.9140625 0.06640625 0.9023438 0.1210937 0.9023438 0.1210937 0.9140625 0.06640625 0.9140625 0.1210937 0.9140625 0.06640625 0.9511719 0.06640625 0.9140625 0.1210937 0.9140625 0.1210937 0.9511719 0.06640625 0.9511719 0.1210937 0.4179688 0.9882813 0.3085938 0.90625 0.28125 0.9882813 0.28125 0.9882813 0.3085938 0.90625 0.4179688 0.9882813 0.6437213 0.1992188 0.6474145 0.2070156 0.7136735 0.2069913 0.5703125 0.9101563 0.9453125 0.9101563 0.5703125 0.9179687 0.9453125 0.9101563 0.9453125 0.9257813 0.5703125 0.9179687 0.5703125 0.9179687 0.9453125 0.9257813 0.5703125 0.9257813 0.5585938 0.9296875 0.546875 0.9375 0.546875 0.921875 0.5703125 0.9570313 0.5703125 0.9492187 0.9453125 0.9492187</float_array>
          <technique_common>
            <accessor source="#gun_base-mesh-map-0-array" count="978" stride="2">
              <param name="S" type="float"/>
              <param name="T" type="float"/>
            </accessor>
          </technique_common>
        </source>
        <vertices id="gun_base-mesh-vertices">
          <input semantic="POSITION" source="#gun_base-mesh-positions"/>
        </vertices>
        <triangles material="h_turret_mp_tripod-material" count="326">
          <input semantic="VERTEX" source="#gun_base-mesh-vertices" offset="0"/>
          <input semantic="NORMAL" source="#gun_base-mesh-normals" offset="1"/>
          <input semantic="TEXCOORD" source="#gun_base-mesh-map-0" offset="2" set="0"/>
          <p>0 0 0 1 1 1 2 2 2 1 1 3 3 3 4 2 2 5 2 2 6 3 3 7 4 4 8 0 5 9 6 6 10 5 7 11 5 7 12 6 6 13 7 8 14 6 6 15 8 9 16 7 8 17 7 8 18 8 9 19 9 10 20 4 11 21 8 9 22 6 6 23 1 12 24 10 13 25 11 14 26 10 13 27 12 15 28 11 14 29 12 16 30 0 5 31 13 17 32 0 5 33 5 7 34 13 17 35 13 17 36 5 7 37 14 18 38 15 19 39 17 20 40 16 21 41 16 21 42 17 20 43 9 22 44 14 23 45 19 24 46 18 25 47 18 25 48 19 24 49 15 26 50 19 24 51 7 27 52 15 26 53 20 28 54 21 29 55 22 30 56 21 29 57 23 31 58 22 30 59 22 30 60 23 31 61 24 32 62 23 31 63 25 33 64 24 32 65 24 32 66 25 33 67 26 34 68 25 33 69 27 35 70 26 34 71 28 36 72 29 36 73 30 36 74 29 37 75 31 37 76 30 37 77 32 38 78 33 38 79 34 38 80 33 39 81 35 39 82 34 39 83 34 40 84 35 40 85 36 40 86 35 41 87 37 41 88 36 41 89 36 42 90 37 42 91 38 42 92 39 43 93 41 43 94 40 43 95 40 44 96 41 44 97 42 44 98 43 45 99 45 45 100 44 45 101 44 46 102 45 46 103 46 46 104 47 47 105 49 48 106 48 49 107 48 49 108 49 48 109 50 50 110 49 48 111 51 51 112 50 50 113 50 50 114 51 51 115 52 52 116 51 51 117 53 53 118 52 52 119 52 52 120 53 53 121 54 54 122 53 53 123 55 55 124 54 54 125 54 54 126 55 55 127 56 56 128 50 50 129 52 52 130 48 49 131 48 49 132 52 52 133 57 57 134 52 52 135 54 54 136 57 57 137 58 58 138 59 59 139 60 60 140 59 59 141 61 61 142 60 60 143 60 60 144 61 61 145 62 62 146 61 61 147 63 63 148 62 62 149 62 62 150 63 63 151 64 64 152 63 63 153 65 65 154 64 64 155 66 66 156 67 67 157 68 68 158 67 67 159 69 69 160 68 68 161 68 68 162 69 69 163 70 70 164 69 69 165 71 71 166 70 70 167 51 51 168 72 72 169 53 53 170 72 72 171 73 73 172 53 53 173 53 53 174 73 73 175 55 55 176 74 74 177 76 75 178 75 76 179 75 76 180 76 75 181 77 77 182 76 75 183 78 78 184 77 77 185 77 77 186 78 78 187 79 79 188 78 78 189 80 80 190 79 79 191 79 79 192 80 80 193 81 81 194 81 82 195 83 83 196 82 84 197 82 84 198 83 83 199 84 85 200 84 85 201 83 83 202 85 86 203 83 83 204 86 87 205 85 86 206 86 87 207 87 88 208 85 86 209 85 86 210 87 88 211 88 89 212 89 90 213 91 91 214 90 92 215 90 92 216 91 91 217 92 93 218 91 91 219 93 94 220 92 93 221 92 93 222 94 95 223 90 92 224 94 95 225 95 96 226 90 92 227 96 97 228 97 97 229 98 97 230 97 98 231 99 98 232 98 98 233 100 99 234 101 100 235 102 101 236 101 100 237 103 102 238 102 101 239 102 101 240 103 102 241 104 103 242 103 102 243 105 104 244 104 103 245 106 105 246 107 106 247 108 107 248 107 106 249 109 108 250 108 107 251 108 107 252 109 108 253 110 109 254 109 108 255 111 110 256 110 109 257 112 111 258 113 112 259 114 113 260 113 114 261 115 115 262 114 116 263 104 103 264 116 117 265 102 101 266 117 118 267 119 119 268 118 120 269 118 120 270 119 119 271 120 121 272 119 119 273 121 122 274 120 121 275 120 121 276 121 122 277 111 123 278 100 124 279 123 125 280 122 126 281 122 126 282 123 125 283 124 127 284 123 125 285 116 128 286 124 127 287 124 127 288 116 128 289 125 129 290 116 128 291 126 130 292 125 129 293 125 129 294 126 130 295 127 131 296 126 130 297 128 132 298 127 131 299 127 131 300 128 132 301 129 133 302 128 132 303 130 134 304 129 133 305 129 133 306 130 134 307 131 135 308 130 134 309 132 136 310 131 135 311 131 135 312 132 136 313 133 137 314 132 136 315 134 138 316 133 137 317 133 137 318 134 138 319 135 139 320 135 139 321 134 138 322 136 140 323 136 140 324 134 138 325 137 141 326 134 138 327 132 136 328 137 141 329 137 141 330 132 136 331 130 134 332 138 142 333 140 143 334 139 144 335 139 144 336 140 143 337 141 145 338 140 143 339 142 146 340 141 145 341 141 145 342 142 146 343 143 147 344 142 146 345 144 148 346 143 147 347 143 147 348 144 148 349 145 149 350 144 148 351 146 150 352 145 149 353 145 149 354 146 150 355 147 151 356 146 150 357 148 152 358 147 151 359 148 152 360 149 153 361 147 151 362 147 151 363 149 153 364 150 154 365 149 153 366 151 155 367 150 154 368 144 148 369 142 146 370 152 156 371 142 146 372 153 157 373 152 156 374 152 156 375 153 157 376 154 158 377 153 157 378 155 159 379 154 158 380 154 158 381 155 159 382 156 160 383 148 152 384 146 150 385 157 161 386 157 161 387 146 150 388 158 162 389 146 150 390 144 148 391 158 162 392 158 162 393 144 148 394 159 163 395 144 148 396 160 164 397 159 163 398 161 165 399 152 156 400 154 158 401 162 166 402 164 167 403 163 168 404 163 168 405 164 167 406 165 169 407 164 167 408 166 170 409 165 169 410 167 171 411 168 172 412 163 168 413 168 172 414 169 173 415 163 168 416 163 168 417 169 173 418 162 166 419 169 173 420 170 174 421 162 166 422 170 174 423 171 175 424 162 166 425 162 166 426 171 175 427 172 176 428 171 175 429 173 177 430 172 176 431 172 176 432 173 177 433 174 178 434 173 177 435 175 179 436 174 178 437 174 178 438 175 179 439 176 180 440 175 179 441 173 177 442 177 181 443 177 181 444 173 177 445 178 182 446 173 177 447 179 183 448 178 182 449 178 182 450 179 183 451 180 184 452 179 183 453 181 185 454 180 184 455 180 184 456 181 185 457 182 186 458 181 185 459 169 173 460 182 186 461 169 173 462 183 187 463 182 186 464 182 186 465 183 187 466 184 188 467 183 187 468 185 189 469 184 188 470 184 188 471 185 189 472 186 190 473 185 189 474 187 191 475 186 190 476 186 190 477 187 191 478 188 192 479 187 191 480 189 193 481 188 192 482 188 192 483 189 193 484 190 194 485 183 187 486 169 173 487 191 195 488 191 195 489 169 173 490 168 172 491 192 196 492 194 197 493 193 198 494 193 198 495 194 197 496 195 199 497 194 197 498 196 200 499 195 199 500 195 199 501 196 200 502 197 201 503 196 200 504 198 202 505 197 201 506 197 201 507 198 202 508 199 203 509 198 202 510 200 204 511 199 203 512 200 204 513 201 205 514 199 203 515 199 203 516 201 205 517 202 206 518 201 205 519 203 207 520 202 206 521 202 206 522 203 207 523 204 208 524 205 209 525 207 210 526 206 211 527 206 211 528 207 210 529 208 212 530 209 213 531 211 213 532 210 213 533 210 214 534 211 214 535 212 214 536 211 215 537 213 215 538 212 215 539 212 216 540 213 216 541 214 216 542 213 217 543 215 217 544 214 217 545 215 218 546 216 218 547 214 218 548 214 219 549 216 219 550 217 219 551 218 220 552 215 220 553 219 220 554 219 221 555 215 221 556 211 221 557 215 222 558 213 222 559 211 222 560 214 223 561 220 223 562 212 223 563 220 224 564 221 224 565 212 224 566 222 225 567 223 226 568 224 227 569 223 226 570 225 228 571 224 227 572 224 227 573 225 228 574 226 229 575 225 228 576 227 230 577 226 229 578 226 229 579 227 230 580 228 231 581 227 230 582 229 232 583 228 231 584 116 128 585 136 233 586 126 130 587 136 233 588 230 234 589 126 130 590 126 130 591 230 234 592 128 132 593 230 234 594 130 134 595 128 132 596 231 235 597 229 232 598 232 236 599 229 232 600 227 230 601 232 236 602 232 236 603 227 230 604 233 237 605 227 230 606 234 238 607 233 237 608 234 238 609 235 239 610 233 237 611 233 237 612 235 239 613 236 240 614 235 239 615 237 241 616 236 240 617 236 240 618 237 241 619 238 242 620 227 230 621 225 228 622 234 238 623 234 238 624 225 228 625 239 243 626 225 228 627 223 226 628 239 243 629 239 243 630 223 226 631 240 244 632 241 245 633 243 246 634 242 247 635 242 247 636 243 246 637 244 248 638 244 248 639 243 246 640 245 249 641 243 246 642 246 250 643 245 249 644 147 151 645 150 154 646 145 149 647 150 154 648 247 251 649 145 149 650 247 251 651 248 252 652 145 149 653 145 149 654 248 252 655 143 147 656 248 252 657 249 253 658 143 147 659 250 254 660 251 255 661 252 256 662 251 255 663 253 257 664 252 256 665 253 257 666 254 258 667 252 256 668 252 256 669 254 258 670 193 259 671 255 260 672 257 261 673 256 262 674 256 262 675 257 261 676 249 263 677 249 263 678 257 261 679 258 264 680 257 261 681 259 265 682 258 264 683 260 266 684 261 267 685 262 268 686 261 267 687 263 269 688 262 268 689 263 269 690 264 270 691 262 268 692 262 268 693 264 270 694 265 271 695 177 181 696 178 182 697 266 272 698 266 272 699 178 182 700 267 273 701 178 182 702 180 184 703 267 273 704 267 273 705 180 184 706 268 274 707 180 184 708 182 186 709 268 274 710 182 186 711 184 188 712 268 274 713 268 274 714 184 188 715 269 275 716 269 275 717 184 188 718 270 276 719 184 188 720 186 190 721 270 276 722 75 76 723 77 77 724 271 277 725 77 77 726 272 278 727 271 277 728 271 277 729 272 278 730 273 279 731 273 279 732 272 278 733 274 280 734 274 280 735 272 278 736 275 281 737 272 278 738 77 77 739 275 281 740 275 281 741 77 77 742 276 282 743 77 77 744 79 79 745 276 282 746 277 283 747 278 284 748 279 285 749 278 284 750 280 286 751 279 285 752 279 285 753 280 286 754 281 287 755 281 287 756 280 286 757 282 288 758 280 286 759 283 289 760 282 288 761 283 289 762 284 290 763 282 288 764 282 288 765 284 290 766 285 291 767 271 277 768 273 279 769 286 292 770 286 292 771 273 279 772 287 293 773 287 293 774 273 279 775 288 294 776 273 279 777 289 295 778 288 294 779 288 294 780 289 295 781 290 296 782 266 297 783 292 298 784 291 299 785 291 299 786 292 298 787 293 300 788 293 300 789 292 298 790 269 275 791 292 298 792 268 274 793 269 275 794 294 301 795 295 302 796 296 303 797 295 302 798 297 304 799 296 303 800 297 304 801 298 305 802 296 303 803 296 303 804 298 305 805 299 306 806 298 305 807 300 307 808 299 306 809 299 306 810 300 307 811 301 308 812 300 307 813 302 309 814 301 308 815 301 308 816 302 309 817 303 310 818 302 309 819 304 311 820 303 310 821 303 310 822 304 311 823 305 312 824 305 312 825 304 311 826 306 313 827 306 313 828 304 311 829 307 314 830 304 311 831 308 315 832 307 314 833 308 315 834 208 316 835 307 314 836 307 314 837 208 316 838 106 317 839 297 304 840 295 302 841 309 318 842 309 318 843 295 302 844 305 312 845 295 302 846 310 319 847 305 312 848 305 312 849 310 319 850 303 310 851 296 303 852 299 306 853 310 320 854 310 320 855 299 306 856 301 308 857 311 321 858 313 322 859 312 323 860 312 323 861 313 322 862 314 324 863 313 322 864 315 325 865 314 324 866 314 324 867 315 325 868 105 326 869 291 299 870 293 300 871 316 327 872 316 327 873 293 300 874 317 328 875 317 328 876 293 300 877 318 329 878 293 300 879 319 330 880 318 329 881 319 330 882 320 331 883 318 329 884 318 329 885 320 331 886 321 332 887 321 332 888 320 331 889 322 333 890 320 331 891 186 190 892 322 333 893 186 190 894 188 192 895 322 333 896 322 333 897 188 192 898 323 334 899 323 334 900 188 192 901 324 335 902 188 192 903 325 336 904 324 335 905 326 337 906 327 337 907 328 337 908 327 338 909 329 338 910 328 338 911 329 339 912 330 339 913 328 339 914 330 340 915 331 340 916 328 340 917 331 341 918 332 341 919 328 341 920 332 342 921 333 342 922 328 342 923 328 343 924 333 343 925 326 343 926 334 344 927 336 345 928 335 346 929 335 346 930 336 345 931 337 347 932 336 345 933 338 348 934 337 347 935 339 349 936 340 350 937 341 351 938 340 350 939 342 352 940 341 351 941 342 352 942 343 353 943 341 351 944 341 351 945 343 353 946 344 354 947 343 353 948 345 355 949 344 354 950 344 354 951 345 355 952 242 356 953 346 357 954 348 358 955 347 359 956 349 360 957 350 361 958 351 362 959 49 48 960 352 363 961 51 51 962 353 364 963 205 209 964 354 365 965 205 209 966 206 211 967 354 365 968 354 365 969 206 211 970 355 366 971 303 310 972 356 367 973 301 308 974 110 109 975 306 368 976 108 107 977</p>
        </triangles>
      </mesh>
    </geometry>
  </library_geometries>
  <library_controllers>
    <controller id="Armature_gun_base-skin" name="Armature">
      <skin source="#gun_base-mesh">
        <bind_shape_matrix>1 0 0 0 0 1 0 0 0 0 1 0 0 0 0 1</bind_shape_matrix>
        <source id="Armature_gun_base-skin-joints">
          <Name_array id="Armature_gun_base-skin-joints-array" count="1">machinegun_turret_tripod_mp</Name_array>
          <technique_common>
            <accessor source="#Armature_gun_base-skin-joints-array" count="1" stride="1">
              <param name="JOINT" type="name"/>
            </accessor>
          </technique_common>
        </source>
        <source id="Armature_gun_base-skin-bind_poses">
          <float_array id="Armature_gun_base-skin-bind_poses-array" count="16">1 0 0 0 0 1 0 0 0 0 1 0 0 0 0 1</float_array>
          <technique_common>
            <accessor source="#Armature_gun_base-skin-bind_poses-array" count="1" stride="16">
              <param name="TRANSFORM" type="float4x4"/>
            </accessor>
          </technique_common>
        </source>
        <source id="Armature_gun_base-skin-weights">
          <float_array id="Armature_gun_base-skin-weights-array" count="357">1 1 1 1 1 1 1 1 1 1 1 1 1 1 1 1 1 1 1 1 1 1 1 1 1 1 1 1 1 1 1 1 1 1 1 1 1 1 1 1 1 1 1 1 1 1 1 1 1 1 1 1 1 1 1 1 1 1 1 1 1 1 1 1 1 1 1 1 1 1 1 1 1 1 1 1 1 1 1 1 1 1 1 1 1 1 1 1 1 1 1 1 1 1 1 1 1 1 1 1 1 1 1 1 1 1 1 1 1 1 1 1 1 1 1 1 1 1 1 1 1 1 1 1 1 1 1 1 1 1 1 1 1 1 1 1 1 1 1 1 1 1 1 1 1 1 1 1 1 1 1 1 1 1 1 1 1 1 1 1 1 1 1 1 1 1 1 1 1 1 1 1 1 1 1 1 1 1 1 1 1 1 1 1 1 1 1 1 1 1 1 1 1 1 1 1 1 1 1 1 1 1 1 1 1 1 1 1 1 1 1 1 1 1 1 1 1 1 1 1 1 1 1 1 1 1 1 1 1 1 1 1 1 1 1 1 1 1 1 1 1 1 1 1 1 1 1 1 1 1 1 1 1 1 1 1 1 1 1 1 1 1 1 1 1 1 1 1 1 1 1 1 1 1 1 1 1 1 1 1 1 1 1 1 1 1 1 1 1 1 1 1 1 1 1 1 1 1 1 1 1 1 1 1 1 1 1 1 1 1 1 1 1 1 1 1 1 1 1 1 1 1 1 1 1 1 1 1 1 1 1 1 1 1 1 1 1 1 1 1 1 1 1 1 1 1 1 1 1 1 1 1 1 1 1 1 1</float_array>
          <technique_common>
            <accessor source="#Armature_gun_base-skin-weights-array" count="357" stride="1">
              <param name="WEIGHT" type="float"/>
            </accessor>
          </technique_common>
        </source>
        <joints>
          <input semantic="JOINT" source="#Armature_gun_base-skin-joints"/>
          <input semantic="INV_BIND_MATRIX" source="#Armature_gun_base-skin-bind_poses"/>
        </joints>
        <vertex_weights count="357">
          <input semantic="JOINT" source="#Armature_gun_base-skin-joints" offset="0"/>
          <input semantic="WEIGHT" source="#Armature_gun_base-skin-weights" offset="1"/>
          <vcount>1 1 1 1 1 1 1 1 1 1 1 1 1 1 1 1 1 1 1 1 1 1 1 1 1 1 1 1 1 1 1 1 1 1 1 1 1 1 1 1 1 1 1 1 1 1 1 1 1 1 1 1 1 1 1 1 1 1 1 1 1 1 1 1 1 1 1 1 1 1 1 1 1 1 1 1 1 1 1 1 1 1 1 1 1 1 1 1 1 1 1 1 1 1 1 1 1 1 1 1 1 1 1 1 1 1 1 1 1 1 1 1 1 1 1 1 1 1 1 1 1 1 1 1 1 1 1 1 1 1 1 1 1 1 1 1 1 1 1 1 1 1 1 1 1 1 1 1 1 1 1 1 1 1 1 1 1 1 1 1 1 1 1 1 1 1 1 1 1 1 1 1 1 1 1 1 1 1 1 1 1 1 1 1 1 1 1 1 1 1 1 1 1 1 1 1 1 1 1 1 1 1 1 1 1 1 1 1 1 1 1 1 1 1 1 1 1 1 1 1 1 1 1 1 1 1 1 1 1 1 1 1 1 1 1 1 1 1 1 1 1 1 1 1 1 1 1 1 1 1 1 1 1 1 1 1 1 1 1 1 1 1 1 1 1 1 1 1 1 1 1 1 1 1 1 1 1 1 1 1 1 1 1 1 1 1 1 1 1 1 1 1 1 1 1 1 1 1 1 1 1 1 1 1 1 1 1 1 1 1 1 1 1 1 1 1 1 1 1 1 1 1 1 1 1 1 1 1 1 1 1 1 1 1 1 1 1 1 1 1 1 1 1 1 1 1 1 1 1 1 1 1 1 1 1 1 1 </vcount>
          <v>0 0 0 1 0 2 0 3 0 4 0 5 0 6 0 7 0 8 0 9 0 10 0 11 0 12 0 13 0 14 0 15 0 16 0 17 0 18 0 19 0 20 0 21 0 22 0 23 0 24 0 25 0 26 0 27 0 28 0 29 0 30 0 31 0 32 0 33 0 34 0 35 0 36 0 37 0 38 0 39 0 40 0 41 0 42 0 43 0 44 0 45 0 46 0 47 0 48 0 49 0 50 0 51 0 52 0 53 0 54 0 55 0 56 0 57 0 58 0 59 0 60 0 61 0 62 0 63 0 64 0 65 0 66 0 67 0 68 0 69 0 70 0 71 0 72 0 73 0 74 0 75 0 76 0 77 0 78 0 79 0 80 0 81 0 82 0 83 0 84 0 85 0 86 0 87 0 88 0 89 0 90 0 91 0 92 0 93 0 94 0 95 0 96 0 97 0 98 0 99 0 100 0 101 0 102 0 103 0 104 0 105 0 106 0 107 0 108 0 109 0 110 0 111 0 112 0 113 0 114 0 115 0 116 0 117 0 118 0 119 0 120 0 121 0 122 0 123 0 124 0 125 0 126 0 127 0 128 0 129 0 130 0 131 0 132 0 133 0 134 0 135 0 136 0 137 0 138 0 139 0 140 0 141 0 142 0 143 0 144 0 145 0 146 0 147 0 148 0 149 0 150 0 151 0 152 0 153 0 154 0 155 0 156 0 157 0 158 0 159 0 160 0 161 0 162 0 163 0 164 0 165 0 166 0 167 0 168 0 169 0 170 0 171 0 172 0 173 0 174 0 175 0 176 0 177 0 178 0 179 0 180 0 181 0 182 0 183 0 184 0 185 0 186 0 187 0 188 0 189 0 190 0 191 0 192 0 193 0 194 0 195 0 196 0 197 0 198 0 199 0 200 0 201 0 202 0 203 0 204 0 205 0 206 0 207 0 208 0 209 0 210 0 211 0 212 0 213 0 214 0 215 0 216 0 217 0 218 0 219 0 220 0 221 0 222 0 223 0 224 0 225 0 226 0 227 0 228 0 229 0 230 0 231 0 232 0 233 0 234 0 235 0 236 0 237 0 238 0 239 0 240 0 241 0 242 0 243 0 244 0 245 0 246 0 247 0 248 0 249 0 250 0 251 0 252 0 253 0 254 0 255 0 256 0 257 0 258 0 259 0 260 0 261 0 262 0 263 0 264 0 265 0 266 0 267 0 268 0 269 0 270 0 271 0 272 0 273 0 274 0 275 0 276 0 277 0 278 0 279 0 280 0 281 0 282 0 283 0 284 0 285 0 286 0 287 0 288 0 289 0 290 0 291 0 292 0 293 0 294 0 295 0 296 0 297 0 298 0 299 0 300 0 301 0 302 0 303 0 304 0 305 0 306 0 307 0 308 0 309 0 310 0 311 0 312 0 313 0 314 0 315 0 316 0 317 0 318 0 319 0 320 0 321 0 322 0 323 0 324 0 325 0 326 0 327 0 328 0 329 0 330 0 331 0 332 0 333 0 334 0 335 0 336 0 337 0 338 0 339 0 340 0 341 0 342 0 343 0 344 0 345 0 346 0 347 0 348 0 349 0 350 0 351 0 352 0 353 0 354 0 355 0 356</v>
        </vertex_weights>
      </skin>
    </controller>
  </library_controllers>
  <library_visual_scenes>
    <visual_scene id="Scene" name="Scene">
      <node id="Armature" name="Armature" type="NODE">
        <matrix sid="transform">1 0 0 0 0 1 0 0 0 0 1 0 0 0 0 1</matrix>
        <node id="Armature_machinegun_turret_tripod_mp" name="machinegun_turret_tripod_mp" sid="machinegun_turret_tripod_mp" type="JOINT">
          <matrix sid="transform">1 0 0 0 0 1 0 0 0 0 1 0 0 0 0 1</matrix>
          <extra>
            <technique profile="blender">
              <tip_x sid="tip_x" type="float">0</tip_x>
              <tip_y sid="tip_y" type="float">100</tip_y>
              <tip_z sid="tip_z" type="float">0</tip_z>
            </technique>
          </extra>
        </node>
        <node id="gun_base" name="gun:base" type="NODE">
          <matrix sid="transform">1 0 0 0 0 1 0 0 0 0 1 0 0 0 0 1</matrix>
          <instance_controller url="#Armature_gun_base-skin">
            <skeleton>#Armature_machinegun_turret_tripod_mp</skeleton>
            <bind_material>
              <technique_common>
                <instance_material symbol="h_turret_mp_tripod-material" target="#h_turret_mp_tripod-material">
                  <bind_vertex_input semantic="meshId2-tex0" input_semantic="TEXCOORD" input_set="0"/>
                </instance_material>
              </technique_common>
            </bind_material>
          </instance_controller>
        </node>
      </node>
    </visual_scene>
  </library_visual_scenes>
  <scene>
    <instance_visual_scene url="#Scene"/>
  </scene>
</COLLADA>